<svg width="242" height="234" viewBox="0 0 242 234" fill="none" xmlns="http://www.w3.org/2000/svg">
<g clip-path="url(#clip0_795_7069)">
<rect width="242" height="234" fill="#FF87B3"/>
<path d="M187.088 143.035L187.214 145.221H132.953V142.51L187.088 143.035Z" fill="#F3D9E3" stroke="black" stroke-width="0.542767"/>
<path d="M166.877 53.7651L182.617 29.8833L173.933 52.6795L211.927 48.3374L185.331 53.2223L210.841 65.1632L179.904 54.8506L155.479 59.6182L152.005 60.2962L149.893 60.7085L109.095 68.672L104.459 69.577L101.528 70.1492L97.5054 70.9343L92.9867 71.8163L86.2808 73.1253L51.6311 79.8888L46.3827 80.9132L41.9575 81.777L37.0015 82.7444L26.8431 84.7273L19.7871 86.1045L-6.00006 90.283V74L21.5196 71.1703L35.1688 69.536L39.3268 69.0381L43.6689 68.5182L47.0235 68.1165L52.7842 67.4267L95.1585 62.3527L102.367 61.4895L106.087 61.0441L111.827 60.3568L150.203 55.7616L152.222 55.5198L154.707 55.2223L166.877 53.7651Z" fill="#F1D6E0"/>
<path d="M111.827 60.3568L109.095 68.672M111.827 60.3568L106.087 61.0441M111.827 60.3568L150.203 55.7616M109.095 68.672L104.459 69.577M109.095 68.672L149.893 60.7085M106.087 61.0441L104.459 69.577M106.087 61.0441L102.367 61.4895M104.459 69.577L101.528 70.1492M102.367 61.4895L101.528 70.1492M102.367 61.4895L95.1585 62.3527M101.528 70.1492L97.5054 70.9343M97.5054 70.9343L99.0312 64.6204L92.9867 71.8163M97.5054 70.9343L92.9867 71.8163M92.9867 71.8163L86.2808 73.1253M95.1585 62.3527L86.2808 73.1253M95.1585 62.3527L52.7842 67.4267M86.2808 73.1253L51.6311 79.8888M52.7842 67.4267L51.6311 79.8888M52.7842 67.4267L47.0235 68.1165M51.6311 79.8888L46.3827 80.9132M47.0235 68.1165L46.3827 80.9132M47.0235 68.1165L43.6689 68.5182M46.3827 80.9132L41.9575 81.777M43.6689 68.5182L41.9575 81.777M43.6689 68.5182L39.3268 69.0381M41.9575 81.777L37.0015 82.7444M39.3268 69.0381L37.0015 82.7444M39.3268 69.0381L35.1688 69.536M37.0015 82.7444L26.8431 84.7273M35.1688 69.536L26.8431 84.7273M35.1688 69.536L21.5196 71.1703M26.8431 84.7273L19.7871 86.1045M21.5196 71.1703L-6.00006 74V90.283L19.7871 86.1045M21.5196 71.1703L19.7871 86.1045M154.707 55.2223L166.877 53.7651L182.617 29.8833L173.933 52.6795L211.927 48.3374L185.331 53.2223L210.841 65.1632L179.904 54.8506L155.479 59.6182M154.707 55.2223L155.479 59.6182M154.707 55.2223L152.222 55.5198M155.479 59.6182L152.005 60.2962M152.222 55.5198L152.005 60.2962M152.222 55.5198L150.203 55.7616M152.005 60.2962L149.893 60.7085M150.203 55.7616L149.893 60.7085" stroke="black" stroke-width="1.08553"/>
<path d="M131.596 95.5581V58.1072H133.767V95.5581H131.596Z" fill="#FF183F" stroke="black" stroke-width="1.08553"/>
<path d="M137.567 62.992L138.653 57.5643H136.482L134.854 63.5348L137.567 62.992Z" fill="#FF183F" stroke="black" stroke-width="1.08553"/>
<path d="M182.618 4C187.84 8.626 195.143 20.2228 182.791 29.7508C185.548 27.6666 189.96 25.5059 194.558 25.5357C195.928 25.5445 197.315 25.7478 198.679 26.2055C199.762 26.5688 200.832 27.0925 201.867 27.8066C202.649 28.3453 203.411 28.9924 204.146 29.7607C204.787 30.4303 205.407 31.192 206 32.0543C206.756 33.1519 207.469 34.4125 208.128 35.8537C202.519 40.0149 189.566 44.6465 182.618 29.8832C180.178 28.0422 177.251 24.5422 176.393 20.0222C176.139 18.6885 176.066 17.2661 176.238 15.7713C176.379 14.5501 176.684 13.2807 177.189 11.9719C177.517 11.1192 177.931 10.2498 178.439 9.36621C178.923 8.52405 179.494 7.66897 180.159 6.8031C180.868 5.88012 181.684 4.94489 182.618 4Z" fill="#F2AF00"/>
<path d="M182.618 29.8832C195.21 20.3305 187.865 8.64745 182.618 4M182.618 29.8832C189.566 44.6465 202.519 40.0149 208.128 35.8537M182.618 29.8832L182.617 25.5411M182.618 29.8832C180.178 28.0422 177.251 24.5422 176.393 20.0222M182.618 29.8832L186.648 30.8265M182.618 29.8832C185.361 27.7592 189.862 25.5053 194.558 25.5357M182.618 4L182.617 9.25806M182.618 4C181.684 4.94489 180.868 5.88012 180.159 6.8031M208.128 35.8537L202.7 34.5833M208.128 35.8537C207.469 34.4125 206.756 33.1519 206 32.0543M182.617 9.25806L180.159 6.8031M182.617 9.25806L182.618 13.4815M180.159 6.8031C179.494 7.66897 178.923 8.52405 178.439 9.36621M182.618 13.4815L178.439 9.36621M182.618 13.4815L182.617 17.3996M178.439 9.36621C177.931 10.2498 177.517 11.1192 177.189 11.9719M182.617 17.3996L177.189 11.9719M182.617 17.3996L182.618 21.7417M177.189 11.9719C176.684 13.2807 176.379 14.5501 176.238 15.7713M182.618 21.7417L176.238 15.7713M182.618 21.7417L182.617 25.5411M176.238 15.7713C176.066 17.2661 176.139 18.6885 176.393 20.0222M182.617 25.5411L176.393 20.0222M202.7 34.5833L206 32.0543M202.7 34.5833L194.776 32.7287M206 32.0543C205.407 31.192 204.787 30.4303 204.146 29.7607M198.9 33.6826L204.146 29.7607M204.146 29.7607C203.411 28.9924 202.649 28.3453 201.867 27.8066M194.776 32.7287L201.867 27.8066M194.776 32.7287L190.678 31.7697M201.867 27.8066C200.832 27.0925 199.762 26.5688 198.679 26.2055M190.678 31.7697L198.679 26.2055M190.678 31.7697L186.648 30.8265M198.679 26.2055C197.315 25.7478 195.928 25.5445 194.558 25.5357M186.648 30.8265L194.558 25.5357" stroke="black" stroke-width="1.08553"/>
<path d="M236.631 71.2786C230.901 75.2586 217.905 79.61 211.57 65.3549C212.943 68.527 213.998 73.3246 212.882 77.7855C212.549 79.1145 212.023 80.4135 211.256 81.6309C210.647 82.5974 209.885 83.5124 208.946 84.3498C208.238 84.9817 207.429 85.5694 206.508 86.1018C205.706 86.5659 204.819 86.9879 203.841 87.3606C202.596 87.835 201.203 88.2294 199.646 88.5286C196.93 82.095 195.494 68.4134 211.482 65.1554C213.848 63.2206 217.941 61.2046 222.536 61.4396C223.892 61.509 225.291 61.7743 226.703 62.2955C227.856 62.7212 229.017 63.3177 230.17 64.1176C230.92 64.6387 231.667 65.2461 232.405 65.9489C233.109 66.6188 233.805 67.3752 234.489 68.2261C235.218 69.1331 235.934 70.1475 236.631 71.2786Z" fill="#F2AF00"/>
<path d="M211.482 65.1554C217.785 79.6504 230.874 75.2771 236.631 71.2786M211.482 65.1554C195.494 68.4134 196.93 82.095 199.646 88.5286M211.482 65.1554L215.701 66.1823M211.482 65.1554C213.848 63.2206 217.941 61.2046 222.536 61.4396M211.482 65.1554L209.612 68.8481M211.482 65.1554C212.897 68.3235 214.022 73.2301 212.882 77.7855M236.631 71.2786L231.522 70.0343M236.631 71.2786C235.934 70.1475 235.218 69.1331 234.489 68.2261M199.646 88.5286L202.165 83.5555M199.646 88.5286C201.203 88.2294 202.596 87.835 203.841 87.3606M231.522 70.0343L234.489 68.2261M231.522 70.0343L227.418 69.0353M234.489 68.2261C233.805 67.3752 233.109 66.6188 232.405 65.9489M227.418 69.0353L232.405 65.9489M227.418 69.0353L223.612 68.1083M232.405 65.9489C231.667 65.2461 230.92 64.6387 230.17 64.1176M223.612 68.1083L230.17 64.1176M223.612 68.1083L219.393 67.0812M230.17 64.1176C229.017 63.3177 227.856 62.7212 226.703 62.2955M219.393 67.0812L226.703 62.2955M219.393 67.0812L215.701 66.1823M226.703 62.2955C225.291 61.7743 223.892 61.509 222.536 61.4396M215.701 66.1823L222.536 61.4396M202.165 83.5555L203.841 87.3606M202.165 83.5555L205.841 76.2951M203.841 87.3606C204.819 86.9879 205.706 86.5659 206.508 86.1018M203.939 80.0771L206.508 86.1018M206.508 86.1018C207.429 85.5694 208.238 84.9817 208.946 84.3498M205.841 76.2951L208.946 84.3498M205.841 76.2951L207.742 72.5408M208.946 84.3498C209.885 83.5124 210.647 82.5974 211.256 81.6309M207.742 72.5408L211.256 81.6309M207.742 72.5408L209.612 68.8481M211.256 81.6309C212.023 80.4135 212.549 79.1145 212.882 77.7855M209.612 68.8481L212.882 77.7855" stroke="black" stroke-width="1.08553"/>
<path d="M113.686 67.877C114.047 66.7915 114.771 64.0776 116.942 64.0776C118.57 64.0776 119.837 65.525 120.199 66.2487" stroke="black" stroke-width="1.08553"/>
<circle cx="2.95993" cy="77.6468" r="2.17107" stroke="black" stroke-width="1.08553"/>
<circle cx="58.3248" cy="72.219" r="3.2566" stroke="black" stroke-width="1.08553"/>
<path d="M103.373 98.3588L105.002 95.5581H114.229H130.512H134.311H149.509H153.308H159.278L157.856 98.055L155.567 102.071L145.454 119.822L142.453 125.089L139.739 129.852L137.94 133.009L135.775 136.808L134.183 139.604L132.683 142.236V146.035H135.775L135.939 221.717C136.997 221.007 138.263 220.642 139.739 220.937C144.081 221.806 145.89 225.641 146.252 227.451C146.614 224.918 148.532 220.069 153.308 220.937C158.084 221.806 159.64 225.641 159.821 227.451C160.002 225.28 161.558 220.937 166.334 220.937C171.111 220.937 173.029 225.28 173.39 227.451C173.707 225.099 175.494 220.503 180.107 220.937C181.301 221.05 182.312 221.407 183.16 221.909V146.035H186.96V227.451V230.707H77.8633V227.451V142.236L79.66 139.146L81.4568 136.055L83.4683 132.595L87.9613 124.868C87.9704 124.821 88.002 124.764 88.0609 124.696L91.4325 118.897L101.328 101.876L103.373 98.3588Z" fill="#F3D9E3"/>
<path d="M77.8633 142.236L79.66 139.146M77.8633 142.236H84.3765M77.8633 142.236V227.451M77.8633 142.236C78.1164 143.502 79.0781 145.76 81.1199 147.299M132.683 142.236H126.17M132.683 142.236L134.183 139.604M132.683 142.236C132.14 144.95 129.969 150.161 125.627 149.292C121.285 148.424 119.475 144.226 119.114 142.236M132.683 142.236V146.035M103.373 98.3588L105.002 95.5581H114.229M103.373 98.3588C104.278 98.5108 106.521 98.5976 108.258 97.7292C110.429 96.6436 112.058 95.5581 114.229 95.5581M103.373 98.3588L101.328 101.876M114.229 95.5581C116.4 96.6436 121.285 98.7062 123.456 98.2719C126.17 97.7292 128.883 95.5581 130.512 95.5581M114.229 95.5581H130.512M130.512 95.5581H134.311M134.311 95.5581C135.939 96.6436 139.522 98.8147 140.824 98.8147C142.453 98.8147 146.252 95.5581 149.509 95.5581M134.311 95.5581H149.509M149.509 95.5581H153.308M153.308 95.5581H159.278L157.856 98.055M153.308 95.5581C153.988 96.3181 155.849 97.8815 157.856 98.055M157.856 98.055L155.567 102.071M101.328 101.876C102.553 102.484 105.762 103.374 108.801 102.071C112.6 100.443 114.771 99.3575 118.571 101.529C122.37 103.7 128.341 102.071 129.969 100.443C131.272 99.1404 134.13 99.9002 135.397 100.443C137.025 101.348 140.824 103.048 142.995 102.614C145.709 102.071 147.88 99.9002 150.051 99.9002C151.788 99.9002 154.452 101.348 155.567 102.071M101.328 101.876L91.4325 118.897M155.567 102.071L145.454 119.822M91.4325 118.897C92.8798 118.354 96.4259 117.486 99.0312 118.354C102.288 119.44 103.373 121.611 106.63 120.525C109.887 119.44 111.515 116.726 114.771 117.812C118.028 118.897 120.199 121.068 122.913 120.525C125.627 119.983 129.426 116.726 133.226 117.812C137.025 118.897 143.027 121.832 145.454 119.822M91.4325 118.897L87.9613 124.868M145.454 119.822L142.453 125.089M87.9613 124.868C88.0328 124.506 89.4785 123.456 94.6891 122.154C101.202 120.525 101.745 125.953 106.087 124.868C110.429 123.782 113.686 120.525 119.656 124.325C125.627 128.124 128.341 120.525 133.768 122.154C139.196 123.782 140.282 126.396 142.453 125.089M87.9613 124.868L83.4683 132.595M142.453 125.089L139.739 129.852M85.462 129.21C86.5476 129.572 89.8042 129.535 94.1463 126.496C99.574 122.696 100.66 132.466 108.258 128.667C115.857 124.868 119.114 128.667 123.999 129.21C128.883 129.752 129.426 125.953 133.768 126.496C137.242 126.93 139.196 128.914 139.739 129.852M139.739 129.852L137.94 133.009M83.4683 132.595C83.952 133.276 86.3305 134.095 91.9752 131.924C99.0312 129.21 99.0312 133.552 103.916 133.552C108.801 133.552 110.429 130.838 114.771 130.838C119.114 130.838 120.199 134.637 125.627 133.009C131.054 131.381 134.513 129.752 137.94 133.009M83.4683 132.595L81.4568 136.055M137.94 133.009L135.775 136.808M81.4568 136.055C82.611 137.211 85.7877 139.088 89.2614 137.351C93.6035 135.18 95.7746 135.18 100.66 136.808C105.544 138.437 109.344 136.808 114.229 135.18C119.114 133.552 120.742 140.608 128.883 136.266C134.094 134.095 135.649 135.723 135.775 136.808M81.4568 136.055L79.66 139.146M135.775 136.808L134.183 139.604M79.66 139.146C80.5085 139.995 82.6396 141.802 84.3765 142.236M84.3765 142.236H89.8042M89.8042 142.236C90.8897 141.331 93.8206 139.522 96.8601 139.522C99.8996 139.522 102.469 141.331 103.373 142.236M89.8042 142.236H91.9752M103.373 142.236H105.002M103.373 142.236H91.9752M108.258 142.236C108.801 141.151 110.864 139.088 114.771 139.522C119.656 140.065 119.656 142.236 121.285 142.236M108.258 142.236H119.114M108.258 142.236H105.002M121.285 142.236H126.17M121.285 142.236H119.114M126.17 142.236C127.35 141.205 130.606 139.235 134.183 139.604M119.114 142.236C118.209 144.769 115.531 149.726 112.058 149.292C108.584 148.858 105.906 144.407 105.002 142.236M105.002 142.236C104.459 144.588 102.396 149.184 98.4884 148.749C94.5805 148.315 92.518 144.226 91.9752 142.236M91.9752 142.236C91.2515 144.769 88.7186 149.618 84.3765 148.749C83.0722 148.488 81.9965 147.96 81.1199 147.299M186.96 227.451V230.707H77.8633V227.451M186.96 227.451H173.39M186.96 227.451V146.035H183.16V221.909M186.96 227.451C186.691 225.975 185.591 223.347 183.16 221.909M77.8633 227.451H91.4325M77.8633 227.451C78.2283 225.869 79.2808 223.272 81.1199 221.873M91.4325 227.451C90.7088 225.46 88.2844 221.372 84.3765 220.937C83.0969 220.795 82.0152 221.192 81.1199 221.873M91.4325 227.451C91.9752 225.28 94.1463 220.937 98.4884 220.937C102.831 220.937 104.64 225.28 105.002 227.451M91.4325 227.451H105.002M105.002 227.451C105.544 225.28 107.607 220.937 111.515 220.937C115.423 220.937 117.847 225.28 118.571 227.451M105.002 227.451H118.571M118.571 227.451C118.933 225.28 120.742 220.937 125.084 220.937C129.426 220.937 131.597 225.28 132.14 227.451M118.571 227.451H132.14M132.14 227.451H146.252M132.14 227.451C132.266 227.009 132.447 226.498 132.683 225.959M146.252 227.451C145.89 225.641 144.081 221.806 139.739 220.937C138.263 220.642 136.997 221.007 135.939 221.717M146.252 227.451C146.614 224.918 148.532 220.069 153.308 220.937C158.084 221.806 159.64 225.641 159.821 227.451M146.252 227.451H159.821M159.821 227.451C160.002 225.28 161.558 220.937 166.334 220.937C171.111 220.937 173.028 225.28 173.39 227.451M159.821 227.451H173.39M173.39 227.451C173.707 225.099 175.494 220.503 180.107 220.937C181.301 221.05 182.312 221.407 183.16 221.909M81.1199 221.873V147.299M132.683 225.959C133.341 224.454 134.426 222.733 135.939 221.717M132.683 225.959V146.035M135.939 221.717L135.775 146.035H132.683" stroke="black" stroke-width="1.08553"/>
<path d="M182.778 146.035H136.289C135.685 146.035 135.198 146.527 135.203 147.131L135.93 226.375C135.935 226.971 136.42 227.451 137.015 227.451H182.084C182.68 227.451 183.165 226.97 183.17 226.374L183.863 147.13C183.869 146.527 183.381 146.035 182.778 146.035Z" fill="#A63228" stroke="black" stroke-width="1.08553"/>
<path d="M183.705 199.77L188.59 204.655M188.047 199.77L193.475 204.655" stroke="black" stroke-width="1.08553"/>
<path d="M192.389 171.003V172.631L183.705 199.227C200.205 200.095 203.607 189.457 203.245 184.029V171.003H192.389Z" fill="#FF1D43" stroke="black" stroke-width="1.08553"/>
<path d="M198.359 172.631C198.359 173.536 198.576 175.345 199.445 175.345C200.313 175.345 200.53 173.536 200.53 172.631" stroke="black" stroke-width="1.08553"/>
<path d="M166.877 199.227C175.199 200.674 190.976 199.77 196.186 184.572L166.877 199.227Z" fill="black" stroke="black" stroke-width="1.08553"/>
<path d="M165.793 199.227L192.389 172.631C193.249 173.604 193.968 174.549 194.56 175.465C195.268 176.561 195.794 177.616 196.162 178.628C196.722 180.168 196.916 181.608 196.832 182.944C196.482 188.511 191.289 192.261 187.504 193.799C186.047 194.391 184.637 194.934 183.279 195.427C181.317 196.141 179.464 196.753 177.734 197.265C175.383 197.961 173.261 198.473 171.404 198.806C169.102 199.218 167.209 199.356 165.793 199.227Z" fill="#E20025"/>
<path d="M194.56 175.465C193.968 174.549 193.249 173.604 192.389 172.631L165.793 199.227C167.209 199.356 169.102 199.218 171.404 198.806M194.56 175.465L171.404 198.806M194.56 175.465C196.345 178.229 196.972 180.73 196.832 182.944M171.404 198.806C173.261 198.473 175.383 197.961 177.734 197.265M196.188 178.602L177.734 197.265M177.734 197.265C179.464 196.753 181.317 196.141 183.279 195.427M196.832 182.944C196.482 188.511 191.289 192.261 187.504 193.799C186.047 194.391 184.637 194.934 183.279 195.427M196.832 182.944L183.279 195.427" stroke="black" stroke-width="1.08553"/>
<path d="M208.212 173.717H203.244V176.431L208.261 173.922C208.363 173.871 208.327 173.717 208.212 173.717Z" fill="black" stroke="black" stroke-width="1.08553"/>
<path d="M131.597 142.236H82.2047C81.6052 142.236 81.1191 142.722 81.1191 143.322V226.365C81.1191 226.965 81.6051 227.451 82.2047 227.451H131.597C132.196 227.451 132.682 226.965 132.682 226.365V143.322C132.682 142.722 132.196 142.236 131.597 142.236Z" fill="#040404" stroke="black" stroke-width="1.08553"/>
<path d="M77.8633 142.236H84.3765H89.8042H91.9752H103.373H105.002H108.258H119.114H121.285H126.17H132.683C132.14 144.95 129.969 150.16 125.627 149.292C121.285 148.424 119.475 144.226 119.114 142.236C118.209 144.769 115.531 149.726 112.058 149.292C108.584 148.858 105.906 144.407 105.002 142.236C104.459 144.588 102.396 149.184 98.4884 148.749C94.5805 148.315 92.518 144.226 91.9752 142.236C91.2515 144.769 88.7186 149.618 84.3765 148.749C83.0722 148.488 81.9965 147.96 81.1199 147.299V221.873C82.0152 221.192 83.0969 220.795 84.3765 220.937C88.2844 221.372 90.7088 225.46 91.4325 227.451C91.9752 225.279 94.1463 220.937 98.4884 220.937C102.831 220.937 104.64 225.279 105.002 227.451C105.544 225.279 107.607 220.937 111.515 220.937C115.423 220.937 117.847 225.279 118.571 227.451C118.933 225.279 120.742 220.937 125.084 220.937C129.426 220.937 131.597 225.279 132.14 227.451C132.266 227.009 132.447 226.498 132.683 225.959C133.341 224.454 134.426 222.733 135.939 221.717C136.997 221.007 138.263 220.642 139.739 220.937C144.081 221.806 145.89 225.641 146.252 227.451C146.614 224.918 148.532 220.069 153.308 220.937C158.084 221.806 159.64 225.641 159.821 227.451C160.002 225.279 161.558 220.937 166.334 220.937C171.111 220.937 173.029 225.279 173.39 227.451C173.707 225.099 175.494 220.503 180.107 220.937C181.301 221.05 182.312 221.407 183.16 221.909C185.591 223.347 186.691 225.975 186.96 227.451H173.39H159.821H146.252H132.14H118.571H105.002H91.4325H77.8633C78.2283 225.869 79.2808 223.272 81.1199 221.873V147.299C79.0781 145.76 78.1164 143.502 77.8633 142.236Z" fill="#F3D9E3"/>
<path d="M119.114 142.236H121.285H126.17H132.683C132.14 144.95 129.969 150.16 125.627 149.292C121.285 148.424 119.475 144.226 119.114 142.236ZM119.114 142.236H108.258H105.002M119.114 142.236C118.209 144.769 115.531 149.726 112.058 149.292C108.584 148.858 105.906 144.407 105.002 142.236M105.002 142.236H103.373H91.9752M105.002 142.236C104.459 144.588 102.396 149.184 98.4884 148.749C94.5805 148.315 92.518 144.226 91.9752 142.236M91.9752 142.236H89.8042H84.3765H77.8633C78.1164 143.502 79.0781 145.76 81.1199 147.299M91.9752 142.236C91.2515 144.769 88.7186 149.618 84.3765 148.749C83.0722 148.488 81.9965 147.96 81.1199 147.299M91.4325 227.451H77.8633C78.2283 225.869 79.2808 223.272 81.1199 221.873M91.4325 227.451C90.7088 225.46 88.2844 221.372 84.3765 220.937C83.0969 220.795 82.0152 221.192 81.1199 221.873M91.4325 227.451C91.9752 225.279 94.1463 220.937 98.4884 220.937C102.831 220.937 104.64 225.279 105.002 227.451M91.4325 227.451H105.002M105.002 227.451C105.544 225.279 107.607 220.937 111.515 220.937C115.423 220.937 117.847 225.279 118.571 227.451M105.002 227.451H118.571M118.571 227.451C118.933 225.279 120.742 220.937 125.084 220.937C129.426 220.937 131.597 225.279 132.14 227.451M118.571 227.451H132.14M132.14 227.451H146.252M132.14 227.451C132.266 227.009 132.447 226.498 132.683 225.959C133.341 224.454 134.426 222.733 135.939 221.717C136.997 221.007 138.263 220.642 139.739 220.937C144.081 221.806 145.89 225.641 146.252 227.451M146.252 227.451C146.614 224.918 148.532 220.069 153.308 220.937C158.084 221.806 159.64 225.641 159.821 227.451M146.252 227.451H159.821M159.821 227.451C160.002 225.279 161.558 220.937 166.334 220.937C171.111 220.937 173.028 225.279 173.39 227.451M159.821 227.451H173.39M173.39 227.451H186.96C186.691 225.975 185.591 223.347 183.16 221.909C182.312 221.407 181.301 221.05 180.107 220.937C175.494 220.503 173.707 225.099 173.39 227.451ZM81.1199 221.873V147.299" stroke="black" stroke-width="1.08553"/>
<path d="M101.328 101.876C102.553 102.484 105.761 103.374 108.801 102.071C112.6 100.443 114.771 99.3575 118.571 101.529C122.37 103.7 128.341 102.071 129.969 100.443C131.271 99.1404 134.13 99.9002 135.396 100.443C137.025 101.348 140.824 103.048 142.995 102.614C145.709 102.071 147.88 99.9002 150.051 99.9002C151.788 99.9002 154.452 101.348 155.567 102.071" stroke="black" stroke-width="1.08553"/>
<path d="M99.5723 105.328C100.797 105.936 104.548 107.893 107.588 106.59C111.387 104.962 113.558 103.876 117.358 106.047C121.157 108.218 127.127 106.59 128.756 104.962C130.058 103.659 132.917 104.419 134.183 104.962C135.812 105.866 139.611 107.567 141.782 107.133C144.496 106.59 146.667 104.419 148.838 104.419C150.575 104.419 152.734 104.604 153.849 105.328" stroke="black" stroke-width="1.08553"/>
<path d="M97.4023 108.584C98.6268 109.192 104.007 112.235 107.046 110.932C110.846 109.304 114.228 108.042 118.028 110.213C121.827 112.384 127.255 110.932 128.883 109.304C130.185 108.001 134.13 108.584 135.396 109.127C137.024 110.032 139.069 111.909 141.241 111.475C143.954 110.932 146.251 110.213 148.296 108.761C149.713 107.755 150.361 108.58 151.476 109.304" stroke="black" stroke-width="1.08553"/>
<path d="M94.6895 112.131C95.9139 112.739 102.957 117.344 106.088 116.183C110.539 114.532 111.515 111.589 115.315 113.76C119.114 115.931 126.17 116.183 127.798 114.555C129.101 113.252 132.502 112.384 133.769 112.927C135.397 113.831 136.483 114.555 138.528 115.022C138.528 115.022 142.579 116.549 144.624 115.098C146.04 114.092 148.394 112.203 149.509 112.927" stroke="black" stroke-width="1.08553"/>
<path d="M160.197 96.0923L132.682 142.236H186.416L160.197 96.0923Z" fill="#A63228" stroke="black" stroke-width="1.08553"/>
<path d="M161.448 137.63V109.67C161.448 109.07 160.962 108.584 160.362 108.584H159.277C158.677 108.584 158.191 109.07 158.191 109.67V137.54C158.191 138.104 158.624 138.575 159.187 138.621L160.272 138.712C160.905 138.765 161.448 138.265 161.448 137.63Z" fill="#F3D9E3" stroke="black" stroke-width="1.08553"/>
<path d="M153.309 106.956L159.822 96.1008L166.335 106.956C160.69 111.298 155.299 108.765 153.309 106.956Z" fill="#F3D9E3" stroke="black" stroke-width="1.08553"/>
<path d="M149.105 128.384L156.821 137.461C157.255 137.972 157.127 138.75 156.552 139.095L155.705 139.604C155.259 139.871 154.685 139.785 154.338 139.396L146.474 130.607C146.058 130.143 146.118 129.425 146.605 129.036L147.6 128.24C148.058 127.873 148.725 127.937 149.105 128.384Z" fill="#F3D9E3" stroke="black" stroke-width="1.08553"/>
<path d="M152.766 107.499C154.756 108.946 157.977 112.818 154.937 116.726C151.898 120.634 147.881 119.802 146.253 118.897C148.424 121.249 151.681 126.713 147.339 129.752C143.567 132.393 140.888 131.948 139.656 131.193C141.645 132.82 144.324 136.164 141.911 138.98C139.306 142.019 135.036 142.055 133.227 141.693L139.197 130.838L146.253 118.897L152.766 107.499Z" fill="#F3D9E3"/>
<path d="M146.253 118.897C147.881 119.802 151.898 120.634 154.937 116.726C157.977 112.818 154.756 108.946 152.766 107.499L146.253 118.897ZM146.253 118.897C148.424 121.249 151.681 126.713 147.339 129.752C142.996 132.792 140.102 131.743 139.197 130.838M146.253 118.897L139.197 130.838M139.197 130.838C141.187 132.285 144.516 135.94 141.911 138.98C139.306 142.019 135.036 142.055 133.227 141.693L139.197 130.838Z" stroke="black" stroke-width="1.08553"/>
<path d="M162.825 137.01L170.45 128.936C170.87 128.492 171.575 128.482 172.007 128.914L172.122 129.029C172.528 129.435 172.547 130.088 172.166 130.518L164.825 138.776C164.45 139.198 163.814 139.262 163.362 138.923L162.963 138.624C162.445 138.235 162.38 137.481 162.825 137.01Z" fill="#F3D9E3" stroke="black" stroke-width="1.08553"/>
<path d="M166.496 107.499C164.505 108.946 161.285 112.818 164.324 116.726C167.364 120.634 171.38 119.802 173.009 118.897C170.838 121.249 167.581 126.713 171.923 129.752C175.695 132.393 178.374 131.948 179.606 131.193C177.616 132.82 174.937 136.164 177.351 138.98C179.956 142.019 184.226 142.055 186.035 141.693L180.065 130.838L173.009 118.897L166.496 107.499Z" fill="#F3D9E3"/>
<path d="M173.009 118.897C171.38 119.802 167.364 120.634 164.324 116.726C161.285 112.818 164.505 108.946 166.496 107.499L173.009 118.897ZM173.009 118.897C170.838 121.249 167.581 126.713 171.923 129.752C176.265 132.792 179.16 131.743 180.065 130.838M173.009 118.897L180.065 130.838M180.065 130.838C178.075 132.285 174.746 135.94 177.351 138.98C179.956 142.019 184.226 142.055 186.035 141.693L180.065 130.838Z" stroke="black" stroke-width="1.08553"/>
<path d="M159.821 137.409V144.407L164.586 139.642C165.148 139.08 166.103 139.292 166.374 140.038L167.433 142.951C167.691 143.659 167.166 144.407 166.413 144.407H159.821L164.586 149.172C165.148 149.734 164.936 150.689 164.19 150.96L161.278 152.019C160.57 152.276 159.821 151.752 159.821 150.999V144.407L155.056 149.172C154.494 149.734 153.54 149.522 153.268 148.776L152.209 145.864C151.952 145.156 152.476 144.407 153.23 144.407H159.821L154.958 139.544C154.422 139.008 154.587 138.102 155.277 137.788L158.286 136.42C159.005 136.094 159.821 136.619 159.821 137.409Z" fill="#FF163E"/>
<path d="M159.821 144.407V137.409C159.821 136.619 159.005 136.094 158.286 136.42L155.277 137.788C154.587 138.102 154.422 139.008 154.958 139.544L159.821 144.407ZM159.821 144.407V150.999C159.821 151.752 160.57 152.276 161.278 152.019L164.19 150.96C164.936 150.689 165.148 149.734 164.586 149.172L159.821 144.407ZM159.821 144.407L164.586 139.642C165.148 139.08 166.103 139.292 166.374 140.038L167.433 142.951C167.691 143.659 167.166 144.407 166.413 144.407H159.821ZM159.821 144.407H153.23C152.476 144.407 151.952 145.156 152.209 145.864L153.268 148.776C153.54 149.522 154.494 149.734 155.056 149.172L159.821 144.407Z" stroke="black" stroke-width="1.08553"/>
<path d="M155.236 139.214L160.008 144.334L160.245 137.599C160.273 136.806 161.116 136.31 161.823 136.671L164.583 138.079C165.254 138.421 165.381 139.327 164.83 139.84L160.008 144.334L166.742 144.571C167.536 144.599 168.032 145.442 167.671 146.15L166.263 148.91C165.92 149.581 165.015 149.708 164.502 149.156L160.008 144.334L159.77 151.069C159.742 151.863 158.9 152.359 158.192 151.998L155.432 150.589C154.761 150.247 154.634 149.342 155.185 148.828L160.008 144.334L153.135 144.092C152.377 144.065 151.88 143.29 152.171 142.591L153.44 139.538C153.743 138.809 154.698 138.637 155.236 139.214Z" fill="#F3D9E3"/>
<path d="M160.008 144.334L155.236 139.214C154.698 138.637 153.743 138.809 153.44 139.538L152.171 142.591C151.88 143.29 152.377 144.065 153.135 144.092L160.008 144.334ZM160.008 144.334L164.502 149.156C165.015 149.708 165.92 149.581 166.263 148.91L167.671 146.15C168.032 145.442 167.536 144.599 166.742 144.571L160.008 144.334ZM160.008 144.334L160.245 137.599C160.273 136.806 161.116 136.31 161.823 136.671L164.583 138.079C165.254 138.421 165.381 139.327 164.83 139.84L160.008 144.334ZM160.008 144.334L155.185 148.828C154.634 149.342 154.761 150.247 155.432 150.589L158.192 151.998C158.9 152.359 159.742 151.863 159.77 151.069L160.008 144.334Z" stroke="black" stroke-width="1.08553"/>
<path d="M159.279 161.776C156.673 161.776 156.384 165.032 156.565 166.661H162.534C162.535 165.032 161.884 161.776 159.279 161.776Z" fill="#F3D9E3" stroke="black" stroke-width="1.08553"/>
<path d="M150.637 164.276C148.225 165.844 149.968 169.113 151.142 170.551L156.67 166.957C155.664 165.41 153.05 162.707 150.637 164.276Z" fill="#F3D9E3" stroke="black" stroke-width="1.08553"/>
<path d="M145.233 170.951C143.933 173.357 146.681 175.187 148.217 175.802L151.196 170.291C149.75 169.509 146.534 168.546 145.233 170.951Z" fill="#F3D9E3" stroke="black" stroke-width="1.08553"/>
<path d="M143.578 179.691C143.536 182.454 146.818 182.812 148.465 182.645L148.562 176.314C146.919 176.288 143.621 176.927 143.578 179.691Z" fill="#F3D9E3" stroke="black" stroke-width="1.08553"/>
<path d="M145.135 188.173C146.515 190.568 149.517 189.192 150.845 188.205L147.683 182.719C146.259 183.539 143.755 185.779 145.135 188.173Z" fill="#F3D9E3" stroke="black" stroke-width="1.08553"/>
<path d="M150.406 195.077C152.667 196.667 154.809 194.155 155.598 192.7L150.418 189.057C149.472 190.401 148.146 193.487 150.406 195.077Z" fill="#F3D9E3" stroke="black" stroke-width="1.08553"/>
<path d="M159.73 197.406C162.493 197.454 162.857 194.172 162.693 192.525L156.362 192.416C156.333 194.06 156.967 197.359 159.73 197.406Z" fill="#F3D9E3" stroke="black" stroke-width="1.08553"/>
<path d="M168.546 194.715C170.854 193.18 169.29 190.272 168.219 189.01L162.931 192.527C163.841 193.896 166.238 196.25 168.546 194.715Z" fill="#F3D9E3" stroke="black" stroke-width="1.08553"/>
<path d="M173.536 188.645C175.268 186.481 172.894 184.186 171.491 183.309L167.522 188.267C168.805 189.295 171.804 190.809 173.536 188.645Z" fill="#F3D9E3" stroke="black" stroke-width="1.08553"/>
<path d="M175.982 179.682C176.006 176.91 172.722 176.574 171.076 176.752L171.021 183.103C172.665 183.117 175.958 182.454 175.982 179.682Z" fill="#F3D9E3" stroke="black" stroke-width="1.08553"/>
<path d="M174.095 171.077C172.83 168.387 169.714 169.488 168.315 170.375L171.215 176.538C172.703 175.839 175.361 173.767 174.095 171.077Z" fill="#F3D9E3" stroke="black" stroke-width="1.08553"/>
<path d="M168.52 164.392C166.108 162.578 163.84 165.036 163.008 166.492L168.536 170.648C169.536 169.318 170.933 166.206 168.52 164.392Z" fill="#F3D9E3" stroke="black" stroke-width="1.08553"/>
<path d="M93.0619 184.029H105.003V195.97H93.0619V184.029ZM105.003 180.773H93.0619V168.832H105.003V180.773ZM108.259 195.97V184.029H120.2V195.97H108.259ZM120.2 180.773H108.259V168.832H120.2V180.773Z" stroke="#F3D9E3" stroke-width="3.2566"/>
<rect x="158.195" y="204.654" width="44.5069" height="5.42767" rx="2.71384" fill="#F6DCE6" stroke="black" stroke-width="1.08553"/>
<path d="M160.649 210.082H186.96V212.544C186.96 214.278 185.357 215.567 183.664 215.195L160.643 210.13C160.639 210.129 160.635 210.127 160.631 210.124C160.626 210.118 160.624 210.115 160.624 210.114C160.623 210.114 160.623 210.113 160.623 210.113C160.623 210.111 160.623 210.105 160.626 210.097C160.63 210.089 160.634 210.085 160.635 210.084C160.636 210.084 160.636 210.083 160.637 210.083C160.637 210.083 160.641 210.082 160.649 210.082Z" fill="black" stroke="black" stroke-width="1.08553"/>
<rect x="198.357" y="204.654" width="4.34214" height="5.42767" rx="2.17107" fill="#F3B000" stroke="black" stroke-width="1.08553"/>
<path d="M195.642 210.082V204.654H192.928V210.082H195.642Z" fill="#FF4555" stroke="black" stroke-width="1.08553"/>
<path d="M189.13 210.082V204.654H186.416V210.082H189.13Z" fill="#FF4555" stroke="black" stroke-width="1.08553"/>
<path d="M182.618 210.082V204.654H179.904V210.082H182.618Z" fill="#FF4555" stroke="black" stroke-width="1.08553"/>
<path d="M177.188 210.082V204.654H174.475V210.082H177.188Z" fill="#FF4555" stroke="black" stroke-width="1.08553"/>
<path d="M170.677 210.082V204.654H167.963V210.082H170.677Z" fill="#FF4555" stroke="black" stroke-width="1.08553"/>
<path d="M164.165 210.082V204.654H161.451V210.082H164.165Z" fill="#FF4555" stroke="black" stroke-width="1.08553"/>
<circle cx="197.816" cy="159.605" r="1.6283" fill="#F2D8E2" stroke="black" stroke-width="1.08553"/>
<path d="M196.73 162.318H198.901C201.416 162.318 203.487 164.218 203.757 166.661H191.875C192.145 164.218 194.216 162.318 196.73 162.318Z" fill="#F2AF00" stroke="black" stroke-width="1.08553"/>
<path d="M202.7 166.661V171.003H201.615V166.661H202.7ZM200.529 166.661V171.003H199.444V166.661H200.529ZM198.358 166.661V171.003H197.273V166.661H198.358ZM196.187 166.661V171.003H195.102V166.661H196.187ZM194.016 166.661V171.003H192.931V166.661H194.016ZM190.76 168.289C190.76 167.58 191.213 166.977 191.845 166.753V170.91C191.213 170.687 190.76 170.083 190.76 169.374V168.289ZM203.786 166.753C204.418 166.977 204.872 167.58 204.872 168.289V169.374C204.872 170.083 204.418 170.687 203.786 170.91V166.753Z" fill="#F2AF00" stroke="black" stroke-width="1.08553"/>
<circle cx="139.738" cy="149.292" r="0.542767" fill="black"/>
<circle cx="145.166" cy="149.292" r="0.542767" fill="black"/>
<circle cx="175.562" cy="150.378" r="0.542767" fill="black"/>
<circle cx="179.904" cy="150.378" r="0.542767" fill="black"/>
<circle cx="179.904" cy="159.062" r="0.542767" fill="black"/>
<circle cx="180.99" cy="148.207" r="0.542767" fill="black"/>
<circle cx="139.738" cy="154.72" r="0.542767" fill="black"/>
<circle cx="138.654" cy="207.911" r="0.542767" fill="black"/>
<circle cx="138.654" cy="211.168" r="0.542767" fill="black"/>
<circle cx="142.996" cy="213.339" r="0.542767" fill="black"/>
<circle cx="138.654" cy="216.595" r="0.542767" fill="black"/>
<circle cx="142.996" cy="218.766" r="0.542767" fill="black"/>
<circle cx="148.424" cy="217.681" r="0.542767" fill="black"/>
<path d="M171.22 179.687C171.22 186.949 166.054 192.713 159.822 192.713C153.59 192.713 148.424 186.949 148.424 179.687C148.424 172.425 153.59 166.661 159.822 166.661C166.054 166.661 171.22 172.425 171.22 179.687Z" fill="black" stroke="black" stroke-width="1.08553"/>
<path d="M159.095 166.738L159.851 166.661C166.071 166.678 171.222 172.436 171.222 179.687C171.222 186.941 166.067 192.701 159.844 192.713L159.434 192.682C165.309 186.759 166.505 181.142 165.441 176.453C164.481 172.218 161.699 168.836 159.095 166.738Z" fill="#FF588F" stroke="black" stroke-width="1.08553"/>
</g>
<defs>
<clipPath id="clip0_795_7069">
<rect width="242" height="234" fill="white"/>
</clipPath>
</defs>
</svg>
