<svg width="1672" height="1203" viewBox="0 0 1672 1203" fill="none" xmlns="http://www.w3.org/2000/svg">
<path d="M705 1202L1073 1H1671V1202H705Z" fill="#FFA64A" stroke="#FFA64A" stroke-linecap="round"/>
<ellipse cx="128.5" cy="1044.5" rx="87.5" ry="9.5" fill="#FD8A20"/>
<path d="M743.5 1045C743.5 1045.05 743.479 1045.15 743.315 1045.32C743.151 1045.49 742.879 1045.68 742.473 1045.88C741.662 1046.3 740.425 1046.71 738.758 1047.14C735.432 1047.97 730.506 1048.79 724.136 1049.56C711.401 1051.12 692.963 1052.52 670.165 1053.69C624.573 1056.05 561.582 1057.5 492 1057.5C422.418 1057.5 359.427 1056.05 313.835 1053.69C291.037 1052.52 272.598 1051.12 259.864 1049.56C253.494 1048.79 248.568 1047.97 245.242 1047.14C243.575 1046.71 242.338 1046.3 241.527 1045.88C241.121 1045.68 240.849 1045.49 240.685 1045.32C240.521 1045.15 240.5 1045.05 240.5 1045C240.5 1044.95 240.521 1044.85 240.685 1044.68C240.849 1044.51 241.121 1044.32 241.527 1044.12C242.338 1043.7 243.575 1043.29 245.242 1042.86C248.568 1042.03 253.494 1041.21 259.864 1040.44C272.598 1038.88 291.037 1037.48 313.835 1036.31C359.427 1033.95 422.418 1032.5 492 1032.5C561.582 1032.5 624.573 1033.95 670.165 1036.31C692.963 1037.48 711.401 1038.88 724.136 1040.44C730.506 1041.21 735.432 1042.03 738.758 1042.86C740.425 1043.29 741.662 1043.7 742.473 1044.12C742.879 1044.32 743.151 1044.51 743.315 1044.68C743.479 1044.85 743.5 1044.95 743.5 1045Z" fill="#FD8A20" stroke="#FD8A20"/>
<path d="M1452.5 1046C1452.5 1046.01 1452.5 1046.1 1452.28 1046.28C1452.07 1046.46 1451.72 1046.66 1451.21 1046.87C1450.2 1047.29 1448.66 1047.71 1446.61 1048.13C1442.51 1048.97 1436.45 1049.79 1428.63 1050.56C1412.98 1052.12 1390.33 1053.52 1362.33 1054.69C1306.33 1057.04 1228.96 1058.5 1143.5 1058.5C1058.04 1058.5 980.671 1057.04 924.671 1054.69C896.67 1053.52 874.019 1052.12 858.371 1050.56C850.545 1049.79 844.485 1048.97 840.388 1048.13C838.336 1047.71 836.801 1047.29 835.789 1046.87C835.281 1046.66 834.933 1046.46 834.722 1046.28C834.504 1046.1 834.5 1046.01 834.5 1046C834.5 1045.99 834.504 1045.9 834.722 1045.72C834.933 1045.54 835.281 1045.34 835.789 1045.13C836.801 1044.71 838.336 1044.29 840.388 1043.87C844.485 1043.03 850.545 1042.21 858.371 1041.44C874.019 1039.88 896.67 1038.48 924.671 1037.31C980.671 1034.96 1058.04 1033.5 1143.5 1033.5C1228.96 1033.5 1306.33 1034.96 1362.33 1037.31C1390.33 1038.48 1412.98 1039.88 1428.63 1041.44C1436.45 1042.21 1442.51 1043.03 1446.61 1043.87C1448.66 1044.29 1450.2 1044.71 1451.21 1045.13C1451.72 1045.34 1452.07 1045.54 1452.28 1045.72C1452.5 1045.9 1452.5 1045.99 1452.5 1046Z" fill="#FD8A20" stroke="#FD8A20"/>
<mask id="path-5-inside-1_2224_1679" fill="white">
<rect x="134" y="204" width="506" height="343" rx="8"/>
</mask>
<rect x="134" y="204" width="506" height="343" rx="8" fill="white" stroke="#FFA567" stroke-width="32" mask="url(#path-5-inside-1_2224_1679)"/>
<mask id="path-6-inside-2_2224_1679" fill="white">
<rect x="664" y="201" width="233" height="348" rx="7"/>
</mask>
<rect x="664" y="201" width="233" height="348" rx="7" fill="#FFD9B4" stroke="#FFA567" stroke-width="30" mask="url(#path-6-inside-2_2224_1679)"/>
<path d="M704 246H707L714 353.5H704C698 353.5 697.167 339.167 697.5 332L704 246Z" fill="#FDC497" stroke="#FDC497" stroke-linecap="round"/>
<path d="M785 246H707V338C707 345.6 712 351.833 714.5 354H790.5C786.1 350.4 785 341.833 785 338V246Z" fill="white" stroke="white" stroke-linecap="round"/>
<path d="M719 265H774" stroke="#3A3A3A" stroke-linecap="round"/>
<path d="M719.5 278H774" stroke="#3A3A3A" stroke-linecap="round"/>
<path d="M718.5 290.5H774" stroke="#3A3A3A" stroke-linecap="round"/>
<path d="M719 315.5H774" stroke="#3A3A3A" stroke-linecap="round"/>
<path d="M1653 699.5L1289 1.5L1670 2V699.5H1653Z" fill="#FFA046" stroke="#FFA046" stroke-linecap="round"/>
<path d="M785 286H818.5V371.5C818.833 374.833 820.3 382.4 823.5 386H752.5C750.167 384.5 745.5 379.5 745.5 371.5C745.5 363.5 745.5 356.5 745.5 354" stroke="#FFA567" stroke-width="2" stroke-linecap="round"/>
<path d="M741 253V235H749V253H741Z" fill="#FFA566" stroke="#FFA566" stroke-linecap="round"/>
<path d="M1521.5 479.5V507.5M1521.5 507.5H1474.5M1521.5 507.5H1546M1572.5 507.5H1546M1546 507.5V535M1546 535H1587.5H1506.5M1546 535H1506.5M1474.5 535H1506.5M1506.5 535V563" stroke="#FF8538" stroke-width="3" stroke-linecap="round"/>
<path d="M1267.5 201V229.5M1267.5 229.5H1296M1267.5 229.5H1253.5M1230 229.5H1253.5M1328.5 229.5H1296M1296 229.5V256.5M1296 256.5H1342H1285M1296 256.5H1285M1231.5 256.5H1253.5M1253.5 256.5V229.5M1253.5 256.5H1285M1285 256.5V285.5" stroke="#FF8538" stroke-width="3" stroke-linecap="round"/>
<path d="M1578 303H1612" stroke="#3A3A3A" stroke-linecap="round"/>
<path d="M1578 313.5H1612" stroke="#3A3A3A" stroke-linecap="round"/>
<path d="M1578 324H1612.5" stroke="#3A3A3A" stroke-linecap="round"/>
<path d="M1578 334.5H1612" stroke="#3A3A3A" stroke-linecap="round"/>
<path d="M1578 345H1612.5" stroke="#3A3A3A" stroke-linecap="round"/>
<path d="M928 628L964 574.5L1022 574L988 628H928Z" fill="#E9E9E9" stroke="#E9E9E9" stroke-linecap="round"/>
<path d="M1022 574H964L941.5 608.5C961.9 586.1 1001.33 579.833 1018.5 579.5L1022 574Z" fill="#D5C9C9" stroke="#D5C9C9" stroke-linecap="round"/>
<path d="M256.001 603H296.501L364.5 672.5V685C340.333 685 289.9 685.1 281.5 685.5C273.1 685.9 270.333 678.667 270 675C265.834 661.167 256.501 630.5 252.501 618.5C248.501 606.5 253.168 603.167 256.001 603Z" fill="#70220E" stroke="#70220E" stroke-linecap="round"/>
<path d="M296.5 603H280C281 619.667 288.7 654.9 311.5 662.5L296.5 603Z" fill="#5E1300" stroke="#5E1300" stroke-linecap="round"/>
<path d="M1230.5 414.5C1231.3 408.1 1237.17 393.833 1240 387.5C1226 439.9 1244.5 445.5 1268 444.5C1269.2 450.5 1267.83 458 1267 461C1263 459.4 1240.33 467 1229.5 471C1223.5 470.2 1219 463.333 1217.5 460C1217.33 459 1215 456.3 1207 453.5C1195.4 450.3 1201.83 441.5 1206.5 437.5C1214.17 432.5 1229.7 420.9 1230.5 414.5Z" fill="#731112" stroke="#731112" stroke-linecap="round"/>
<path d="M1207 453.5C1195.4 450.3 1201.83 441.5 1206.5 437.5C1209.83 441.334 1218.1 447.5 1224.5 441.5C1230.9 435.5 1237.83 435.829 1240.5 436.743C1246.41 443.921 1256.62 444.984 1268 444.5C1269.2 450.5 1267.83 458 1267 461C1263 459.4 1240.33 467 1229.5 471C1223.5 470.2 1219 463.334 1217.5 460C1217.33 459 1215 456.3 1207 453.5Z" fill="#480004" stroke="#480004" stroke-linecap="round"/>
<path d="M1039.5 595C1043.9 596.2 1053.33 598.167 1057.5 599L1066 617C1067.6 623 1043.33 622.167 1031 621H1008C996.8 621 1002 616.333 1006 614C1010.67 612.5 1021 609 1025 607C1025.9 606.549 1026.09 606.225 1025.78 606C1024.72 605.225 1017.76 605.613 1013.5 606C1006.5 609.833 990.3 618.2 981.5 621C972.7 623.8 971.834 619.833 972.501 617.5C966.501 618.3 966.335 615.5 967.001 614C977.835 607.667 1001.6 594.4 1010 592C1020.5 589 1034 593.5 1039.5 595Z" fill="#FFBBB2"/>
<path d="M972.501 617.5C966.501 618.3 966.335 615.5 967.001 614C977.835 607.667 1001.6 594.4 1010 592C1020.5 589 1034 593.5 1039.5 595C1043.9 596.2 1053.33 598.167 1057.5 599L1066 617C1067.6 623 1043.33 622.167 1031 621C1028 621 1019.2 621 1008 621C996.8 621 1002 616.333 1006 614C1010.67 612.5 1021 609 1025 607C1025.9 606.549 1026.09 606.225 1025.78 606M972.501 617.5C971.834 619.833 972.7 623.8 981.5 621C990.3 618.2 1006.5 609.833 1013.5 606C1017.76 605.613 1024.72 605.225 1025.78 606M972.501 617.5C982.501 610.667 1003.1 596.9 1005.5 596.5M1025.78 606C1026.36 605.333 1028.5 603.9 1032.5 603.5" stroke="#FFBBB2" stroke-linecap="round"/>
<path d="M1066 617C1067.6 623 1043.33 622.167 1031 621C1039.67 617.482 1056.1 607.951 1052.5 597.973C1054.46 598.385 1056.23 598.746 1057.5 599L1066 617Z" fill="#FF907D" stroke="#FF907D" stroke-linecap="round"/>
<path d="M972.5 617.5C985.167 611.833 1011.5 600.5 1015.5 600.5" stroke="#FF9F8F" stroke-width="2" stroke-linecap="round"/>
<path d="M1039 970L1061.5 927L1117 927.5L1096 970H1039Z" fill="#FFBBB2" stroke="#FFBBB2" stroke-linecap="round"/>
<path d="M1057.5 935L1061.5 927H1117L1104 953C1101.2 939 1071.83 935.167 1057.5 935Z" fill="#FFA394" stroke="#FFA394" stroke-linecap="round"/>
<path d="M992 1020C1009.2 1020.8 1025.83 995 1032 982H1089.5L1059.5 1042H1046.5C1047.67 1039 1049.2 1032.7 1046 1031.5C1039.2 1029.9 1026.5 1038.17 1021 1042.5H966.5C968.667 1035 970.5 1021.5 992 1020Z" fill="#FECE0C" stroke="#FECE0C" stroke-linecap="round"/>
<path d="M1020 1001.5H1036.5" stroke="#3A3A3A" stroke-linecap="round"/>
<path d="M1026.5 992.5H1042.5" stroke="#3A3A3A" stroke-linecap="round"/>
<path d="M1026 992.5C1023 982.333 1014.5 963.6 1004.5 970C994.501 976.4 1014.67 987.667 1026 992.5Z" stroke="#3A3A3A" stroke-linecap="round"/>
<path d="M1021 1042.5H966.5C995.833 1038.83 1060.3 1024 1083.5 994L1059.5 1042H1046.5C1047.67 1039 1049.2 1032.7 1046 1031.5C1039.2 1029.9 1026.5 1038.17 1021 1042.5Z" fill="#FFB90C" stroke="#FFB90C" stroke-linecap="round"/>
<path d="M1032 982L1039 970H1096L1090.5 981.5L1032 982Z" fill="#FEE580" stroke="#FEE580" stroke-linecap="round"/>
<path d="M1240.5 954.5L1234 927H1248L1240.5 954.5Z" fill="#842300" stroke="#842300" stroke-linecap="round"/>
<path d="M1260.34 775.5L1336.11 741.5H1411.5C1420.89 741.5 1428.5 749.111 1428.5 758.5C1428.5 767.889 1420.89 775.5 1411.5 775.5H1260.34Z" fill="#9B4222" stroke="#9B4222"/>
<path d="M1353.5 742C1335.1 753.6 1284.83 768.5 1262.5 775L1338.5 742H1353.5Z" fill="#842300" stroke="#842300" stroke-width="2" stroke-linecap="round"/>
<path d="M1419.91 1036.01L1355.64 775.5L1378.59 775.5L1430.14 1033.73C1430.79 1036.97 1428.31 1040 1425 1040C1422.59 1040 1420.49 1038.35 1419.91 1036.01Z" fill="#9B4222" stroke="#9B4222"/>
<path d="M1358.5 786.5L1356 777H1379L1380.5 786L1358.5 786.5Z" fill="#842300" stroke="#842300" stroke-linecap="round"/>
<path d="M1258.5 786.5L1261 775.5H1284L1282 786.5H1258.5Z" fill="#842300" stroke="#842300" stroke-linecap="round"/>
<path d="M1251 827L1258.5 786.5H1282L1266 852.5L1251 827Z" fill="#9B4222" stroke="#9B4222" stroke-linecap="round"/>
<path d="M1244 863.5L1251 827L1266 852L1254.5 900.5L1244 863.5Z" fill="#842300" stroke="#842300" stroke-linecap="round"/>
<path d="M1180 1023.5C1204.4 1016.7 1201.17 993.667 1196.5 983H1247L1261 1042.5H1243C1242.83 1040.17 1241.8 1034.8 1239 1032C1236.2 1029.2 1226.17 1037.5 1221.5 1042H1162C1161.34 1038 1164 1028.7 1180 1023.5Z" fill="#FECE0C" stroke="#FECE0C" stroke-linecap="round"/>
<path d="M1221.5 1042H1162C1161.74 1040.45 1161.99 1038.1 1163.32 1035.5C1215.57 1038.3 1245.82 1022.67 1254.41 1014.5L1261 1042.5H1243C1242.83 1040.17 1241.8 1034.8 1239 1032C1236.2 1029.2 1226.17 1037.5 1221.5 1042Z" fill="#FFB90C" stroke="#FFB90C" stroke-linecap="round"/>
<path d="M1216 1004H1199.5" stroke="#3A3A3A" stroke-linecap="round"/>
<path d="M1199.5 994C1194.5 983.167 1182.9 963.8 1176.5 973C1170.1 982.2 1189.17 990.833 1199.5 994Z" stroke="#3A3A3A" stroke-linecap="round"/>
<path d="M1214 994H1199.5" stroke="#3A3A3A" stroke-linecap="round"/>
<path d="M1245 971.5H1193L1196 983H1247.5L1245 971.5Z" fill="#FEE580" stroke="#FEE580" stroke-linecap="round"/>
<path d="M1193 971.5L1179 927H1234L1244.5 971.5H1193Z" fill="#FFBBB2" stroke="#FFBBB2" stroke-linecap="round"/>
<path d="M1181.5 934.5L1179 927H1234L1239.5 952C1225.9 935.6 1195.17 933.5 1181.5 934.5Z" fill="#FFA394" stroke="#FFA394" stroke-linecap="round"/>
<rect x="849.5" y="628.5" width="399" height="23" rx="11.5" fill="#9B4222" stroke="#9B4222"/>
<path d="M1216 628.5L1170 651.5H1201L1220.5 640L1237.5 628.5H1216Z" fill="#7F2200" stroke="#7F2200" stroke-linecap="round"/>
<rect x="849.5" y="628.5" width="195" height="23" rx="11.5" fill="#B35634" stroke="#B35634"/>
<path d="M1236.49 630C1238.89 628 1239.82 625.5 1239.99 624.5C1260.38 637.3 1293.16 637.833 1307 636.5L1357.5 668C1377.5 706.4 1359.83 729.333 1348.5 736L1244.5 782.5C1234.5 784.5 1227 792.333 1224.5 796L1261.5 927H1165L1157.5 906.5L1145.5 927H1044L1111.49 799.5C1087.5 746.5 1084 707.5 1119.99 694L1142.99 682L1195.99 654.5C1208.49 647.167 1234.09 632 1236.49 630Z" fill="#FFECDE" stroke="#FFECDE" stroke-linecap="round"/>
<path d="M1294.5 703C1298.9 703 1305.33 708.667 1308 711.5L1225 751C1221.4 749 1222.83 746.167 1224 745C1228 741.833 1237.3 734.3 1242.5 729.5C1247.7 724.7 1249 719.5 1249 717.5C1255 722.3 1257.5 723.167 1258 723L1294.5 703Z" fill="#F37F8C" stroke="#F37F8C" stroke-linecap="round"/>
<path d="M1138 715.5L1221.5 672.5C1223.05 671.7 1224.81 672.5 1225.5 673L1241.5 680.5L1221.5 694L1226.5 698.5L1176 734.5L1138 715.5Z" fill="#FFA8B1" stroke="#FFA8B1" stroke-linecap="round"/>
<path d="M1172 721.5L1223 692" stroke="#3A3A3A" stroke-linecap="round"/>
<path d="M1163.5 718L1216.5 687.5" stroke="#3A3A3A" stroke-linecap="round"/>
<path d="M1240.5 776.5C1241.3 763.3 1230.5 754 1225 751L1308 711.5C1317.2 717.9 1319.17 731.5 1319 737.5L1240.5 776.5Z" fill="#FFA8B1" stroke="#FFA8B1" stroke-linecap="round"/>
<path d="M1357.5 668.5L1294.5 703C1298.1 703 1305.33 708.5 1307.5 710.5L1363.5 683.5C1363.9 681.5 1359.67 672.667 1357.5 668.5Z" fill="#ECD1C0" stroke="#ECD1C0" stroke-linecap="round"/>
<path d="M1255 661L1228 674L1236 678L1255 661Z" fill="#ECD1C0" stroke="#ECD1C0" stroke-linecap="round"/>
<path d="M1213.5 707.5C1221.1 702.3 1225.33 699.333 1226.5 698.5L1248 717C1252.4 723 1233.83 738.167 1224 745C1221.6 747.4 1223.33 750 1224.5 751C1224.1 753.8 1226 756.167 1227 757C1222.6 762.6 1214.5 758.667 1211 756C1204.6 759.6 1200.33 754.167 1199 751C1191.4 752.6 1186.83 748 1185.5 745.5C1174 748 1176.5 733.5 1177.5 733C1178.5 732.5 1204 714 1213.5 707.5Z" fill="#FFBBB2"/>
<path d="M1185.5 745.5C1174 748 1176.5 733.5 1177.5 733C1178.5 732.5 1204 714 1213.5 707.5C1221.1 702.3 1225.33 699.333 1226.5 698.5L1248 717C1252.4 723 1233.83 738.167 1224 745C1221.6 747.4 1223.33 750 1224.5 751C1224.1 753.8 1226 756.167 1227 757C1222.6 762.6 1214.5 758.667 1211 756M1185.5 745.5C1186.83 748 1191.4 752.6 1199 751M1185.5 745.5L1186.5 738.5M1199 751C1200.33 754.167 1204.6 759.6 1211 756M1199 751V744M1211 756L1211.5 749" stroke="#F37F8C" stroke-linecap="round"/>
<path d="M1226.5 698.5L1248 717C1252.36 722.941 1234.2 737.868 1224.29 744.795C1231.03 738.096 1242.3 722.359 1233.5 713C1227.9 707 1224.6 702.167 1223.65 700.5C1225.09 699.495 1226.04 698.83 1226.5 698.5Z" fill="#FDA494"/>
<path d="M1224 745C1224.1 744.933 1224.2 744.864 1224.29 744.795M1224.29 744.795C1234.2 737.868 1252.36 722.941 1248 717L1226.5 698.5C1226.04 698.83 1225.09 699.495 1223.65 700.5C1224.6 702.167 1227.9 707 1233.5 713C1242.3 722.359 1231.03 738.096 1224.29 744.795Z" stroke="#FDA494" stroke-linecap="round"/>
<path d="M1144 719.5C1136 722.7 1114 762.833 1104.5 783L1107.5 790.5L1111 798.5C1124.5 774 1139.5 738 1154 724.5L1144 719.5Z" fill="#ECD1C0" stroke="#ECD1C0" stroke-linecap="round"/>
<path d="M1159.5 911L1157.5 906L1224.47 796.051L1237 839.5L1159.5 911Z" fill="#ECD1C0"/>
<path d="M1224.5 796L1224.47 796.051M1224.47 796.051L1157.5 906L1159.5 911L1237 839.5L1224.47 796.051Z" stroke="#ECD1C0" stroke-linecap="round"/>
<path d="M812.916 413.047C812.152 411.39 813.362 409.5 815.186 409.5H1041.09C1042.06 409.5 1042.94 410.064 1043.35 410.946L1043.81 410.736L1043.35 410.946L1103.07 539.446C1103.84 541.104 1102.63 543 1100.8 543H874.42C873.445 543 872.558 542.433 872.15 541.547L812.916 413.047Z" fill="#7A677B" stroke="#7A677B"/>
<path d="M886.646 572.556L870.781 538.493L1101.68 536.503L1117.55 570.441C1118.33 572.099 1117.12 574 1115.29 574H888.912C887.94 574 887.056 573.437 886.646 572.556Z" fill="#E9E9E9" stroke="#E9E9E9"/>
<path d="M1224.5 475C1234.9 466.6 1257.17 461.833 1267 460.5L1333 462C1334.67 462.667 1340.6 464.4 1351 466C1374.2 468.4 1389.67 482 1394.5 488.5C1406.1 498.5 1402.33 538.667 1399 557.5C1395.67 572.5 1387.5 608.4 1381.5 632C1375.5 655.6 1360.33 667.5 1353.5 670.5L1257.5 723C1252.7 721.8 1231.83 703.167 1222 694L1308 636C1269.6 639.6 1244.67 628.5 1237 622.5C1238.2 584.9 1232.83 570.833 1230 568.5C1228.8 586.5 1192.83 599.333 1175 603.5L1111 619C1084.6 618.2 1067.33 599.667 1062 590.5C1097.83 576.5 1170.2 548.5 1173 548.5C1180 546.5 1184.5 540.667 1186 536.5L1205.5 498.5C1207.5 494.167 1214.1 483.4 1224.5 475Z" fill="#FD7450" stroke="#FD7450" stroke-linecap="round"/>
<path d="M1055.5 593L1062 590.5C1075.6 611.7 1098.33 618.333 1108 619C1098.67 623 1078.8 630.4 1074 628C1069.2 625.6 1059.67 603.667 1055.5 593Z" fill="#FF582B" stroke="#FF582B" stroke-linecap="round"/>
<path d="M1248 575C1253.83 571.833 1269.4 567.8 1285 577C1279.5 579.167 1264.4 581.8 1248 575Z" fill="#FF582B" stroke="#FF582B" stroke-linecap="round"/>
<path d="M1226.5 507L1225 541L1234.5 508C1234.83 505.333 1234.7 500 1231.5 500C1228.3 500 1226.83 504.667 1226.5 507Z" fill="#FF582B" stroke="#FF582B" stroke-linecap="round"/>
<path d="M1230 568.5C1228.8 586.5 1192.83 599.333 1175 603.5L1143 611.25C1202.25 591.174 1222.95 565.827 1226.27 554.831C1226.33 554.548 1226.41 554.271 1226.5 554C1226.44 554.267 1226.36 554.544 1226.27 554.831C1225.26 559.562 1228.27 565.827 1230 568.5Z" fill="#FF582B"/>
<path d="M1308 636C1269.6 639.6 1244.67 628.5 1237 622.5C1237.19 616.397 1237.22 610.914 1237.1 606C1291.59 620 1325.07 580.5 1335 559C1332.83 568.667 1327.4 592.7 1323 611.5C1318.6 630.3 1311.17 635.667 1308 636Z" fill="#FF582B"/>
<path d="M1353.5 670.5L1257.5 723C1254.3 722.2 1243.95 713.647 1234.5 705.319C1272 712.139 1326 670.5 1346.5 659.5C1362.9 650.7 1372.33 631.5 1375 623L1399 557.5C1395.67 572.5 1387.5 608.4 1381.5 632C1375.5 655.6 1360.33 667.5 1353.5 670.5Z" fill="#FF582B"/>
<path d="M1261 471.5C1261.4 469.5 1265.17 463.333 1267 460.5C1258.63 461.635 1241.23 465.261 1229.83 471.5C1235.7 468.7 1253.06 470.333 1261 471.5Z" fill="#FF582B"/>
<path d="M1230 568.5C1228.8 586.5 1192.83 599.333 1175 603.5L1143 611.25C1202.25 591.174 1222.95 565.827 1226.27 554.831C1226.33 554.548 1226.41 554.271 1226.5 554C1226.44 554.267 1226.36 554.544 1226.27 554.831C1225.26 559.562 1228.27 565.827 1230 568.5Z" stroke="#FF582B" stroke-linecap="round"/>
<path d="M1308 636C1269.6 639.6 1244.67 628.5 1237 622.5C1237.19 616.397 1237.22 610.914 1237.1 606C1291.59 620 1325.07 580.5 1335 559C1332.83 568.667 1327.4 592.7 1323 611.5C1318.6 630.3 1311.17 635.667 1308 636Z" stroke="#FF582B" stroke-linecap="round"/>
<path d="M1353.5 670.5L1257.5 723C1254.3 722.2 1243.95 713.647 1234.5 705.319C1272 712.139 1326 670.5 1346.5 659.5C1362.9 650.7 1372.33 631.5 1375 623L1399 557.5C1395.67 572.5 1387.5 608.4 1381.5 632C1375.5 655.6 1360.33 667.5 1353.5 670.5Z" stroke="#FF582B" stroke-linecap="round"/>
<path d="M1261 471.5C1261.4 469.5 1265.17 463.333 1267 460.5C1258.63 461.635 1241.23 465.261 1229.83 471.5C1235.7 468.7 1253.06 470.333 1261 471.5Z" stroke="#FF582B" stroke-linecap="round"/>
<path d="M1356 325C1343.6 321 1333.83 334 1330.5 341C1338.9 350.2 1337 362.833 1335 368C1357 369.6 1365.5 356.333 1367 349.5C1368.5 343 1368.4 329 1356 325Z" fill="#731112" stroke="#731112" stroke-linecap="round"/>
<path d="M1335 368C1357 369.6 1365.5 356.333 1367 349.5C1367.69 346.497 1368.04 341.895 1367 337.417C1352.2 353.751 1339.89 352.611 1335.58 350C1337.74 357.167 1336.39 364.398 1335 368Z" fill="#5F0008" stroke="#5F0008" stroke-linecap="round"/>
<path d="M1330.5 341C1323.7 332.2 1315 339 1311.5 343.5L1331.5 372C1338.5 366.5 1339 352 1330.5 341Z" fill="#FD7450" stroke="#FD7450" stroke-linecap="round"/>
<path d="M1316.41 350.5L1331.5 372C1335.52 368.843 1337.4 362.722 1336.66 356C1333.58 360.4 1325.61 355.5 1322 352.5L1316.41 350.5Z" fill="#F25125" stroke="#F25125" stroke-linecap="round"/>
<path d="M1123.5 268H1116V256H1123.5V268Z" fill="#050505"/>
<path d="M1116 2V256M1123.5 256V268H1116V256M1123.5 256H1116M1123.5 256V2" stroke="#050505" stroke-linecap="round"/>
<path d="M695 926L686.5 911.5L731 890.5L737 902C721.8 908 715.667 925.167 714.5 933C708.1 924.2 698.833 924.667 695 926Z" fill="#CC6F4D" stroke="#CC6F4D" stroke-linecap="round"/>
<path d="M714.5 933C708.1 924.2 698.833 924.667 695 926C692.833 926.667 688.5 928.1 688.5 928.5C688.5 928.9 705.833 960.667 714.5 976.5C716.333 980.833 723 988.2 735 983C747 977.8 808.333 950.833 837.5 938C836.667 933.5 832.8 924.2 824 923C815.2 921.8 786.333 922.5 773 923C768.667 924.167 759 925.1 755 919.5C751 913.9 747.333 903.833 746 899.5C743.667 900.041 738.6 901.298 737 902C721.8 908 715.667 925.167 714.5 933Z" fill="white" stroke="white" stroke-linecap="round"/>
<path d="M760.5 923.5L750.5 939.5" stroke="black" stroke-linecap="round"/>
<path d="M775 923.5L765.5 941" stroke="black" stroke-linecap="round"/>
<path d="M735 983C723 988.2 716.334 980.833 714.5 976.5C710.667 969.497 705.138 959.376 700.164 950.232C700.024 949.985 699.891 949.741 699.766 949.5C699.898 949.743 700.031 949.987 700.164 950.232C706.832 961.979 730.556 980.345 776 965.037C757.09 973.342 740.625 980.563 735 983Z" fill="#FFEFE0" stroke="#FFEFE0" stroke-linecap="round"/>
<path d="M693 922.5L686.5 911.5L730.5 891L732 893.5C720.4 897.1 701.167 914.333 693 922.5Z" fill="#9D3B18" stroke="#9D3B18" stroke-linecap="round"/>
<path d="M666.5 921.5L648 886L721.869 852.559L739 887.5C730.6 889.5 687.167 911 666.5 921.5Z" fill="#362515"/>
<path d="M722 852.5L721.869 852.559M721.869 852.559L648 886L666.5 921.5C687.167 911 730.6 889.5 739 887.5L721.869 852.559Z" stroke="#362515" stroke-linecap="round"/>
<path d="M460 967.5L465.5 947.5L515.5 964L511 977C510.5 976.667 507.2 975.8 498 975C486 974.2 475.667 980.667 472 984C470 973.6 463.167 968.667 460 967.5Z" fill="#CC6F4D" stroke="#CC6F4D" stroke-linecap="round"/>
<path d="M461 964L465.5 948L512.5 963C502.833 962.333 482.2 961 477 961C471.8 961 464.167 963 461 964Z" fill="#9D3B18" stroke="#9D3B18" stroke-linecap="round"/>
<path d="M460 907L536 932.5L523 966.5L448 942L460 907Z" fill="#362515" stroke="#362515" stroke-linecap="round"/>
<path d="M397.499 771.001C364.299 754.201 367.333 708.668 372.999 688.001C376.333 688.001 387.3 687.901 404.5 687.5C421.7 687.099 439.667 683.666 446.5 682L486 670.5L551 652.001C622.5 641 623.5 648.001 651 706.501L722 852.501L663.5 879.001L592 762.501L533 931.001L470 910.501L506 758.501C481.167 768.334 424.7 784.601 397.499 771.001Z" fill="#66513C" stroke="#66513C" stroke-linecap="round"/>
<path d="M663.5 879L607 787L638 825C655.6 851 686.667 860.833 700 862.5L663.5 879Z" fill="#4A3522" stroke="#4A3522" stroke-linecap="round"/>
<path d="M502 775.5L506 758.5L573 730L574 732L502 775.5Z" fill="#362515" stroke="#362515" stroke-linecap="round"/>
<path d="M372.999 688.001C376.333 688.001 387.3 687.901 404.5 687.5C394 692.609 372.3 704.744 369.5 712.413C369.779 702.972 371.266 694.323 372.999 688.001Z" fill="#56412C" stroke="#56412C" stroke-linecap="round"/>
<path d="M483 855.5L502 775.5L574 732L592 761.5L591 765C589.5 762.667 583.4 757.7 571 756.5C539 752.1 499 820.667 483 855.5Z" fill="#4A3522" stroke="#4A3522" stroke-linecap="round"/>
<path d="M690.5 497.5C690.9 501.5 685.667 506.167 683 508L708.5 529.5C710.667 527 715.7 521.9 718.5 521.5C724.9 521.1 732.833 514.333 736 511C738 508.833 742.8 504 746 502C758 496 771.5 481 771 479.5C770.6 478.3 769.167 479 768.5 479.5C762.167 482.833 748.8 489.9 746 491.5C743.2 493.1 743.167 491.833 743.5 491C752.333 482.5 769.8 465 769 463C768.2 461 766 462.167 765 463C756.667 469.167 739.6 481.9 738 483.5C736.4 485.1 736 484.167 736 483.5C744 472.667 759.8 450.6 759 449C758.2 447.4 755.333 449 754 450C746.167 457.333 730.1 472.3 728.5 473.5C726.9 474.7 726.833 473.667 727 473C733.333 464.5 745.6 446.8 744 444C742.4 441.2 739 444.167 737.5 446C729.333 455.5 712.7 474.4 711.5 474C710.3 473.6 711.333 466.167 712 462.5C713.2 455.3 707.833 452.5 705 452C706.6 456.8 700.667 469.667 697.5 475.5C695 481.167 690.1 493.5 690.5 497.5Z" fill="#CC6F4D" stroke="#CC6F4D" stroke-linecap="round"/>
<path d="M690.5 497.5C690.9 501.5 685.667 506.167 683 508L708.5 529.5C710.667 527 715.7 521.9 718.5 521.5C724.9 521.1 732.833 514.333 736 511C732.333 511.333 722.7 512.1 713.5 512.5C704.3 512.9 694.333 502.667 690.5 497.5Z" fill="#C2491E" stroke="#C2491E" stroke-linecap="round"/>
<path d="M711.5 533C711.5 532.2 708.5 530 707 529L693.5 541.5C693.9 543.1 700.667 542.667 703 543.5C705.833 540.333 711.5 533.8 711.5 533Z" fill="#F96B43" stroke="#F96B43" stroke-linecap="round"/>
<path d="M676.5 503L664 512L695.5 539C699.667 536 707.8 529.8 707 529C706.2 528.2 686.333 511.333 676.5 503Z" fill="#FD7D5A" stroke="#FD7D5A" stroke-linecap="round"/>
<path d="M355.5 479C372.3 443.4 412.5 450.5 431.5 455.5L514 461C552 457.5 560.845 478 570 497C578.833 515.333 596.8 552.7 598 555.5C599.2 558.3 600.5 558.333 601 558L663.5 512L695.5 539.5L611 629C585.4 627 560.333 593.5 551 577V652.5L471 675C465.167 676.666 451.3 680.6 442.5 683C433.7 685.4 412.167 687 402.5 687.5H365V672C269 678.8 290.666 603.5 313.5 565C321 551.5 338.7 514.6 355.5 479Z" fill="#FFA187" stroke="#FFA187" stroke-linecap="round"/>
<path d="M522.5 461C521.3 460.6 516.333 460.833 514 461L493 492C509 488 519.333 469.667 522.5 461Z" fill="#FD8563" stroke="#FD8563" stroke-linecap="round"/>
<path d="M406 451.5C410.8 451.1 425.333 454 432 455.5L464 492C436.4 488.8 413.833 463.667 406 451.5Z" fill="#FD8563" stroke="#FD8563" stroke-linecap="round"/>
<path d="M496.5 658.5L478.5 661V666H496.5V658.5Z" fill="#FFEDED" stroke="#FFEDED" stroke-linecap="round"/>
<path d="M478.5 672V666L496.5 666.5L478.5 672Z" fill="#FEB7D9" stroke="#FEB7D9" stroke-linecap="round"/>
<path d="M471 674V666H478V672L471 674Z" fill="#F88CAE" stroke="#F88CAE" stroke-linecap="round"/>
<path d="M471 666V662L478 661V666H471Z" fill="#F7A2B7" stroke="#F7A2B7" stroke-linecap="round"/>
<path d="M611 629C585.4 627 561.333 593.5 552 577V594C564.5 614 571.6 643 604 641L611 629Z" fill="#FF7B55" stroke="#FF7B55" stroke-linecap="round"/>
<path d="M495.5 609.5L492 486L477 485.286L478 610L495.5 609.5Z" fill="#FFEDED" stroke="#FFEDED" stroke-linecap="round"/>
<path d="M467.5 484L477 485.5L478 610H470L467.5 484Z" fill="#F7A2B7" stroke="#F7A2B7" stroke-linecap="round"/>
<path d="M476.5 497H468L468.5 505H476.5V497Z" fill="#F88CAE" stroke="#F88CAE" stroke-linecap="round"/>
<path d="M476.5 514H468.5V522H476.5V514Z" fill="#F88CAE" stroke="#F88CAE" stroke-linecap="round"/>
<path d="M476.5 531H469V539H476.5V531Z" fill="#F88CAE" stroke="#F88CAE" stroke-linecap="round"/>
<path d="M477 548H469.5V556H477V548Z" fill="#F88CAE" stroke="#F88CAE" stroke-linecap="round"/>
<path d="M477 565H469.5L470 573H477V565Z" fill="#F88CAE" stroke="#F88CAE" stroke-linecap="round"/>
<path d="M477.5 582H470V590H477.5V582Z" fill="#F88CAE" stroke="#F88CAE" stroke-linecap="round"/>
<path d="M470.5 607V599H477.5V607H470.5Z" fill="#F88CAE" stroke="#F88CAE" stroke-linecap="round"/>
<path d="M601.5 636C591.333 630 569.4 617.4 563 615C556.623 612.609 520.267 611.343 502.692 611.004C503.628 614.669 507.6 623.4 516 629C524.4 634.6 537.833 635.333 543.5 635C545.5 634.333 550.8 633 556 633C565.6 632.6 575.667 638.5 579.5 641.5H584C590 642.7 592.833 640.333 593.5 639C599.1 639.8 601.167 637.333 601.5 636Z" fill="#CC6F4D"/>
<path d="M502.5 611C502.564 611.001 502.628 611.002 502.692 611.004M502.692 611.004C520.267 611.343 556.623 612.609 563 615C569.4 617.4 591.333 630 601.5 636C601.167 637.333 599.1 639.8 593.5 639C592.833 640.333 590 642.7 584 641.5H579.5C575.667 638.5 565.6 632.6 556 633C550.8 633 545.5 634.333 543.5 635C537.833 635.333 524.4 634.6 516 629C507.6 623.4 503.628 614.669 502.692 611.004Z" stroke="#CC6F4D" stroke-linecap="round"/>
<path d="M593.5 639C582.333 632.167 557.5 619.1 547.5 621.5" stroke="#C2491E" stroke-linecap="round"/>
<path d="M516 629C524.4 634.6 537.833 635.333 543.5 635C518.7 644.2 505.833 640.833 502.5 638V611L502.692 611.004C503.628 614.669 507.6 623.4 516 629Z" fill="#C2491E" stroke="#C2491E" stroke-linecap="round"/>
<path d="M481 660V610C487.4 609.2 497.667 609.666 502 610V657C500.8 657.8 487.5 659.333 481 660Z" fill="#FD7D5A" stroke="#FD7D5A" stroke-linecap="round"/>
<path d="M460 663.5C428 669.9 383.333 672.5 365 673V678C417 676.8 450 667.833 460 663.5Z" fill="#E9633E" stroke="#E9633E" stroke-linecap="round"/>
<path d="M553 519V564.5C555.333 559.833 560.2 548 561 538C561.8 528 556 521.167 553 519Z" fill="#FF7B55" stroke="#FF7B55" stroke-linecap="round"/>
<path d="M403.498 586C386.698 572 388.165 537.833 390.998 522.5L370 607L447.5 608C439.833 606.5 420.298 600 403.498 586Z" fill="#FF7B55" stroke="#FF7B55" stroke-linecap="round"/>
<path d="M298.851 597.5C287.05 634.963 292.082 677.165 365 672C339.234 672.333 289.932 657.9 298.851 597.5Z" fill="#FD8563" stroke="#FD8563" stroke-linecap="round"/>
<path d="M402.5 526.5H451.5V535.5V563C451.5 568.799 446.799 573.5 441 573.5H413C407.201 573.5 402.5 568.799 402.5 563V535.5V526.5Z" stroke="#FF7B55"/>
<rect x="504.5" y="525.5" width="41" height="10" rx="5" stroke="#FF7B55"/>
<path d="M477.5 497H493V505H477.5V497Z" fill="#FEB7D9"/>
<path d="M478 514H493.5V522H478V514Z" fill="#FEB7D9"/>
<path d="M478 531H493.5L494 539H478V531Z" fill="#FEB7D9"/>
<path d="M478 548H494L494.5 556H478V548Z" fill="#FEB7D9"/>
<path d="M478 565H494.5L495 573H478V565Z" fill="#FEB7D9"/>
<path d="M478.5 582H495V590H478.5V582Z" fill="#FEB7D9"/>
<path d="M478.5 599H496V607H478.5V599Z" fill="#FEB7D9"/>
<path d="M517.312 642H604C602 644.4 602.833 646.667 603.5 647.5L512 650C512.4 646 515.708 643 517.312 642Z" fill="white" stroke="white" stroke-linecap="round"/>
<path d="M491 493L489 468C497.4 467.2 501.833 459.667 503 456C509.8 457.2 512.5 462.5 513 465C511 481 497.5 490.333 491 493Z" fill="#FD7450" stroke="#FD7450" stroke-linecap="round"/>
<path d="M456.502 488.5C436.502 472 437.002 450 439.002 441.5C436.335 444.833 431.202 452.7 432.002 457.5C433.002 463.5 439.504 479 456.502 488.5Z" fill="#EB5930" stroke="#EB5930" stroke-linecap="round"/>
<path d="M439 441.5C440.6 434.7 448 434.333 451.5 435C450.167 438 447.7 444.5 448.5 446.5C454.9 458.5 470.167 466.167 477 468.5L473.5 484.5L471 494C468.167 493.333 461.3 491.3 456.5 488.5C436.5 472 437 450 439 441.5Z" fill="#FD7450" stroke="#FD7450" stroke-linecap="round"/>
<path d="M513 464C516.2 454 509 447.833 505 446C505.4 448.8 504.167 453.833 503.5 456C508.7 457.2 512 461.833 513 464Z" fill="#EB5930" stroke="#EB5930" stroke-linecap="round"/>
<path d="M458 420.5C455.6 417.3 453.667 407.833 453 403.5C456.2 406.7 461.333 409.167 463.5 410L458 420.5Z" fill="#520100" stroke="#520100" stroke-linecap="round"/>
<path d="M484.502 380C514.102 388.8 523.835 370.333 525.002 360C534.603 361.6 537.001 374.667 537 381C553.8 381.8 558.667 369.667 559 363.5C559.5 357.5 552 351 545.5 349C540.3 347.4 536 341.333 534.5 338.5L525.5 331C521.833 329 511.6 324.8 500 324C488.4 323.2 477.833 331.667 474 336C459.2 333.2 450.834 342.833 448.502 348C444.502 354.4 446.835 375.333 448.502 385C448.502 382.5 450.802 377.5 460.002 377.5C469.202 377.5 474.502 389.833 476.002 396C482.002 393.2 484.168 384.167 484.502 380Z" fill="#631211" stroke="#631211" stroke-linecap="round"/>
<path d="M476.002 396C482.002 393.2 484.168 384.167 484.502 380C508.832 387.233 519.739 374.952 523.5 365C507.9 383.074 488 374.229 480 367C462.5 370 452.5 363 448.502 348C444.502 354.4 446.835 375.333 448.502 385C448.502 382.5 450.802 377.5 460.002 377.5C469.202 377.5 474.502 389.833 476.002 396Z" fill="#520100" stroke="#520100" stroke-linecap="round"/>
<path d="M484.499 380C514.099 388.8 524.333 370.833 525.5 360.5C535.101 362.1 536.999 374.667 536.998 381C536.998 384.667 536.6 397.5 535 419.5C533.4 441.5 515.667 446.333 507 446H504.5C504.9 462 494.333 467.333 489 468L490.5 487L473.5 485L477 468C464 464 449.5 453 448.499 446C447.699 440.4 458.166 419.333 463.499 409.5C448.299 405.5 447.166 391.5 448.499 385C448.499 382.5 450.799 377.5 459.999 377.5C469.199 377.5 474.499 389.833 475.999 396C481.999 393.2 484.166 384.167 484.499 380Z" fill="#CC6F4D" stroke="#CC6F4D" stroke-linecap="round"/>
<path d="M505 447C496.6 446.2 486.21 437.333 482.543 433C485.743 445 497.167 453.667 502.5 456.5C503.7 455.3 505 449.667 505 447Z" fill="#B84B24" stroke="#B84B24" stroke-linecap="round"/>
<path d="M484 379C513.6 387.8 523.833 370.333 525 360C529 360 531.667 363.667 532.5 365.5C531.3 363.1 528.667 363.5 527.5 364C527 367.833 523.6 376.8 514 382C504.4 387.2 492 386.167 487 385C487.8 389.4 480.5 393.167 476.5 395C482.5 392.2 482.5 384.5 484 379Z" fill="#C0491E"/>
<path d="M476.544 469C463.544 465 449.044 454 448.043 447C447.803 445.319 448.578 442.245 449.924 438.5C452.629 454.1 468.798 465.333 476.544 469Z" fill="#B84B24" stroke="#B84B24" stroke-linecap="round"/>
<path d="M525 360C534.601 361.6 536.999 374.667 536.998 381C545.67 381.413 551.163 378.38 554.493 374.5C546.488 362.9 531.495 360 525 360Z" fill="#520100" stroke="#520100" stroke-linecap="round"/>
<path d="M473 349.423C475.167 346.089 480.4 341.223 484 348.423C485.333 345.589 489.2 341.223 494 346.423" stroke="#833231" stroke-linecap="round"/>
<path d="M501.5 360.923C504.333 361.756 510.2 362.023 511 356.423C513.667 356.923 519.2 356.723 520 351.923" stroke="#833231" stroke-linecap="round"/>
<circle cx="499.5" cy="405.5" r="8.5" fill="#CB5C3E"/>
<path d="M535.75 401.401C533.365 401.295 531.038 402.087 529.281 403.605C527.524 405.122 526.48 407.239 526.379 409.491C526.279 411.743 527.13 413.946 528.745 415.613C530.36 417.281 532.606 418.278 534.991 418.385L535.37 409.893L535.75 401.401Z" fill="#CB5C3E"/>
<path d="M525 388C526.167 386.166 529.4 383.6 533 388" stroke="#520100" stroke-linecap="round"/>
<path d="M519 420C514.6 420.4 507.167 416.167 504 414C503.667 417 503.9 423.3 507.5 424.5C513.5 426.5 517.667 422.333 519 420Z" fill="white"/>
<path d="M502 389C503.667 386 508.5 381.5 514.5 387.5" stroke="#520100" stroke-linecap="round"/>
<path d="M522.5 392.5C522.333 396.333 522.4 403.3 524 406.5C526 410.5 529 414 520 415.5" stroke="#C0491E" stroke-linecap="round"/>
<path d="M474 390L498 394.5C497.833 398.667 499.5 406.9 507.5 406.5C515.5 406.1 517.5 399.667 517.5 396.5H524.5C525.333 400.333 528.7 407.9 535.5 407.5C542.3 407.1 543.667 403.667 543.5 402V398.5L537 398" stroke="#FFAF00" stroke-width="1.2" stroke-linecap="round"/>
<path d="M456 386C459.333 385.167 466.2 385.8 467 395" stroke="#C0491E" stroke-linecap="round"/>
<ellipse cx="508" cy="394.5" rx="2" ry="2.5" fill="#360C0D"/>
<ellipse cx="528" cy="395.5" rx="2" ry="2.5" fill="#360C0D"/>
<path d="M472 984C470 973.6 463.167 968.667 460 967.5C459.334 967.333 457.8 967 457 967L440 1026.5C438.334 1031.5 437.1 1041.5 445.5 1041.5H579C581 1035.67 581.4 1023.4 567 1021C565.4 1020.6 533.667 1010.83 518 1006C514.833 1005.33 509.2 1002.9 512 998.5C514.8 994.1 517.833 986 519 982.5C517.667 980.833 514.201 977.4 511 977C510.5 976.667 507.2 975.8 498 975C486 974.2 475.667 980.667 472 984Z" fill="white" stroke="white" stroke-linecap="round"/>
<path d="M508 1022L529 1009.5" stroke="black" stroke-linecap="round"/>
<path d="M496 1017L515.5 1005.5" stroke="black" stroke-linecap="round"/>
<path d="M445.5 1041.5C437.1 1041.5 438.334 1031.5 440 1026.5L449.5 993.251C448.167 1007.83 458 1037.9 508 1041.5H445.5Z" fill="#FFEFE0" stroke="#FFEFE0" stroke-linecap="round"/>
<rect x="439" y="1032" width="141" height="2" fill="#FFC08B"/>
<rect x="717.207" y="979.604" width="126.549" height="2" transform="rotate(-23.58 717.207 979.604)" fill="#FFC08B"/>
<path d="M606.365 650L664.289 549.5H732.142L675.209 650H606.365Z" fill="#F7B1B1" stroke="#F7B1B1"/>
<rect x="659.5" y="542.5" width="74" height="7" rx="3.5" fill="white" stroke="white"/>
<rect x="601.628" y="646.202" width="116.313" height="6.10789" rx="3.05395" transform="rotate(-60.1955 601.628 646.202)" fill="white" stroke="white"/>
<path d="M1065.5 300.5C1051.5 307.7 1051 321.833 1052.5 328H1187.5C1189.5 311 1179 304.5 1171.5 300.5C1165.5 297.3 1137.33 277.166 1124 267.5C1122.17 266.666 1117.9 265.5 1115.5 267.5C1112.5 270 1083 291.5 1065.5 300.5Z" fill="#FFCC01" stroke="#FFCC01" stroke-linecap="round"/>
<path d="M1187.5 328C1189.5 311 1179 304.5 1171.5 300.5C1170.45 299.939 1168.72 298.858 1166.5 297.403C1158.17 305.602 1131.8 321.6 1093 320C1063.8 319.6 1053.54 319.833 1052.06 320C1051.74 323.165 1052.01 326.001 1052.5 328H1187.5Z" fill="#FFB502" stroke="#FFB502" stroke-linecap="round"/>
<path d="M1141 325.5C1141 327.667 1140.46 329.812 1139.4 331.814C1138.35 333.816 1136.8 335.635 1134.85 337.167C1132.9 338.699 1130.58 339.915 1128.04 340.744C1125.49 341.573 1122.76 342 1120 342C1117.24 342 1114.51 341.573 1111.96 340.744C1109.42 339.915 1107.1 338.699 1105.15 337.167C1103.2 335.635 1101.65 333.816 1100.6 331.814C1099.54 329.812 1099 327.667 1099 325.5L1120 325.5H1141Z" fill="white"/>
<path d="M1239 360C1245.8 354 1253.83 354.833 1257 356L1257.5 359C1249.1 359.8 1244.67 369 1243.5 373.5C1240.3 375.9 1239.17 365.5 1239 360Z" fill="#480004" stroke="#480004" stroke-linecap="round"/>
<path d="M1309.5 417C1308.7 441 1319.5 454.333 1325 458C1326.41 458.967 1329.15 460.425 1333 461.85C1341.8 485.729 1320 506.9 1308 514.5C1295.33 519.833 1267.6 526.6 1258 511C1248.4 495.4 1260 470.833 1267 460.5C1269 455.3 1268.5 447.333 1268 444C1234 448.8 1232.83 421 1236.5 406.5C1237.33 401.167 1239.8 387.4 1243 375C1246.2 362.6 1253.86 359.167 1257.3 359C1259.64 372.784 1275.07 383.611 1283 387.5C1283.8 398.7 1287.33 403.5 1289 404.5C1290.5 396.5 1295 389 1304 388.5C1313 388 1318 394 1319 402C1319.8 408.4 1313 414.667 1309.5 417Z" fill="#FFBBB2" stroke="#FFBBB2" stroke-linecap="round"/>
<path d="M1262 341C1244.4 338.6 1239.33 352.667 1239 360C1245.8 354 1253.83 354.833 1257 356C1257.4 371.2 1274.5 383.333 1283 387.5C1283.8 398.7 1287.33 403.5 1289 404.5C1290.5 396.5 1295 389 1304 388.5C1313 388 1318 394 1319 402C1319.8 408.4 1313 414.667 1309.5 417C1308.7 441 1319.5 454.333 1325 458C1328.17 460.167 1338 464.8 1352 466C1366 467.2 1376.5 473.167 1380 476C1394.8 471.2 1404.5 456.667 1407.5 450C1394.5 453 1375.5 436.5 1376 428C1376.4 421.2 1375.17 414.833 1374.5 412.5C1371.83 407.5 1363.7 396.9 1352.5 394.5C1338.5 391.5 1327 364.5 1325.5 359.5C1324.3 355.5 1320.33 350.833 1318.5 349C1315.17 345.667 1305.7 338 1294.5 334C1283.3 330 1268.17 337 1262 341Z" fill="#731112" stroke="#731112" stroke-linecap="round"/>
<path d="M1268.68 339C1267.34 346.167 1267.08 361 1276.68 363C1286.28 365 1295.68 381.167 1299.18 389" stroke="#54050A" stroke-width="2" stroke-linecap="round"/>
<path d="M1308 514.5C1295.33 519.833 1267.6 526.6 1258 511C1280 529 1340 505 1325 458C1326.41 458.967 1329.15 460.425 1333 461.85C1341.8 485.729 1320 506.9 1308 514.5Z" fill="#FF9180" stroke="#FF9180" stroke-linecap="round"/>
<path d="M1376 428C1376.4 421.2 1375.17 414.833 1374.5 412.5C1374.2 411.3 1372.71 409.356 1372 408.534C1348.8 438.162 1326 420.879 1317.5 408.534C1315.43 412.319 1311.77 415.487 1309.5 417C1308.7 441 1319.5 454.333 1325 458C1328.17 460.167 1338 464.8 1352 466C1366 467.2 1376.5 473.167 1380 476C1394.8 471.2 1404.5 456.667 1407.5 450C1394.5 453 1375.5 436.5 1376 428Z" fill="#600006"/>
<path d="M1283 387.5C1283.8 398.7 1287.33 403.5 1289 404.5C1290.19 398.147 1293.27 392.11 1299 389.642C1277.4 386.956 1262 366.095 1257 356C1257.4 371.2 1274.5 383.333 1283 387.5Z" fill="#600006"/>
<path d="M1376 428C1376.4 421.2 1375.17 414.833 1374.5 412.5C1374.2 411.3 1372.71 409.356 1372 408.534C1348.8 438.162 1326 420.879 1317.5 408.534C1315.43 412.319 1311.77 415.487 1309.5 417C1308.7 441 1319.5 454.333 1325 458C1328.17 460.167 1338 464.8 1352 466C1366 467.2 1376.5 473.167 1380 476C1394.8 471.2 1404.5 456.667 1407.5 450C1394.5 453 1375.5 436.5 1376 428Z" stroke="#600006" stroke-linecap="round"/>
<path d="M1283 387.5C1283.8 398.7 1287.33 403.5 1289 404.5C1290.19 398.147 1293.27 392.11 1299 389.642C1277.4 386.956 1262 366.095 1257 356C1257.4 371.2 1274.5 383.333 1283 387.5Z" stroke="#600006" stroke-linecap="round"/>
<path d="M1380 476C1394.8 471.2 1404.5 456.667 1407.5 450C1397.1 462 1374 444 1377.64 433.5C1382.48 442.048 1396.96 452.432 1407.5 450C1404.5 456.667 1394.8 471.2 1380 476C1376.5 473.167 1366 467.2 1352 466C1338 464.8 1328.17 460.167 1325 458C1319.5 454.333 1308.7 441 1309.5 417C1311.77 415.487 1315.43 412.319 1317.5 408.534C1316.33 420.856 1321.6 449.6 1352 466C1366 467.2 1376.5 473.167 1380 476Z" fill="#480004"/>
<path d="M1407.5 450C1404.5 456.667 1394.8 471.2 1380 476C1376.5 473.167 1366 467.2 1352 466M1407.5 450C1396.96 452.432 1382.48 442.048 1377.64 433.5C1374 444 1397.1 462 1407.5 450ZM1352 466C1338 464.8 1328.17 460.167 1325 458C1319.5 454.333 1308.7 441 1309.5 417C1311.77 415.487 1315.43 412.319 1317.5 408.534C1316.33 420.856 1321.6 449.6 1352 466Z" stroke="#480004" stroke-linecap="round"/>
<path d="M1287.5 435C1278.7 441 1270.83 444.5 1268 445L1262 469C1276 469 1284.83 446.333 1287.5 435Z" fill="#FF9180" stroke="#FF9180" stroke-linecap="round"/>
<circle cx="1269.5" cy="405.5" r="8.5" fill="#FFA2A0"/>
<path d="M1263 411L1249 414.5C1249.83 416.667 1252.8 421 1258 421C1263.2 421 1263.5 414.333 1263 411Z" fill="white" stroke="white" stroke-linecap="round"/>
<path d="M1251 391C1250.17 394 1247.7 400.2 1244.5 401C1241.3 401.8 1245.83 406.333 1248.5 408.5" stroke="#600006" stroke-linecap="round"/>
<path d="M1258 386.156C1258.83 384.823 1261.3 382.356 1264.5 383.156C1267.7 383.956 1270.17 386.156 1271 387.156" stroke="#600006" stroke-linecap="round"/>
<path d="M1241 384.156C1242.67 383.156 1246.8 382.156 1250 386.156" stroke="#600006" stroke-linecap="round"/>
<ellipse cx="1243.5" cy="393.5" rx="1.5" ry="2.5" fill="black"/>
<ellipse cx="1260.5" cy="394.5" rx="1.5" ry="2.5" fill="black"/>
<path d="M1297 404C1297.5 401.167 1300.2 395.4 1307 395" stroke="#FF9180" stroke-linecap="round"/>
<path d="M890.417 1034.49L885.506 651.5H907.494L902.583 1034.49C902.541 1037.82 899.83 1040.5 896.5 1040.5C893.17 1040.5 890.459 1037.82 890.417 1034.49Z" fill="#9B4222" stroke="#9B4222"/>
<path d="M907 653H886V664H907V653Z" fill="#7F2200" stroke="#7F2200" stroke-linecap="round"/>
<path d="M314.857 774.443L288.668 685.5L304.999 685.5L331.849 771.989L314.857 774.443Z" fill="#70220E" stroke="#70220E"/>
<path d="M329.5 765.5L312.5 766L314.5 772L331.5 771L329.5 765.5Z" fill="#5E1300" stroke="#5E1300" stroke-linecap="round"/>
<path d="M305 685.5H289L292 697C293.2 693.8 301.833 690.333 306 689L305 685.5Z" fill="#5E1300" stroke="#5E1300" stroke-linecap="round"/>
<path d="M305.5 789.907C305.5 780.278 313.28 772.458 322.91 772.41L502.867 771.503L494.604 806.502L323.09 807.405C313.39 807.456 305.5 799.607 305.5 789.907Z" fill="#70220E" stroke="#70220E"/>
<path d="M498 792C430.8 793.2 404.333 779.667 398.5 772.5C426.5 770.5 451 772.5 460.5 771.5L503 771L498 792Z" fill="#4E1001" stroke="#4E1001" stroke-linecap="round"/>
<path d="M325.375 1035.62L319.513 807.5H342.486L336.136 1035.63C336.068 1038.06 334.074 1040 331.637 1040H329.873C327.433 1040 325.437 1038.06 325.375 1035.62Z" fill="#70220E" stroke="#70220E"/>
<path d="M319.5 807.5H342V813C334.4 815.4 324.5 828.667 320.5 835L319.5 807.5Z" fill="#4E1001" stroke="#4E1001" stroke-linecap="round"/>
<path d="M939.5 623.041C939.5 621.647 940.64 620.522 942.034 620.541L1047.03 621.96C1048.4 621.978 1049.5 623.092 1049.5 624.46V625C1049.5 626.381 1048.38 627.5 1047 627.5H942C940.619 627.5 939.5 626.381 939.5 625V623.041Z" fill="#433A31" stroke="#433A31"/>
<g filter="url(#filter0_d_2224_1679)">
<path d="M1570 264H1632V421H1498V364" stroke="#FDCD09" stroke-width="12"/>
</g>
<g filter="url(#filter1_d_2224_1679)">
<rect x="1442" y="214" width="122" height="144" stroke="#FEEFF6" stroke-width="12" shape-rendering="crispEdges"/>
</g>
<path d="M1558 220H1448V310.5C1455.2 300.5 1468.33 301.667 1474 303.5C1479 306.333 1489.5 312 1491.5 312C1499.5 312 1506.5 305 1520 273.5C1530.8 248.3 1549.83 247.667 1558 250.5V220Z" fill="#FFA046" stroke="#FFA046" stroke-linecap="round"/>
<path d="M1520 273.5C1530.8 248.3 1549.83 247.667 1558 250.5V351.5H1448V310.5C1455.2 300.5 1468.33 301.667 1474 303.5C1479 306.333 1489.5 312 1491.5 312C1499.5 312 1506.5 305 1520 273.5Z" fill="#FEB87C" stroke="#FEB87C" stroke-linecap="round"/>
<circle cx="1490.5" cy="258.5" r="12.5" fill="#FEEFF6"/>
<path d="M1453.5 706C1453.5 702.41 1456.41 699.5 1460 699.5H1669.5V1043.5H1460C1456.41 1043.5 1453.5 1040.59 1453.5 1037V706Z" fill="#FE7F6E" stroke="#FE7F6E"/>
<path d="M1555.5 637C1555.33 619.334 1559.4 583.7 1577 582.5C1585.31 581.934 1591.27 587.002 1595.35 594.5C1603.9 592.5 1620.8 598.2 1620 637H1602.5H1555.5Z" fill="#099654"/>
<path d="M1602.5 637H1555.5C1555.33 619.334 1559.4 583.7 1577 582.5C1585.31 581.934 1591.27 587.002 1595.35 594.5M1602.5 637C1603.74 625.799 1602.09 606.853 1595.35 594.5M1602.5 637H1620C1620.8 598.2 1603.9 592.5 1595.35 594.5" stroke="#099654" stroke-linecap="round"/>
<path d="M1620 637H1602.5H1579H1555.5C1555.49 635.604 1555.5 634.095 1555.55 632.5C1588.78 632.1 1594.03 604.062 1592.5 590.093C1593.54 591.433 1594.49 592.912 1595.35 594.5C1600.91 604.695 1603.01 619.383 1602.87 630.5C1610.37 631.3 1615.93 619.833 1617.77 614C1619.32 619.916 1620.2 627.457 1620 637Z" fill="#078249"/>
<path d="M1602.5 637H1620C1620.2 627.457 1619.32 619.916 1617.77 614C1615.93 619.833 1610.37 631.3 1602.87 630.5M1602.5 637C1602.72 635.044 1602.85 632.852 1602.87 630.5M1602.5 637H1579H1555.5C1555.49 635.604 1555.5 634.095 1555.55 632.5C1588.78 632.1 1594.03 604.062 1592.5 590.093C1593.54 591.433 1594.49 592.912 1595.35 594.5C1600.91 604.695 1603.01 619.383 1602.87 630.5" stroke="#078249" stroke-linecap="round"/>
<path d="M1566.5 699C1552.5 697 1550 656.833 1550.5 637H1623C1624.6 677 1612.33 695 1606 699H1566.5Z" fill="#FFCA00" stroke="#FFCA00" stroke-linecap="round"/>
<path d="M1606 699H1566.5C1561.82 698.332 1558.43 693.401 1556 686.392C1595.2 692.705 1613.67 656.095 1618 637H1623C1624.6 677 1612.33 695 1606 699Z" fill="#FFB400" stroke="#FFB400" stroke-linecap="round"/>
<rect x="1470.5" y="718.5" width="199" height="95" rx="2.5" stroke="#EC220E"/>
<rect x="1470.5" y="826.5" width="199" height="95" rx="2.5" stroke="#EC220E"/>
<rect x="1470.5" y="935.5" width="199" height="95" rx="2.5" stroke="#EC220E"/>
<circle cx="1581.5" cy="736.5" r="8" stroke="#EC220E"/>
<path d="M1278.18 335C1285.18 342.5 1302.18 358.1 1312.18 364.5C1322.18 370.9 1329.01 384.833 1331.18 391C1333.84 398.333 1342.08 413.8 1353.68 417C1365.28 420.2 1383.84 453 1391.68 469" stroke="#54050A" stroke-width="2" stroke-linecap="round"/>
<circle cx="1581.5" cy="846.5" r="8" stroke="#EC220E"/>
<circle cx="1581.5" cy="955.5" r="8" stroke="#EC220E"/>
<path d="M140.505 830.5C137.671 782.5 140.183 690.017 174.505 696C229 705.5 163 809 140.505 830.5Z" fill="#22938D" stroke="#22938D" stroke-linecap="round"/>
<path d="M141 830L152.06 778M169.5 696L156.42 757.5M156.42 757.5L146.5 728.5M156.42 757.5L152.06 778M152.06 778L194 733" stroke="#027280" stroke-linecap="round"/>
<path d="M85.4735 847.38C53.0675 811.857 -3.17502 738.398 27.2647 721.452C75.5965 694.544 89.4281 816.515 85.4735 847.38Z" fill="#22938D" stroke="#22938D" stroke-linecap="round"/>
<path d="M85.5457 846.68L61.4205 799.306M23.3769 724.601L51.9096 780.63M51.9096 780.63L25.9517 764.333M51.9096 780.63L61.4205 799.306M61.4205 799.306L65.7006 737.941" stroke="#027280" stroke-linecap="round"/>
<path d="M111.851 791.857C115.653 727.446 112.282 603.343 66.2264 611.372C-6.90063 624.12 81.6646 763.006 111.851 791.857Z" fill="#22938D" stroke="#22938D" stroke-width="1.3419" stroke-linecap="round"/>
<path d="M111.188 791.186L96.3465 721.408M72.9434 611.372L90.4957 693.899M90.4957 693.899L103.807 654.984M90.4957 693.899L96.3465 721.408M96.3465 721.408L40.0669 661.022" stroke="#027280" stroke-width="1.3419" stroke-linecap="round"/>
<path d="M159.01 882.491C157.007 845.497 190.004 776.504 213.25 788.697C249.011 807.453 181.01 875.491 159.01 882.491Z" fill="#22938D" stroke="#22938D" stroke-width="0.797623" stroke-linecap="round"/>
<path d="M159.499 880.5L179.502 847.5M216 790.5L188.502 832.5M188.502 832.5L184.061 806.555M188.502 832.5L179.502 847.5M179.502 847.5L219.04 821.549" stroke="#027280" stroke-width="0.797623" stroke-linecap="round"/>
<path d="M202.496 977C199.312 954.006 175.496 925.667 162.496 914.5H94.9977C87.8305 920.833 63.9961 940 63.9961 977C63.9961 1021 83.4961 1035.5 97.9961 1043H160.996C175.163 1030.67 206.996 1009.5 202.496 977Z" fill="#FEF0F0" stroke="#FEF0F0" stroke-linecap="round"/>
<path d="M97.9961 1043H160.996C163.907 1040.47 167.565 1037.56 171.5 1034.26C73.9 1022.46 82.1667 950.503 98.5 916L94.9977 914.5C87.8305 920.833 63.9961 940 63.9961 977C63.9961 1021 83.4961 1035.5 97.9961 1043Z" fill="#F7E2DF" stroke="#F7E2DF" stroke-linecap="round"/>
<path d="M141.5 913L159 881" stroke="#027280" stroke-linecap="round"/>
<path d="M125 912L123.25 896.5M111 788L120.935 876M123.25 896.5C120.667 897.667 113.4 896 105 880C96.6 864 88.1667 850.667 85 846M123.25 896.5L120.935 876M120.935 876C125.29 875.333 134.7 869.3 137.5 850.5C139.5 837.7 140.667 830.5 141 828.5" stroke="#027280" stroke-linecap="round"/>
<path d="M85.5 1034.5C93.8333 1018.5 118 987.2 148 990C166.4 991.2 176 995.833 178.5 998C182.333 1000.33 191.4 1004.9 197 1004.5" stroke="#FFC770" stroke-linecap="round"/>
<path d="M116.5 1042.5C120.5 1031.33 135.1 1009 161.5 1009C177.5 1008.2 186.167 1014.33 188.5 1017.5" stroke="#FFC770" stroke-linecap="round"/>
<path d="M73.5 940.5C89.1667 937.166 121.1 934.5 123.5 950.5C125.9 966.5 88.8333 976.833 70 980" stroke="#FFC770" stroke-linecap="round"/>
<path d="M70 946.5C78 946 93.9 946.6 93.5 953C93.1 959.4 77.6667 965.333 70 967.5" stroke="#FFC770" stroke-linecap="round"/>
<path d="M70 1001L102.5 985.5C109.333 980.666 126.6 971.2 141 972C155.4 972.8 170.333 979 176 982C183.5 985.971 199.2 983 202 975" stroke="#FFC770" stroke-linecap="round"/>
<path d="M83.5 926.5C92.6667 925.833 114.7 926.4 129.5 934C144.3 941.6 157.333 947.5 162 949.5C166 951.667 177.5 954.9 191.5 950.5" stroke="#FFC770" stroke-linecap="round"/>
<ellipse cx="128.5" cy="914" rx="34.5" ry="4" fill="#433A31"/>
<path d="M719 302.5H774" stroke="#3A3A3A" stroke-linecap="round"/>
<path d="M1317.19 408.096C1308.65 409.001 1302 416.224 1302 425C1302 434.389 1309.61 442 1319 442C1328.39 442 1336 434.389 1336 425C1336 416.635 1329.96 409.681 1322 408.264" stroke="#FF92DB" stroke-linecap="round"/>
<defs>
<filter id="filter0_d_2224_1679" x="1491" y="251" width="160" height="183" filterUnits="userSpaceOnUse" color-interpolation-filters="sRGB">
<feFlood flood-opacity="0" result="BackgroundImageFix"/>
<feColorMatrix in="SourceAlpha" type="matrix" values="0 0 0 0 0 0 0 0 0 0 0 0 0 0 0 0 0 0 127 0" result="hardAlpha"/>
<feOffset dx="6"/>
<feGaussianBlur stdDeviation="3.5"/>
<feComposite in2="hardAlpha" operator="out"/>
<feColorMatrix type="matrix" values="0 0 0 0 0.996078 0 0 0 0 0.568627 0 0 0 0 0.164706 0 0 0 1 0"/>
<feBlend mode="normal" in2="BackgroundImageFix" result="effect1_dropShadow_2224_1679"/>
<feBlend mode="normal" in="SourceGraphic" in2="effect1_dropShadow_2224_1679" result="shape"/>
</filter>
<filter id="filter1_d_2224_1679" x="1436" y="208" width="144" height="169" filterUnits="userSpaceOnUse" color-interpolation-filters="sRGB">
<feFlood flood-opacity="0" result="BackgroundImageFix"/>
<feColorMatrix in="SourceAlpha" type="matrix" values="0 0 0 0 0 0 0 0 0 0 0 0 0 0 0 0 0 0 127 0" result="hardAlpha"/>
<feOffset dx="6" dy="9"/>
<feGaussianBlur stdDeviation="2"/>
<feComposite in2="hardAlpha" operator="out"/>
<feColorMatrix type="matrix" values="0 0 0 0 0.996078 0 0 0 0 0.568627 0 0 0 0 0.164706 0 0 0 1 0"/>
<feBlend mode="normal" in2="BackgroundImageFix" result="effect1_dropShadow_2224_1679"/>
<feBlend mode="normal" in="SourceGraphic" in2="effect1_dropShadow_2224_1679" result="shape"/>
</filter>
</defs>
</svg>
