<svg width="1300" height="350" viewBox="0 0 1300 350" fill="none" xmlns="http://www.w3.org/2000/svg">
<g clip-path="url(#clip0_805_10561)">
<rect width="1300" height="350" fill="#122315"/>
<g clip-path="url(#clip1_805_10561)">
<mask id="mask0_805_10561" style="mask-type:luminance" maskUnits="userSpaceOnUse" x="-38" y="34" width="144" height="144">
<path d="M106 34H-38V178H106V34Z" fill="white"/>
</mask>
<g mask="url(#mask0_805_10561)">
<path d="M19.3542 175.835C58.0359 184.058 96.0584 159.365 104.28 120.684C112.502 82.0023 87.8104 43.9797 49.129 35.7576C10.4472 27.5356 -27.5755 52.2279 -35.7975 90.9093C-44.0195 129.591 -19.3273 167.613 19.3542 175.835Z" fill="#73D3EB"/>
<path d="M20.4327 170.745C-15.3806 163.133 -38.3237 127.804 -30.7114 91.9902C-23.099 56.177 12.2303 33.2339 48.0433 40.8462C83.8571 48.4586 106.8 83.7878 99.1873 119.601C91.5749 155.415 56.2462 178.358 20.4327 170.745ZM47.8622 41.6995C12.5159 34.1863 -22.3502 56.8286 -29.8633 92.175C-37.3764 127.521 -14.7341 162.388 20.6122 169.9C55.9582 177.414 90.8244 154.771 98.3378 119.425C105.851 84.0786 83.2091 49.2083 47.8629 41.6952L47.8622 41.6995Z" fill="#122315"/>
<path d="M-4.82217 67.0721C-7.00988 64.5485 -6.75562 61.0356 -4.21751 58.8421C-3.53809 58.2545 -2.82733 57.8954 -1.92689 57.6875L-0.110238 59.7861C-1.03053 59.7325 -1.8818 60.0218 -2.5458 60.5994C-3.99162 61.8493 -4.11468 63.8684 -2.83198 65.3478C-1.5602 66.816 0.464163 66.9978 1.90998 65.7479C2.57827 65.1713 2.98882 64.3668 3.06373 63.451L4.8694 65.5385C4.4854 66.4684 4.03936 67.1056 3.37107 67.6823C0.858707 69.859 -2.63882 69.5948 -4.82551 67.0669L-4.82217 67.0721Z" fill="#122315"/>
<path d="M7.47119 61.757L10.9588 59.6678L12.131 61.625L6.46763 65.0175L0.691406 55.3736L2.86726 54.0703L7.47119 61.757Z" fill="#122315"/>
<path d="M16.3577 50.2391L12.4231 51.7808L13.2027 53.7699L16.3873 52.5214L17.2006 54.602L14.0159 55.8505L14.8582 58.0038L18.7928 56.4621L19.6234 58.5863L13.3277 61.0503L9.23047 50.5831L15.5262 48.1191L16.3569 50.2434L16.3577 50.2391Z" fill="#122315"/>
<path d="M28.003 56.7863L27.0547 54.8189L23.2144 55.52L23.0232 57.6932L20.291 58.1905L22.0334 46.4446L24.955 45.9121L30.7318 56.2838L27.9997 56.7811L28.003 56.7863ZM23.4159 53.2159L26.0559 52.7344L23.8658 48.1562L23.42 53.2168L23.4159 53.2159Z" fill="#122315"/>
<path d="M38.722 45.3432L41.2565 45.4427L40.8216 56.6723L38.3183 56.5749L34.2942 49.686L34.0363 56.4102L31.502 56.3107L31.9368 45.0811L34.5681 45.1834L38.4587 52.2614L38.7256 45.3483L38.722 45.3432Z" fill="#122315"/>
<path d="M58.8941 50.2739L61.3712 51.1642L54.9152 60.7902L52.3596 59.8742L53.4272 52.3239L49.4403 58.8279L46.873 57.905L48.0236 46.375L50.4723 47.2548L49.3865 55.1385L53.5269 48.3478L55.8563 49.1845L54.753 57.0645L58.8941 50.2739Z" fill="#122315"/>
<path d="M62.9489 65.5854L63.5962 63.5003L60.3118 61.3958L58.6885 62.8564L56.3496 61.3566L65.6296 53.9546L68.1329 55.556L65.2885 67.0809L62.9496 65.5811L62.9489 65.5854ZM62.0296 59.8488L64.2863 61.2956L65.8034 56.4539L62.0252 59.8478L62.0296 59.8488Z" fill="#122315"/>
<path d="M76.1842 65.1424L74.2089 63.3517L68.1922 69.992L66.3027 68.2773L72.3151 61.636L70.3398 59.8452L71.87 58.1562L77.7151 63.4492L76.1849 65.1381L76.1842 65.1424Z" fill="#122315"/>
<path d="M81.8847 72.1268L79.2658 68.815L77.5909 70.1404L79.7138 72.8233L77.964 74.2082L75.8411 71.5254L74.028 72.9591L76.6469 76.2708L74.8607 77.6835L70.668 72.3823L79.4832 65.4097L83.676 70.7108L81.8898 72.1234L81.8847 72.1268Z" fill="#122315"/>
<path d="M79.4952 85.9179L78.2596 83.6322C80.2312 82.6227 80.9505 80.8457 80.1861 79.1614L76.8225 80.9798L75.6152 78.7489L85.504 73.4062L87.2305 76.5993C88.3665 78.7041 87.8865 80.7539 85.9927 81.7754C84.7491 82.4473 83.4938 82.3223 82.504 81.4687C82.5512 83.2489 81.5105 84.8689 79.4894 85.9255L79.4952 85.9179ZM84.808 76.6612L82.0516 78.1472L82.3854 78.7683C82.8989 79.7159 83.7629 80.0327 84.5949 79.5839C85.4421 79.1252 85.6443 78.2143 85.1258 77.2522L84.8036 76.6602L84.808 76.6612Z" fill="#122315"/>
<path d="M-5.08398 150.968L-3.32311 148.716C-3.26886 149.797 -2.81315 150.825 -2.12849 151.361C-1.51969 151.837 -0.814457 151.795 -0.399475 151.263C0.75798 149.783 -2.45249 147.521 -0.453874 144.965C0.75289 143.42 2.61325 143.225 4.19682 144.458C4.84358 144.964 5.28627 145.595 5.59376 146.423L4.0446 148.41C3.97223 147.561 3.66685 146.91 3.13398 146.495C2.60104 146.08 1.987 146.109 1.6446 146.551C0.626271 147.857 3.80343 150.129 1.69929 152.827C0.364525 154.535 -1.59097 154.718 -3.42493 153.286C-4.22435 152.664 -4.7626 151.919 -5.07366 150.961L-5.08398 150.968Z" fill="#122315"/>
<path d="M7.637 160.083L8.12908 157.957L4.69926 156.101L3.18915 157.674L0.746094 156.352L9.45671 148.288L12.0705 149.704L10.08 161.406L7.637 160.083ZM6.29737 154.426L8.65664 155.704L9.81751 150.765L6.30071 154.432L6.29737 154.426Z" fill="#122315"/>
<path d="M21.5051 153.315L23.926 154.073L20.5599 164.795L18.1688 164.043L16.0972 156.34L14.081 162.757L11.6602 161.998L15.0262 151.277L17.5377 152.067L19.4322 159.915L21.506 153.31L21.5051 153.315Z" fill="#122315"/>
<path d="M23.5902 165.259L25.3598 154.158L27.8658 154.558L26.092 165.657L23.5859 165.258L23.5902 165.259Z" fill="#122315"/>
<path d="M36.7026 157.353L34.0363 157.269L33.7523 166.224L31.2008 166.144L31.4848 157.189L28.8184 157.106L28.8901 154.827L36.7695 155.077L36.6975 157.356L36.7026 157.353Z" fill="#122315"/>
<path d="M44.623 165.394L43.7815 163.383L39.9132 163.883L39.6084 166.046L36.8535 166.401L39.2026 154.766L42.1495 154.385L47.3772 165.044L44.6222 165.399L44.623 165.394ZM40.2317 161.591L42.8913 161.247L40.9422 156.559L40.2317 161.591Z" fill="#122315"/>
<path d="M53.802 153.605L51.2646 154.419L53.9984 162.951L51.5664 163.729L48.8318 155.198L46.2944 156.011L45.5977 153.84L53.106 151.435L53.802 153.605Z" fill="#122315"/>
<path d="M58.9506 161.009L54.1738 150.837L56.4706 149.758L61.2466 159.931L58.9506 161.009Z" fill="#122315"/>
<path d="M60.3272 154.42C58.4253 151.615 59.1272 148.189 61.973 146.26C64.8297 144.321 68.2595 144.944 70.1613 147.748C72.0632 150.552 71.3722 153.968 68.5155 155.907C65.6704 157.836 62.229 157.224 60.3272 154.42ZM67.9948 149.217C66.8864 147.584 64.9257 147.185 63.3344 148.266C61.7526 149.341 61.397 151.306 62.509 152.94C63.6217 154.574 65.5781 154.972 67.1584 153.902C68.7548 152.821 69.1068 150.851 67.9991 149.218L67.9948 149.217Z" fill="#122315"/>
<path d="M71.9694 137.694L73.7032 135.839L81.9155 143.517L80.205 145.345L72.3621 143.882L77.277 148.476L75.5432 150.33L67.3301 142.652L69.1279 140.728L77.0261 142.415L71.9701 137.69L71.9694 137.694Z" fill="#122315"/>
<path d="M89.5587 107.163C91.926 107.36 93.39 108.758 93.2293 110.641C93.0714 112.532 91.3994 113.655 89.0285 113.457C86.6707 113.257 85.1994 111.871 85.3573 109.979C85.5136 108.095 87.2002 106.967 89.5587 107.163ZM89.174 111.748C90.5987 111.869 91.5914 111.375 91.6605 110.507C91.7333 109.644 90.8387 108.988 89.4133 108.871C87.9965 108.752 87.0082 109.247 86.9354 110.11C86.8634 110.973 87.7529 111.628 89.1703 111.743L89.174 111.748Z" fill="#122315"/>
<path d="M86.5446 119.686C84.8894 119.334 84.0785 117.934 84.4276 116.291C84.7796 114.636 86.1454 113.781 87.9068 114.156C89.3076 114.453 90.6639 115.482 92.1294 117.311L91.7148 119.264C90.9897 118.081 90.2188 117.22 89.493 116.733C89.6785 117.114 89.7221 117.492 89.6276 117.937C89.3505 119.241 88.1017 120.022 86.5526 119.693L86.5446 119.686ZM86.8581 118.045C87.5883 118.201 88.1934 117.819 88.333 117.161C88.477 116.481 88.0545 115.904 87.333 115.75C86.6239 115.6 86.0341 115.975 85.8923 116.642C85.7505 117.308 86.1577 117.897 86.8581 118.045Z" fill="#122315"/>
<path d="M56.503 96.5271C53.5394 89.4508 48.4994 81.3963 41.3503 72.3657C31.1377 77.7504 23.2612 83.0593 17.6805 88.275C12.0989 93.495 8.74871 98.7368 7.64616 103.924C6.08434 111.272 7.28158 117.933 11.1235 123.882C14.9611 129.831 20.6112 133.619 27.9971 135.189C35.383 136.758 42.0427 135.587 48.0107 131.723C53.9787 127.859 57.743 122.252 59.3052 114.904C60.4078 109.718 59.479 103.566 56.503 96.5271ZM30.5073 128.18L29.6655 128.112C22.9194 127.477 16.8003 122.2 14.8814 115.742C14.152 113.266 14.0771 110.717 14.4058 108.231L15.9502 108.271L16.0131 109.123C16.3665 115.538 19.391 120.302 24.6718 123.803C26.5249 125.062 28.6363 126.003 30.7984 126.768L30.4988 128.178L30.5073 128.18Z" fill="#122315"/>
</g>
</g>
<g clip-path="url(#clip2_805_10561)">
<mask id="mask1_805_10561" style="mask-type:luminance" maskUnits="userSpaceOnUse" x="1058" y="200" width="144" height="144">
<path d="M1202 200H1058V344H1202V200Z" fill="white"/>
</mask>
<g mask="url(#mask1_805_10561)">
<path d="M1110.03 341.053C1148.01 352.086 1187.74 330.244 1198.77 292.269C1209.8 254.294 1187.96 214.565 1149.99 203.532C1112.01 192.499 1072.28 214.34 1061.25 252.316C1050.22 290.291 1072.06 330.02 1110.03 341.053Z" fill="#AEDEE5"/>
<path d="M1111.49 336.057C1076.33 325.842 1056.03 288.927 1066.25 253.768C1076.46 218.608 1113.38 198.314 1148.54 208.529C1183.7 218.744 1203.99 255.658 1193.77 290.818C1183.56 325.977 1146.65 346.271 1111.49 336.057ZM1148.29 209.366C1113.59 199.285 1077.16 219.313 1067.08 254.014C1057 288.715 1077.03 325.145 1111.73 335.228C1146.43 345.309 1182.86 325.281 1192.94 290.58C1203.02 255.879 1182.99 219.448 1148.29 209.366Z" fill="#122315"/>
<path d="M1087.01 244.9L1079.16 240.018L1080.27 238.246L1088.11 243.128L1087.01 244.9Z" fill="#122315"/>
<path d="M1084.98 231.875L1086.29 230.249L1093.49 236.042L1092.2 237.647L1085.68 236.928L1090 240.395L1088.69 242.021L1081.49 236.228L1082.84 234.539L1089.42 235.443L1084.99 231.877L1084.98 231.875Z" fill="#122315"/>
<path d="M1097.02 226.682C1098.84 228.752 1098.63 231.413 1096.49 233.298L1094.26 235.263L1088.16 228.328L1090.39 226.364C1092.53 224.482 1095.19 224.615 1097.02 226.686L1097.02 226.682ZM1095.18 231.951C1096.39 230.888 1096.48 229.332 1095.4 228.101C1094.32 226.875 1092.77 226.766 1091.56 227.83L1090.96 228.353L1094.59 232.476L1095.19 231.953L1095.18 231.951Z" fill="#122315"/>
<path d="M1098.76 226.85L1095.72 221.945L1097.5 220.847L1100.54 225.748C1101.12 226.679 1101.98 226.9 1102.84 226.371C1103.69 225.841 1103.88 224.965 1103.3 224.033L1100.26 219.132L1102.03 218.034L1105.07 222.935C1106.28 224.875 1105.79 226.777 1103.84 227.986C1101.89 229.2 1099.97 228.787 1098.77 226.847L1098.76 226.85Z" fill="#122315"/>
<path d="M1107.74 224.971L1106.8 222.814C1107.6 223.2 1108.53 223.274 1109.18 222.99C1109.76 222.738 1110.01 222.214 1109.79 221.707C1109.18 220.291 1106.29 221.719 1105.23 219.273C1104.58 217.795 1105.17 216.375 1106.69 215.717C1107.3 215.449 1107.93 215.379 1108.66 215.481L1109.49 217.38C1108.84 217.098 1108.26 217.068 1107.75 217.285C1107.24 217.508 1107.02 217.959 1107.2 218.387C1107.74 219.634 1110.63 218.236 1111.75 220.812C1112.46 222.446 1111.82 223.934 1110.07 224.694C1109.31 225.025 1108.56 225.123 1107.75 224.972L1107.74 224.971Z" fill="#122315"/>
<path d="M1117.61 214.187L1115.51 214.791L1117.55 221.872L1115.53 222.452L1113.49 215.371L1111.39 215.975L1110.87 214.176L1117.1 212.383L1117.62 214.183L1117.61 214.187Z" fill="#122315"/>
<path d="M1126.82 220.216L1124.7 220.513C1124.49 218.702 1123.32 217.64 1121.81 217.746L1122.25 220.856L1120.18 221.147L1118.89 211.996L1121.84 211.58C1123.79 211.305 1125.23 212.262 1125.48 214.014C1125.64 215.164 1125.19 216.094 1124.25 216.616C1125.63 217.086 1126.58 218.352 1126.82 220.215L1126.82 220.216ZM1121.2 213.473L1121.57 216.023L1122.14 215.941C1123.02 215.816 1123.51 215.241 1123.4 214.472C1123.29 213.689 1122.65 213.272 1121.76 213.398L1121.2 213.473Z" fill="#122315"/>
<path d="M1134.31 210.949L1131.27 216.649L1131.28 220.201L1129.18 220.21L1129.17 216.659L1126.08 210.977L1128.45 210.967L1130.22 214.893L1131.94 210.953L1134.3 210.943L1134.31 210.949Z" fill="#122315"/>
<path d="M1137.24 220.662L1138.68 211.532L1140.74 211.855L1139.3 220.985L1137.24 220.662Z" fill="#122315"/>
<path d="M1148.68 213.794L1150.68 214.376L1148.12 223.253L1146.14 222.678L1144.28 216.39L1142.75 221.707L1140.75 221.125L1143.31 212.248L1145.39 212.852L1147.1 219.265L1148.68 213.794Z" fill="#122315"/>
<path d="M1158.48 217.926L1160.35 218.849L1156.27 227.138L1154.42 226.227L1153.7 219.705L1151.26 224.667L1149.39 223.744L1153.48 215.454L1155.42 216.411L1155.97 223.024L1158.48 217.922L1158.48 217.926Z" fill="#122315"/>
<path d="M1159.7 223.733C1161.37 221.508 1164.22 221.14 1166.48 222.834C1168.75 224.538 1169.18 227.374 1167.5 229.599C1165.83 231.825 1162.99 232.201 1160.72 230.498C1158.46 228.802 1158.02 225.959 1159.7 223.733ZM1165.79 228.309C1166.76 227.01 1166.55 225.382 1165.28 224.43C1164.02 223.486 1162.4 223.738 1161.43 225.032C1160.46 226.331 1160.66 227.96 1161.92 228.904C1163.19 229.854 1164.81 229.608 1165.79 228.309Z" fill="#122315"/>
<path d="M1175.55 231.468L1177.11 233.141L1168.25 237.187L1166.61 235.428L1171.27 226.867L1172.83 228.54L1168.84 234.991L1175.55 231.468Z" fill="#122315"/>
<path d="M1173.19 243.715L1174.35 242.342L1172.53 239.702L1170.83 240.294L1169.53 238.413L1178.92 235.75L1180.31 237.761L1174.49 245.596L1173.19 243.714L1173.19 243.715ZM1174.32 239.072L1175.57 240.887L1178.27 237.697L1174.33 239.073L1174.32 239.072Z" fill="#122315"/>
<path d="M1183.32 246.952L1182.32 245.006L1175.78 248.398L1174.81 246.535L1181.35 243.143L1180.34 241.196L1182.01 240.333L1184.99 246.09L1183.32 246.952Z" fill="#122315"/>
<path d="M1176.99 251.05L1185.57 247.619L1186.35 249.557L1177.76 252.988L1176.99 251.05Z" fill="#122315"/>
<path d="M1182.77 252.639C1185.47 251.96 1187.92 253.471 1188.61 256.212C1189.3 258.966 1187.86 261.438 1185.15 262.116C1182.45 262.796 1180.01 261.299 1179.32 258.545C1178.63 255.806 1180.07 253.319 1182.78 252.641L1182.77 252.639ZM1184.63 260.03C1186.2 259.633 1187.06 258.233 1186.68 256.698C1186.29 255.176 1184.87 254.348 1183.3 254.741C1181.73 255.137 1180.87 256.537 1181.25 258.062C1181.63 259.597 1183.05 260.425 1184.63 260.034L1184.63 260.03Z" fill="#122315"/>
<path d="M1190.23 269.092L1190.35 271.174L1181.12 271.697L1181.01 269.643L1186.33 265.811L1180.8 266.127L1180.69 264.045L1189.91 263.518L1190.03 265.681L1184.55 269.42L1190.23 269.095L1190.23 269.092Z" fill="#122315"/>
<path d="M1069.52 284.765L1071.12 283.966L1070.51 280.817L1068.72 280.683L1068.28 278.44L1077.96 279.747L1078.43 282.142L1069.96 287.003L1069.52 284.761L1069.52 284.765ZM1072.4 280.958L1072.83 283.123L1076.57 281.273L1072.4 280.958Z" fill="#122315"/>
<path d="M1080.98 290.512L1081.69 292.471L1073 295.619L1072.3 293.684L1076.3 288.488L1071.1 290.372L1070.39 288.412L1079.08 285.265L1079.82 287.3L1075.64 292.452L1080.98 290.513L1080.98 290.512Z" fill="#122315"/>
<path d="M1081.99 302.633C1079.59 303.985 1077.03 303.228 1075.63 300.739L1074.17 298.147L1082.23 293.619L1083.69 296.211C1085.09 298.696 1084.4 301.28 1082 302.629L1081.99 302.633ZM1077.22 299.742C1078.01 301.146 1079.51 301.56 1080.94 300.756C1082.37 299.954 1082.8 298.453 1082.01 297.048L1081.63 296.357L1076.84 299.047L1077.22 299.738L1077.22 299.742Z" fill="#122315"/>
<path d="M1080.92 308.874L1088.16 303.123L1089.46 304.756L1082.22 310.507L1080.92 308.874Z" fill="#122315"/>
<path d="M1094.08 309.701L1095.56 311.178L1089.02 317.712L1087.56 316.254L1088.99 309.852L1085.08 313.764L1083.6 312.287L1090.14 305.753L1091.67 307.287L1090.06 313.729L1094.08 309.705L1094.08 309.701Z" fill="#122315"/>
<path d="M1099.8 316.681L1097.01 314.608L1095.9 316.108L1098.07 317.724L1096.94 319.236L1094.77 317.62L1092.62 320.511L1090.94 319.265L1096.47 311.859L1100.92 315.177L1099.8 316.679L1099.8 316.681Z" fill="#122315"/>
<path d="M1098.77 319.452C1100.09 316.996 1102.85 316.199 1105.34 317.533C1107.84 318.874 1108.7 321.604 1107.38 324.06C1106.07 326.516 1103.32 327.317 1100.82 325.979C1098.33 324.645 1097.46 321.908 1098.77 319.452ZM1105.49 323.047C1106.25 321.617 1105.8 320.037 1104.4 319.293C1103.02 318.551 1101.45 319.045 1100.68 320.477C1099.91 321.907 1100.37 323.486 1101.75 324.228C1103.15 324.976 1104.72 324.482 1105.49 323.052L1105.49 323.047Z" fill="#122315"/>
<path d="M1107.32 328.33L1108.11 326.113C1108.43 326.943 1109.06 327.628 1109.73 327.863C1110.33 328.074 1110.87 327.859 1111.05 327.334C1111.56 325.879 1108.47 324.954 1109.36 322.438C1109.9 320.917 1111.3 320.281 1112.86 320.828C1113.49 321.053 1114 321.428 1114.46 321.995L1113.77 323.95C1113.5 323.304 1113.09 322.882 1112.57 322.695C1112.04 322.511 1111.57 322.695 1111.42 323.13C1110.96 324.412 1114.03 325.354 1113.1 328.01C1112.5 329.69 1111.03 330.346 1109.22 329.708C1108.43 329.431 1107.82 328.989 1107.32 328.326L1107.32 328.33Z" fill="#122315"/>
<path d="M1121.6 325.27L1119.46 324.788L1117.85 331.975L1115.8 331.516L1117.41 324.329L1115.27 323.848L1115.68 322.019L1122.01 323.441L1121.6 325.27Z" fill="#122315"/>
<path d="M1128.87 333.342L1126.74 333.165C1126.92 331.354 1126.02 330.062 1124.52 329.832L1124.26 332.967L1122.18 332.797L1122.94 323.585L1125.91 323.83C1127.87 323.992 1129.07 325.24 1128.93 327.006C1128.83 328.162 1128.18 328.973 1127.15 329.274C1128.4 330.04 1129.05 331.484 1128.87 333.349L1128.87 333.342ZM1124.87 325.528L1124.66 328.093L1125.24 328.138C1126.12 328.21 1126.72 327.758 1126.79 326.981C1126.85 326.192 1126.31 325.645 1125.42 325.571L1124.87 325.524L1124.87 325.528Z" fill="#122315"/>
<path d="M1130.32 329.91L1129.97 324.151L1132.06 324.024L1132.4 329.783C1132.47 330.878 1133.13 331.485 1134.13 331.424C1135.13 331.363 1135.71 330.681 1135.65 329.586L1135.3 323.828L1137.38 323.701L1137.73 329.46C1137.87 331.741 1136.54 333.181 1134.24 333.323C1131.95 333.46 1130.46 332.187 1130.32 329.91Z" fill="#122315"/>
<path d="M1138.95 328.132C1138.38 325.444 1139.95 323.018 1142.65 322.443C1143.37 322.287 1144.03 322.314 1144.76 322.523L1145.24 324.758C1144.6 324.356 1143.87 324.225 1143.16 324.375C1141.62 324.701 1140.73 326.107 1141.07 327.681C1141.4 329.242 1142.79 330.178 1144.32 329.852C1145.03 329.7 1145.65 329.288 1146.07 328.654L1146.54 330.875C1145.89 331.392 1145.32 331.673 1144.61 331.828C1141.93 332.398 1139.52 330.82 1138.95 328.132Z" fill="#122315"/>
<path d="M1152.41 321.429L1150.35 322.183L1152.89 329.101L1150.92 329.825L1148.38 322.907L1146.32 323.66L1145.68 321.899L1151.77 319.669L1152.41 321.429Z" fill="#122315"/>
<path d="M1155.65 324.267L1152.87 319.212L1154.7 318.207L1157.48 323.262C1158.01 324.225 1158.86 324.491 1159.74 324.006C1160.62 323.525 1160.85 322.657 1160.33 321.695L1157.55 316.64L1159.38 315.635L1162.16 320.69C1163.26 322.691 1162.68 324.564 1160.66 325.669C1158.65 326.775 1156.76 326.265 1155.66 324.265L1155.65 324.267Z" fill="#122315"/>
<path d="M1171.37 318.133L1169.67 319.439C1168.59 317.974 1167.06 317.622 1165.79 318.465L1167.71 320.951L1166.05 322.224L1160.41 314.905L1162.78 313.084C1164.34 311.883 1166.06 312.004 1167.14 313.407C1167.85 314.326 1167.91 315.362 1167.35 316.274C1168.79 316.001 1170.24 316.631 1171.36 318.132L1171.37 318.133ZM1163.15 315.047L1164.73 317.085L1165.19 316.73C1165.89 316.192 1166.03 315.448 1165.55 314.831C1165.07 314.202 1164.3 314.16 1163.59 314.708L1163.15 315.047Z" fill="#122315"/>
<path d="M1171.47 307.719L1169.02 310.174L1170.26 311.416L1172.25 309.427L1173.55 310.723L1171.56 312.712L1172.91 314.056L1175.36 311.601L1176.69 312.927L1172.76 316.861L1166.22 310.333L1170.15 306.399L1171.47 307.725L1171.47 307.719Z" fill="#122315"/>
<path d="M1074.33 265.051C1072 264.612 1070.69 263.078 1071.04 261.223C1071.38 259.358 1073.16 258.411 1075.5 258.846C1077.82 259.281 1079.15 260.81 1078.8 262.674C1078.45 264.529 1076.66 265.483 1074.34 265.052L1074.33 265.051ZM1075.18 260.529C1073.78 260.266 1072.74 260.656 1072.58 261.51C1072.42 262.362 1073.25 263.103 1074.65 263.363C1076.05 263.624 1077.08 263.232 1077.24 262.38C1077.4 261.526 1076.58 260.787 1075.18 260.525L1075.18 260.529Z" fill="#122315"/>
<path d="M1076.5 252.29C1077.87 252.723 1079.12 253.882 1080.39 255.844L1079.79 257.747C1079.19 256.496 1078.5 255.565 1077.83 255.007C1077.97 255.407 1077.98 255.784 1077.84 256.218C1077.44 257.489 1076.11 258.143 1074.6 257.664C1072.99 257.154 1072.32 255.677 1072.82 254.083C1073.34 252.46 1074.78 251.742 1076.5 252.29ZM1075.77 253.824C1075.08 253.605 1074.46 253.92 1074.25 254.57C1074.04 255.223 1074.39 255.844 1075.07 256.061C1075.79 256.286 1076.43 255.965 1076.63 255.323C1076.84 254.661 1076.47 254.045 1075.77 253.823L1075.77 253.824Z" fill="#122315"/>
<path d="M1184.86 284.464C1187.15 285.109 1188.32 286.763 1187.8 288.575C1187.28 290.4 1185.42 291.179 1183.14 290.534C1180.86 289.891 1179.68 288.246 1180.2 286.422C1180.72 284.606 1182.59 283.817 1184.86 284.464ZM1183.61 288.889C1184.99 289.281 1186.05 288.985 1186.29 288.149C1186.52 287.315 1185.77 286.503 1184.4 286.113C1183.03 285.726 1181.97 286.022 1181.73 286.856C1181.49 287.691 1182.24 288.502 1183.61 288.889Z" fill="#122315"/>
<path d="M1181.54 296.971C1180.22 296.415 1179.08 295.149 1177.99 293.073L1178.76 291.233C1179.25 292.533 1179.84 293.527 1180.47 294.142C1180.36 293.73 1180.39 293.356 1180.57 292.937C1181.08 291.708 1182.46 291.178 1183.92 291.792C1185.48 292.448 1186.02 293.978 1185.37 295.521C1184.71 297.092 1183.2 297.671 1181.54 296.972L1181.54 296.971ZM1182.4 295.509C1183.07 295.789 1183.72 295.535 1183.99 294.903C1184.25 294.275 1183.96 293.621 1183.3 293.343C1182.61 293.053 1181.95 293.317 1181.69 293.937C1181.42 294.578 1181.73 295.222 1182.4 295.509Z" fill="#122315"/>
<path d="M1167.91 255.828L1153.64 251.682C1150.7 259.933 1147.12 270.127 1143.4 281.701L1141.05 281.018L1144.41 269.441C1139.5 261.856 1132.71 255.206 1124.95 251.012L1121.61 262.506C1117.15 255.732 1110.14 249.348 1102.58 244.513L1090.44 286.319L1155.38 305.186C1160.97 285.941 1165 268.654 1167.91 255.828Z" fill="#122315"/>
<path d="M1111.07 295.463C1110.35 297.955 1103.63 291.092 1103.04 293.13C1102.45 295.168 1108.82 276.119 1108.82 276.119L1115.3 278.002C1115.3 278.002 1111.8 292.971 1111.07 295.463Z" fill="#AEDEE5"/>
</g>
</g>
<g clip-path="url(#clip3_805_10561)">
<mask id="mask2_805_10561" style="mask-type:luminance" maskUnits="userSpaceOnUse" x="1169" y="-38" width="144" height="144">
<path d="M1313 -38H1169V106H1313V-38Z" fill="white"/>
</mask>
<g mask="url(#mask2_805_10561)">
<path d="M1255.9 104.331C1294.58 96.1089 1319.27 58.0864 1311.05 19.4049C1302.83 -19.2765 1264.8 -43.9688 1226.12 -35.7468C1187.44 -27.5247 1162.75 10.498 1170.97 49.1795C1179.19 87.8609 1217.21 112.553 1255.9 104.331Z" fill="#F0652A"/>
<path d="M1254.81 99.2414C1219 106.854 1183.67 83.9113 1176.06 48.0974C1168.45 12.2844 1191.39 -23.0448 1227.2 -30.6572C1263.02 -38.2695 1298.34 -15.3264 1305.96 20.4868C1313.57 56.3003 1290.63 91.6291 1254.81 99.2414ZM1227.38 -29.804C1192.04 -22.2909 1169.39 12.5752 1176.91 47.9214C1184.42 83.2676 1219.29 105.91 1254.63 98.3971C1289.98 90.8836 1312.62 56.0182 1305.11 20.6715C1297.6 -14.6748 1262.72 -37.3204 1227.38 -29.8082L1227.38 -29.804Z" fill="#122315"/>
<path d="M1186.11 24.7572L1186.9 20.0869L1192.07 20.9565C1192.81 22.1707 1193.13 23.5755 1192.87 25.1448C1192.29 28.5818 1189.47 30.5615 1186.14 30.004C1182.78 29.4393 1180.8 26.5999 1181.37 23.2132C1181.52 22.3255 1181.8 21.6088 1182.28 21.0201L1184.97 21.4728C1184.31 22.0961 1183.93 22.7458 1183.79 23.5519C1183.46 25.498 1184.61 27.0767 1186.59 27.4103C1188.59 27.7446 1190.22 26.6201 1190.55 24.6884C1190.64 24.1503 1190.59 23.6401 1190.45 23.1431L1188.64 22.8388L1188.26 25.1211L1186.11 24.758L1186.11 24.7572Z" fill="#122315"/>
<path d="M1187.83 10.3465L1186.34 14.2934L1188.33 15.0489L1189.54 11.8503L1191.63 12.6397L1190.42 15.8383L1192.58 16.6566L1194.08 12.7098L1196.21 13.5165L1193.81 19.8378L1183.3 15.856L1185.7 9.53467L1187.83 10.3414L1187.83 10.3465Z" fill="#122315"/>
<path d="M1190.78 0.450217L1192.11 -1.70557L1201.67 4.21385L1200.35 6.34396L1192.38 6.44593L1198.1 9.98673L1196.76 12.1425L1187.21 6.22309L1188.59 3.98491L1196.67 4.09283L1190.78 0.449343L1190.78 0.450217Z" fill="#122315"/>
<path d="M1205.16 -7.66284C1207.56 -5.32568 1207.57 -2.07863 1205.15 0.408499L1202.64 2.9973L1194.58 -4.83223L1197.09 -7.42095C1199.51 -9.90903 1202.75 -10 1205.16 -7.66284ZM1203.44 -1.0995C1204.8 -2.50328 1204.77 -4.39826 1203.34 -5.78459C1201.91 -7.17172 1200.01 -7.15492 1198.65 -5.75106L1197.98 -5.0587L1202.77 -0.407135L1203.44 -1.0995Z" fill="#122315"/>
<path d="M1287.49 -0.876085L1285.74 -2.89696L1278.96 2.95119L1277.29 1.01621L1284.08 -4.83194L1282.34 -6.84947L1284.07 -8.33936L1289.21 -2.36598L1287.49 -0.876085Z" fill="#122315"/>
<path d="M1295.23 7.27945L1287.37 7.63952L1283.67 9.85537L1282.36 7.66759L1286.06 5.45174L1290.08 -1.29932L1291.56 1.16817L1288.56 5.45828L1293.75 4.82039L1295.23 7.28366L1295.23 7.27945Z" fill="#122315"/>
<path d="M1197.18 65.9113L1199.97 69.7375L1195.73 72.8306C1194.34 72.5084 1193.11 71.7527 1192.18 70.4706C1190.12 67.6553 1190.68 64.2487 1193.41 62.2626C1196.16 60.2582 1199.58 60.8277 1201.6 63.6051C1202.13 64.3309 1202.45 65.0356 1202.53 65.7847L1200.33 67.3935C1200.35 66.4895 1200.15 65.7549 1199.67 65.0938C1198.5 63.5004 1196.57 63.2189 1194.95 64.3978C1193.31 65.5884 1192.97 67.5462 1194.13 69.1287C1194.45 69.5709 1194.85 69.8989 1195.3 70.1397L1196.78 69.0618L1195.42 67.1949L1197.18 65.9106L1197.18 65.9113Z" fill="#122315"/>
<path d="M1207.37 73.4937L1204.34 70.5526L1202.85 72.0842L1205.3 74.4638L1203.75 76.0675L1201.3 73.6878L1199.69 75.3468L1202.72 78.2878L1201.13 79.9249L1196.28 75.2195L1204.1 67.1504L1208.96 71.8558L1207.37 73.4929L1207.37 73.4937Z" fill="#122315"/>
<path d="M1215.35 76.3701L1217.46 77.781L1211.22 87.1322L1209.14 85.7431L1209.31 77.7657L1205.57 83.3642L1203.46 81.954L1209.7 72.6021L1211.89 74.0617L1211.51 82.1286L1215.35 76.3693L1215.35 76.3701Z" fill="#122315"/>
<path d="M1224.93 86.9521C1223.67 90.0633 1220.67 91.2881 1217.45 89.9877L1214.1 88.6321L1218.32 78.2153L1221.67 79.571C1224.88 80.8713 1226.19 83.8401 1224.93 86.9521ZM1218.2 87.8321C1220.02 88.5688 1221.76 87.8175 1222.5 85.9724C1223.25 84.1273 1222.52 82.3797 1220.71 81.643L1219.81 81.283L1217.31 87.4721L1218.2 87.8321Z" fill="#122315"/>
<path d="M1233.67 85.3641L1229.54 84.4986L1229.1 86.5888L1232.45 87.2877L1231.99 89.4746L1228.64 88.7757L1228.17 91.0412L1232.3 91.9059L1231.84 94.1393L1225.22 92.7546L1227.52 81.751L1234.14 83.135L1233.67 85.3684L1233.67 85.3641Z" fill="#122315"/>
<path d="M1243.01 94.8245L1240.41 94.7343C1240.53 92.5205 1239.36 91.0034 1237.52 90.8136L1237.39 94.6347L1234.86 94.5474L1235.24 83.3125L1238.87 83.4369C1241.26 83.519 1242.79 84.97 1242.72 87.1191C1242.67 88.5314 1241.92 89.5496 1240.69 89.9714C1242.25 90.8281 1243.13 92.546 1243.02 94.8231L1243.01 94.8245ZM1237.7 85.5627L1237.59 88.6914L1238.3 88.714C1239.38 88.7518 1240.09 88.1656 1240.12 87.218C1240.15 86.2529 1239.47 85.6223 1238.38 85.5838L1237.7 85.5583L1237.7 85.5627Z" fill="#122315"/>
<path d="M1253.89 84.2383L1249.74 85.0143L1250.13 87.1132L1253.5 86.4834L1253.91 88.6761L1250.55 89.3059L1250.97 91.5801L1255.12 90.8041L1255.54 93.0448L1248.9 94.2885L1246.83 83.2427L1253.47 81.999L1253.89 84.239L1253.89 84.2383Z" fill="#122315"/>
<path d="M1266.25 87.6311L1267.76 88.1541L1266.57 90.2086L1264.95 89.5359C1264.36 90.1046 1263.63 90.5759 1262.76 90.9068C1259.55 92.1344 1256.34 90.7504 1255.13 87.5868C1253.92 84.4231 1255.39 81.245 1258.59 80.0173C1261.82 78.7817 1265.02 80.1744 1266.23 83.338C1266.8 84.8399 1266.77 86.3279 1266.25 87.6275L1266.25 87.6311ZM1261.89 88.6464C1263.69 87.9577 1264.49 86.125 1263.78 84.2791C1263.07 82.4326 1261.26 81.5984 1259.46 82.2871C1257.67 82.9686 1256.88 84.8057 1257.59 86.6471C1258.29 88.493 1260.11 89.3279 1261.89 88.6464Z" fill="#122315"/>
<path d="M1268.17 83.7359L1264.32 77.8741L1266.44 76.4821L1270.3 82.3439C1271.03 83.4574 1272.09 83.7017 1273.11 83.029C1274.13 82.3592 1274.32 81.2879 1273.59 80.1752L1269.74 74.3127L1271.86 72.9214L1275.71 78.7832C1277.24 81.1032 1276.71 83.4297 1274.38 84.9636C1272.04 86.4981 1269.7 86.0596 1268.17 83.7403L1268.17 83.7359Z" fill="#122315"/>
<path d="M1284.37 76.5264L1282.51 75.3912L1279.67 78.0661L1280.69 79.9919L1278.67 81.8952L1273.75 71.0901L1275.91 69.0552L1286.4 74.6217L1284.38 76.5243L1284.37 76.5264ZM1278.58 76.0225L1280.53 74.1832L1276.21 71.5315L1278.58 76.0225Z" fill="#122315"/>
<path d="M1286.91 70.1131L1289.39 66.8927L1291.2 68.2833L1287.17 73.5095L1278.27 66.6484L1279.81 64.6382L1286.91 70.1036L1286.91 70.1131Z" fill="#122315"/>
<path d="M1292 66.9197L1282.43 61.0208L1283.76 58.8608L1293.33 64.7597L1292 66.9197Z" fill="#122315"/>
<path d="M1289.78 51.6603L1288.68 54.0887L1296.85 57.7745L1295.8 60.1003L1287.63 56.4145L1286.54 58.8436L1284.46 57.9047L1287.7 50.7207L1289.78 51.6582L1289.78 51.6603Z" fill="#122315"/>
<path d="M1290.25 40.5971L1296.12 45.8211L1300.33 46.8175L1299.74 49.3033L1295.54 48.3062L1287.94 50.3331L1288.61 47.5339L1293.75 46.56L1289.59 43.3899L1290.25 40.5913L1290.25 40.5971Z" fill="#122315"/>
<path d="M1189.1 53.3876C1186.83 54.0828 1184.95 53.3286 1184.4 51.5206C1183.84 49.7039 1184.98 48.0428 1187.25 47.3468C1189.51 46.6574 1191.4 47.3977 1191.95 49.2137C1192.5 51.0174 1191.36 52.6937 1189.1 53.3876ZM1187.76 48.9883C1186.39 49.4079 1185.65 50.2341 1185.9 51.0632C1186.15 51.8923 1187.23 52.1657 1188.6 51.7505C1189.95 51.3337 1190.69 50.5119 1190.44 49.6785C1190.18 48.845 1189.11 48.5759 1187.75 48.989L1187.76 48.9883Z" fill="#122315"/>
<path d="M1187.61 41.4287C1189.11 41.1574 1190.29 42.0782 1190.6 43.8171C1190.73 44.5218 1190.67 45.116 1190.43 45.7669L1188.84 46.0513C1189.11 45.4163 1189.2 44.9196 1189.1 44.3851C1188.96 43.5858 1188.48 43.1509 1187.87 43.2636C1187.25 43.3778 1186.95 43.9458 1187.1 44.7785C1187.19 45.2273 1187.38 45.6214 1187.73 46.0971L1183.19 46.2665L1182.55 42.7116L1184.07 42.4382L1184.47 44.668L1185.8 44.684C1185.75 44.5473 1185.71 44.4134 1185.69 44.2629C1185.42 42.7669 1186.23 41.6731 1187.62 41.4222L1187.61 41.4287Z" fill="#122315"/>
<path d="M1294.18 19.0803C1296.5 18.5613 1298.32 19.4578 1298.73 21.2998C1299.15 23.1545 1297.88 24.7231 1295.57 25.2421C1293.26 25.7593 1291.44 24.8773 1291.02 23.0226C1290.61 21.1806 1291.88 19.5976 1294.18 19.0803ZM1295.19 23.5699C1296.59 23.2594 1297.38 22.4915 1297.19 21.6443C1297 20.7972 1295.96 20.4429 1294.56 20.7534C1293.17 21.0655 1292.38 21.8291 1292.57 22.6763C1292.76 23.5234 1293.8 23.8777 1295.19 23.5699Z" fill="#122315"/>
<path d="M1294.76 31.1329C1293.24 31.2874 1292.13 30.2759 1291.95 28.518C1291.88 27.8057 1291.98 27.2163 1292.28 26.5855L1293.88 26.4214C1293.56 27.0304 1293.44 27.523 1293.49 28.0653C1293.58 28.8772 1294.02 29.3425 1294.65 29.2805C1295.27 29.2185 1295.61 28.6681 1295.52 27.8298C1295.47 27.3785 1295.31 26.9693 1295 26.4633L1299.53 26.6444L1299.9 30.2403L1298.37 30.3975L1298.13 28.1397L1296.81 28.0254C1296.85 28.1645 1296.87 28.3013 1296.89 28.4526C1297.04 29.964 1296.16 30.991 1294.76 31.1338L1294.76 31.1329Z" fill="#122315"/>
<path d="M1241.11 2.40682L1242.25 7.76369L1252.69 5.54595L1246.56 14.6971C1244.99 14.0044 1243.36 13.5167 1241.69 13.2075C1241.6 13.1992 1241.51 13.1866 1241.46 13.172C1241.09 13.1135 1240.71 13.0559 1240.34 12.9931C1240.16 12.9722 1240 12.9547 1239.83 12.9635C1239.78 12.9743 1239.72 12.9606 1239.66 12.9426C1237.7 12.7763 1235.79 12.9041 1233.88 13.3101C1228.41 14.4731 1224.16 17.3713 1221.18 21.9726C1220.72 22.683 1220.33 23.3718 1219.97 24.115C1217.91 28.1546 1217.35 32.4612 1218.34 37.0793C1219.39 42.016 1221.9 45.9993 1225.9 49.0305C1229.9 52.0611 1234.4 53.3767 1239.43 53.0043L1240.72 59.0793L1233.57 60.5971L1234.71 65.9542L1241.86 64.4356L1243.37 71.5716L1248.74 70.4305L1247.22 63.2953L1254.37 61.7767L1253.23 56.4196L1246.08 57.9382L1244.79 51.864C1245.18 51.7287 1245.56 51.5629 1245.94 51.3978C1246.03 51.3803 1246.11 51.3629 1246.15 51.3273C1246.53 51.1614 1246.88 50.9767 1247.24 50.8211C1247.51 50.6778 1247.77 50.5702 1248.04 50.4029C1248.19 50.3134 1248.31 50.2342 1248.46 50.1447C1251.02 48.6291 1253.19 46.5622 1254.93 43.8894C1257.92 39.2873 1258.84 34.2374 1257.68 28.7744C1257.22 26.6265 1256.43 24.6027 1255.31 22.7081C1254.18 20.8134 1252.83 19.1317 1251.21 17.6736L1257.36 8.60224L1259.58 19.0274L1264.94 17.887L1260.78 -1.71973L1241.15 2.4514L1241.12 2.40588L1241.11 2.40682Z" fill="#122315"/>
<path d="M1229.47 36.7963C1235.78 35.9548 1242.03 34.6268 1248.14 32.8262L1248.87 36.2217C1247.28 36.4086 1245.71 36.6625 1244.14 36.9425C1239.44 37.8036 1234.77 38.8065 1230.19 40.1919L1229.47 36.7963Z" fill="#F0652A"/>
<path d="M1227.7 28.4723C1234.01 27.6311 1240.26 26.303 1246.37 24.5024L1247.1 27.8982C1245.51 28.0851 1243.94 28.3389 1242.37 28.619C1237.67 29.48 1233 30.4827 1228.42 31.8682L1227.7 28.4723Z" fill="#F0652A"/>
</g>
</g>
<g clip-path="url(#clip4_805_10561)">
<path d="M178.33 361.896C217.876 361.896 249.934 329.839 249.934 290.293C249.934 250.747 217.876 218.689 178.33 218.689C138.785 218.689 106.727 250.747 106.727 290.293C106.727 329.839 138.785 361.896 178.33 361.896Z" fill="#FFAA85"/>
<path d="M178.539 356.693C141.926 356.693 112.139 326.906 112.139 290.293C112.139 253.679 141.926 223.892 178.539 223.892C215.152 223.892 244.94 253.679 244.94 290.293C244.94 326.906 215.152 356.693 178.539 356.693ZM178.539 224.764C142.403 224.764 113.007 254.161 113.007 290.297C113.007 326.433 142.403 355.83 178.539 355.83C214.675 355.83 244.071 326.433 244.071 290.297C244.071 254.161 214.675 224.76 178.539 224.76V224.764Z" fill="#122315"/>
<path d="M137.308 259.121L140.072 255.537L141.877 256.93L136.7 263.643L132.595 254.295L130.243 257.346L128.438 255.953L133.22 249.748L137.303 259.121H137.308Z" fill="#122315"/>
<path d="M141.841 244.774L138.712 247.608L140.144 249.192L142.678 246.896L144.175 248.549L141.641 250.845L143.195 252.559L146.323 249.726L147.855 251.414L142.847 255.953L135.301 247.625L140.309 243.086L141.841 244.774Z" fill="#122315"/>
<path d="M155.962 246.128L153.757 247.508C152.624 245.603 150.806 244.996 149.17 245.864L151.192 249.105L149.04 250.451L143.086 240.916L146.163 238.994C148.194 237.727 150.268 238.078 151.405 239.905C152.151 241.103 152.108 242.366 151.318 243.403C153.093 243.242 154.777 244.18 155.957 246.133L155.962 246.128ZM146.388 241.411L148.046 244.067L148.645 243.694C149.556 243.125 149.821 242.24 149.318 241.437C148.806 240.621 147.886 240.478 146.957 241.055L146.384 241.411H146.388Z" fill="#122315"/>
<path d="M154 240.66C152.837 237.48 154.356 234.325 157.585 233.149C160.826 231.964 164.003 233.405 165.166 236.586C166.329 239.767 164.828 242.913 161.581 244.097C158.353 245.273 155.163 243.841 154.004 240.66H154ZM162.701 237.484C162.024 235.631 160.223 234.767 158.414 235.427C156.617 236.082 155.797 237.905 156.474 239.758C157.151 241.615 158.952 242.479 160.748 241.819C162.558 241.16 163.382 239.337 162.705 237.48L162.701 237.484Z" fill="#122315"/>
<path d="M176.764 229.69L179.298 229.542L179.949 240.765L177.414 240.912L177.145 236.295L173.266 236.521L173.535 241.138L171.001 241.285L170.35 230.063L172.884 229.916L173.131 234.229L177.011 234.004L176.759 229.69H176.764Z" fill="#122315"/>
<path d="M181.742 236.637L182.775 229.698L185.283 230.071L184.25 237.011C184.055 238.33 184.685 239.219 185.89 239.397C187.097 239.575 187.961 238.911 188.156 237.592L189.189 230.653L191.697 231.026L190.664 237.965C190.256 240.712 188.312 242.097 185.548 241.684C182.784 241.272 181.33 239.384 181.738 236.637H181.742Z" fill="#122315"/>
<path d="M201.394 234.234L203.772 235.119L199.858 245.651L197.51 244.779L195.835 236.981L193.491 243.286L191.113 242.401L195.027 231.869L197.497 232.784L198.985 240.717L201.398 234.229L201.394 234.234Z" fill="#122315"/>
<path d="M208.477 243.286L212.457 245.855L209.61 250.268C208.199 250.468 206.785 250.203 205.448 249.344C202.519 247.456 201.816 244.076 203.643 241.242C205.487 238.382 208.881 237.683 211.767 239.545C212.522 240.031 213.068 240.578 213.424 241.242L211.945 243.537C211.632 242.687 211.185 242.075 210.5 241.632C208.837 240.561 206.937 240.995 205.847 242.683C204.749 244.384 205.135 246.332 206.78 247.395C207.24 247.691 207.727 247.855 208.239 247.916L209.232 246.38L207.288 245.126L208.473 243.29L208.477 243.286Z" fill="#122315"/>
<path d="M220.8 250.316L217.745 247.4L216.269 248.945L218.743 251.305L217.202 252.92L214.729 250.559L213.132 252.23L216.187 255.146L214.612 256.795L209.721 252.126L217.48 243.993L222.371 248.663L220.796 250.312L220.8 250.316Z" fill="#122315"/>
<path d="M220.386 264.372L218.846 262.276C220.66 261.005 221.128 259.147 220.139 257.581L217.058 259.842L215.557 257.798L224.613 251.145L226.761 254.07C228.176 255.997 227.985 258.093 226.249 259.369C225.112 260.206 223.85 260.254 222.752 259.546C223.047 261.304 222.24 263.053 220.382 264.377L220.386 264.372ZM224.37 254.473L221.845 256.326L222.261 256.895C222.899 257.763 223.797 257.958 224.561 257.398C225.338 256.83 225.412 255.897 224.765 255.016L224.366 254.473H224.37Z" fill="#122315"/>
<path d="M131.488 324.827L134.222 328.433L132.408 329.813L127.283 323.061L137.382 321.546L135.051 318.479L136.869 317.098L141.604 323.339L131.488 324.827Z" fill="#122315"/>
<path d="M145.316 329.918L142.248 327.015L140.781 328.568L143.268 330.92L141.736 332.543L139.249 330.191L137.661 331.871L140.729 334.774L139.162 336.431L134.25 331.784L141.975 323.617L146.887 328.26L145.32 329.918H145.316Z" fill="#122315"/>
<path d="M148.397 342.941L146.232 341.505C147.495 339.686 147.295 337.781 145.824 336.653L143.715 339.838L141.602 338.436L147.807 329.067L150.832 331.072C152.824 332.391 153.366 334.426 152.177 336.219C151.396 337.395 150.233 337.876 148.957 337.59C149.838 339.135 149.682 341.057 148.397 342.941ZM148.723 332.279L146.996 334.887L147.586 335.277C148.484 335.872 149.396 335.745 149.916 334.956C150.45 334.153 150.198 333.255 149.287 332.652L148.723 332.279Z" fill="#122315"/>
<path d="M152.031 338.736C153.311 335.598 156.557 334.287 159.738 335.59C162.937 336.896 164.317 340.098 163.032 343.236C161.752 346.373 158.523 347.688 155.325 346.382C152.144 345.08 150.747 341.873 152.031 338.736ZM160.611 342.242C161.357 340.415 160.606 338.562 158.823 337.833C157.052 337.108 155.221 337.907 154.474 339.734C153.728 341.561 154.479 343.414 156.249 344.138C158.033 344.868 159.869 344.073 160.615 342.246L160.611 342.242Z" fill="#122315"/>
<path d="M174.985 339.369L177.507 339.639L176.313 350.813L173.792 350.544L174.282 345.944L170.42 345.532L169.93 350.132L167.408 349.863L168.602 338.688L171.123 338.957L170.663 343.254L174.525 343.665L174.985 339.369Z" fill="#122315"/>
<path d="M179.378 346.633L178.705 339.647L181.231 339.404L181.903 346.39C182.029 347.718 182.858 348.43 184.073 348.313C185.288 348.196 185.965 347.341 185.835 346.013L185.163 339.026L187.688 338.783L188.36 345.77C188.625 348.534 187.076 350.344 184.294 350.613C181.512 350.882 179.647 349.398 179.378 346.633Z" fill="#122315"/>
<path d="M195.273 336.531L197.695 335.767L201.076 346.486L198.684 347.241L192.575 342.112L194.597 348.53L192.175 349.294L188.795 338.575L191.308 337.785L197.353 343.136L195.273 336.535V336.531Z" fill="#122315"/>
<path d="M204.906 337.234L209.033 334.913L211.606 339.487C211.124 340.828 210.231 341.956 208.847 342.737C205.813 344.447 202.493 343.496 200.839 340.559C199.169 337.594 200.137 334.266 203.131 332.582C203.916 332.14 204.649 331.909 205.405 331.909L206.742 334.287C205.843 334.166 205.097 334.274 204.381 334.678C202.663 335.646 202.154 337.534 203.14 339.282C204.133 341.044 206.034 341.613 207.744 340.654C208.221 340.385 208.59 340.029 208.885 339.608L207.987 338.011L205.973 339.143L204.902 337.243L204.906 337.234Z" fill="#122315"/>
<path d="M213.831 327.804L210.573 330.491L211.93 332.14L214.569 329.966L215.988 331.689L213.35 333.863L214.821 335.647L218.08 332.96L219.529 334.722L214.313 339.018L207.166 330.343L212.382 326.043L213.831 327.804Z" fill="#122315"/>
<path d="M227.146 326.359L225.448 328.33C223.8 326.85 221.886 326.81 220.584 328.13L223.483 330.621L221.83 332.543L213.307 325.218L215.672 322.466C217.23 320.653 219.317 320.37 220.949 321.773C222.021 322.693 222.35 323.907 221.907 325.14C223.552 324.458 225.436 324.849 227.146 326.359ZM216.605 324.706L218.979 326.746L219.438 326.212C220.142 325.396 220.128 324.476 219.408 323.86C218.679 323.231 217.755 323.369 217.043 324.198L216.605 324.71V324.706Z" fill="#122315"/>
<path d="M123.427 296.923C121.057 297.075 119.404 295.908 119.282 294.025C119.161 292.128 120.649 290.774 123.023 290.622C125.384 290.47 127.046 291.625 127.167 293.521C127.289 295.404 125.787 296.776 123.427 296.923ZM123.132 292.332C121.704 292.423 120.797 293.057 120.853 293.925C120.91 294.793 121.886 295.305 123.318 295.214C124.737 295.123 125.64 294.489 125.588 293.621C125.531 292.753 124.555 292.241 123.136 292.332H123.132Z" fill="#122315"/>
<path d="M125.575 285.419L127.081 285.493L126.864 290.024L125.488 289.959C123.831 288.054 122.754 287.186 121.865 287.147C121.249 287.116 120.775 287.476 120.745 288.114C120.723 288.592 120.936 289.121 121.509 289.616L119.699 289.529C119.339 288.904 119.2 288.366 119.231 287.758C119.304 286.231 120.337 285.324 121.756 285.393C122.776 285.441 123.596 285.984 125.462 287.876L125.579 285.428L125.575 285.419Z" fill="#122315"/>
<path d="M233.288 284.065C235.661 283.939 237.302 285.12 237.402 287.003C237.506 288.9 236 290.241 233.631 290.371C231.27 290.497 229.621 289.329 229.517 287.433C229.413 285.55 230.927 284.196 233.288 284.065ZM233.535 288.661C234.968 288.583 235.879 287.958 235.831 287.09C235.783 286.222 234.811 285.701 233.379 285.779C231.96 285.858 231.048 286.483 231.096 287.346C231.144 288.21 232.116 288.735 233.535 288.661Z" fill="#122315"/>
<path d="M231.029 295.548L229.523 295.461L229.788 290.935L231.163 291.013C232.8 292.935 233.872 293.812 234.757 293.864C235.373 293.899 235.851 293.547 235.889 292.91C235.915 292.432 235.707 291.898 235.139 291.399L236.948 291.503C237.305 292.133 237.435 292.67 237.4 293.278C237.313 294.806 236.271 295.699 234.852 295.617C233.833 295.556 233.017 295.01 231.172 293.1L231.029 295.548Z" fill="#122315"/>
<path d="M214.95 278.189C214.95 298.313 198.637 314.629 178.51 314.629C158.383 314.629 142.07 298.317 142.07 278.189" fill="#122315"/>
<path d="M164.67 319.868C164.67 312.221 170.867 306.024 178.513 306.024C186.159 306.024 192.357 312.221 192.357 319.868" fill="#122315"/>
<path d="M204.962 293.773C200.926 301.689 192.655 307.76 183.681 308.42L183.455 307.079C191.64 304.908 199.009 300.174 203.773 293.07L204.962 293.773Z" fill="#FFAA85"/>
<path d="M167.124 257.563C166.46 259.664 166.803 261.82 167.853 263.795C168.526 265.158 168.968 266.733 168.89 268.334C168.817 269.949 168.252 271.554 167.124 272.735L165.414 271.559C165.397 271.537 165.423 271.454 165.432 271.394C165.848 269.311 165.623 267.236 164.75 265.27C163.422 262.55 163.288 258.744 165.414 256.318L167.124 257.559V257.563Z" fill="#122315"/>
<path d="M178.163 257.563C177.499 259.664 177.842 261.82 178.893 263.795C179.565 265.158 180.007 266.733 179.93 268.334C179.855 269.949 179.292 271.554 178.163 272.735L176.453 271.559C176.436 271.537 176.462 271.454 176.471 271.394C176.887 269.311 176.662 267.236 175.789 265.27C174.461 262.55 174.327 258.739 176.453 256.318L178.163 257.559V257.563Z" fill="#122315"/>
<path d="M189.202 257.563C188.538 259.664 188.881 261.82 189.931 263.795C190.604 265.158 191.047 266.733 190.968 268.334C190.895 269.949 190.33 271.554 189.202 272.735L187.493 271.559C187.475 271.537 187.501 271.454 187.51 271.394C187.927 269.311 187.701 267.236 186.829 265.27C185.501 262.55 185.366 258.739 187.493 256.318L189.202 257.559V257.563Z" fill="#122315"/>
</g>
<g clip-path="url(#clip5_805_10561)">
<mask id="mask3_805_10561" style="mask-type:luminance" maskUnits="userSpaceOnUse" x="582" y="265" width="144" height="144">
<path d="M726 265H582V409H726V265Z" fill="white"/>
</mask>
<g mask="url(#mask3_805_10561)">
<path d="M721.452 361.846C735.033 324.705 715.936 283.587 678.796 270.005C641.655 256.423 600.537 275.521 586.955 312.661C573.373 349.801 592.471 390.919 629.611 404.501C666.751 418.083 707.87 398.985 721.452 361.846Z" fill="#E5CA0A"/>
<path d="M716.565 360.057C703.989 394.444 665.784 412.188 631.398 399.614C597.012 387.038 579.267 348.833 591.842 314.447C604.417 280.061 642.622 262.316 677.008 274.891C711.394 287.465 729.139 325.671 716.565 360.057ZM592.661 314.746C580.25 348.684 597.762 386.389 631.7 398.8C665.638 411.211 703.343 393.699 715.754 359.761C728.165 325.823 710.653 288.118 676.714 275.707C642.777 263.296 605.072 280.808 592.661 314.746Z" fill="#122315"/>
<path d="M604.98 342.667L605.494 345.216C603.309 345.604 602.105 347.091 602.339 348.927L606.084 348.176L606.583 350.664L595.562 352.877L594.85 349.317C594.376 346.972 595.439 345.152 597.548 344.731C598.934 344.452 600.095 344.941 600.791 346.046C601.266 344.33 602.734 343.083 604.98 342.667ZM597.191 349.965L600.262 349.351L600.123 348.657C599.913 347.601 599.178 347.045 598.246 347.232C597.303 347.423 596.844 348.235 597.057 349.307L597.189 349.969L597.191 349.965Z" fill="#122315"/>
<path d="M595.836 334.957L595.919 339.178L598.055 339.137L597.989 335.717L600.218 335.672L600.285 339.093L602.598 339.047L602.515 334.826L604.795 334.782L604.93 341.54L593.693 341.765L593.559 335.007L595.839 334.963L595.836 334.957Z" fill="#122315"/>
<path d="M600.807 323.289C604.114 323.847 605.961 326.518 605.384 329.94L604.785 333.5L593.703 331.633L594.304 328.069C594.881 324.648 597.499 322.731 600.808 323.285L600.807 323.289ZM603.117 329.67C603.445 327.738 602.335 326.2 600.371 325.87C598.408 325.54 596.855 326.627 596.532 328.56L596.374 329.509L602.959 330.619L603.117 329.67Z" fill="#122315"/>
<path d="M602.656 321.971L596.121 319.41L597.045 317.049L603.58 319.61C604.82 320.096 605.828 319.679 606.275 318.544C606.723 317.409 606.262 316.419 605.022 315.933L598.486 313.372L599.411 311.007L605.946 313.568C608.533 314.583 609.447 316.784 608.426 319.386C607.405 321.988 605.238 322.984 602.652 321.969L602.656 321.971Z" fill="#122315"/>
<path d="M605.495 311.429C602.682 309.633 601.92 306.194 603.726 303.366C604.211 302.61 604.785 302.062 605.595 301.605L607.936 303.099C607.042 303.308 606.306 303.829 605.83 304.574C604.802 306.185 605.26 308.155 606.913 309.208C608.55 310.254 610.543 309.846 611.571 308.235C612.047 307.49 612.212 306.608 612.024 305.707L614.351 307.191C614.243 308.192 614.001 308.93 613.525 309.676C611.738 312.478 608.31 313.221 605.493 311.424L605.495 311.429Z" fill="#122315"/>
<path d="M613.616 295.298L610.749 298.399L612.318 299.846L614.636 297.335L616.277 298.85L613.959 301.361L615.659 302.93L618.525 299.829L620.201 301.375L615.612 306.342L607.357 298.716L611.946 293.75L613.622 295.296L613.616 295.298Z" fill="#122315"/>
<path d="M625.431 290.243C627.424 292.944 626.891 296.145 624.099 298.207L621.19 300.35L614.523 291.299L617.433 289.157C620.223 287.099 623.443 287.542 625.431 290.243ZM622.654 296.435C624.229 295.274 624.504 293.397 623.324 291.796C622.146 290.192 620.271 289.899 618.696 291.06L617.919 291.631L621.881 297.007L622.654 296.435Z" fill="#122315"/>
<path d="M711.691 345.853L712.261 341.829L714.52 342.147L713.594 348.684L702.465 347.113L702.82 344.6L711.695 345.855L711.691 345.853Z" fill="#122315"/>
<path d="M714.567 340.064L703.328 339.761L703.396 337.226L714.634 337.528L714.567 340.064Z" fill="#122315"/>
<path d="M704.941 327.762L705.224 330.411L714.133 329.451L714.405 331.99L705.497 332.951L705.784 335.602L703.519 335.845L702.674 328.009L704.939 327.766L704.941 327.762Z" fill="#122315"/>
<path d="M713.181 323.994L702.268 326.671L701.662 324.208L712.576 321.532L713.181 323.994Z" fill="#122315"/>
<path d="M701.163 315.836L702.647 319.789L704.646 319.037L703.442 315.833L705.531 315.049L706.734 318.253L708.898 317.441L707.414 313.488L709.548 312.683L711.929 319.011L701.406 322.967L699.025 316.64L701.163 315.836Z" fill="#122315"/>
<path d="M707.802 310.415L705.311 311.819C705.677 310.803 705.651 309.675 705.225 308.919C704.847 308.249 704.179 308.014 703.592 308.345C701.956 309.267 704.046 312.586 701.218 314.177C699.513 315.138 697.718 314.602 696.732 312.85C696.333 312.136 696.165 311.381 696.197 310.497L698.397 309.259C698.133 310.068 698.17 310.788 698.5 311.376C698.831 311.963 699.41 312.171 699.899 311.897C701.342 311.084 699.285 307.763 702.265 306.085C704.156 305.021 706.031 305.605 707.173 307.635C707.669 308.518 707.877 309.413 707.797 310.414L707.802 310.415Z" fill="#122315"/>
<path d="M664.883 286.923L663.191 286.595L664.34 280.639L663.593 280.495L663.883 278.993L666.322 279.464L664.883 286.923Z" fill="#122315"/>
<path d="M666.876 283.401C667.555 281.127 669.218 279.979 671.031 280.517C672.853 281.058 673.607 282.924 672.931 285.204C672.254 287.47 670.597 288.629 668.776 288.088C666.966 287.551 666.204 285.669 666.876 283.401ZM671.285 284.713C671.694 283.342 671.41 282.273 670.582 282.025C669.748 281.776 668.932 282.517 668.522 283.892C668.116 285.254 668.395 286.322 669.228 286.572C670.062 286.821 670.882 286.081 671.288 284.719L671.285 284.713Z" fill="#122315"/>
<path d="M665.802 308.765L644.889 365.954L664.183 373.01L685.097 315.82L665.802 308.765Z" fill="#122315"/>
<path d="M642.803 300.354L621.889 357.544L641.183 364.6L662.097 307.41L642.803 300.354Z" fill="#122315"/>
</g>
</g>
</g>
<defs>
<clipPath id="clip0_805_10561">
<rect width="1300" height="350" fill="white"/>
</clipPath>
<clipPath id="clip1_805_10561">
<rect width="144" height="144" fill="white" transform="translate(-38 34)"/>
</clipPath>
<clipPath id="clip2_805_10561">
<rect width="144" height="144" fill="white" transform="translate(1058 200)"/>
</clipPath>
<clipPath id="clip3_805_10561">
<rect width="144" height="144" fill="white" transform="translate(1169 -38)"/>
</clipPath>
<clipPath id="clip4_805_10561">
<rect width="144" height="144" fill="white" transform="translate(106 218)"/>
</clipPath>
<clipPath id="clip5_805_10561">
<rect width="144" height="144" fill="white" transform="translate(582 265)"/>
</clipPath>
</defs>
</svg>
