<svg width="1300" height="350" viewBox="0 0 1300 350" fill="none" xmlns="http://www.w3.org/2000/svg">
<g clip-path="url(#clip0_811_11602)">
<rect width="1300" height="350" fill="#122315"/>
<path d="M1227.2 -29.832C1232.36 -32.7227 1238.64 -32.7227 1243.8 -29.832L1256.42 -22.7502C1258.89 -21.3635 1261.67 -20.6186 1264.51 -20.5835L1278.98 -20.4042C1284.89 -20.3311 1290.33 -17.1879 1293.35 -12.1078L1300.74 0.337359C1302.19 2.77423 1304.23 4.80946 1306.66 6.25694L1319.11 13.6492C1324.19 16.6666 1327.33 22.1107 1327.4 28.0189L1327.58 42.4931C1327.62 45.3269 1328.36 48.1069 1329.75 50.5792L1336.83 63.2035C1339.72 68.3571 1339.72 74.643 1336.83 79.7966L1329.75 92.4209C1328.36 94.8931 1327.62 97.6732 1327.58 100.507L1327.4 114.981C1327.33 120.89 1324.19 126.334 1319.11 129.351L1306.66 136.743C1304.23 138.191 1302.19 140.226 1300.74 142.663L1293.35 155.108C1290.33 160.188 1284.89 163.332 1278.98 163.405L1264.51 163.583C1261.67 163.619 1258.89 164.364 1256.42 165.751L1243.8 172.832C1238.64 175.723 1232.36 175.723 1227.2 172.832L1214.58 165.751C1212.11 164.364 1209.33 163.619 1206.49 163.583L1192.02 163.405C1186.11 163.332 1180.67 160.188 1177.65 155.108L1170.26 142.663C1168.81 140.226 1166.77 138.191 1164.34 136.743L1151.89 129.351C1146.81 126.334 1143.67 120.89 1143.6 114.981L1143.42 100.507C1143.38 97.6732 1142.64 94.8931 1141.25 92.4209L1134.17 79.7966C1131.28 74.643 1131.28 68.3571 1134.17 63.2035L1141.25 50.5792C1142.64 48.1069 1143.38 45.3269 1143.42 42.4931L1143.6 28.0189C1143.67 22.1108 1146.81 16.6667 1151.89 13.6493L1164.34 6.25694C1166.77 4.80946 1168.81 2.77423 1170.26 0.337359L1177.65 -12.1078C1180.67 -17.1879 1186.11 -20.3311 1192.02 -20.4042L1206.49 -20.5835C1209.33 -20.6186 1212.11 -21.3635 1214.58 -22.7502L1227.2 -29.832Z" fill="#F0652A"/>
<path d="M1307.37 84.2414C1308.48 83.6531 1309.49 83.1125 1310.51 82.5713C1311.14 82.2371 1311.62 82.3903 1311.95 83.0169C1312.12 83.3306 1312.3 83.6359 1312.45 83.9558C1313.1 85.3067 1314.34 86.6484 1312.44 87.9191C1312.59 88.1273 1312.65 88.2664 1312.68 88.2594C1314.4 87.8847 1314.88 89.0235 1315.42 90.3172C1316.75 93.5003 1318.54 96.5022 1319.24 99.9365C1319.47 101.105 1319.76 102.28 1319.64 103.489C1319.53 104.499 1319.2 105.407 1318.18 105.859C1317.15 106.321 1316.39 105.728 1315.68 105.107C1314.35 103.952 1313.51 102.424 1312.52 101.006C1312.18 100.523 1312.53 100.197 1312.68 99.7721C1312.24 99.8719 1311.83 100.148 1311.46 99.6793C1310.78 98.8343 1311.88 98.3327 1311.81 97.5692C1311.23 97.7907 1311.29 99.0095 1310.46 98.632C1309.67 98.2691 1310.47 97.3935 1310.09 96.7915C1309.82 97.2157 1310.12 98.1231 1309.32 98.1205C1308.3 98.1171 1308.8 97.0819 1308.43 96.5359C1308.19 97.0945 1308.61 97.9696 1307.64 98.091C1306.79 98.1976 1307.06 97.3524 1306.62 96.9023C1306.63 97.6926 1306.56 98.3518 1305.74 98.6072C1305.12 98.8002 1305.35 99.2763 1305.48 99.7105C1305.82 100.81 1306.19 101.905 1306.46 103.023C1306.95 105.031 1306.71 105.652 1304.9 106.58C1303.74 107.179 1302.69 108.267 1301.12 107.595C1300.81 107.467 1300.24 107.934 1299.81 108.158C1294.51 110.915 1289.02 113.126 1283.13 114.26C1272.93 116.224 1264.61 110.029 1263.55 99.6765C1263.51 99.2847 1263.42 98.8981 1263.32 98.2857C1259.9 101.706 1255.78 103.777 1251.69 105.815C1249.47 106.919 1248.56 108.394 1248.2 110.729C1247.82 113.217 1247.74 115.795 1246.86 118.17C1246.02 120.458 1245.38 122.744 1245.07 125.179C1244.75 127.799 1244.59 127.856 1241.98 127.858C1240.67 127.859 1240.12 128.229 1239.94 129.601C1239.54 132.716 1238.93 135.806 1238.41 138.906C1238.12 140.649 1237.99 140.774 1236.29 140.487C1234.7 140.219 1232.75 140.424 1232.77 137.966C1232.54 137.994 1232.39 137.979 1232.38 138.019C1231.73 139.488 1230.7 139.411 1229.35 139.012C1227.01 138.324 1224.61 137.873 1222.25 137.282C1220.38 136.815 1218.66 135.984 1217.02 135.006C1216.36 134.613 1215.81 134.108 1215.41 133.446C1214.6 132.101 1215.01 130.889 1216.48 130.372C1217.8 129.91 1219.18 129.899 1220.56 129.976C1221.49 130.028 1222.42 130.152 1223.35 130.179C1223.84 130.194 1224.18 130.363 1224.37 130.826C1225 129.672 1225.24 129.661 1226.08 130.726C1226.06 129.488 1227.52 128.033 1228.79 128.219C1228.44 127.756 1227.89 127.39 1228.31 126.832C1228.77 126.216 1229.27 126.946 1229.72 126.826C1228.55 125.288 1226.71 124.879 1225.05 124.129C1223.05 123.219 1222.77 122.638 1223.17 120.476C1223.25 120.041 1223.32 119.604 1223.38 119.165C1223.5 118.151 1223.8 117.322 1225.16 117.443C1225.44 114.43 1225.97 111.483 1225.95 108.54C1225.88 98.4546 1230.53 90.8238 1237.94 84.515C1240.39 82.4311 1240.01 83.0437 1238.5 80.553C1237.94 79.629 1237.22 79.0477 1236.22 78.6456C1231.89 76.8974 1227.71 74.8611 1224.14 71.7568C1223.71 71.3813 1223.22 70.9829 1222.62 70.9909C1221.01 71.0125 1220.17 70.1808 1219.93 68.5272C1217.46 69.3389 1215.03 69.6482 1212.53 69.3654C1210.05 69.0854 1207.73 68.4377 1205.85 66.7164C1203.93 64.9598 1203.5 62.9196 1204.67 60.604C1205.15 59.6466 1204.55 59.2805 1204.03 58.8585C1201.27 56.5737 1198.93 53.9126 1197.15 50.8031C1192.88 43.3443 1191.63 35.5435 1194.63 27.2905C1197.6 19.1 1205.4 13.9493 1214.49 14.3287C1222.39 14.6587 1228.65 18.3682 1233.61 24.2881C1238.25 29.8087 1240.68 36.2373 1240.54 43.5122C1240.43 49.2109 1238.64 54.2956 1234.71 58.5332C1234.54 58.7215 1234.3 58.8836 1234.37 59.4691C1237.37 60.2185 1240.51 60.8971 1243.62 62.139C1244.25 59.8843 1244.61 57.7612 1244.9 55.6352C1245.48 51.4515 1246.52 47.3768 1247.62 43.313C1248.08 41.6181 1249 40.1799 1250.46 39.2552C1252.01 38.2713 1253.38 37.1809 1254.2 35.3694C1253.45 35.2916 1252.64 35.2487 1251.85 35.117C1249.07 34.6571 1247.66 33.2817 1247.13 30.4445C1246.84 28.8748 1246.65 27.2803 1246.98 25.6847C1247.09 25.1144 1246.96 24.6678 1246.58 24.2175C1244.76 22.007 1244.29 19.5483 1245.45 16.8934C1246.66 14.1421 1249.04 13.0549 1251.84 12.7988C1253.77 12.6213 1255.67 12.936 1257.61 13.3265C1258.93 13.5935 1260.34 14.2157 1261.82 13.8978C1262.56 13.7391 1263.33 13.8753 1263.09 14.989C1263 15.3893 1263.2 15.5583 1263.51 15.6987C1267.46 17.5006 1267.9 20.9247 1267.32 24.5708C1266.97 26.7567 1266.66 28.9322 1266.49 31.2833C1267.75 31.6532 1269.09 32.0104 1269.85 33.3132C1269.94 33.4711 1270.33 33.4963 1270.58 33.512C1273.95 33.7177 1276.3 35.408 1277.82 38.381C1279.6 41.8559 1281.51 45.2668 1283.21 48.7763C1285.47 53.4156 1288.86 56.8987 1293.37 59.3361C1294.74 60.0743 1296.1 60.8244 1297.47 61.5425C1298.4 62.0273 1298.47 62.5853 1297.91 63.4651C1295.68 66.9515 1293.49 70.455 1290.02 72.8928C1289.7 73.1183 1289.59 73.414 1289.65 73.8142C1290.33 79.1504 1289.12 84.3004 1288.1 89.4676C1288.01 89.8924 1287.91 90.3146 1287.76 91.0145C1289.5 90.1499 1291.51 89.7526 1292.42 88.5323C1293.51 87.0798 1294.91 86.8878 1296.26 86.288C1297.26 85.8412 1298.11 86.09 1298.66 87.0218C1299.39 88.2452 1300.21 88.1217 1301.3 87.4873C1303.26 86.3537 1305.29 85.3479 1307.37 84.2414ZM1226.99 72.1049C1229.59 74.3346 1232.63 75.7152 1235.85 76.7901C1235.1 75.3809 1234.3 74.0521 1233.38 72.8121C1232.99 72.2837 1232.5 71.6906 1231.6 72.0087C1230.04 72.5629 1228.46 72.4263 1226.91 71.7752C1227.15 70.9215 1227.77 71.3523 1228.21 71.4605C1229.24 71.7189 1230.19 71.5983 1231.22 71.1458C1230.55 69.9786 1229.49 68.8609 1230.23 67.5764C1231.04 66.1868 1230.35 65.3045 1229.7 64.2388C1229.1 63.2516 1228.49 62.8148 1227.36 63.4482C1226.79 63.7648 1226.12 63.9885 1225.47 64.0538C1222.81 64.3241 1222.2 66.3909 1221.53 68.4268C1221.39 68.8485 1221.39 69.3503 1221.88 69.4014C1223.89 69.6141 1225.25 71.061 1226.99 72.1049ZM1263.55 91.7401C1263.74 89.207 1264.31 86.7506 1265.07 84.3347C1265.23 83.8401 1265.36 83.1636 1266.1 83.4262C1266.81 83.6793 1266.49 84.3017 1266.37 84.803C1266.3 85.1048 1266.2 85.4003 1266.11 85.6964C1264.6 90.5271 1264.42 95.4676 1265.07 100.436C1266.21 109.123 1273.49 114.414 1282.11 112.986C1288.5 111.927 1294.34 109.422 1300.04 106.481C1300.74 106.119 1300.86 105.684 1300.62 104.977C1300.22 103.758 1299.92 102.501 1299.51 101.285C1298.26 97.6659 1296.64 94.2224 1294.71 90.9174C1294.16 89.9753 1293.64 89.5609 1292.51 90.2561C1291.23 91.0429 1289.82 91.6238 1288.44 92.2144C1287.58 92.5781 1287.13 93.1473 1286.87 94.0282C1286.27 96.0845 1285.35 98.0013 1284.03 99.7093C1283.73 100.097 1283.36 100.547 1282.82 100.151C1282.26 99.7378 1282.63 99.288 1282.93 98.8959C1283.62 98.019 1284.23 97.0861 1284.63 96.0478C1287.07 89.7879 1288.08 83.2335 1288.55 76.5783C1288.6 75.8515 1288.57 75.0838 1288 74.4122C1286.28 75.3111 1284.64 76.2739 1282.91 77.0543C1276.61 79.9054 1269.93 81.1805 1263.05 81.5847C1262.43 81.6215 1261.85 81.6225 1261.43 82.2453C1260.56 83.5029 1259.37 84.0241 1257.84 83.5696C1257.4 83.4371 1256.85 83.3519 1256.7 83.8873C1256.26 85.4723 1254.47 86.5732 1255.16 88.5954C1255.42 89.3591 1254.76 90.0968 1254.18 90.6776C1253.49 91.378 1252.67 91.9176 1251.82 92.397C1248.29 94.3866 1246.94 94.0152 1244.91 90.5288C1244.6 89.992 1244.3 89.4454 1243.96 88.9257C1242.91 87.3051 1241.83 85.6953 1240.72 84.0144C1238.27 85.8882 1236.24 87.9423 1234.31 90.0694C1230.6 94.1444 1228.14 98.8148 1227.72 104.423C1227.47 107.824 1227.23 111.229 1226.86 114.618C1226.48 118.078 1226.39 118.102 1229.57 119.298C1233.41 120.741 1237.4 121.561 1241.44 122.188C1242.9 122.415 1243.91 121.984 1244.48 120.532C1244.93 119.375 1245.46 118.246 1245.72 117.027C1246.37 114.042 1246.68 110.995 1247.37 108.015C1248.1 104.9 1248.37 101.785 1246.72 98.8198C1246.52 98.4561 1246.4 98.0252 1246.83 97.7502C1247.34 97.4215 1247.66 97.7959 1247.9 98.1901C1248.83 99.6968 1249.26 101.356 1249.33 103.114C1249.35 103.879 1249.33 104.646 1249.33 105.645C1253.44 103.243 1257.5 101.422 1260.95 98.5673C1262.48 97.3023 1263.64 95.8792 1263.36 93.6975C1263.29 93.1419 1263.47 92.5547 1263.55 91.7401ZM1255.71 73.3555C1258.34 75.7178 1259.49 78.6865 1259.26 82.2131C1259.8 82.1092 1260.1 81.8106 1260.27 81.4671C1261.17 79.6709 1262.89 78.9949 1264.58 78.35C1266.07 77.7844 1267.6 77.2681 1269.15 76.9116C1273.53 75.9032 1277.5 73.9736 1281.27 71.6007C1284.07 69.8421 1285.81 67.4249 1285.94 64.0096C1286.05 61.3203 1285.72 58.6919 1284.84 56.1517C1282.59 49.6627 1279.15 43.7486 1275.81 37.7932C1274.75 35.8924 1272.9 35.1915 1270.82 34.9126C1270.07 34.8115 1269.71 34.9015 1269.49 35.712C1269.09 37.2241 1268.37 38.6063 1267.3 39.7717C1266.98 40.118 1266.62 40.6327 1266.08 40.2155C1265.48 39.7458 1265.89 39.2678 1266.26 38.8639C1267.32 37.727 1267.91 36.3478 1268.29 34.8733C1268.44 34.2983 1268.47 33.6874 1267.9 33.3014C1267.32 32.9049 1266.69 32.6696 1265.94 33.177C1266.42 33.7308 1268.03 33.496 1267.13 34.7374C1265.48 37.016 1263.6 39.0694 1260.84 40.0827C1260.07 40.3647 1259.21 40.495 1258.57 41.0411C1259.02 42.69 1258.95 42.8015 1257.27 43.1901C1257.34 50.9416 1257.69 58.6805 1258.92 66.6447C1262.03 64.3041 1264.78 62.0652 1267.98 60.4958C1267.91 60.2162 1267.9 60.0287 1267.82 59.8885C1266.12 57.0735 1265.26 53.9536 1264.54 50.7922C1264.39 50.15 1263.64 49.1153 1264.67 48.8541C1265.76 48.5806 1265.66 49.8567 1265.85 50.5474C1266.68 53.4433 1267.27 56.4126 1268.91 59.0223C1269.29 59.6228 1269.62 59.8957 1270.39 59.7458C1271.8 59.4716 1273.22 59.527 1274.54 60.2137C1274.97 60.436 1275.52 60.7088 1275.3 61.2953C1275.06 61.9087 1274.5 61.7206 1274.04 61.5034C1272.3 60.6824 1270.6 60.9122 1268.9 61.6319C1266.04 62.8387 1263.61 64.7027 1261.24 66.6434C1259.36 68.1868 1257.67 69.9177 1254.99 70.0975C1253.71 70.1834 1252.91 71.1439 1252.77 72.9066C1253.35 71.6971 1253.95 71.9876 1254.53 72.4024C1254.89 72.6584 1255.23 72.9506 1255.71 73.3555ZM1240.48 62.5112C1238.4 61.9532 1236.32 61.3952 1233.99 60.7692C1234.73 62.1251 1235.12 63.242 1236.9 62.8383C1238.62 62.4507 1239.99 63.4393 1240.39 65.1708C1241.21 68.7091 1244.09 70.9153 1245.62 74.0364C1247.23 73.2011 1248.77 73.0734 1250.31 72.9431C1250.62 72.9172 1251.04 73.0053 1251.17 72.7141C1251.65 71.6364 1252.38 70.5357 1252.41 69.4249C1252.48 67.1792 1252.12 64.9233 1252.01 62.6679C1251.8 58.416 1251.67 54.161 1252.07 49.912C1252.12 49.4304 1251.99 48.6664 1252.79 48.7418C1253.54 48.8129 1253.35 49.5352 1253.34 50.0313C1253.22 54.1564 1253.18 58.2831 1253.36 62.4048C1253.45 64.5069 1253.48 66.63 1253.86 68.6781C1254.69 68.849 1255.32 68.5363 1255.96 68.4412C1257.93 68.1524 1258.22 67.758 1257.94 65.8556C1256.8 58.2998 1256.49 50.6873 1256.39 43.0621C1256.38 42.0292 1256.33 41.2235 1255.01 41.1704C1254.38 41.1453 1253.85 40.4629 1254.41 40.1302C1255.88 39.267 1254.88 38.3168 1254.81 37.3518C1254.42 38.5692 1253.43 39.0382 1252.45 39.5659C1250.52 40.6042 1249.36 42.1739 1248.74 44.3383C1247.11 50.0227 1246.33 55.8665 1245.24 61.6534C1245.14 62.1953 1245.17 62.5608 1245.68 62.8888C1247.2 63.8573 1247.88 65.3807 1248.32 67.0465C1248.47 67.603 1248.73 68.3137 1247.96 68.5037C1247.13 68.7076 1247.16 67.8894 1247.03 67.3609C1246.5 65.3174 1245.41 63.8531 1243.2 63.4055C1242.34 63.2307 1241.52 62.866 1240.48 62.5112ZM1201.7 19.7295C1195.54 24.8983 1193.72 31.7032 1194.63 39.351C1195.56 47.2843 1199.62 53.5368 1205.75 58.5244C1206.01 58.7424 1206.35 58.9895 1206.67 59.0117C1207.97 59.1023 1208.82 60.7304 1210.35 60.0603C1210.45 60.0137 1210.73 60.2562 1210.87 60.4149C1211.13 60.7102 1211.4 60.7282 1211.8 60.7168C1213.33 60.6732 1214.67 61.5302 1216.16 61.7314C1216.39 61.7627 1216.66 62.117 1216.77 62.3809C1217.09 63.178 1217.71 63.3381 1218.47 63.3784C1221.57 63.542 1224.59 63.2218 1227.46 61.9739C1228.75 61.412 1229.68 61.7561 1230.41 62.8937C1231.09 63.9377 1231.77 64.9732 1232.46 66.0039C1233.61 67.7088 1234.35 67.707 1235.75 65.9595C1234.81 64.586 1233.87 63.1945 1232.92 61.8076C1231.78 60.157 1231.82 59.4702 1233.22 58.1023C1236.77 54.6185 1238.71 50.3022 1239.01 45.435C1239.75 33.6597 1234.88 24.5788 1224.72 18.7281C1217.11 14.3436 1209.28 14.1644 1201.7 19.7295ZM1250.31 23.1472C1249.95 22.9064 1249.58 22.6656 1249.22 22.4278C1248.78 22.8054 1248.64 23.2866 1248.96 23.6367C1249.63 24.3708 1249.79 24.8886 1248.66 25.2559C1248.38 25.3469 1248.2 25.7894 1248.35 25.8922C1249.89 26.9771 1249.29 27.9954 1248.32 29.0302C1248.29 29.054 1248.31 29.1162 1248.31 29.1604C1248.19 31.4583 1249.69 33.4348 1251.89 33.7356C1253.39 33.9407 1254.89 33.8912 1256.35 33.3641C1256.78 33.2077 1257.24 32.7759 1257.67 33.301C1258.06 33.7791 1257.84 34.3114 1257.63 34.805C1257.5 35.088 1257.4 35.3996 1257.2 35.6283C1256.14 36.8654 1256.47 38.2483 1256.69 39.8029C1260 39.2464 1262.83 38.0161 1264.97 35.4236C1265.33 34.9918 1265.21 34.6639 1264.89 34.2573C1263.77 32.8061 1263.12 31.1025 1262.39 29.4406C1262.07 28.7201 1262.11 28.1011 1262.54 27.4403C1263.02 26.6929 1263.38 25.8987 1263.33 24.9524C1263.29 24.1389 1262.99 23.5243 1262.18 23.4032C1261.33 23.2775 1260.7 23.7043 1260.52 24.573C1260.31 25.5663 1260.16 26.5722 1260.01 27.5767C1259.95 27.977 1259.97 28.433 1259.47 28.5193C1258.91 28.6157 1258.69 28.1798 1258.56 27.7429C1258.26 26.8143 1258.01 25.8713 1257.7 24.9473C1257.3 23.7377 1256.71 23.7464 1255.54 24.0552C1254.27 24.3925 1253.46 25.7709 1251.94 25.4737C1251.4 25.3672 1250.7 26.475 1250.28 25.4401C1249.92 24.5487 1250.94 24.474 1251.41 24.0809C1251.46 24.0398 1251.45 23.9385 1251.48 23.8329C1251.15 23.6381 1250.8 23.4395 1250.31 23.1472ZM1289.05 71.9266C1292.07 69.7628 1294.23 66.8757 1296.1 63.7232C1296.61 62.88 1296.38 62.5035 1295.58 62.0967C1293.29 60.9307 1291.03 59.6965 1288.99 58.1205C1288.14 57.4684 1287.33 56.7713 1286.31 55.9382C1286.81 58.0489 1287.14 59.9123 1287.3 61.8075C1287.65 65.8937 1286.49 69.3447 1283.11 71.8484C1279.04 74.8659 1274.54 76.9803 1269.62 78.1878C1267.82 78.6275 1266.05 79.1311 1264.12 80.089C1273.25 79.4332 1281.58 77.2927 1289.05 71.9266ZM1246.3 82.2585C1245.83 82.7345 1245 82.4984 1244.56 83.1207C1245.11 83.6992 1245.78 83.5773 1246.43 83.5238C1246.81 83.4921 1247.14 83.5896 1247.26 84.0097C1247.36 84.3623 1247.18 84.5931 1246.91 84.7969C1246.52 85.0966 1246.02 85.3153 1245.93 85.8694C1246.74 86.2874 1247.63 85.2997 1248.26 86.0949C1248.94 86.9548 1247.31 87.3164 1247.68 88.1685C1248.06 88.5188 1248.56 88.5195 1248.95 88.3998C1251.56 87.5939 1254.07 86.5987 1255.21 83.7935C1255.57 82.8895 1255.78 81.8568 1256.6 81.2686C1257.98 80.2672 1257.82 79.0885 1257.27 77.7544C1256.8 76.5828 1256.09 75.5783 1255.17 74.7262C1254.85 74.4273 1254.51 74.1307 1253.99 74.2668C1252.81 74.5824 1251.62 74.3118 1250.43 74.2845C1249.44 74.2619 1248.48 74.3855 1247.55 74.6856C1246.91 74.8929 1246.54 75.2505 1247.16 75.9344C1247.86 75.6421 1248.72 75.1219 1248.74 76.475C1248.75 78.3653 1247.07 79.9996 1245.17 80.0392C1244.49 80.0533 1243.82 80.0415 1242.85 80.0415C1243.73 81.0038 1244.52 81.1786 1245.38 81.2152C1245.94 81.2389 1246.49 81.2963 1246.3 82.2585ZM1241.51 80.0706C1241.62 79.2294 1242.17 78.8449 1242.95 78.7691C1243.79 78.6886 1244.63 78.6679 1245.47 78.5877C1246.4 78.4993 1246.8 78.1045 1246.23 77.1859C1245.48 75.9822 1244.66 74.8244 1243.88 73.6463C1242.1 70.9777 1239.73 68.6638 1239 65.3524C1238.77 64.3233 1237.84 64.0046 1236.68 64.3296C1237.71 64.5273 1237.73 65.2341 1237.6 65.948C1237.28 67.7718 1233.69 69.7203 1232.02 68.9883C1231.83 68.905 1231.71 68.6558 1231.5 68.41C1231.41 69.5015 1232.06 70.054 1232.71 70.482C1233.97 71.3207 1234.81 72.5008 1235.63 73.7051C1236.63 75.1688 1237.57 76.6789 1238.54 78.1579C1240.33 80.8498 1242.12 83.5335 1244 86.369C1244.19 85.7494 1244.32 85.3152 1244.45 84.8699C1242.5 83.9029 1242.88 81.5433 1241.51 80.0706ZM1229.53 124.295C1233.68 125.448 1237.85 126.473 1242.19 126.45C1243.34 126.444 1243.9 125.708 1243.82 124.379C1243.76 123.261 1242.86 123.771 1242.3 123.655C1241.91 123.576 1241.51 123.576 1241.12 123.523C1236.09 122.842 1231.22 121.559 1226.52 119.641C1225.99 119.428 1225.25 118.646 1224.75 119.775C1224.12 121.203 1224.32 122.171 1225.36 122.704C1226.63 123.355 1227.96 123.824 1229.53 124.295ZM1299.46 97.2964C1300.77 100.104 1301.45 103.139 1302.48 106.035C1305.11 105.399 1305.5 104.796 1304.84 102.422C1303.99 99.332 1302.7 96.4142 1301.27 93.5558C1300.31 91.6472 1299.18 89.8475 1297.84 88.1807C1297.26 87.4579 1296.15 87.4431 1295.28 88.1292C1294.44 88.7911 1295.26 89.2163 1295.54 89.6664C1297.05 92.0327 1298.23 94.562 1299.46 97.2964ZM1207.14 66.0191C1208.18 66.8125 1209.37 67.2911 1210.62 67.6275C1213.54 68.4086 1216.38 68.1753 1219.27 67.3401C1220.6 66.9535 1221.11 66.2023 1221.34 64.8375C1219.93 64.8375 1218.62 64.8375 1217.21 64.8375C1217.03 65.1797 1217.25 66.0179 1216.48 65.9284C1215.68 65.8362 1215.67 65.1055 1215.64 64.4779C1215.63 64.1683 1215.65 63.857 1215.65 63.5467C1215.64 63.2196 1215.55 62.9225 1215.21 62.8006C1214.86 62.6778 1214.61 62.8924 1214.38 63.1C1214.1 63.3443 1213.98 63.6685 1213.87 64.0165C1213.73 64.5081 1213.64 65.2135 1212.89 64.9557C1212.25 64.732 1212.44 64.0824 1212.51 63.5631C1212.59 63.0304 1212.99 62.4726 1212.36 61.9829C1211.49 62.2433 1211.34 63.0439 1211.04 63.7039C1210.84 64.1233 1210.69 64.609 1210.12 64.4438C1209.48 64.2547 1209.64 63.7184 1209.74 63.2243C1209.86 62.6621 1210.33 62.0949 1209.81 61.5126C1209.23 61.5166 1209.03 61.9172 1208.77 62.2825C1208.41 62.8094 1208.55 64.0099 1207.56 63.7033C1206.64 63.4154 1207.3 62.5057 1207.35 61.8569C1207.38 61.3808 1207.54 60.7697 1206.97 60.5652C1206.41 60.3621 1206.13 60.9307 1205.87 61.322C1204.94 62.7265 1205.33 64.2875 1207.14 66.0191ZM1248.19 92.0908C1251.13 91.8302 1253.86 89.8077 1253.49 88.1288C1252.71 88.1982 1252.11 88.6745 1251.45 89.0134C1250.38 89.5726 1249.28 89.9913 1248.04 89.8454C1247.04 89.7282 1246.28 89.3692 1246.04 88.2566C1245.86 87.4765 1245.8 87.4904 1244.49 87.3258C1245.94 88.8234 1246.21 90.9698 1248.19 92.0908ZM1230.56 135.496C1233.01 135.922 1235.45 136.347 1237.89 136.773C1237.81 136.552 1237.7 136.503 1237.59 136.48C1232.95 135.554 1228.27 134.871 1223.66 133.783C1222.25 133.449 1221.03 133.001 1220.99 131.252C1220.99 131.128 1220.95 130.885 1220.75 130.965C1220.62 132.997 1221.84 133.74 1223.59 134.069C1225.84 134.495 1228.09 134.996 1230.56 135.496ZM1313.52 94.1029C1312.11 91.1887 1310.7 88.2746 1309.3 85.3605C1309.12 85.7257 1309.21 85.9649 1309.33 86.1882C1311.45 90.1823 1313.3 94.3082 1315.14 98.4328C1315.67 99.6103 1316.52 100.828 1314.69 101.682C1314.68 101.687 1314.73 101.817 1314.75 101.888C1316.36 100.557 1316.36 100.557 1315.48 98.5448C1314.85 97.1249 1314.23 95.7059 1313.52 94.1029Z" fill="#122315"/>
<path d="M1231.93 20.474C1231 19.4058 1231.96 18.6778 1232.39 17.833C1232.87 18.7946 1232.46 19.618 1231.93 20.474Z" fill="#122315"/>
<path d="M1235.58 21.2905C1235.93 21.0289 1236.2 20.7469 1236.59 21.2258C1236.26 21.9544 1235.77 22.4832 1234.89 22.6592C1234.53 21.899 1235.26 21.7403 1235.58 21.2905Z" fill="#122315"/>
<path d="M1283.68 107.386C1286.06 104.351 1286.03 100.716 1286.4 97.2036C1287.16 97.35 1287.14 97.8029 1287.12 98.1749C1287.02 101.289 1286.61 104.34 1284.99 107.092C1284.78 107.465 1284.45 107.785 1284.15 108.101C1283.99 108.266 1283.74 108.316 1283.55 108.144C1283.27 107.897 1283.48 107.673 1283.68 107.386Z" fill="#122315"/>
<path d="M1279.78 89.1741C1280.97 89.1232 1281.99 88.512 1283.15 88.8025C1281.84 90.7246 1274 90.3467 1271.94 88.1396C1274.5 88.5995 1277.02 89.4735 1279.78 89.1741Z" fill="#122315"/>
<path d="M1236.19 113.668C1239.21 112.685 1241.97 111.408 1244.36 108.9C1244.21 111.264 1237.89 114.845 1235.26 114.51C1235.17 113.867 1235.74 113.884 1236.19 113.668Z" fill="#122315"/>
<path d="M1236.06 101.156C1237.26 102.228 1238.73 102.598 1240.07 103.308C1238.77 103.802 1237.65 103.258 1236.64 102.609C1234.94 101.515 1233.5 100.171 1233.32 97.9565C1234.47 98.7895 1234.8 100.299 1236.06 101.156Z" fill="#122315"/>
<path d="M1249.73 100.459C1249.84 98.7231 1249.12 97.2017 1249 95.4707C1250.64 96.489 1251.15 101.621 1249.87 103.674C1249.23 102.583 1249.97 101.541 1249.73 100.459Z" fill="#122315"/>
<path d="M1266.35 92.1182C1266.27 91.7655 1266.2 91.4692 1266.5 91.341C1266.61 91.2946 1266.91 91.4055 1266.94 91.5011C1267.43 93.0829 1268.67 94.1036 1269.71 95.272C1269.74 95.3044 1269.66 95.4269 1269.56 95.7431C1267.88 95.0685 1266.97 93.7989 1266.35 92.1182Z" fill="#122315"/>
<path d="M1293.2 98.3946C1293.44 99.685 1294.07 100.86 1293.28 102.112C1292.93 100.324 1292.3 98.6197 1291.85 96.6309C1292.91 96.9908 1292.93 97.7231 1293.2 98.3946Z" fill="#122315"/>
<path d="M1251.38 93.5957C1251.91 94.1039 1252.3 94.6032 1252 95.4897C1251.3 94.9175 1250.55 94.5468 1251.38 93.5957Z" fill="#122315"/>
<path d="M1242.5 103.122C1242.86 102.301 1243.19 102.234 1244.19 102.742C1243.77 103.379 1243.16 103.2 1242.5 103.122Z" fill="#122315"/>
<path d="M1281.64 66.3188C1281.89 67.886 1282.09 69.3387 1281.06 70.6865C1280.91 68.6425 1281.18 66.5777 1280.2 64.3989C1281.49 64.7904 1281.42 65.5815 1281.64 66.3188Z" fill="#122315"/>
<path d="M1272.09 57.9827C1271.26 58.2173 1270.8 59.0266 1269.91 58.9932C1270.31 57.4425 1272.98 56.3648 1274.55 57.1261C1273.93 57.9633 1272.87 57.4452 1272.09 57.9827Z" fill="#122315"/>
<path d="M1261.42 79.4318C1260.49 78.2868 1261.09 77.0401 1261.16 75.811C1262.04 76.9343 1262.02 78.1402 1261.42 79.4318Z" fill="#122315"/>
<path d="M1248 61.2149C1249.88 61.7524 1250.11 61.9137 1250.51 62.9702C1249.66 63.148 1249.18 62.3693 1248.49 62.2196C1247.82 62.0762 1247.16 61.8953 1246.37 61.6996C1246.8 60.8879 1247.38 61.1215 1248 61.2149Z" fill="#122315"/>
<path d="M1196.18 33.5727C1197.33 24.3424 1204.25 17.7851 1213.39 17.4082C1218.85 17.1831 1223.72 19.129 1227.86 22.5715C1234.32 27.9439 1237.73 34.8898 1237.6 43.3801C1237.46 52.0937 1231.92 59.2288 1223.71 61.1696C1217.85 62.5563 1212.39 61.1573 1207.53 57.802C1199.93 52.5551 1196.05 45.2134 1195.95 35.9358C1195.95 35.1884 1196.1 34.4393 1196.18 33.5727ZM1229.91 56.7287C1233.6 53.6313 1235.6 49.6103 1236.11 44.8859C1237.22 34.4964 1230.78 23.9752 1221.07 20.142C1209.76 15.6787 1198.53 22.4481 1197.44 34.3926C1196.52 44.3963 1202.49 54.614 1211.74 58.5655C1218 61.2387 1224.1 61.0078 1229.91 56.7287Z" fill="#122315"/>
<path d="M1249.34 28.9257C1249.4 28.6947 1249.4 28.5476 1249.47 28.4404C1249.79 27.9147 1249.48 26.8917 1250.36 26.8645C1251.37 26.8336 1250.74 27.8569 1251.03 28.2696C1251.63 29.1257 1252.01 29.8217 1250.6 30.1196C1249.77 30.2949 1249.18 30.0545 1249.34 28.9257Z" fill="#122315"/>
<path d="M1253.08 31.2004C1252.44 30.8752 1252.05 30.4674 1252.28 29.8043C1252.43 29.37 1252.78 29.0799 1253.27 29.0669C1253.76 29.0537 1254.14 29.3316 1254.28 29.7694C1254.58 30.716 1254.12 31.1695 1253.08 31.2004Z" fill="#122315"/>
<path d="M1251.87 25.732C1252.48 25.5239 1252.96 25.5609 1253.24 26.0731C1253.4 26.3726 1253.32 26.7262 1253 26.8722C1252.51 27.0923 1251.9 27.2621 1251.47 26.9553C1250.76 26.4451 1251.3 26.0781 1251.87 25.732Z" fill="#122315"/>
<path d="M1290.81 61.1484C1290.9 60.682 1291.06 60.4178 1291.41 60.8096C1292.26 61.7504 1292.03 65.2401 1290.8 66.4948C1290.89 64.5744 1291.25 62.8945 1290.81 61.1484Z" fill="#122315"/>
<path d="M1224.11 67.6718C1224.28 67.4168 1224.41 67.2409 1224.76 67.3293C1224.75 67.9636 1224.58 68.5493 1224.21 69.1904C1223.57 68.6833 1223.97 68.2027 1224.11 67.6718Z" fill="#122315"/>
<path d="M1225.79 43.4107C1219.67 49.798 1210.92 50.0255 1203.87 46.7089C1202.66 46.1378 1202.56 45.5034 1203.1 44.3224C1204.42 41.443 1205.89 38.6599 1208.06 36.3412C1213.22 30.8292 1219.53 29.3068 1226.73 31.2483C1228.01 31.593 1229.24 32.1378 1230.51 32.5266C1231.5 32.8311 1231.71 33.3593 1231.35 34.3236C1230.11 37.6937 1228.27 40.695 1225.79 43.4107ZM1219.67 39.6611C1220.8 39.3979 1220.66 40.2069 1220.63 40.8541C1220.53 43.8142 1217.88 46.6773 1214.97 47.0138C1211.14 47.4561 1208.17 45.5096 1207.18 41.9214C1207.06 41.4842 1207.17 40.9445 1206.66 40.6022C1205.71 41.8291 1205.15 43.2218 1204.54 44.5944C1204.28 45.1823 1204.47 45.5103 1205.02 45.7404C1208.44 47.1842 1212 47.8406 1215.68 47.2438C1222.89 46.071 1226.89 41.1386 1229.69 34.8989C1230.05 34.0909 1229.74 33.7311 1228.97 33.4271C1226.89 32.6096 1224.76 32.0141 1222.54 31.8651C1219.83 31.684 1217.18 31.9511 1214.52 33.3341C1216.08 33.7857 1217.44 34.125 1218.43 35.337C1217.39 36.2322 1216.72 37.2023 1217.29 38.5246C1217.69 39.4598 1218.48 39.7868 1219.67 39.6611Z" fill="#122315"/>
<path d="M636.204 195.168C641.357 192.277 647.643 192.277 652.797 195.168L665.421 202.25C667.893 203.636 670.673 204.381 673.507 204.417L687.981 204.596C693.89 204.669 699.334 207.812 702.351 212.892L709.743 225.337C711.191 227.774 713.226 229.809 715.663 231.257L728.108 238.649C733.188 241.667 736.331 247.111 736.405 253.019L736.583 267.493C736.619 270.327 737.364 273.107 738.751 275.579L745.832 288.203C748.723 293.357 748.723 299.643 745.832 304.797L738.751 317.421C737.364 319.893 736.619 322.673 736.583 325.507L736.405 339.981C736.331 345.89 733.188 351.334 728.108 354.351L715.663 361.743C713.226 363.191 711.191 365.226 709.743 367.663L702.351 380.108C699.334 385.188 693.89 388.332 687.981 388.405L673.507 388.583C670.673 388.619 667.893 389.364 665.421 390.751L652.797 397.832C647.643 400.723 641.357 400.723 636.204 397.832L623.579 390.751C621.107 389.364 618.327 388.619 615.493 388.583L601.019 388.405C595.111 388.332 589.667 385.188 586.649 380.108L579.257 367.663C577.809 365.226 575.774 363.191 573.337 361.743L560.892 354.351C555.812 351.334 552.669 345.89 552.596 339.981L552.416 325.507C552.381 322.673 551.636 319.893 550.25 317.421L543.168 304.797C540.277 299.643 540.277 293.357 543.168 288.203L550.25 275.579C551.636 273.107 552.381 270.327 552.416 267.493L552.596 253.019C552.669 247.111 555.812 241.667 560.892 238.649L573.337 231.257C575.774 229.809 577.809 227.774 579.257 225.337L586.649 212.892C589.667 207.812 595.111 204.669 601.019 204.596L615.493 204.417C618.327 204.381 621.107 203.636 623.579 202.25L636.204 195.168Z" fill="#E5CA0A"/>
<path d="M608.559 322.091C608.809 319.801 609.243 317.682 610.274 315.581C609.856 315.216 609.428 314.884 609.049 314.503C607.544 312.99 607.499 311.84 608.993 310.282C611.82 307.335 614.485 304.254 616.9 300.964C618.48 298.81 619.997 296.609 621.509 294.406C622.204 293.392 622.587 292.372 621.17 291.554C620.733 291.302 620.512 290.711 620.943 290.405C622.235 289.486 622.364 287.737 623.646 286.822C624.138 286.472 624.535 286.071 625.21 286.248C625.827 286.409 626.342 286.205 626.442 285.541C626.678 283.972 628.024 282.623 627.199 280.844C626.293 281.735 625.086 281.831 623.742 281.847C622.579 281.86 621.444 282.51 620.21 282.509C619.91 282.509 619.586 282.826 619.566 283.139C619.449 284.924 617.841 285.338 616.752 286.191C616.093 286.708 615.144 286.247 614.311 286.771C613.436 287.321 612.882 286.093 612.142 285.734C611.726 285.533 611.462 285.09 611.496 284.608C611.546 283.901 611.441 283.322 610.902 282.775C610.445 282.312 610.754 281.815 611.256 281.566C611.776 281.308 612.348 281.156 612.897 280.958C613.193 279.18 615.199 278.229 616.888 278.987C617.55 279.284 618.183 279.054 618.605 278.378C619.377 277.139 620.384 275.962 621.344 275.004C622.597 273.753 624.015 272.211 625.59 271.614C627.439 270.913 628.018 269.796 628.659 268.235C629.818 265.413 631.932 263.453 634.881 262.572C637.251 261.865 639.611 260.976 642.165 261.239C643.821 261.409 645.07 262.19 645.771 263.741C645.922 264.075 646.091 264.344 646.421 264.567C647.811 265.509 648.229 266.55 647.608 268.034C647.239 268.914 647.437 269.37 648.165 269.811C649.057 270.35 649.483 270.922 648.996 272.135C648.636 273.033 648.878 274.184 648.899 275.221C648.939 277.267 648.15 278.922 646.574 280.192C646.119 280.559 645.865 280.979 645.752 281.538C645.371 283.423 645.348 285.265 646.185 287.06C646.501 287.738 647.118 287.839 647.659 288.06C648.135 287.923 648.152 287.517 648.275 287.193C649.504 283.959 651.226 280.979 652.998 278.025C653.555 277.097 654.288 276.329 655.4 276.191C656.592 276.044 656.858 275.297 656.867 274.302C656.876 273.25 656.975 272.198 657.471 271.265C658.466 269.393 660.045 268.345 662.189 268.379C663.366 268.397 663.705 268.288 663.823 266.815C663.975 264.912 664.569 262.385 666.03 261.436C669.187 259.384 667.895 256.7 667.824 254.199C667.777 252.576 666.889 251.095 666.127 249.649C664.133 245.867 662.432 242.003 661.966 237.672C661.166 230.238 663.954 224.507 670.246 220.65C680.454 214.393 694.326 218.081 699.775 228.435C705.173 238.692 700.546 253.076 689.176 257.61C686.86 258.533 684.511 259.389 682.902 261.478C682.153 262.451 681.504 263.306 682.484 264.575C683.104 265.379 682.875 266.397 682.419 267.293C682.297 267.533 681.945 267.827 682.005 267.965C682.807 269.831 681.384 271.33 681.212 273.026C681.185 273.294 681.219 273.679 681.061 273.803C679.97 274.661 680.125 275.84 680.026 277.024C679.927 278.203 679.053 279.029 678.149 279.752C676.726 280.889 675.124 281.728 673.521 282.481C673.393 283.146 673.916 283.431 674.12 283.862C674.563 284.796 674.831 285.719 674.25 286.705C673.449 288.063 673.524 288.654 674.798 289.667C676.579 291.083 678.488 292.272 680.734 292.865C681.976 293.193 683.275 293.437 684.31 294.352C682.367 294.148 680.489 293.68 678.689 292.926C676.88 292.169 675.325 291.02 673.793 289.282C673.509 292.264 672.642 294.765 671.985 297.319C671.156 300.548 670.04 303.605 667.795 306.192C663.811 310.784 658.24 312.351 652.156 310.421C651.127 310.094 650.125 309.682 648.939 309.246C649.524 312.8 650.071 316.245 650.899 319.641C651.071 320.344 651.258 321.044 651.467 321.736C651.691 322.476 652.067 323.219 651.002 323.74C654.943 327.385 658.22 331.309 660.988 335.634C666.371 344.046 671.203 352.746 674.317 362.292C674.862 363.962 675.128 365.721 675.603 367.417C675.83 368.225 675.303 368.31 674.434 368.565C675.44 368.614 676.308 368.331 676.34 369.524C675.908 369.704 675.474 369.885 675.041 370.066C676.704 369.218 677.86 370.664 679.245 370.946C680.609 371.223 681.901 371.953 683.392 371.565C685.258 371.08 687.029 372.905 686.603 374.842C686.324 376.115 685.591 377.086 684.365 377.566C679.605 379.429 674.865 381.353 669.832 382.398C668.788 382.614 668.352 382.108 668.09 381.191C667.284 378.363 666.444 375.544 665.606 372.725C665.453 372.211 665.356 371.664 664.835 371.131C663.053 371.82 661.216 372.533 659.376 373.241C656.632 374.295 656.599 374.306 655.519 371.665C653.355 366.373 650.482 361.426 648.077 356.253C647.008 353.954 645.98 351.634 645.012 349.291C644.674 348.471 644.207 347.944 643.379 347.63C642.124 347.153 640.902 346.588 639.517 345.997C639.411 346.92 639.382 347.676 639.23 348.406C638.18 353.462 634.623 356.228 630.188 358.113C626.08 359.859 621.772 360.162 617.39 359.561C613.173 358.983 609.001 358.18 604.941 356.859C602.275 355.991 600.004 354.414 597.693 352.906C597.547 352.811 597.392 352.662 597.337 352.505C596.826 351.038 596.521 349.491 595.555 348.34C595.376 348.715 595.626 349.584 594.756 349.72C594.127 349.463 594.538 348.839 594.188 348.511C593.848 349.004 594.283 349.91 593.371 350.046C592.628 350.157 592.918 349.298 592.459 349.008C592.635 350.028 592.186 350.55 591.303 350.887C589.527 351.565 587.787 352.335 586.024 353.045C585 353.458 583.952 353.582 583.128 352.679C582.272 351.742 582.492 350.648 582.988 349.632C583.303 348.987 583.728 348.386 584.167 347.815C586.577 344.683 588.696 341.369 590.542 337.875C592.052 335.017 593.478 334.506 596.531 335.512C601.107 337.021 605.798 337.515 610.595 336.955C611.8 336.815 613.034 336.915 614.503 336.474C611.07 332.245 608.47 327.759 608.559 322.091ZM640.791 344.817C641.591 345.178 642.313 345.761 643.269 345.771C643.39 345.216 643.149 344.497 643.881 344.365C644.665 344.224 644.772 344.978 645.044 345.467C645.174 345.702 645.244 345.971 645.351 346.221C646.6 349.133 647.799 352.068 649.112 354.951C651.569 360.346 654.684 365.43 656.826 370.973C657.307 372.216 657.88 372.262 658.95 371.83C662.729 370.308 666.519 368.812 670.331 367.375C674.016 365.986 674.011 366.03 672.761 362.276C670.143 354.406 666.252 347.15 662.03 340.058C658.82 334.666 655.13 329.643 650.566 325.294C649.574 324.349 648.623 323.707 647.11 323.915C645.645 324.117 644.123 324.001 642.634 323.908C634.825 323.426 627.252 321.678 619.739 319.605C616.946 318.833 614.267 317.77 611.692 316.509C610.415 318.305 609.755 321.961 610.089 324.275C610.685 328.414 612.647 331.88 615.27 335.015C617.651 337.862 619.951 340.785 622.693 343.312C623.046 343.638 623.541 344.028 623.024 344.553C622.553 345.031 622.109 344.672 621.721 344.335C621.448 344.098 621.176 343.856 620.929 343.591C619.572 342.133 618.184 340.7 616.887 339.19C616.233 338.429 615.515 338.125 614.527 338.149C611.856 338.216 609.215 338.784 606.539 338.646C605.507 338.593 605.123 338.956 604.979 339.974C604.372 344.243 602.879 348.205 600.581 351.85C600.107 352.601 600.35 352.988 601.01 353.356C602.592 354.241 604.186 355.092 605.929 355.634C610.353 357.009 614.877 357.933 619.486 358.297C624.658 358.706 629.504 357.609 633.71 354.424C636.459 352.343 638.074 349.628 637.909 346.043C637.878 345.361 637.723 344.847 637.074 344.478C632.811 342.052 629.348 338.65 625.947 335.194C623.682 332.892 622.125 330.154 621.439 326.962C621.319 326.403 621.211 325.78 621.933 325.64C622.585 325.514 622.686 326.113 622.803 326.614C623.383 329.084 624.439 331.359 626.146 333.216C630.361 337.801 634.874 342.043 640.791 344.817ZM672.57 284.229C669.822 282.169 666.694 281.111 663.315 280.724C661.999 280.574 661.204 281.121 660.8 282.432C659.973 285.116 658.857 287.693 657.753 290.274C657.222 291.515 656.795 292.8 656.3 294.122C659.214 293.586 663.837 297.762 662.918 300.436C661.955 297.459 659.855 295.999 657.347 294.976C656.651 296.208 656.438 296.252 655.514 295.432C655.007 294.981 654.52 294.505 653.996 294.076C649.201 290.147 643.791 287.408 637.832 285.731C637.348 285.594 636.745 285.602 636.543 284.64C639.369 284.876 641.772 286.152 644.373 286.88C644.362 285.986 643.855 285.574 643.335 285.242C641.529 284.086 639.545 283.295 637.488 282.745C636.498 282.48 635.626 282.828 635.28 283.994C634.997 284.944 634.417 285.765 633.427 286.01C631.862 286.397 631.149 287.981 629.68 288.514C629.311 288.648 628.915 289.301 629.372 289.918C629.484 290.068 629.48 290.353 629.44 290.559C629.145 292.093 626.391 294.497 624.806 294.625C624.716 294.632 624.61 294.655 624.537 294.618C623.479 294.08 623.024 294.77 622.505 295.524C618.834 300.862 615.075 306.132 610.516 310.774C609.072 312.243 609.125 312.868 610.813 314.121C612.798 315.593 615.018 316.624 617.365 317.348C624.468 319.539 631.659 321.36 639.069 322.149C642.308 322.494 645.562 322.709 648.822 322.299C649.631 322.197 649.952 321.867 649.734 321.047C648.71 317.193 648.214 313.235 647.444 309.33C647.292 308.561 646.953 308.036 646.322 307.577C644.491 306.247 642.685 304.939 640.412 304.379C639.289 304.103 638.25 303.464 637.193 302.949C636.824 302.769 636.297 302.637 636.469 301.859C637.988 301.918 639.102 303.313 640.742 303.139C639.954 302.19 639.05 301.388 638.186 300.544C637.81 300.176 637.302 299.713 637.887 299.172C638.469 298.634 638.868 299.215 639.253 299.565C639.622 299.9 639.95 300.278 640.305 300.627C643.152 303.431 646.057 306.167 649.734 307.883C654.057 309.899 658.461 310.656 662.914 308.318C665.038 307.203 666.771 305.548 667.967 303.488C670.459 299.194 671.465 294.413 672.176 289.562C672.303 288.694 671.997 288.009 671.35 287.384C670.331 286.399 669.205 285.58 667.999 284.852C667.614 284.619 667.049 284.474 667.228 283.832C667.742 283.547 668.071 283.871 668.407 284.06C669.475 284.659 670.51 285.307 671.401 286.163C671.695 286.446 672.019 286.727 672.471 286.399C672.865 286.114 673.146 285.765 673.031 285.258C672.963 284.955 672.801 284.674 672.57 284.229ZM689.765 255.709C692.679 254.368 694.982 252.317 696.817 249.705C701.875 242.503 701.927 232.852 696.642 226.409C691.879 220.6 685.551 218.228 678.134 219.357C668.281 220.857 661.287 228.749 663.766 239.797C664.55 243.292 666.071 246.457 667.722 249.582C669.389 252.737 669.917 256.062 669.34 259.576C669.275 259.968 669.174 260.381 669.411 260.755C670.649 261.215 671.295 260.824 671.414 259.487C671.482 258.727 671.71 257.982 671.838 257.225C672.883 251.017 672.066 244.872 671.171 238.735C670.862 236.613 670.445 234.507 670.079 232.405C670.829 232.068 671.515 232.235 672.183 232.248C675.273 232.311 678.134 231.547 680.571 229.637C681.645 228.794 682.161 229.062 682.804 230.05C684.803 233.122 687.348 235.69 690.333 237.799C691.301 238.483 691.387 238.99 690.65 239.953C685.774 246.326 681.953 253.288 679.155 260.814C678.711 262.008 678.977 262.602 680.351 262.761C681.758 259.8 684.154 257.925 687.215 256.82C688.022 256.529 688.797 256.147 689.765 255.709ZM675.99 239.95C676.078 239.639 676.173 239.264 676.592 239.397C677.048 239.543 676.903 239.992 676.905 240.335C676.93 244.418 676.498 248.469 675.924 252.5C675.554 255.095 675.005 257.665 674.539 260.246C674.468 260.642 674.308 261.095 674.887 261.245C675.386 261.374 675.644 261.071 675.781 260.634C675.93 260.159 676.076 259.683 676.219 259.206C678.156 252.734 680.476 246.401 683.152 240.2C683.366 239.706 683.437 239.025 684.202 238.963C684.713 239.565 684.238 240.033 684.046 240.484C681.278 246.992 678.835 253.616 676.863 260.411C676.731 260.866 676.407 261.391 677.133 261.661C677.853 261.929 677.966 261.365 678.135 260.898C680.885 253.303 684.701 246.284 689.564 239.839C690.122 239.099 689.983 238.705 689.29 238.202C687.116 236.623 685.215 234.746 683.518 232.666C682.896 231.902 682.319 231.101 681.629 230.196C678.515 232.463 675.027 233.333 671.224 233.255C672.761 242.586 674.381 251.679 672.09 260.84C673.392 261.357 673.467 260.519 673.627 259.819C675.101 253.357 675.873 246.811 675.99 239.95ZM654.75 292.707C655.272 292.804 655.336 292.377 655.458 292.058C656.661 288.932 658.086 285.898 659.193 282.728C659.663 281.381 659.272 280.807 658.131 280.345C657.603 280.131 656.861 280.162 656.695 279.323C657.592 278.899 658.315 279.347 658.898 279.743C660.01 280.498 660.679 280.083 661.381 279.088C659.964 277.979 658.366 277.617 656.674 277.501C655.671 277.432 654.895 277.814 654.368 278.648C652.504 281.603 650.833 284.659 649.584 287.932C649.337 288.58 649.395 289.067 650.042 289.421C651.678 290.318 653.045 291.598 654.75 292.707ZM636.789 271.836C636.172 272.003 635.677 272.326 635.718 273.034C635.768 273.888 636.334 274.392 637.053 274.776C639.206 275.926 639.421 276.404 639.056 278.664C638.908 279.577 638.003 280.584 638.594 281.318C639.115 281.965 640.249 282.158 641.145 282.455C642.082 282.767 642.891 283.493 644.029 283.477C643.953 282.308 642.968 282.093 642.383 281.535C642.045 281.213 641.732 280.881 641.877 280.364C642.035 279.801 642.503 279.774 642.969 279.797C643.854 279.84 644.673 279.641 645.422 279.165C647.187 278.044 648.49 272.567 647.116 271.015C646.067 269.831 645.149 268.388 643.573 267.732C643.134 267.549 642.652 267.195 642.291 267.862C641.556 269.218 640.144 270.328 640.775 272.181C640.869 272.457 640.752 272.807 640.725 273.123C640.689 273.546 640.589 273.958 640.118 274.078C639.631 274.202 639.374 273.857 639.17 273.487C638.684 272.609 637.977 272.028 636.789 271.836ZM664.923 278.491C664.916 279.053 665.121 279.42 665.72 279.573C666.375 279.741 667.012 279.988 667.648 280.225C668.973 280.72 670.29 281.507 671.265 279.601C671.565 279.015 672.391 278.883 673.054 278.726C673.81 278.548 674.526 278.282 675.197 277.895C675.557 277.687 676.081 277.344 675.958 277.027C675.606 276.121 676.118 275.174 675.916 274.468C675.648 273.536 676.094 273.143 676.551 272.5C675.53 272.154 675.738 271.411 676.1 270.526C674.251 271.473 672.613 272.247 670.718 272.075C670.261 272.034 669.769 272.055 669.635 271.48C669.517 270.973 669.858 270.743 670.271 270.592C670.734 270.424 670.966 270.131 670.91 269.558C670.234 269.867 669.684 270.219 669.084 270.374C666.658 270.999 665.556 272.705 665.072 275.008C664.844 276.091 664.922 277.169 664.923 278.491ZM678.023 271.22C678.934 271.632 679.692 271.407 680.328 270.669C680.717 270.217 680.934 269.701 680.499 269.202C679.739 268.328 680.107 267.69 680.762 266.972C681.241 266.447 681.64 265.79 680.883 265.099C678.538 266.595 676.044 266.225 673.618 265.703C671.199 265.181 668.822 264.419 667.285 262.233C666.65 262.607 666.502 263.151 666.521 263.772C666.535 264.225 666.538 264.649 666.254 265.066C664.82 267.168 664.835 267.201 666.549 268.983C666.616 269.053 666.572 269.231 666.579 269.356C664.055 269.713 663.683 270.154 664.731 271.733C665.945 269.226 669.04 269.455 670.711 267.552C669.388 266.634 667.609 266.526 666.933 264.814C669.494 266.069 672.122 267.062 675.272 267.491C674.094 268.671 673.147 267.686 672.285 268.118C672.422 268.781 672.563 269.462 672.702 270.136C672.904 270.173 673.054 270.251 673.16 270.211C673.667 270.021 674.168 269.816 674.658 269.586C676.589 268.68 677.334 269.02 678.023 271.22ZM661.681 274.374C660.79 274.979 660.365 274.662 660.515 273.677C660.601 273.115 660.681 272.62 660.366 272.12C660.022 271.575 660.278 271.173 660.712 270.838C661.056 270.573 661.416 270.328 661.9 269.979C659.271 270.266 657.266 273.588 658.184 275.834C658.28 276.068 658.437 276.213 658.662 276.27C660.283 276.681 661.754 277.455 663.387 278.404C663.105 275.979 661.45 273.939 662.929 271.606C662.058 271.575 661.985 271.897 662.092 272.371C662.236 273.017 662.134 273.63 661.681 274.374ZM678.353 275.582C677.882 274.896 677.58 275.189 677.625 275.798C677.676 276.49 677.729 277.172 677.476 278.111C678.429 277.345 678.834 276.694 678.353 275.582ZM672.683 281.164C673.132 281.009 673.57 280.838 673.878 280.299C672.917 280.134 672.367 280.487 671.837 281.362C672.204 281.278 672.366 281.24 672.683 281.164ZM590.665 344.211C590.339 344.726 590.014 345.241 589.688 345.756C589.753 345.794 589.818 345.833 589.882 345.871C590.53 344.879 591.178 343.887 592.025 342.59C591.228 343.1 591.077 343.641 590.665 344.211Z" fill="#122315"/>
<path d="M699.843 302.772C700.335 303.282 700.817 303.685 700.867 304.449C698.94 302.889 697.013 301.33 695.086 299.77C696.895 300.374 698.412 301.42 699.843 302.772Z" fill="#122315"/>
<path d="M665.208 351.642C666.203 356.212 665.902 360.559 664.083 364.765C663.518 366.071 662.731 367.234 661.435 367.934C660.681 368.341 659.888 368.599 659.091 368.198C658.997 367.615 659.313 367.481 659.63 367.457C661.41 367.327 662.385 366.169 663.018 364.699C665.736 358.388 665.415 352.209 662.083 346.196C661.633 345.384 661.614 345.394 661.552 344.621C662.757 344.814 664.142 347.439 665.208 351.642Z" fill="#122315"/>
<path d="M640.045 331.302C639.206 331.438 638.392 332.111 637.48 331.458C639.551 329.09 641.587 326.761 643.645 324.407C644.551 325.864 643.589 328.322 641.25 330.618C640.773 330.927 640.409 331.115 640.045 331.302Z" fill="#122315"/>
<path d="M612.187 326.608C612.807 326.92 613.354 327.098 613.957 327.129C615.964 327.23 616.02 326.866 615.959 324.9C615.878 322.294 614.814 320.877 612.29 320.428C611.904 320.36 611.385 320.197 611.407 319.28C613.309 319.89 615.118 320.471 617.064 321.095C616.106 322.86 616.66 324.468 617.157 326.048C617.419 326.881 617.195 327.336 616.436 327.642C614.782 328.311 613.177 328.246 611.624 327.345C611.343 327.181 611.037 326.967 611.252 326.603C611.47 326.234 611.805 326.459 612.187 326.608Z" fill="#122315"/>
<path d="M633.172 349.519C632.45 352.589 631.014 354.896 627.835 355.658C627.032 355.851 627.029 355.837 626.016 355.12C632.381 354.325 632.417 349.482 632.881 344.815C633.558 346.38 633.433 347.888 633.172 349.519Z" fill="#122315"/>
<path d="M605.18 347.993C606.02 345.819 606.437 343.626 606.949 341.316C607.772 341.864 607.577 342.451 607.505 342.923C606.943 346.634 605.602 350.053 603.539 353.187C603.323 353.515 603.094 354.041 602.635 353.769C602.025 353.407 602.557 352.988 602.78 352.648C603.722 351.209 604.516 349.694 605.18 347.993Z" fill="#122315"/>
<path d="M639.998 331.369C640.416 331.115 640.78 330.927 641.2 330.679C643.847 329.552 644.093 326.994 644.936 324.772C645.598 326.568 644.943 328.111 644.028 329.502C642.711 331.507 640.551 332.227 638.203 333.263C638.439 331.838 639.447 331.931 639.998 331.369Z" fill="#122315"/>
<path d="M616.427 342.368C616.156 341.521 615.636 340.817 616.077 339.672C617.199 341.101 617.406 342.745 618.214 344.074C619.014 345.389 620.03 346.564 620.669 347.998C618.477 346.75 617.43 344.639 616.427 342.368Z" fill="#122315"/>
<path d="M643.377 337.826C643.212 339.341 643.8 340.64 644.058 342.082C642.297 341.368 641.831 336.875 643.23 335.338C644.023 336.094 643.207 336.943 643.377 337.826Z" fill="#122315"/>
<path d="M641.04 342.797C641.202 343.375 641.707 343.825 641.212 344.365C639.823 343.688 638.951 339.548 640.008 337.601C640.633 339.41 640.239 341.196 641.04 342.797Z" fill="#122315"/>
<path d="M620.636 337.726C622.132 338.317 623.652 338.142 625.32 338.29C623.851 339.558 620.681 339.184 619.598 337.841C619.844 337.365 620.211 337.659 620.636 337.726Z" fill="#122315"/>
<path d="M645.381 343.013C645.54 341.871 645.344 340.753 646.345 339.908C646.529 341.509 646.431 343.089 646.106 344.763C645.13 344.389 645.345 343.717 645.381 343.013Z" fill="#122315"/>
<path d="M614.043 341.107C614.871 341.689 614.92 342.453 614.673 343.526C613.779 342.777 613.596 342.042 614.043 341.107Z" fill="#122315"/>
<path d="M615.271 309.307C616.197 311.383 617.566 312.961 619.223 314.356C620.811 315.693 622.839 316.335 624.45 317.617C620.741 317.908 613.305 311.152 614.157 307.513C615.097 307.728 614.839 308.684 615.271 309.307Z" fill="#122315"/>
<path d="M642.447 307.609C637.43 308.58 632.649 308.108 631.465 306.571C631.598 306.247 631.866 306.214 632.136 306.322C635.243 307.554 638.442 307.24 641.643 306.908C642.603 306.808 642.603 306.813 642.447 307.609Z" fill="#122315"/>
<path d="M632.207 318.59C631.719 318.334 631.667 317.951 632.12 317.938C634.316 317.874 636.457 317.378 638.735 316.999C638.092 318.234 635.156 318.896 632.207 318.59Z" fill="#122315"/>
<path d="M657.907 298.83C657.854 298.303 657.957 297.95 658.457 298.265C659.095 298.668 659.781 302.31 659.327 303.372C658.405 301.922 658.625 300.263 657.907 298.83Z" fill="#122315"/>
<path d="M655.045 297.892C654.749 298.172 654.417 298.218 654.397 297.856C654.366 297.264 654.302 296.624 654.752 295.971C655.455 296.555 655.272 297.184 655.045 297.892Z" fill="#122315"/>
<path d="M626.478 302.781C625.483 302.866 625.183 302.215 624.863 301.375C625.919 301.357 626.431 301.78 626.478 302.781Z" fill="#122315"/>
<path d="M696.563 229.367C696.343 228.898 695.883 228.576 696.262 228.079C698.222 228.786 699.717 234.257 698.391 236.401C697.667 235.215 698.172 233.964 697.894 232.853C697.599 231.671 697.255 230.507 696.563 229.367Z" fill="#122315"/>
<path d="M644.116 270.052C643.715 270.182 643.407 270.261 643.12 270.389C642.731 270.564 642.33 270.756 642.054 270.278C641.779 269.802 642.008 269.41 642.407 269.107C642.856 268.765 643.368 268.622 643.93 268.63C644.368 268.636 644.769 268.741 644.9 269.203C645.057 269.76 644.593 269.87 644.116 270.052Z" fill="#122315"/>
<path d="M643.966 274.78C644.209 274.466 644.454 274.34 644.734 274.363C645.302 274.41 646.093 273.904 646.34 274.822C646.511 275.454 645.93 275.701 645.446 275.78C644.734 275.898 643.927 276.017 643.966 274.78Z" fill="#122315"/>
<path d="M645.099 270.374C645.576 270.946 645.459 271.36 644.855 271.56C644.458 271.691 644.115 271.47 644.074 271.052C644.006 270.371 644.422 270.208 645.099 270.374Z" fill="#122315"/>
<path d="M80.2035 53.168C85.3571 50.2773 91.643 50.2773 96.7966 53.168L109.421 60.2498C111.893 61.6365 114.673 62.3814 117.507 62.4165L131.981 62.5958C137.89 62.6689 143.334 65.8121 146.351 70.8922L153.743 83.3374C155.191 85.7742 157.226 87.8095 159.663 89.2569L172.108 96.6492C177.188 99.6666 180.331 105.111 180.405 111.019L180.583 125.493C180.619 128.327 181.364 131.107 182.751 133.579L189.832 146.203C192.723 151.357 192.723 157.643 189.832 162.797L182.751 175.421C181.364 177.893 180.619 180.673 180.583 183.507L180.405 197.981C180.331 203.89 177.188 209.334 172.108 212.351L159.663 219.743C157.226 221.191 155.191 223.226 153.743 225.663L146.351 238.108C143.334 243.188 137.89 246.332 131.981 246.405L117.507 246.583C114.673 246.619 111.893 247.364 109.421 248.751L96.7966 255.832C91.643 258.723 85.3571 258.723 80.2035 255.832L67.5793 248.751C65.107 247.364 62.327 246.619 59.4931 246.583L45.0189 246.405C39.1107 246.332 33.6666 243.188 30.6492 238.108L23.2569 225.663C21.8095 223.226 19.7742 221.191 17.3374 219.743L4.89209 212.351C-0.187898 209.334 -3.33106 203.89 -3.4042 197.981L-3.58353 183.507C-3.61858 180.673 -4.36357 177.893 -5.7502 175.421L-12.832 162.797C-15.7227 157.643 -15.7227 151.357 -12.832 146.203L-5.7502 133.579C-4.36357 131.107 -3.61858 128.327 -3.58353 125.493L-3.4042 111.019C-3.33106 105.111 -0.187898 99.6667 4.89209 96.6493L17.3374 89.2569C19.7742 87.8095 21.8095 85.7742 23.2569 83.3374L30.6492 70.8922C33.6666 65.8121 39.1107 62.6689 45.0189 62.5958L59.4931 62.4165C62.327 62.3814 65.107 61.6365 67.5793 60.2498L80.2035 53.168Z" fill="#73D3EB"/>
<path d="M57.0867 135.858C49.6661 129.433 45.6062 121.253 43.8549 111.807C43.7076 111.012 43.6367 110.238 42.8337 109.699C42.1187 109.218 42.1369 108.415 42.5392 107.701C42.8966 107.067 43.3465 106.485 43.8219 105.782C42.5496 105.355 41.766 104.488 41.3325 103.296C41.2638 103.107 41.1669 102.967 40.9674 102.878C38.4141 101.735 37.718 99.6487 39.0466 97.1586C39.4187 96.4613 39.9058 95.8524 40.506 95.3486C41.1019 94.8483 41.7242 94.3758 42.362 93.9298C43.9991 92.7851 44.0049 92.7937 42.9914 91.1447C42.9302 91.0451 42.8712 90.9439 42.8177 90.8401C42.4038 90.0367 42.1549 89.2027 42.8706 88.4616C43.6304 87.6748 44.5152 87.8768 45.3316 88.3804C48.2784 90.1981 50.2122 92.8083 51.242 96.0956C51.803 97.8864 52.1584 99.7189 52.186 101.602C52.1938 102.132 52.182 102.641 52.8784 102.744C54.1693 102.935 55.0125 103.81 55.8278 104.71C57.7664 106.849 59.1161 109.327 60.0997 112.033C61.1507 114.925 62.3204 117.774 63.3514 120.673C63.8621 122.109 64.7013 123.179 66.0014 123.95C68.573 125.477 71.1237 127.038 73.7437 128.622C74.3081 127.663 75.0762 127.113 76.0465 126.891C75.9069 126.18 75.3842 125.996 74.9715 125.757C72.766 124.477 71.326 122.591 70.6575 120.165C70.377 119.147 69.8929 118.875 68.8692 118.835C65.9773 118.724 63.5043 116.418 63.2741 113.796C62.9758 110.397 64.757 107.404 67.5808 106.763C69.9919 106.214 71.9109 107.206 73.5615 109.081C74.9457 108.142 76.4229 107.387 78.0282 106.901C80.2404 106.23 82.4003 106.235 84.5069 107.291C87.014 108.548 88.1584 111.281 87.1391 113.887C86.8767 114.558 86.9943 114.973 87.3685 115.465C87.7455 115.961 88.0724 116.496 88.4552 116.988C88.9039 117.564 89.107 118.138 88.6291 118.794C88.3241 119.213 88.4237 119.695 88.4507 120.155C88.5888 122.508 87.9535 124.472 85.7408 125.671C85.469 125.818 85.1663 125.982 85.2465 126.375C85.3176 126.723 85.6293 126.708 85.8941 126.755C86.8478 126.922 87.6955 127.263 88.206 128.162C88.3523 128.419 88.588 128.521 88.8779 128.563C91.7611 128.98 93.6266 130.737 94.9078 133.218C95.5154 134.394 96.0492 135.609 96.6057 136.811C97.1613 138.011 97.7036 139.218 98.3197 140.571C98.9209 139.504 99.1538 138.467 99.2889 137.43C99.4438 136.241 99.8586 135.418 101.202 135.383C101.978 135.362 101.97 134.873 101.773 134.324C101.407 133.3 100.911 132.329 100.669 131.25C100.382 129.973 100.574 128.812 101.44 127.865C102.161 127.076 101.66 126.368 101.576 125.583C101.466 124.571 100.995 124.319 100.039 124.161C96.9874 123.659 94.8323 121.04 94.8895 118.117C94.9487 115.088 97.0667 112.676 100.167 112.199C102.435 111.851 104.713 111.551 106.995 111.311C107.803 111.226 108.491 110.962 109.174 110.567C115.375 106.973 120.844 102.38 126.427 97.9428C127.403 97.1669 128.372 96.3773 129.478 95.785C132 94.4341 134.089 95.01 135.532 97.4764C137.647 101.094 138.751 105.057 139.443 109.152C139.559 109.84 139.731 110.397 140.395 110.773C140.954 111.091 141.26 111.669 141.389 112.302C141.598 113.329 141.831 114.357 141.951 115.396C142.043 116.2 141.818 117.004 141.087 117.444C140.48 117.809 140.367 118.269 140.385 118.898C140.449 121.16 140.344 123.414 139.926 125.644C139.825 126.179 139.711 126.715 139.545 127.232C138.42 130.739 136.552 131.749 133.044 130.729C125.821 128.629 118.699 126.231 111.695 123.485C111.369 123.358 111.043 123.206 110.704 123.146C110.195 123.056 109.735 123.135 109.762 123.819C109.784 124.359 109.587 124.806 109.124 125.194C110.15 126.332 110.7 127.665 111.403 128.912C112.43 130.735 112.282 132.392 110.944 133.989C110.398 134.641 109.871 135.329 109.81 136.222C109.871 136.305 109.903 136.403 109.963 136.423C111.975 137.121 111.878 137.12 111.893 139.358C111.925 144.262 111.303 149.075 109.906 153.761C108.717 157.749 106.266 160.531 101.91 161.141C101.152 161.246 100.367 161.156 99.4541 161.156C100.014 162.477 99.3753 163.171 98.2254 163.714C99.2774 164.702 100.254 165.57 101.176 166.494C110.812 176.144 117.271 187.631 120.934 200.73C122.297 205.604 123.268 210.572 124.465 215.485C124.617 216.106 124.506 216.751 124.869 217.37C125.276 218.066 125.375 218.851 124.1 219.01C124.606 219.044 125.111 218.783 125.461 219.211C125.788 219.611 126.112 220.028 125.402 220.83C126.19 220.372 126.604 220.549 126.958 220.946C127.317 221.348 126.831 221.562 126.682 222.092C127.328 221.488 127.91 221.391 128.593 221.573C129.341 221.773 130.13 221.816 130.891 221.976C132.012 222.211 133.027 222.676 133.277 223.918C133.529 225.166 132.63 225.858 131.731 226.429C130.209 227.396 128.487 227.782 126.711 227.751C123.975 227.702 121.293 228.224 118.581 228.375C117.006 228.462 116.308 227.84 116.196 226.289C115.923 222.518 114.326 219.248 112.468 216.069C111.131 213.78 109.42 211.728 108.171 209.383C107.664 208.431 107.214 207.448 106.695 206.391C104.332 207.694 101.947 208.719 99.3944 209.321C93.6182 210.682 87.9485 210.396 82.4292 208.163C81.6693 207.856 81.2366 207.97 80.715 208.529C78.3475 211.064 75.6133 213.233 73.3508 215.876C73.0761 216.197 72.793 216.642 72.2101 216.009C72.3296 216.752 72.6408 217.491 71.5299 217.354C71.8028 218.163 71.8611 218.815 70.5614 218.614C71.5777 219.627 70.4559 220.475 70.5562 221.434C70.6373 222.209 70.7505 222.619 71.4417 222.928C72.0472 223.199 72.5696 223.612 72.9437 224.191C74.0896 225.964 73.1827 227.906 71.0915 228.146C69.515 228.327 68.1571 227.793 67.0012 226.781C66.3021 226.168 65.6175 225.495 65.0961 224.733C63.5794 222.515 62.0285 220.342 60.2783 218.288C58.5776 216.293 58.9791 214.607 61.291 213.315C62.8339 212.453 63.8908 211.216 64.6644 209.702C66.0647 206.961 67.4012 204.188 68.7992 201.446C69.0649 200.925 68.9221 200.618 68.5934 200.211C65.7386 196.671 65.9394 192.735 69.146 189.503C70.2987 188.341 71.49 187.215 72.7037 186.118C73.268 185.607 73.2426 185.23 72.7653 184.667C71.4057 183.061 70.0328 181.458 68.7924 179.762C66.7529 176.972 65.146 173.965 64.5854 170.485C64.2785 168.58 64.4781 166.747 65.2748 165.008C65.6159 164.264 65.4924 163.901 64.7572 163.578C63.1068 162.853 61.603 161.876 60.2218 160.717C59.0574 159.74 59.0353 159.496 60.0527 158.402C63.469 154.728 65.9459 150.465 67.8309 145.851C68.5625 144.06 68.478 144.033 66.8084 143.075C63.3083 141.066 60.1898 138.541 57.0867 135.858ZM106.55 157.466C107.894 155.931 108.616 154.095 109.116 152.152C110.237 147.79 110.556 143.33 110.746 138.853C110.772 138.254 110.596 137.924 109.973 137.773C107.241 137.108 104.499 136.561 101.664 136.661C101.028 136.683 100.659 136.856 100.553 137.554C100.359 138.828 99.8663 140.026 99.4949 141.255C98.9011 143.22 98.1408 145.183 98.8673 147.296C99.001 147.684 98.8563 148.015 98.4435 148.112C98.0027 148.216 97.8279 147.879 97.7006 147.534C97.2838 146.405 97.2435 145.232 97.4315 143.818C96.3862 145.592 96.4511 147.359 96.3962 149.097C95.7557 148.965 95.7911 148.6 95.7553 148.311C95.5108 146.342 95.9338 144.503 97.0303 142.867C97.4347 142.264 97.5044 141.75 97.2183 141.136C95.9678 138.453 94.7879 135.733 93.438 133.101C92.5908 131.449 91.1458 130.271 89.3129 129.904C88.2429 129.69 87.1796 129.767 86.7837 128.329C86.5881 129.041 86.1563 129.274 85.6581 129.413C82.6406 130.254 79.6039 130.414 76.5304 129.714C75.9144 129.573 75.4668 129.349 75.4608 128.583C74.7767 129.151 75.4929 130.368 74.4866 130.483C73.7333 130.569 73.2988 129.677 72.6255 129.378C72.5195 129.331 72.4236 129.26 72.3256 129.196C69.8413 127.583 67.1797 126.264 64.7345 124.582C63.663 123.845 62.907 122.922 62.4498 121.712C61.4173 118.978 60.3132 116.271 59.3197 113.524C58.1421 110.268 56.7309 107.173 54.1168 104.776C53.5135 104.223 52.9025 103.837 52.0278 104.015C49.6395 104.499 47.3727 105.315 45.2727 106.543C44.4757 107.01 43.7687 107.637 43.6043 108.727C44.6181 109.039 44.7789 109.881 44.9197 110.743C45.4483 113.979 46.1903 117.154 47.5032 120.177C49.6618 125.148 52.2783 129.804 56.3404 133.52C60.4968 137.322 64.8709 140.813 69.9214 143.379C70.0254 143.432 70.1312 143.487 70.2222 143.559C70.775 143.995 70.7966 144.482 70.0932 144.65C69.4468 144.805 69.3565 145.232 69.1839 145.707C68.9181 146.437 68.6443 147.168 68.3212 147.875C66.5631 151.719 64.4805 155.363 61.5868 158.484C60.9047 159.22 60.9272 159.724 61.7623 160.351C63.8466 161.915 66.1656 162.994 68.5943 163.869C72.447 165.258 76.4676 165.759 80.5203 165.941C86.1749 166.194 91.7434 165.83 96.8662 163.012C98.4362 162.148 98.4793 162.172 97.7239 160.582C95.3338 155.55 92.9431 150.518 90.5093 145.507C89.8826 144.216 89.5925 142.968 90.1454 141.585C90.5343 140.612 90.4815 139.607 90.2166 138.6C89.8963 137.381 89.2964 136.289 88.7336 135.178C88.565 134.845 88.4736 134.478 88.8547 134.245C89.2274 134.016 89.5416 134.213 89.7362 134.549C91.0409 136.806 92.2504 139.117 91.3442 141.826C90.9476 143.012 91.1424 143.994 91.6652 145.062C93.8747 149.576 96.0624 154.101 98.1912 158.653C98.6038 159.535 99.1848 159.863 100.069 159.929C102.551 160.115 104.669 159.33 106.55 157.466ZM67.8108 164.883C67.0961 164.488 66.6884 164.718 66.3881 165.463C65.6957 167.181 65.5615 168.947 65.8936 170.739C66.4747 173.874 67.9974 176.597 69.8625 179.116C72.0654 182.092 74.4683 184.909 77.0704 187.55C77.3827 187.867 77.9353 188.211 77.4869 188.703C76.9969 189.239 76.5801 188.714 76.2081 188.39C75.8349 188.065 75.4802 187.719 75.0256 187.297C75.2475 188.807 76.5444 189.571 76.9518 190.835C75.2342 190.116 74.6832 188.428 73.6195 186.907C71.8931 188.803 69.743 190.169 68.5302 192.404C67.2382 194.784 67.8534 197.952 69.8866 199.582C70.8286 198.213 71.9387 196.986 73.2587 195.706C72.3223 195.583 71.6594 195.835 71.0148 196.19C70.6587 196.387 70.2447 196.563 69.974 196.144C69.6501 195.642 70.0779 195.339 70.4392 195.12C71.4714 194.493 72.5965 194.23 73.7987 194.444C76.5429 194.931 79.1518 195.837 81.6025 197.153C83.867 198.368 86.0834 199.673 88.3232 200.935C93.8357 204.04 99.4714 204.656 105.301 201.817C106.666 201.153 108.066 200.555 109.476 199.992C112.49 198.79 115.545 197.786 118.976 198.667C118.837 198.152 118.759 197.817 118.655 197.489C116.396 190.338 113.036 183.728 108.804 177.551C105.664 172.967 102.126 168.733 97.8626 165.136C97.3651 164.716 96.9227 164.367 96.206 164.728C92.7954 166.446 89.1248 167 85.3534 167.144C79.4333 167.371 73.6076 166.913 67.8108 164.883ZM117.557 124.37C122.946 126.303 128.383 128.088 133.882 129.679C135.959 130.28 137.238 129.662 138.054 127.659C138.738 125.981 138.987 124.203 139.064 122.412C139.121 121.072 139.238 119.717 139.004 118.256C137.483 118.652 136.015 118.937 134.915 119.855C134.165 120.481 134.499 121.679 134.297 122.611C133.959 124.177 133.255 125.749 134.452 127.287C134.667 127.563 134.575 127.999 134.161 128.161C133.744 128.323 133.492 128.042 133.329 127.713C132.915 126.876 132.435 126.057 132.136 125.178C129.671 117.943 128.605 110.519 129.306 102.884C129.43 101.535 129.624 100.176 130.118 98.8921C130.254 98.5394 130.463 98.2539 130.902 98.3966C131.281 98.52 131.298 98.8592 131.246 99.1718C131.163 99.6696 131.063 100.169 130.916 100.651C130.743 101.217 130.816 101.725 131.128 102.213C132.066 103.682 132.526 105.322 132.893 107.006C133.613 110.321 133.828 110.47 137.263 110.379C137.38 110.376 137.496 110.371 137.613 110.371C138.17 110.372 138.381 110.129 138.259 109.56C138.047 108.572 137.899 107.569 137.677 106.583C137.041 103.758 136.083 101.048 134.69 98.5023C133.366 96.085 131.847 95.6874 129.528 97.184C128.777 97.6687 128.07 98.2262 127.369 98.7821C121.538 103.4 115.852 108.216 109.346 111.906C108.916 112.15 108.66 112.502 108.561 113.003C107.994 115.87 108.408 118.577 109.84 121.125C110.011 121.428 110.219 121.679 110.59 121.812C112.861 122.628 115.122 123.473 117.557 124.37ZM111.703 212.61C112.267 213.451 112.847 214.281 113.392 215.134C114.749 217.261 114.745 217.276 117.181 216.699C118.298 216.434 119.591 216.456 119.642 214.71C119.661 214.046 120.386 213.561 121.088 213.314C121.519 213.163 122.02 213.276 122.488 212.942C122.435 212.619 122.399 212.276 122.322 211.942C121.589 208.761 120.82 205.589 120.123 202.4C119.666 200.31 118.806 199.69 116.484 199.588C114.208 199.487 112.127 200.305 110.048 201.079C107.309 202.101 107.038 202.653 107.878 205.505C108.096 206.248 108.396 206.972 108.72 207.677C109.502 209.381 110.502 210.959 111.703 212.61ZM66.8736 208.281C66.7049 208.695 66.292 209.116 66.7311 209.558C67.4146 210.246 68.0559 211.056 68.8842 211.496C69.5658 211.859 70.1884 211.01 70.8408 210.718C72.2681 210.079 73.3448 210.354 74.2526 211.673C74.4205 211.917 74.4704 212.269 74.927 212.39C78.0366 209.417 81.2888 206.518 83.8995 203.001C84.2708 202.501 84.4885 201.913 84.6834 201.315C84.9035 200.639 84.6977 200.231 84.0919 199.879C81.5274 198.388 78.8882 197.078 76.041 196.201C75.3609 195.992 74.8566 196.093 74.3286 196.526C72.8066 197.771 71.5442 199.228 70.5302 200.917C69.1434 203.227 68.1614 205.734 66.8736 208.281ZM85.1262 207.825C92.0743 209.691 98.7762 209.159 105.174 205.746C106.512 205.032 106.682 204.401 105.896 202.845C99.0124 206.472 92.4522 204.979 86.0485 201.061C85.4654 203.499 83.7836 204.977 82.5606 206.755C83.3758 207.322 84.1846 207.489 85.1262 207.825ZM85.0547 114.576C84.7159 114.335 84.4732 113.935 83.9783 113.923C83.6759 114.178 83.4395 114.463 83.4664 114.923C83.8991 115.098 84.338 115.25 84.754 115.45C85.1461 115.639 85.527 115.888 85.502 116.396C85.4873 116.693 85.2697 116.903 84.9714 116.936C84.5235 116.986 84.0493 117.16 83.6773 116.697C83.378 116.324 83.0396 115.982 82.7143 115.622C82.342 115.961 82.0694 116.332 81.7026 116.521C79.6951 117.557 80.2536 118.221 80.6362 119.665C80.7474 120.084 81.1031 120.626 80.5009 120.901C79.9291 121.162 79.695 120.586 79.4326 120.227C78.7087 119.238 77.8767 118.382 76.7299 117.886C76.2625 117.683 75.805 117.681 75.4392 118.075C75.0864 118.454 75.0577 118.905 75.2616 119.379C75.5696 120.095 76.0831 120.613 76.7975 120.902C77.6435 121.245 77.9251 121.89 77.9395 122.747C77.9534 123.571 77.9212 124.376 77.6327 125.162C77.2725 126.144 77.5222 127.169 77.4772 128.174C77.4635 128.478 77.6546 128.732 77.9522 128.753C80.0687 128.896 82.1909 129.072 84.2402 128.45C84.3518 127.489 83.7903 127.27 83.1578 127.081C82.6656 126.934 82.1728 126.742 82.1768 126.093C82.1812 125.385 82.7371 125.358 83.2324 125.248C83.5739 125.172 83.9144 125.084 84.2461 124.974C85.709 124.487 86.9023 123.596 87.088 122.023C87.4012 119.37 87.7092 116.633 85.0547 114.576ZM104.875 112.809C103.372 112.988 101.86 113.106 100.369 113.357C97.658 113.813 95.9424 116.036 96.1895 118.662C96.4319 121.237 98.6189 123.089 101.347 122.985C102.198 122.952 103.047 122.835 103.892 122.721C105.492 122.506 107.088 122.266 108.796 122.021C108.562 121.47 108.399 121.084 108.233 120.7C107.313 118.558 106.839 116.333 107.095 113.999C107.257 112.525 107.212 112.446 105.774 112.685C105.544 112.723 105.314 112.76 104.875 112.809ZM50.8863 102.015C51.1557 95.7816 47.2925 90.0898 43.9794 89.3422C43.5844 89.7675 43.8871 90.141 44.0904 90.5004C45.5869 93.1462 45.59 93.1448 43.1371 94.8945C42.7883 95.1433 42.4201 95.368 42.0903 95.6396C41.2137 96.3612 40.3856 97.1295 39.9548 98.222C39.4605 99.4754 39.7098 100.655 40.7433 101.412C40.8346 100.217 41.5999 100.409 42.3263 100.652C42.8535 99.4145 42.9687 99.3115 43.6669 99.7293C44.1239 100.003 44.5483 100.22 44.863 99.686C45.2784 98.9808 44.5158 98.9736 44.1816 98.763C42.9904 98.0121 42.8446 96.8374 43.8459 95.8362C44.5497 95.1326 46.189 94.8551 47.14 95.2765C47.4349 95.4072 47.7262 95.5548 47.6818 95.9402C47.6268 96.417 47.2532 96.4135 46.8916 96.4219C46.3098 96.4353 45.7242 96.4251 45.1482 96.4929C44.8279 96.5305 44.5972 96.7858 44.5374 97.1249C44.4893 97.3974 44.6648 97.6345 44.8878 97.6575C46.6819 97.8422 46.8341 98.9187 46.4174 100.352C46.3692 100.518 46.4903 100.73 46.5154 100.922C46.565 101.302 46.6988 101.73 46.2436 101.954C45.8416 102.152 45.6216 101.86 45.377 101.58C44.9009 101.036 44.1902 101.242 43.7683 101.46C43.2889 101.708 42.5952 102 42.5789 102.761C42.556 103.837 44.6933 105.365 45.663 104.908C47.1125 104.224 48.5972 103.65 50.1307 103.198C50.6412 103.048 50.9731 102.807 50.8863 102.015ZM137.712 111.688C135.638 111.681 133.599 111.391 131.604 110.846C130.809 110.628 130.485 110.827 130.563 111.646C130.643 112.497 130.682 113.355 130.815 114.198C131.122 116.135 131.297 118.104 132.077 120.14C134.237 118.324 136.796 117.629 139.304 116.732C138.97 115.962 138.651 115.339 138.427 114.683C138.188 113.981 138.119 113.239 138.156 112.492C138.17 112.218 138.155 111.942 137.712 111.688ZM110.608 132.208C110.983 130.723 109.423 126.901 108.128 126.132C107.278 125.628 106.17 125.956 105.422 126.958C105.56 126.958 105.672 126.968 105.783 126.957C106.208 126.913 106.722 126.508 106.985 127.176C107.2 127.723 106.69 127.898 106.378 128.165C106.013 128.479 105.504 128.709 105.629 129.352C106.102 129.585 106.795 128.966 107.086 129.701C107.385 130.455 106.316 130.476 106.264 131.078C106.676 131.29 107.384 130.968 107.436 131.761C107.479 132.416 106.506 132.352 106.559 133.102C107.441 133.803 108.816 132.373 109.517 133.908C109.934 133.271 110.23 132.819 110.608 132.208ZM103.61 127.009C104.514 124.969 106.773 124.883 108.4 123.852C107.131 123.283 105.972 123.766 104.807 123.822C102.101 123.953 102.398 124.89 103.348 126.621C103.404 126.723 103.474 126.817 103.61 127.009ZM105.352 135.617C105.967 135.711 106.583 135.795 107.197 135.9C108.59 136.137 108.784 135.968 108.847 134.313C106.945 134.763 105.05 135.005 103.184 134.093C103.126 135.801 104.323 135.425 105.352 135.617ZM103.146 128.859C102.677 127.941 102.331 128.631 102.128 129.002C101.412 130.308 101.893 131.515 102.647 133.001C102.839 131.471 103.236 130.279 103.146 128.859ZM104.691 131.564C104.597 131.259 104.879 130.878 104.442 130.55C104.331 131.012 104.175 131.411 104.154 131.818C104.13 132.268 103.668 132.819 104.349 133.164C104.56 133.271 104.841 133.333 104.998 133.125C105.407 132.583 104.833 132.202 104.691 131.564Z" fill="#122315"/>
<path d="M90.089 116.062C90.5439 115.81 90.8916 115.423 91.463 115.722C91.391 116.534 90.7117 116.621 90.1693 116.696C89.827 116.743 89.8095 116.384 90.089 116.062Z" fill="#122315"/>
<path d="M71.3301 160.456C73.6797 161.436 76.1302 161.354 78.7667 161.543C76.7241 163.214 68.5333 161.068 67.1016 158.603C68.7527 158.884 69.8323 160.071 71.3301 160.456Z" fill="#122315"/>
<path d="M84.4685 164.159C84.3434 163.597 84.7503 163.552 85.0664 163.441C88.3331 162.291 91.4165 160.84 93.7777 158.187C93.9118 158.036 94.0956 157.967 94.3037 158.07C94.5007 158.228 94.4619 158.436 94.3369 158.584C91.7519 161.652 88.3982 163.387 84.4685 164.159Z" fill="#122315"/>
<path d="M63.4151 132.295C63.8344 132.214 64.2021 132.021 64.3679 132.525C62.9196 133.884 57.5843 133.521 56.1875 131.641C58.7305 132.301 60.9971 132.96 63.4151 132.295Z" fill="#122315"/>
<path d="M51.5727 118.813C48.7908 118.05 47.0223 116.702 47.0156 115.066C48.1257 116.042 49.0047 117.007 50.1887 117.578C51.3852 118.155 52.7482 117.904 54.1601 118.402C53.2523 119.156 52.4352 118.825 51.5727 118.813Z" fill="#122315"/>
<path d="M82.5845 132.373C80.515 132.57 78.5278 132.835 76.6323 131.977C76.1413 131.755 75.51 131.619 75.4141 130.496C77.9583 132.241 80.6345 131.766 83.2219 131.615C83.3472 132.272 82.9282 132.224 82.5845 132.373Z" fill="#122315"/>
<path d="M109.599 139.647C109.51 140.089 109.225 140.056 108.957 139.99C106.996 139.507 105.037 139.016 103.078 138.524C102.881 138.474 102.732 138.353 102.68 138.142C103.371 137.733 108.024 138.693 109.599 139.647Z" fill="#122315"/>
<path d="M50.0059 107.133C49.0642 107.53 48.219 107.925 47.3499 108.257C46.5356 108.568 45.9704 109.456 44.8828 109.442C45.5796 107.912 49.669 106.003 51.3769 106.325C51.2077 107.038 50.5164 106.863 50.0059 107.133Z" fill="#122315"/>
<path d="M64.1226 126.096C64.2278 127.52 64.7003 128.87 63.7981 130.147C63.5103 128.28 63.5264 126.399 63.0391 124.347C64.1043 124.75 63.9008 125.484 64.1226 126.096Z" fill="#122315"/>
<path d="M72.8068 144.299C73.719 144.336 74.5294 144.363 75.3382 144.414C75.4164 144.419 75.4852 144.572 75.5583 144.656C74.7861 145.337 72.7452 145.302 71.9297 144.603C72.0623 144.185 72.4186 144.327 72.8068 144.299Z" fill="#122315"/>
<path d="M70.1562 146.162C70.1583 145.922 70.2618 145.681 70.3848 145.782C71.2889 146.518 72.2415 147.185 73.4529 147.732C72.2713 148.245 71.2628 147.713 70.1562 146.162Z" fill="#122315"/>
<path d="M99.8347 149.739C100.068 150.031 100.411 150.175 100.3 150.562C99.2154 150.664 98.4924 149.7 98.7899 148.487C99.4203 148.646 99.4057 149.333 99.8347 149.739Z" fill="#122315"/>
<path d="M100.719 146.533C101.136 147.054 100.883 147.304 100.453 147.139C99.7678 146.877 99.2243 146.4 99.425 145.459C100.099 145.558 100.201 146.234 100.719 146.533Z" fill="#122315"/>
<path d="M66.3843 128.391C65.7479 128.099 65.5149 127.648 65.6577 126.898C66.3974 127.216 66.7326 127.623 66.3843 128.391Z" fill="#122315"/>
<path d="M76.2344 184.303C76.6986 183.455 77.1027 184.169 77.4238 184.361C79.743 185.747 82.1795 186.833 84.8114 187.466C88.148 188.268 91.5068 188.258 94.8835 187.768C95.2642 187.713 95.7149 187.406 96.0532 187.928C95.9731 188.509 95.4675 188.497 95.0873 188.553C88.5836 189.509 82.4708 188.477 76.8705 184.909C76.646 184.766 76.4608 184.562 76.2344 184.303Z" fill="#122315"/>
<path d="M84.0286 193.596C87.7132 196.157 91.5263 198.05 96.1255 197.623C96.7302 197.567 97.376 197.122 98.0076 197.598C97.9551 198.273 97.4244 198.201 97.0498 198.269C94.0781 198.809 91.2493 198.253 88.5185 197.074C86.0357 196.002 83.8143 194.5 81.699 192.833C81.4612 192.646 81.2017 192.461 81.1562 191.826C82.3961 192.066 83.055 193.043 84.0286 193.596Z" fill="#122315"/>
<path d="M83.1747 172.781C79.958 172.806 76.8631 172.671 73.9453 171.383C78.069 171.641 82.1926 171.898 86.3789 172.16C85.4268 172.901 84.3032 172.612 83.1747 172.781Z" fill="#122315"/>
<path d="M108.873 192.875C107.126 194.382 105.813 194.987 104.699 194.634C106.283 193.795 107.83 192.898 109.178 191.656C109.61 192.353 109.172 192.548 108.873 192.875Z" fill="#122315"/>
<path d="M73.6665 189.721C73.5883 190.461 73.8821 191.116 73.6162 191.771C72.7045 191.194 72.5533 189.338 73.3017 188.377C73.8537 188.665 73.6094 189.187 73.6665 189.721Z" fill="#122315"/>
<path d="M99.5742 186.44C99.8676 185.793 100.32 185.563 101.067 185.762C100.743 186.474 100.381 186.893 99.5742 186.44Z" fill="#122315"/>
<path d="M113.602 110.261C114 109.769 114.385 109.747 114.311 110.371C114.235 111.018 114.093 111.714 113.583 112.361C112.852 111.61 113.462 110.97 113.602 110.261Z" fill="#122315"/>
<path d="M115.351 110.766C115.512 110.346 115.477 109.886 116.099 109.822C116.388 110.644 116.155 111.296 115.6 111.918C115.055 111.601 115.275 111.208 115.351 110.766Z" fill="#122315"/>
<path d="M125.301 123.118C125.33 122.43 125.312 121.811 125.926 121.307C126.37 122.07 126.194 122.755 125.859 123.375C125.676 123.712 125.41 123.553 125.301 123.118Z" fill="#122315"/>
<path d="M127.809 101.617C127.729 102.285 127.866 102.948 127.246 103.47C126.696 102.691 126.943 102.029 127.328 101.408C127.451 101.209 127.67 101.345 127.809 101.617Z" fill="#122315"/>
<path d="M126.915 123.368C126.97 122.979 126.949 122.629 127.479 122.617C127.886 123.192 127.728 123.7 127.344 124.202C126.79 124.106 126.923 123.745 126.915 123.368Z" fill="#122315"/>
<path d="M84.4367 121.336C84.2451 121.134 84.0858 121.001 84.0127 120.832C83.7615 120.25 83.8079 119.688 84.2989 119.249C84.7559 118.841 85.3009 118.822 85.7869 119.168C86.2705 119.512 86.4118 120.041 86.2478 120.61C86.0646 121.246 85.6235 121.562 84.9514 121.507C84.8015 121.495 84.656 121.43 84.4367 121.336Z" fill="#122315"/>
<path d="M101.061 115.896C100.312 115.974 99.6621 116.047 99.0101 116.09C98.6842 116.111 98.3768 116.023 98.3327 115.626C98.2905 115.246 98.5435 115.049 98.8667 114.988C99.5457 114.86 100.231 114.768 100.915 114.668C101.353 114.604 101.826 114.577 101.94 115.125C102.062 115.706 101.606 115.818 101.061 115.896Z" fill="#122315"/>
<path d="M99.224 118.476C98.6899 118.44 98.2226 118.377 98.2873 117.786C98.3461 117.247 98.8227 117.32 99.198 117.331C99.7775 117.348 100.708 116.8 100.768 117.816C100.82 118.703 99.8619 118.361 99.224 118.476Z" fill="#122315"/>
<path d="M98.6562 120.411C98.808 119.411 99.5197 119.684 100.08 119.694C100.319 119.698 100.459 119.945 100.469 120.191C100.48 120.439 100.356 120.654 100.119 120.726C99.6115 120.879 99.0784 121.082 98.6562 120.411Z" fill="#122315"/>
</g>
<defs>
<clipPath id="clip0_811_11602">
<rect width="1300" height="350" fill="white"/>
</clipPath>
</defs>
</svg>
