<svg width="1300" height="350" viewBox="0 0 1300 350" fill="none" xmlns="http://www.w3.org/2000/svg">
<g clip-path="url(#clip0_811_11602)">
<rect width="1300" height="350" fill="#122315"/>
<path d="M1227.2 -29.832C1232.36 -32.7227 1238.64 -32.7227 1243.8 -29.832L1256.42 -22.7502C1258.89 -21.3635 1261.67 -20.6186 1264.51 -20.5835L1278.98 -20.4042C1284.89 -20.3311 1290.33 -17.1879 1293.35 -12.1078L1300.74 0.337359C1302.19 2.77423 1304.23 4.80946 1306.66 6.25694L1319.11 13.6492C1324.19 16.6666 1327.33 22.1107 1327.4 28.0189L1327.58 42.4931C1327.62 45.3269 1328.36 48.1069 1329.75 50.5792L1336.83 63.2035C1339.72 68.3571 1339.72 74.643 1336.83 79.7966L1329.75 92.4209C1328.36 94.8931 1327.62 97.6732 1327.58 100.507L1327.4 114.981C1327.33 120.89 1324.19 126.334 1319.11 129.351L1306.66 136.743C1304.23 138.191 1302.19 140.226 1300.74 142.663L1293.35 155.108C1290.33 160.188 1284.89 163.332 1278.98 163.405L1264.51 163.583C1261.67 163.619 1258.89 164.364 1256.42 165.751L1243.8 172.832C1238.64 175.723 1232.36 175.723 1227.2 172.832L1214.58 165.751C1212.11 164.364 1209.33 163.619 1206.49 163.583L1192.02 163.405C1186.11 163.332 1180.67 160.188 1177.65 155.108L1170.26 142.663C1168.81 140.226 1166.77 138.191 1164.34 136.743L1151.89 129.351C1146.81 126.334 1143.67 120.89 1143.6 114.981L1143.42 100.507C1143.38 97.6732 1142.64 94.8931 1141.25 92.4209L1134.17 79.7966C1131.28 74.643 1131.28 68.3571 1134.17 63.2035L1141.25 50.5792C1142.64 48.1069 1143.38 45.3269 1143.42 42.4931L1143.6 28.0189C1143.67 22.1108 1146.81 16.6667 1151.89 13.6493L1164.34 6.25694C1166.77 4.80946 1168.81 2.77423 1170.26 0.337359L1177.65 -12.1078C1180.67 -17.1879 1186.11 -20.3311 1192.02 -20.4042L1206.49 -20.5835C1209.33 -20.6186 1212.11 -21.3635 1214.58 -22.7502L1227.2 -29.832Z" fill="#E5CA0A"/>
<path d="M1307.37 84.2414C1308.48 83.6531 1309.49 83.1125 1310.51 82.5713C1311.14 82.2371 1311.62 82.3903 1311.95 83.0169C1312.12 83.3306 1312.3 83.6359 1312.45 83.9558C1313.1 85.3067 1314.34 86.6484 1312.44 87.9191C1312.59 88.1273 1312.65 88.2664 1312.68 88.2594C1314.4 87.8847 1314.88 89.0235 1315.42 90.3172C1316.75 93.5003 1318.54 96.5022 1319.24 99.9365C1319.47 101.105 1319.76 102.28 1319.64 103.489C1319.53 104.499 1319.2 105.407 1318.18 105.859C1317.15 106.321 1316.39 105.728 1315.68 105.107C1314.35 103.952 1313.51 102.424 1312.52 101.006C1312.18 100.523 1312.53 100.197 1312.68 99.7721C1312.24 99.8719 1311.83 100.148 1311.46 99.6793C1310.78 98.8343 1311.88 98.3327 1311.81 97.5692C1311.23 97.7907 1311.29 99.0095 1310.46 98.632C1309.67 98.2691 1310.47 97.3935 1310.09 96.7915C1309.82 97.2157 1310.12 98.1231 1309.32 98.1205C1308.3 98.1171 1308.8 97.0819 1308.43 96.5359C1308.19 97.0945 1308.61 97.9696 1307.64 98.091C1306.79 98.1976 1307.06 97.3524 1306.62 96.9023C1306.63 97.6926 1306.56 98.3518 1305.74 98.6072C1305.12 98.8002 1305.35 99.2763 1305.48 99.7105C1305.82 100.81 1306.19 101.905 1306.46 103.023C1306.95 105.031 1306.71 105.652 1304.9 106.58C1303.74 107.179 1302.69 108.267 1301.12 107.595C1300.81 107.467 1300.24 107.934 1299.81 108.158C1294.51 110.915 1289.02 113.126 1283.13 114.26C1272.93 116.224 1264.61 110.029 1263.55 99.6765C1263.51 99.2847 1263.42 98.8981 1263.32 98.2857C1259.9 101.706 1255.78 103.777 1251.69 105.815C1249.47 106.919 1248.56 108.394 1248.2 110.729C1247.82 113.217 1247.74 115.795 1246.86 118.17C1246.02 120.458 1245.38 122.744 1245.07 125.179C1244.75 127.799 1244.59 127.856 1241.98 127.858C1240.67 127.859 1240.12 128.229 1239.94 129.601C1239.54 132.716 1238.93 135.806 1238.41 138.906C1238.12 140.649 1237.99 140.774 1236.29 140.487C1234.7 140.219 1232.75 140.424 1232.77 137.966C1232.54 137.994 1232.39 137.979 1232.38 138.019C1231.73 139.488 1230.7 139.411 1229.35 139.012C1227.01 138.324 1224.61 137.873 1222.25 137.282C1220.38 136.815 1218.66 135.984 1217.02 135.006C1216.36 134.613 1215.81 134.108 1215.41 133.446C1214.6 132.101 1215.01 130.889 1216.48 130.372C1217.8 129.91 1219.18 129.899 1220.56 129.976C1221.49 130.028 1222.42 130.152 1223.35 130.179C1223.84 130.194 1224.18 130.363 1224.37 130.826C1225 129.672 1225.24 129.661 1226.08 130.726C1226.06 129.488 1227.52 128.033 1228.79 128.219C1228.44 127.756 1227.89 127.39 1228.31 126.832C1228.77 126.216 1229.27 126.946 1229.72 126.826C1228.55 125.288 1226.71 124.879 1225.05 124.129C1223.05 123.219 1222.77 122.638 1223.17 120.476C1223.25 120.041 1223.32 119.604 1223.38 119.165C1223.5 118.151 1223.8 117.322 1225.16 117.443C1225.44 114.43 1225.97 111.483 1225.95 108.54C1225.88 98.4546 1230.53 90.8238 1237.94 84.515C1240.39 82.4311 1240.01 83.0437 1238.5 80.553C1237.94 79.629 1237.22 79.0477 1236.22 78.6456C1231.89 76.8974 1227.71 74.8611 1224.14 71.7568C1223.71 71.3813 1223.22 70.9829 1222.62 70.9909C1221.01 71.0125 1220.17 70.1808 1219.93 68.5272C1217.46 69.3389 1215.03 69.6482 1212.53 69.3654C1210.05 69.0854 1207.73 68.4377 1205.85 66.7164C1203.93 64.9598 1203.5 62.9196 1204.67 60.604C1205.15 59.6466 1204.55 59.2805 1204.03 58.8585C1201.27 56.5737 1198.93 53.9126 1197.15 50.8031C1192.88 43.3443 1191.63 35.5435 1194.63 27.2905C1197.6 19.1 1205.4 13.9493 1214.49 14.3287C1222.39 14.6587 1228.65 18.3682 1233.61 24.2881C1238.25 29.8087 1240.68 36.2373 1240.54 43.5122C1240.43 49.2109 1238.64 54.2956 1234.71 58.5332C1234.54 58.7215 1234.3 58.8836 1234.37 59.4691C1237.37 60.2185 1240.51 60.8971 1243.62 62.139C1244.25 59.8843 1244.61 57.7612 1244.9 55.6352C1245.48 51.4515 1246.52 47.3768 1247.62 43.313C1248.08 41.6181 1249 40.1799 1250.46 39.2552C1252.01 38.2713 1253.38 37.1809 1254.2 35.3694C1253.45 35.2916 1252.64 35.2487 1251.85 35.117C1249.07 34.6571 1247.66 33.2817 1247.13 30.4445C1246.84 28.8748 1246.65 27.2803 1246.98 25.6847C1247.09 25.1144 1246.96 24.6678 1246.58 24.2175C1244.76 22.007 1244.29 19.5483 1245.45 16.8934C1246.66 14.1421 1249.04 13.0549 1251.84 12.7988C1253.77 12.6213 1255.67 12.936 1257.61 13.3265C1258.93 13.5935 1260.34 14.2157 1261.82 13.8978C1262.56 13.7391 1263.33 13.8753 1263.09 14.989C1263 15.3893 1263.2 15.5583 1263.51 15.6987C1267.46 17.5006 1267.9 20.9247 1267.32 24.5708C1266.97 26.7567 1266.66 28.9322 1266.49 31.2833C1267.75 31.6532 1269.09 32.0104 1269.85 33.3132C1269.94 33.4711 1270.33 33.4963 1270.58 33.512C1273.95 33.7177 1276.3 35.408 1277.82 38.381C1279.6 41.8559 1281.51 45.2668 1283.21 48.7763C1285.47 53.4156 1288.86 56.8987 1293.37 59.3361C1294.74 60.0743 1296.1 60.8244 1297.47 61.5425C1298.4 62.0273 1298.47 62.5853 1297.91 63.4651C1295.68 66.9515 1293.49 70.455 1290.02 72.8928C1289.7 73.1183 1289.59 73.414 1289.65 73.8142C1290.33 79.1504 1289.12 84.3004 1288.1 89.4676C1288.01 89.8924 1287.91 90.3146 1287.76 91.0145C1289.5 90.1499 1291.51 89.7526 1292.42 88.5323C1293.51 87.0798 1294.91 86.8878 1296.26 86.288C1297.26 85.8412 1298.11 86.09 1298.66 87.0218C1299.39 88.2452 1300.21 88.1217 1301.3 87.4873C1303.26 86.3537 1305.29 85.3479 1307.37 84.2414ZM1226.99 72.1049C1229.59 74.3346 1232.63 75.7152 1235.85 76.7901C1235.1 75.3809 1234.3 74.0521 1233.38 72.8121C1232.99 72.2837 1232.5 71.6906 1231.6 72.0087C1230.04 72.5629 1228.46 72.4263 1226.91 71.7752C1227.15 70.9215 1227.77 71.3523 1228.21 71.4605C1229.24 71.7189 1230.19 71.5983 1231.22 71.1458C1230.55 69.9786 1229.49 68.8609 1230.23 67.5764C1231.04 66.1868 1230.35 65.3045 1229.7 64.2388C1229.1 63.2516 1228.49 62.8148 1227.36 63.4482C1226.79 63.7648 1226.12 63.9885 1225.47 64.0538C1222.81 64.3241 1222.2 66.3909 1221.53 68.4268C1221.39 68.8485 1221.39 69.3503 1221.88 69.4014C1223.89 69.6141 1225.25 71.061 1226.99 72.1049ZM1263.55 91.7401C1263.74 89.207 1264.31 86.7506 1265.07 84.3347C1265.23 83.8401 1265.36 83.1636 1266.1 83.4262C1266.81 83.6793 1266.49 84.3017 1266.37 84.803C1266.3 85.1048 1266.2 85.4003 1266.11 85.6964C1264.6 90.5271 1264.42 95.4676 1265.07 100.436C1266.21 109.123 1273.49 114.414 1282.11 112.986C1288.5 111.927 1294.34 109.422 1300.04 106.481C1300.74 106.119 1300.86 105.684 1300.62 104.977C1300.22 103.758 1299.92 102.501 1299.51 101.285C1298.26 97.6659 1296.64 94.2224 1294.71 90.9174C1294.16 89.9753 1293.64 89.5609 1292.51 90.2561C1291.23 91.0429 1289.82 91.6238 1288.44 92.2144C1287.58 92.5781 1287.13 93.1473 1286.87 94.0282C1286.27 96.0845 1285.35 98.0013 1284.03 99.7093C1283.73 100.097 1283.36 100.547 1282.82 100.151C1282.26 99.7378 1282.63 99.288 1282.93 98.8959C1283.62 98.019 1284.23 97.0861 1284.63 96.0478C1287.07 89.7879 1288.08 83.2335 1288.55 76.5783C1288.6 75.8515 1288.57 75.0838 1288 74.4122C1286.28 75.3111 1284.64 76.2739 1282.91 77.0543C1276.61 79.9054 1269.93 81.1805 1263.05 81.5847C1262.43 81.6215 1261.85 81.6225 1261.43 82.2453C1260.56 83.5029 1259.37 84.0241 1257.84 83.5696C1257.4 83.4371 1256.85 83.3519 1256.7 83.8873C1256.26 85.4723 1254.47 86.5732 1255.16 88.5954C1255.42 89.3591 1254.76 90.0968 1254.18 90.6776C1253.49 91.378 1252.67 91.9176 1251.82 92.397C1248.29 94.3866 1246.94 94.0152 1244.91 90.5288C1244.6 89.992 1244.3 89.4454 1243.96 88.9257C1242.91 87.3051 1241.83 85.6953 1240.72 84.0144C1238.27 85.8882 1236.24 87.9423 1234.31 90.0694C1230.6 94.1444 1228.14 98.8148 1227.72 104.423C1227.47 107.824 1227.23 111.229 1226.86 114.618C1226.48 118.078 1226.39 118.102 1229.57 119.298C1233.41 120.741 1237.4 121.561 1241.44 122.188C1242.9 122.415 1243.91 121.984 1244.48 120.532C1244.93 119.375 1245.46 118.246 1245.72 117.027C1246.37 114.042 1246.68 110.995 1247.37 108.015C1248.1 104.9 1248.37 101.785 1246.72 98.8198C1246.52 98.4561 1246.4 98.0252 1246.83 97.7502C1247.34 97.4215 1247.66 97.7959 1247.9 98.1901C1248.83 99.6968 1249.26 101.356 1249.33 103.114C1249.35 103.879 1249.33 104.646 1249.33 105.645C1253.44 103.243 1257.5 101.422 1260.95 98.5673C1262.48 97.3023 1263.64 95.8792 1263.36 93.6975C1263.29 93.1419 1263.47 92.5547 1263.55 91.7401ZM1255.71 73.3555C1258.34 75.7178 1259.49 78.6865 1259.26 82.2131C1259.8 82.1092 1260.1 81.8106 1260.27 81.4671C1261.17 79.6709 1262.89 78.9949 1264.58 78.35C1266.07 77.7844 1267.6 77.2681 1269.15 76.9116C1273.53 75.9032 1277.5 73.9736 1281.27 71.6007C1284.07 69.8421 1285.81 67.4249 1285.94 64.0096C1286.05 61.3203 1285.72 58.6919 1284.84 56.1517C1282.59 49.6627 1279.15 43.7486 1275.81 37.7932C1274.75 35.8924 1272.9 35.1915 1270.82 34.9126C1270.07 34.8115 1269.71 34.9015 1269.49 35.712C1269.09 37.2241 1268.37 38.6063 1267.3 39.7717C1266.98 40.118 1266.62 40.6327 1266.08 40.2155C1265.48 39.7458 1265.89 39.2678 1266.26 38.8639C1267.32 37.727 1267.91 36.3478 1268.29 34.8733C1268.44 34.2983 1268.47 33.6874 1267.9 33.3014C1267.32 32.9049 1266.69 32.6696 1265.94 33.177C1266.42 33.7308 1268.03 33.496 1267.13 34.7374C1265.48 37.016 1263.6 39.0694 1260.84 40.0827C1260.07 40.3647 1259.21 40.495 1258.57 41.0411C1259.02 42.69 1258.95 42.8015 1257.27 43.1901C1257.34 50.9416 1257.69 58.6805 1258.92 66.6447C1262.03 64.3041 1264.78 62.0652 1267.98 60.4958C1267.91 60.2162 1267.9 60.0287 1267.82 59.8885C1266.12 57.0735 1265.26 53.9536 1264.54 50.7922C1264.39 50.15 1263.64 49.1153 1264.67 48.8541C1265.76 48.5806 1265.66 49.8567 1265.85 50.5474C1266.68 53.4433 1267.27 56.4126 1268.91 59.0223C1269.29 59.6228 1269.62 59.8957 1270.39 59.7458C1271.8 59.4716 1273.22 59.527 1274.54 60.2137C1274.97 60.436 1275.52 60.7088 1275.3 61.2953C1275.06 61.9087 1274.5 61.7206 1274.04 61.5034C1272.3 60.6824 1270.6 60.9122 1268.9 61.6319C1266.04 62.8387 1263.61 64.7027 1261.24 66.6434C1259.36 68.1868 1257.67 69.9177 1254.99 70.0975C1253.71 70.1834 1252.91 71.1439 1252.77 72.9066C1253.35 71.6971 1253.95 71.9876 1254.53 72.4024C1254.89 72.6584 1255.23 72.9506 1255.71 73.3555ZM1240.48 62.5112C1238.4 61.9532 1236.32 61.3952 1233.99 60.7692C1234.73 62.1251 1235.12 63.242 1236.9 62.8383C1238.62 62.4507 1239.99 63.4393 1240.39 65.1708C1241.21 68.7091 1244.09 70.9153 1245.62 74.0364C1247.23 73.2011 1248.77 73.0734 1250.31 72.9431C1250.62 72.9172 1251.04 73.0053 1251.17 72.7141C1251.65 71.6364 1252.38 70.5357 1252.41 69.4249C1252.48 67.1792 1252.12 64.9233 1252.01 62.6679C1251.8 58.416 1251.67 54.161 1252.07 49.912C1252.12 49.4304 1251.99 48.6664 1252.79 48.7418C1253.54 48.8129 1253.35 49.5352 1253.34 50.0313C1253.22 54.1564 1253.18 58.2831 1253.36 62.4048C1253.45 64.5069 1253.48 66.63 1253.86 68.6781C1254.69 68.849 1255.32 68.5363 1255.96 68.4412C1257.93 68.1524 1258.22 67.758 1257.94 65.8556C1256.8 58.2998 1256.49 50.6873 1256.39 43.0621C1256.38 42.0292 1256.33 41.2235 1255.01 41.1704C1254.38 41.1453 1253.85 40.4629 1254.41 40.1302C1255.88 39.267 1254.88 38.3168 1254.81 37.3518C1254.42 38.5692 1253.43 39.0382 1252.45 39.5659C1250.52 40.6042 1249.36 42.1739 1248.74 44.3383C1247.11 50.0227 1246.33 55.8665 1245.24 61.6534C1245.14 62.1953 1245.17 62.5608 1245.68 62.8888C1247.2 63.8573 1247.88 65.3807 1248.32 67.0465C1248.47 67.603 1248.73 68.3137 1247.96 68.5037C1247.13 68.7076 1247.16 67.8894 1247.03 67.3609C1246.5 65.3174 1245.41 63.8531 1243.2 63.4055C1242.34 63.2307 1241.52 62.866 1240.48 62.5112ZM1201.7 19.7295C1195.54 24.8983 1193.72 31.7032 1194.63 39.351C1195.56 47.2843 1199.62 53.5368 1205.75 58.5244C1206.01 58.7424 1206.35 58.9895 1206.67 59.0117C1207.97 59.1023 1208.82 60.7304 1210.35 60.0603C1210.45 60.0137 1210.73 60.2562 1210.87 60.4149C1211.13 60.7102 1211.4 60.7282 1211.8 60.7168C1213.33 60.6732 1214.67 61.5302 1216.16 61.7314C1216.39 61.7627 1216.66 62.117 1216.77 62.3809C1217.09 63.178 1217.71 63.3381 1218.47 63.3784C1221.57 63.542 1224.59 63.2218 1227.46 61.9739C1228.75 61.412 1229.68 61.7561 1230.41 62.8937C1231.09 63.9377 1231.77 64.9732 1232.46 66.0039C1233.61 67.7088 1234.35 67.707 1235.75 65.9595C1234.81 64.586 1233.87 63.1945 1232.92 61.8076C1231.78 60.157 1231.82 59.4702 1233.22 58.1023C1236.77 54.6185 1238.71 50.3022 1239.01 45.435C1239.75 33.6597 1234.88 24.5788 1224.72 18.7281C1217.11 14.3436 1209.28 14.1644 1201.7 19.7295ZM1250.31 23.1472C1249.95 22.9064 1249.58 22.6656 1249.22 22.4278C1248.78 22.8054 1248.64 23.2866 1248.96 23.6367C1249.63 24.3708 1249.79 24.8886 1248.66 25.2559C1248.38 25.3469 1248.2 25.7894 1248.35 25.8922C1249.89 26.9771 1249.29 27.9954 1248.32 29.0302C1248.29 29.054 1248.31 29.1162 1248.31 29.1604C1248.19 31.4583 1249.69 33.4348 1251.89 33.7356C1253.39 33.9407 1254.89 33.8912 1256.35 33.3641C1256.78 33.2077 1257.24 32.7759 1257.67 33.301C1258.06 33.7791 1257.84 34.3114 1257.63 34.805C1257.5 35.088 1257.4 35.3996 1257.2 35.6283C1256.14 36.8654 1256.47 38.2483 1256.69 39.8029C1260 39.2464 1262.83 38.0161 1264.97 35.4236C1265.33 34.9918 1265.21 34.6639 1264.89 34.2573C1263.77 32.8061 1263.12 31.1025 1262.39 29.4406C1262.07 28.7201 1262.11 28.1011 1262.54 27.4403C1263.02 26.6929 1263.38 25.8987 1263.33 24.9524C1263.29 24.1389 1262.99 23.5243 1262.18 23.4032C1261.33 23.2775 1260.7 23.7043 1260.52 24.573C1260.31 25.5663 1260.16 26.5722 1260.01 27.5767C1259.95 27.977 1259.97 28.433 1259.47 28.5193C1258.91 28.6157 1258.69 28.1798 1258.56 27.7429C1258.26 26.8143 1258.01 25.8713 1257.7 24.9473C1257.3 23.7377 1256.71 23.7464 1255.54 24.0552C1254.27 24.3925 1253.46 25.7709 1251.94 25.4737C1251.4 25.3672 1250.7 26.475 1250.28 25.4401C1249.92 24.5487 1250.94 24.474 1251.41 24.0809C1251.46 24.0398 1251.45 23.9385 1251.48 23.8329C1251.15 23.6381 1250.8 23.4395 1250.31 23.1472ZM1289.05 71.9266C1292.07 69.7628 1294.23 66.8757 1296.1 63.7232C1296.61 62.88 1296.38 62.5035 1295.58 62.0967C1293.29 60.9307 1291.03 59.6965 1288.99 58.1205C1288.14 57.4684 1287.33 56.7713 1286.31 55.9382C1286.81 58.0489 1287.14 59.9123 1287.3 61.8075C1287.65 65.8937 1286.49 69.3447 1283.11 71.8484C1279.04 74.8659 1274.54 76.9803 1269.62 78.1878C1267.82 78.6275 1266.05 79.1311 1264.12 80.089C1273.25 79.4332 1281.58 77.2927 1289.05 71.9266ZM1246.3 82.2585C1245.83 82.7345 1245 82.4984 1244.56 83.1207C1245.11 83.6992 1245.78 83.5773 1246.43 83.5238C1246.81 83.4921 1247.14 83.5896 1247.26 84.0097C1247.36 84.3623 1247.18 84.5931 1246.91 84.7969C1246.52 85.0966 1246.02 85.3153 1245.93 85.8694C1246.74 86.2874 1247.63 85.2997 1248.26 86.0949C1248.94 86.9548 1247.31 87.3164 1247.68 88.1685C1248.06 88.5188 1248.56 88.5195 1248.95 88.3998C1251.56 87.5939 1254.07 86.5987 1255.21 83.7935C1255.57 82.8895 1255.78 81.8568 1256.6 81.2686C1257.98 80.2672 1257.82 79.0885 1257.27 77.7544C1256.8 76.5828 1256.09 75.5783 1255.17 74.7262C1254.85 74.4273 1254.51 74.1307 1253.99 74.2668C1252.81 74.5824 1251.62 74.3118 1250.43 74.2845C1249.44 74.2619 1248.48 74.3855 1247.55 74.6856C1246.91 74.8929 1246.54 75.2505 1247.16 75.9344C1247.86 75.6421 1248.72 75.1219 1248.74 76.475C1248.75 78.3653 1247.07 79.9996 1245.17 80.0392C1244.49 80.0533 1243.82 80.0415 1242.85 80.0415C1243.73 81.0038 1244.52 81.1786 1245.38 81.2152C1245.94 81.2389 1246.49 81.2963 1246.3 82.2585ZM1241.51 80.0706C1241.62 79.2294 1242.17 78.8449 1242.95 78.7691C1243.79 78.6886 1244.63 78.6679 1245.47 78.5877C1246.4 78.4993 1246.8 78.1045 1246.23 77.1859C1245.48 75.9822 1244.66 74.8244 1243.88 73.6463C1242.1 70.9777 1239.73 68.6638 1239 65.3524C1238.77 64.3233 1237.84 64.0046 1236.68 64.3296C1237.71 64.5273 1237.73 65.2341 1237.6 65.948C1237.28 67.7718 1233.69 69.7203 1232.02 68.9883C1231.83 68.905 1231.71 68.6558 1231.5 68.41C1231.41 69.5015 1232.06 70.054 1232.71 70.482C1233.97 71.3207 1234.81 72.5008 1235.63 73.7051C1236.63 75.1688 1237.57 76.6789 1238.54 78.1579C1240.33 80.8498 1242.12 83.5335 1244 86.369C1244.19 85.7494 1244.32 85.3152 1244.45 84.8699C1242.5 83.9029 1242.88 81.5433 1241.51 80.0706ZM1229.53 124.295C1233.68 125.448 1237.85 126.473 1242.19 126.45C1243.34 126.444 1243.9 125.708 1243.82 124.379C1243.76 123.261 1242.86 123.771 1242.3 123.655C1241.91 123.576 1241.51 123.576 1241.12 123.523C1236.09 122.842 1231.22 121.559 1226.52 119.641C1225.99 119.428 1225.25 118.646 1224.75 119.775C1224.12 121.203 1224.32 122.171 1225.36 122.704C1226.63 123.355 1227.96 123.824 1229.53 124.295ZM1299.46 97.2964C1300.77 100.104 1301.45 103.139 1302.48 106.035C1305.11 105.399 1305.5 104.796 1304.84 102.422C1303.99 99.332 1302.7 96.4142 1301.27 93.5558C1300.31 91.6472 1299.18 89.8475 1297.84 88.1807C1297.26 87.4579 1296.15 87.4431 1295.28 88.1292C1294.44 88.7911 1295.26 89.2163 1295.54 89.6664C1297.05 92.0327 1298.23 94.562 1299.46 97.2964ZM1207.14 66.0191C1208.18 66.8125 1209.37 67.2911 1210.62 67.6275C1213.54 68.4086 1216.38 68.1753 1219.27 67.3401C1220.6 66.9535 1221.11 66.2023 1221.34 64.8375C1219.93 64.8375 1218.62 64.8375 1217.21 64.8375C1217.03 65.1797 1217.25 66.0179 1216.48 65.9284C1215.68 65.8362 1215.67 65.1055 1215.64 64.4779C1215.63 64.1683 1215.65 63.857 1215.65 63.5467C1215.64 63.2196 1215.55 62.9225 1215.21 62.8006C1214.86 62.6778 1214.61 62.8924 1214.38 63.1C1214.1 63.3443 1213.98 63.6685 1213.87 64.0165C1213.73 64.5081 1213.64 65.2135 1212.89 64.9557C1212.25 64.732 1212.44 64.0824 1212.51 63.5631C1212.59 63.0304 1212.99 62.4726 1212.36 61.9829C1211.49 62.2433 1211.34 63.0439 1211.04 63.7039C1210.84 64.1233 1210.69 64.609 1210.12 64.4438C1209.48 64.2547 1209.64 63.7184 1209.74 63.2243C1209.86 62.6621 1210.33 62.0949 1209.81 61.5126C1209.23 61.5166 1209.03 61.9172 1208.77 62.2825C1208.41 62.8094 1208.55 64.0099 1207.56 63.7033C1206.64 63.4154 1207.3 62.5057 1207.35 61.8569C1207.38 61.3808 1207.54 60.7697 1206.97 60.5652C1206.41 60.3621 1206.13 60.9307 1205.87 61.322C1204.94 62.7265 1205.33 64.2875 1207.14 66.0191ZM1248.19 92.0908C1251.13 91.8302 1253.86 89.8077 1253.49 88.1288C1252.71 88.1982 1252.11 88.6745 1251.45 89.0134C1250.38 89.5726 1249.28 89.9913 1248.04 89.8454C1247.04 89.7282 1246.28 89.3692 1246.04 88.2566C1245.86 87.4765 1245.8 87.4904 1244.49 87.3258C1245.94 88.8234 1246.21 90.9698 1248.19 92.0908ZM1230.56 135.496C1233.01 135.922 1235.45 136.347 1237.89 136.773C1237.81 136.552 1237.7 136.503 1237.59 136.48C1232.95 135.554 1228.27 134.871 1223.66 133.783C1222.25 133.449 1221.03 133.001 1220.99 131.252C1220.99 131.128 1220.95 130.885 1220.75 130.965C1220.62 132.997 1221.84 133.74 1223.59 134.069C1225.84 134.495 1228.09 134.996 1230.56 135.496ZM1313.52 94.1029C1312.11 91.1887 1310.7 88.2746 1309.3 85.3605C1309.12 85.7257 1309.21 85.9649 1309.33 86.1882C1311.45 90.1823 1313.3 94.3082 1315.14 98.4328C1315.67 99.6103 1316.52 100.828 1314.69 101.682C1314.68 101.687 1314.73 101.817 1314.75 101.888C1316.36 100.557 1316.36 100.557 1315.48 98.5448C1314.85 97.1249 1314.23 95.7059 1313.52 94.1029Z" fill="#122315"/>
<path d="M1231.93 20.474C1231 19.4058 1231.96 18.6778 1232.39 17.833C1232.87 18.7946 1232.46 19.618 1231.93 20.474Z" fill="#122315"/>
<path d="M1235.58 21.2905C1235.93 21.0289 1236.2 20.7469 1236.59 21.2258C1236.26 21.9544 1235.77 22.4832 1234.89 22.6592C1234.53 21.899 1235.26 21.7403 1235.58 21.2905Z" fill="#122315"/>
<path d="M1283.68 107.386C1286.06 104.351 1286.03 100.716 1286.4 97.2036C1287.16 97.35 1287.14 97.8029 1287.12 98.1749C1287.02 101.289 1286.61 104.34 1284.99 107.092C1284.78 107.465 1284.45 107.785 1284.15 108.101C1283.99 108.266 1283.74 108.316 1283.55 108.144C1283.27 107.897 1283.48 107.673 1283.68 107.386Z" fill="#122315"/>
<path d="M1279.78 89.1741C1280.97 89.1232 1281.99 88.512 1283.15 88.8025C1281.84 90.7246 1274 90.3467 1271.94 88.1396C1274.5 88.5995 1277.02 89.4735 1279.78 89.1741Z" fill="#122315"/>
<path d="M1236.19 113.668C1239.21 112.685 1241.97 111.408 1244.36 108.9C1244.21 111.264 1237.89 114.845 1235.26 114.51C1235.17 113.867 1235.74 113.884 1236.19 113.668Z" fill="#122315"/>
<path d="M1236.06 101.156C1237.26 102.228 1238.73 102.598 1240.07 103.308C1238.77 103.802 1237.65 103.258 1236.64 102.609C1234.94 101.515 1233.5 100.171 1233.32 97.9565C1234.47 98.7895 1234.8 100.299 1236.06 101.156Z" fill="#122315"/>
<path d="M1249.73 100.459C1249.84 98.7231 1249.12 97.2017 1249 95.4707C1250.64 96.489 1251.15 101.621 1249.87 103.674C1249.23 102.583 1249.97 101.541 1249.73 100.459Z" fill="#122315"/>
<path d="M1266.35 92.1182C1266.27 91.7655 1266.2 91.4692 1266.5 91.341C1266.61 91.2946 1266.91 91.4055 1266.94 91.5011C1267.43 93.0829 1268.67 94.1036 1269.71 95.272C1269.74 95.3044 1269.66 95.4269 1269.56 95.7431C1267.88 95.0685 1266.97 93.7989 1266.35 92.1182Z" fill="#122315"/>
<path d="M1293.2 98.3946C1293.44 99.685 1294.07 100.86 1293.28 102.112C1292.93 100.324 1292.3 98.6197 1291.85 96.6309C1292.91 96.9908 1292.93 97.7231 1293.2 98.3946Z" fill="#122315"/>
<path d="M1251.38 93.5957C1251.91 94.1039 1252.3 94.6032 1252 95.4897C1251.3 94.9175 1250.55 94.5468 1251.38 93.5957Z" fill="#122315"/>
<path d="M1242.5 103.122C1242.86 102.301 1243.19 102.234 1244.19 102.742C1243.77 103.379 1243.16 103.2 1242.5 103.122Z" fill="#122315"/>
<path d="M1281.64 66.3188C1281.89 67.886 1282.09 69.3387 1281.06 70.6865C1280.91 68.6425 1281.18 66.5777 1280.2 64.3989C1281.49 64.7904 1281.42 65.5815 1281.64 66.3188Z" fill="#122315"/>
<path d="M1272.09 57.9827C1271.26 58.2173 1270.8 59.0266 1269.91 58.9932C1270.31 57.4425 1272.98 56.3648 1274.55 57.1261C1273.93 57.9633 1272.87 57.4452 1272.09 57.9827Z" fill="#122315"/>
<path d="M1261.42 79.4318C1260.49 78.2868 1261.09 77.0401 1261.16 75.811C1262.04 76.9343 1262.02 78.1402 1261.42 79.4318Z" fill="#122315"/>
<path d="M1248 61.2149C1249.88 61.7524 1250.11 61.9137 1250.51 62.9702C1249.66 63.148 1249.18 62.3693 1248.49 62.2196C1247.82 62.0762 1247.16 61.8953 1246.37 61.6996C1246.8 60.8879 1247.38 61.1215 1248 61.2149Z" fill="#122315"/>
<path d="M1196.18 33.5727C1197.33 24.3424 1204.25 17.7851 1213.39 17.4082C1218.85 17.1831 1223.72 19.129 1227.86 22.5715C1234.32 27.9439 1237.73 34.8898 1237.6 43.3801C1237.46 52.0937 1231.92 59.2288 1223.71 61.1696C1217.85 62.5563 1212.39 61.1573 1207.53 57.802C1199.93 52.5551 1196.05 45.2134 1195.95 35.9358C1195.95 35.1884 1196.1 34.4393 1196.18 33.5727ZM1229.91 56.7287C1233.6 53.6313 1235.6 49.6103 1236.11 44.8859C1237.22 34.4964 1230.78 23.9752 1221.07 20.142C1209.76 15.6787 1198.53 22.4481 1197.44 34.3926C1196.52 44.3963 1202.49 54.614 1211.74 58.5655C1218 61.2387 1224.1 61.0078 1229.91 56.7287Z" fill="#122315"/>
<path d="M1249.34 28.9257C1249.4 28.6947 1249.4 28.5476 1249.47 28.4404C1249.79 27.9147 1249.48 26.8917 1250.36 26.8645C1251.37 26.8336 1250.74 27.8569 1251.03 28.2696C1251.63 29.1257 1252.01 29.8217 1250.6 30.1196C1249.77 30.2949 1249.18 30.0545 1249.34 28.9257Z" fill="#122315"/>
<path d="M1253.08 31.2004C1252.44 30.8752 1252.05 30.4674 1252.28 29.8043C1252.43 29.37 1252.78 29.0799 1253.27 29.0669C1253.76 29.0537 1254.14 29.3316 1254.28 29.7694C1254.58 30.716 1254.12 31.1695 1253.08 31.2004Z" fill="#122315"/>
<path d="M1251.87 25.732C1252.48 25.5239 1252.96 25.5609 1253.24 26.0731C1253.4 26.3726 1253.32 26.7262 1253 26.8722C1252.51 27.0923 1251.9 27.2621 1251.47 26.9553C1250.76 26.4451 1251.3 26.0781 1251.87 25.732Z" fill="#122315"/>
<path d="M1290.81 61.1484C1290.9 60.682 1291.06 60.4178 1291.41 60.8096C1292.26 61.7504 1292.03 65.2401 1290.8 66.4948C1290.89 64.5744 1291.25 62.8945 1290.81 61.1484Z" fill="#122315"/>
<path d="M1224.11 67.6718C1224.28 67.4168 1224.41 67.2409 1224.76 67.3293C1224.75 67.9636 1224.58 68.5493 1224.21 69.1904C1223.57 68.6833 1223.97 68.2027 1224.11 67.6718Z" fill="#122315"/>
<path d="M1225.79 43.4107C1219.67 49.798 1210.92 50.0255 1203.87 46.7089C1202.66 46.1378 1202.56 45.5034 1203.1 44.3224C1204.42 41.443 1205.89 38.6599 1208.06 36.3412C1213.22 30.8292 1219.53 29.3068 1226.73 31.2483C1228.01 31.593 1229.24 32.1378 1230.51 32.5266C1231.5 32.8311 1231.71 33.3593 1231.35 34.3236C1230.11 37.6937 1228.27 40.695 1225.79 43.4107ZM1219.67 39.6611C1220.8 39.3979 1220.66 40.2069 1220.63 40.8541C1220.53 43.8142 1217.88 46.6773 1214.97 47.0138C1211.14 47.4561 1208.17 45.5096 1207.18 41.9214C1207.06 41.4842 1207.17 40.9445 1206.66 40.6022C1205.71 41.8291 1205.15 43.2218 1204.54 44.5944C1204.28 45.1823 1204.47 45.5103 1205.02 45.7404C1208.44 47.1842 1212 47.8406 1215.68 47.2438C1222.89 46.071 1226.89 41.1386 1229.69 34.8989C1230.05 34.0909 1229.74 33.7311 1228.97 33.4271C1226.89 32.6096 1224.76 32.0141 1222.54 31.8651C1219.83 31.684 1217.18 31.9511 1214.52 33.3341C1216.08 33.7857 1217.44 34.125 1218.43 35.337C1217.39 36.2322 1216.72 37.2023 1217.29 38.5246C1217.69 39.4598 1218.48 39.7868 1219.67 39.6611Z" fill="#122315"/>
<path d="M308.204 193.168C313.357 190.277 319.643 190.277 324.797 193.168L337.421 200.25C339.893 201.636 342.673 202.381 345.507 202.417L359.981 202.596C365.89 202.669 371.334 205.812 374.351 210.892L381.743 223.337C383.191 225.774 385.226 227.809 387.663 229.257L400.108 236.649C405.188 239.667 408.331 245.111 408.405 251.019L408.583 265.493C408.619 268.327 409.364 271.107 410.751 273.579L417.832 286.203C420.723 291.357 420.723 297.643 417.832 302.797L410.751 315.421C409.364 317.893 408.619 320.673 408.583 323.507L408.405 337.981C408.331 343.89 405.188 349.334 400.108 352.351L387.663 359.743C385.226 361.191 383.191 363.226 381.743 365.663L374.351 378.108C371.334 383.188 365.89 386.332 359.981 386.405L345.507 386.583C342.673 386.619 339.893 387.364 337.421 388.751L324.797 395.832C319.643 398.723 313.357 398.723 308.204 395.832L295.579 388.751C293.107 387.364 290.327 386.619 287.493 386.583L273.019 386.405C267.111 386.332 261.667 383.188 258.649 378.108L251.257 365.663C249.809 363.226 247.774 361.191 245.337 359.743L232.892 352.351C227.812 349.334 224.669 343.89 224.596 337.981L224.416 323.507C224.381 320.673 223.636 317.893 222.25 315.421L215.168 302.797C212.277 297.643 212.277 291.357 215.168 286.203L222.25 273.579C223.636 271.107 224.381 268.327 224.416 265.493L224.596 251.019C224.669 245.111 227.812 239.667 232.892 236.649L245.337 229.257C247.774 227.809 249.809 225.774 251.257 223.337L258.649 210.892C261.667 205.812 267.111 202.669 273.019 202.596L287.493 202.417C290.327 202.381 293.107 201.636 295.579 200.25L308.204 193.168Z" fill="#FFAA85"/>
<path d="M280.559 320.091C280.809 317.801 281.243 315.682 282.274 313.581C281.856 313.216 281.428 312.884 281.049 312.503C279.544 310.99 279.499 309.84 280.993 308.282C283.82 305.335 286.485 302.254 288.9 298.964C290.48 296.81 291.997 294.609 293.509 292.406C294.204 291.392 294.587 290.372 293.17 289.554C292.733 289.302 292.512 288.711 292.943 288.405C294.235 287.486 294.364 285.737 295.646 284.822C296.138 284.472 296.535 284.071 297.21 284.248C297.827 284.409 298.342 284.205 298.442 283.541C298.678 281.972 300.024 280.623 299.199 278.844C298.293 279.735 297.086 279.831 295.742 279.847C294.579 279.86 293.444 280.51 292.21 280.509C291.91 280.509 291.586 280.826 291.566 281.139C291.449 282.924 289.841 283.338 288.752 284.191C288.093 284.708 287.144 284.247 286.311 284.771C285.436 285.321 284.882 284.093 284.142 283.734C283.726 283.533 283.462 283.09 283.496 282.608C283.546 281.901 283.441 281.322 282.902 280.775C282.445 280.312 282.754 279.815 283.256 279.566C283.776 279.308 284.348 279.156 284.897 278.958C285.193 277.18 287.199 276.229 288.888 276.987C289.55 277.284 290.183 277.054 290.605 276.378C291.377 275.139 292.384 273.962 293.344 273.004C294.597 271.753 296.015 270.211 297.59 269.614C299.439 268.913 300.018 267.796 300.659 266.235C301.818 263.413 303.932 261.453 306.881 260.572C309.251 259.865 311.611 258.976 314.165 259.239C315.821 259.409 317.07 260.19 317.771 261.741C317.922 262.075 318.091 262.344 318.421 262.567C319.811 263.509 320.229 264.55 319.608 266.034C319.239 266.914 319.437 267.37 320.165 267.811C321.057 268.35 321.483 268.922 320.996 270.135C320.636 271.033 320.878 272.184 320.899 273.221C320.939 275.267 320.15 276.922 318.574 278.192C318.119 278.559 317.865 278.979 317.752 279.538C317.371 281.423 317.348 283.265 318.185 285.06C318.501 285.738 319.118 285.839 319.659 286.06C320.135 285.923 320.152 285.517 320.275 285.193C321.504 281.959 323.226 278.979 324.998 276.025C325.555 275.097 326.288 274.329 327.4 274.191C328.592 274.044 328.858 273.297 328.867 272.302C328.876 271.25 328.975 270.198 329.471 269.265C330.466 267.393 332.045 266.345 334.189 266.379C335.366 266.397 335.705 266.288 335.823 264.815C335.975 262.912 336.569 260.385 338.03 259.436C341.187 257.384 339.895 254.7 339.824 252.199C339.777 250.576 338.889 249.095 338.127 247.649C336.133 243.867 334.432 240.003 333.966 235.672C333.166 228.238 335.954 222.507 342.246 218.65C352.454 212.393 366.326 216.081 371.775 226.435C377.173 236.692 372.546 251.076 361.176 255.61C358.86 256.533 356.511 257.389 354.902 259.478C354.153 260.451 353.504 261.306 354.484 262.575C355.104 263.379 354.875 264.397 354.419 265.293C354.297 265.533 353.945 265.827 354.005 265.965C354.807 267.831 353.384 269.33 353.212 271.026C353.185 271.294 353.219 271.679 353.061 271.803C351.97 272.661 352.125 273.84 352.026 275.024C351.927 276.203 351.053 277.029 350.149 277.752C348.726 278.889 347.124 279.728 345.521 280.481C345.393 281.146 345.916 281.431 346.12 281.862C346.563 282.796 346.831 283.719 346.25 284.705C345.449 286.063 345.524 286.654 346.798 287.667C348.579 289.083 350.488 290.272 352.734 290.865C353.976 291.193 355.275 291.437 356.31 292.352C354.367 292.148 352.489 291.68 350.689 290.926C348.88 290.169 347.325 289.02 345.793 287.282C345.509 290.264 344.642 292.765 343.985 295.319C343.156 298.548 342.04 301.605 339.795 304.192C335.811 308.784 330.24 310.351 324.156 308.421C323.127 308.094 322.125 307.682 320.939 307.246C321.524 310.8 322.071 314.245 322.899 317.641C323.071 318.344 323.258 319.044 323.467 319.736C323.691 320.476 324.067 321.219 323.002 321.74C326.943 325.385 330.22 329.309 332.988 333.634C338.371 342.046 343.203 350.746 346.317 360.292C346.862 361.962 347.128 363.721 347.603 365.417C347.83 366.225 347.303 366.31 346.434 366.565C347.44 366.614 348.308 366.331 348.34 367.524C347.908 367.704 347.474 367.885 347.041 368.066C348.704 367.218 349.86 368.664 351.245 368.946C352.609 369.223 353.901 369.953 355.392 369.565C357.258 369.08 359.029 370.905 358.603 372.842C358.324 374.115 357.591 375.086 356.365 375.566C351.605 377.429 346.865 379.353 341.832 380.398C340.788 380.614 340.352 380.108 340.09 379.191C339.284 376.363 338.444 373.544 337.606 370.725C337.453 370.211 337.356 369.664 336.835 369.131C335.053 369.82 333.216 370.533 331.376 371.241C328.632 372.295 328.599 372.306 327.519 369.665C325.355 364.373 322.482 359.426 320.077 354.253C319.008 351.954 317.98 349.634 317.012 347.291C316.674 346.471 316.207 345.944 315.379 345.63C314.124 345.153 312.902 344.588 311.517 343.997C311.411 344.92 311.382 345.676 311.23 346.406C310.18 351.462 306.623 354.228 302.188 356.113C298.08 357.859 293.772 358.162 289.39 357.561C285.173 356.983 281.001 356.18 276.941 354.859C274.275 353.991 272.004 352.414 269.693 350.906C269.547 350.811 269.392 350.662 269.337 350.505C268.826 349.038 268.521 347.491 267.555 346.34C267.376 346.715 267.626 347.584 266.756 347.72C266.127 347.463 266.538 346.839 266.188 346.511C265.848 347.004 266.283 347.91 265.371 348.046C264.628 348.157 264.918 347.298 264.459 347.008C264.635 348.028 264.186 348.55 263.303 348.887C261.527 349.565 259.787 350.335 258.024 351.045C257 351.458 255.952 351.582 255.128 350.679C254.272 349.742 254.492 348.648 254.988 347.632C255.303 346.987 255.728 346.386 256.167 345.815C258.577 342.683 260.696 339.369 262.542 335.875C264.052 333.017 265.478 332.506 268.531 333.512C273.107 335.021 277.798 335.515 282.595 334.955C283.8 334.815 285.034 334.915 286.503 334.474C283.07 330.245 280.47 325.759 280.559 320.091ZM312.791 342.817C313.591 343.178 314.313 343.761 315.269 343.771C315.39 343.216 315.149 342.497 315.881 342.365C316.665 342.224 316.772 342.978 317.044 343.467C317.174 343.702 317.244 343.971 317.351 344.221C318.6 347.133 319.799 350.068 321.112 352.951C323.569 358.346 326.684 363.43 328.826 368.973C329.307 370.216 329.88 370.262 330.95 369.83C334.729 368.308 338.519 366.812 342.331 365.375C346.016 363.986 346.011 364.03 344.761 360.276C342.143 352.406 338.252 345.15 334.03 338.058C330.82 332.666 327.13 327.643 322.566 323.294C321.574 322.349 320.623 321.707 319.11 321.915C317.645 322.117 316.123 322.001 314.634 321.908C306.825 321.426 299.252 319.678 291.739 317.605C288.946 316.833 286.267 315.77 283.692 314.509C282.415 316.305 281.755 319.961 282.089 322.275C282.685 326.414 284.647 329.88 287.27 333.015C289.651 335.862 291.951 338.785 294.693 341.312C295.046 341.638 295.541 342.028 295.024 342.553C294.553 343.031 294.109 342.672 293.721 342.335C293.448 342.098 293.176 341.856 292.929 341.591C291.572 340.133 290.184 338.7 288.887 337.19C288.233 336.429 287.515 336.125 286.527 336.149C283.856 336.216 281.215 336.784 278.539 336.646C277.507 336.593 277.123 336.956 276.979 337.974C276.372 342.243 274.879 346.205 272.581 349.85C272.107 350.601 272.35 350.988 273.01 351.356C274.592 352.241 276.186 353.092 277.929 353.634C282.353 355.009 286.877 355.933 291.486 356.297C296.658 356.706 301.504 355.609 305.71 352.424C308.459 350.343 310.074 347.628 309.909 344.043C309.878 343.361 309.723 342.847 309.074 342.478C304.811 340.052 301.348 336.65 297.947 333.194C295.682 330.892 294.125 328.154 293.439 324.962C293.319 324.403 293.211 323.78 293.933 323.64C294.585 323.514 294.686 324.113 294.803 324.614C295.383 327.084 296.439 329.359 298.146 331.216C302.361 335.801 306.874 340.043 312.791 342.817ZM344.57 282.229C341.822 280.169 338.694 279.111 335.315 278.724C333.999 278.574 333.204 279.121 332.8 280.432C331.973 283.116 330.857 285.693 329.753 288.274C329.222 289.515 328.795 290.8 328.3 292.122C331.214 291.586 335.837 295.762 334.918 298.436C333.955 295.459 331.855 293.999 329.347 292.976C328.651 294.208 328.438 294.252 327.514 293.432C327.007 292.981 326.52 292.505 325.996 292.076C321.201 288.147 315.791 285.408 309.832 283.731C309.348 283.594 308.745 283.602 308.543 282.64C311.369 282.876 313.772 284.152 316.373 284.88C316.362 283.986 315.855 283.574 315.335 283.242C313.529 282.086 311.545 281.295 309.488 280.745C308.498 280.48 307.626 280.828 307.28 281.994C306.997 282.944 306.417 283.765 305.427 284.01C303.862 284.397 303.149 285.981 301.68 286.514C301.311 286.648 300.915 287.301 301.372 287.918C301.484 288.068 301.48 288.353 301.44 288.559C301.145 290.093 298.391 292.497 296.806 292.625C296.716 292.632 296.61 292.655 296.537 292.618C295.479 292.08 295.024 292.77 294.505 293.524C290.834 298.862 287.075 304.132 282.516 308.774C281.072 310.243 281.125 310.868 282.813 312.121C284.798 313.593 287.018 314.624 289.365 315.348C296.468 317.539 303.659 319.36 311.069 320.149C314.308 320.494 317.562 320.709 320.822 320.299C321.631 320.197 321.952 319.867 321.734 319.047C320.71 315.193 320.214 311.235 319.444 307.33C319.292 306.561 318.953 306.036 318.322 305.577C316.491 304.247 314.685 302.939 312.412 302.379C311.289 302.103 310.25 301.464 309.193 300.949C308.824 300.769 308.297 300.637 308.469 299.859C309.988 299.918 311.102 301.313 312.742 301.139C311.954 300.19 311.05 299.388 310.186 298.544C309.81 298.176 309.302 297.713 309.887 297.172C310.469 296.634 310.868 297.215 311.253 297.565C311.622 297.9 311.95 298.278 312.305 298.627C315.152 301.431 318.057 304.167 321.734 305.883C326.057 307.899 330.461 308.656 334.914 306.318C337.038 305.203 338.771 303.548 339.967 301.488C342.459 297.194 343.465 292.413 344.176 287.562C344.303 286.694 343.997 286.009 343.35 285.384C342.331 284.399 341.205 283.58 339.999 282.852C339.614 282.619 339.049 282.474 339.228 281.832C339.742 281.547 340.071 281.871 340.407 282.06C341.475 282.659 342.51 283.307 343.401 284.163C343.695 284.446 344.019 284.727 344.471 284.399C344.865 284.114 345.146 283.765 345.031 283.258C344.963 282.955 344.801 282.674 344.57 282.229ZM361.765 253.709C364.679 252.368 366.982 250.317 368.817 247.705C373.875 240.503 373.927 230.852 368.642 224.409C363.879 218.6 357.551 216.228 350.134 217.357C340.281 218.857 333.287 226.749 335.766 237.797C336.55 241.292 338.071 244.457 339.722 247.582C341.389 250.737 341.917 254.062 341.34 257.576C341.275 257.968 341.174 258.381 341.411 258.755C342.649 259.215 343.295 258.824 343.414 257.487C343.482 256.727 343.71 255.982 343.838 255.225C344.883 249.017 344.066 242.872 343.171 236.735C342.862 234.613 342.445 232.507 342.079 230.405C342.829 230.068 343.515 230.235 344.183 230.248C347.273 230.311 350.134 229.547 352.571 227.637C353.645 226.794 354.161 227.062 354.804 228.05C356.803 231.122 359.348 233.69 362.333 235.799C363.301 236.483 363.387 236.99 362.65 237.953C357.774 244.326 353.953 251.288 351.155 258.814C350.711 260.008 350.977 260.602 352.351 260.761C353.758 257.8 356.154 255.925 359.215 254.82C360.022 254.529 360.797 254.147 361.765 253.709ZM347.99 237.95C348.078 237.639 348.173 237.264 348.592 237.397C349.048 237.543 348.903 237.992 348.905 238.335C348.93 242.418 348.498 246.469 347.924 250.5C347.554 253.095 347.005 255.665 346.539 258.246C346.468 258.642 346.308 259.095 346.887 259.245C347.386 259.374 347.644 259.071 347.781 258.634C347.93 258.159 348.076 257.683 348.219 257.206C350.156 250.734 352.476 244.401 355.152 238.2C355.366 237.706 355.437 237.025 356.202 236.963C356.713 237.565 356.238 238.033 356.046 238.484C353.278 244.992 350.835 251.616 348.863 258.411C348.731 258.866 348.407 259.391 349.133 259.661C349.853 259.929 349.966 259.365 350.135 258.898C352.885 251.303 356.701 244.284 361.564 237.839C362.122 237.099 361.983 236.705 361.29 236.202C359.116 234.623 357.215 232.746 355.518 230.666C354.896 229.902 354.319 229.101 353.629 228.196C350.515 230.463 347.027 231.333 343.224 231.255C344.761 240.586 346.381 249.679 344.09 258.84C345.392 259.357 345.467 258.519 345.627 257.819C347.101 251.357 347.873 244.811 347.99 237.95ZM326.75 290.707C327.272 290.804 327.336 290.377 327.458 290.058C328.661 286.932 330.086 283.898 331.193 280.728C331.663 279.381 331.272 278.807 330.131 278.345C329.603 278.131 328.861 278.162 328.695 277.323C329.592 276.899 330.315 277.347 330.898 277.743C332.01 278.498 332.679 278.083 333.381 277.088C331.964 275.979 330.366 275.617 328.674 275.501C327.671 275.432 326.895 275.814 326.368 276.648C324.504 279.603 322.833 282.659 321.584 285.932C321.337 286.58 321.395 287.067 322.042 287.421C323.678 288.318 325.045 289.598 326.75 290.707ZM308.789 269.836C308.172 270.003 307.677 270.326 307.718 271.034C307.768 271.888 308.334 272.392 309.053 272.776C311.206 273.926 311.421 274.404 311.056 276.664C310.908 277.577 310.003 278.584 310.594 279.318C311.115 279.965 312.249 280.158 313.145 280.455C314.082 280.767 314.891 281.493 316.029 281.477C315.953 280.308 314.968 280.093 314.383 279.535C314.045 279.213 313.732 278.881 313.877 278.364C314.035 277.801 314.503 277.774 314.969 277.797C315.854 277.84 316.673 277.641 317.422 277.165C319.187 276.044 320.49 270.567 319.116 269.015C318.067 267.831 317.149 266.388 315.573 265.732C315.134 265.549 314.652 265.195 314.291 265.862C313.556 267.218 312.144 268.328 312.775 270.181C312.869 270.457 312.752 270.807 312.725 271.123C312.689 271.546 312.589 271.958 312.118 272.078C311.631 272.202 311.374 271.857 311.17 271.487C310.684 270.609 309.977 270.028 308.789 269.836ZM336.923 276.491C336.916 277.053 337.121 277.42 337.72 277.573C338.375 277.741 339.012 277.988 339.648 278.225C340.973 278.72 342.29 279.507 343.265 277.601C343.565 277.015 344.391 276.883 345.054 276.726C345.81 276.548 346.526 276.282 347.197 275.895C347.557 275.687 348.081 275.344 347.958 275.027C347.606 274.121 348.118 273.174 347.916 272.468C347.648 271.536 348.094 271.143 348.551 270.5C347.53 270.154 347.738 269.411 348.1 268.526C346.251 269.473 344.613 270.247 342.718 270.075C342.261 270.034 341.769 270.055 341.635 269.48C341.517 268.973 341.858 268.743 342.271 268.592C342.734 268.424 342.966 268.131 342.91 267.558C342.234 267.867 341.684 268.219 341.084 268.374C338.658 268.999 337.556 270.705 337.072 273.008C336.844 274.091 336.922 275.169 336.923 276.491ZM350.023 269.22C350.934 269.632 351.692 269.407 352.328 268.669C352.717 268.217 352.934 267.701 352.499 267.202C351.739 266.328 352.107 265.69 352.762 264.972C353.241 264.447 353.64 263.79 352.883 263.099C350.538 264.595 348.044 264.225 345.618 263.703C343.199 263.181 340.822 262.419 339.285 260.233C338.65 260.607 338.502 261.151 338.521 261.772C338.535 262.225 338.538 262.649 338.254 263.066C336.82 265.168 336.835 265.201 338.549 266.983C338.616 267.053 338.572 267.231 338.579 267.356C336.055 267.713 335.683 268.154 336.731 269.733C337.945 267.226 341.04 267.455 342.711 265.552C341.388 264.634 339.609 264.526 338.933 262.814C341.494 264.069 344.122 265.062 347.272 265.491C346.094 266.671 345.147 265.686 344.285 266.118C344.422 266.781 344.563 267.462 344.702 268.136C344.904 268.173 345.054 268.251 345.16 268.211C345.667 268.021 346.168 267.816 346.658 267.586C348.589 266.68 349.334 267.02 350.023 269.22ZM333.681 272.374C332.79 272.979 332.365 272.662 332.515 271.677C332.601 271.115 332.681 270.62 332.366 270.12C332.022 269.575 332.278 269.173 332.712 268.838C333.056 268.573 333.416 268.328 333.9 267.979C331.271 268.266 329.266 271.588 330.184 273.834C330.28 274.068 330.437 274.213 330.662 274.27C332.283 274.681 333.754 275.455 335.387 276.404C335.105 273.979 333.45 271.939 334.929 269.606C334.058 269.575 333.985 269.897 334.092 270.371C334.236 271.017 334.134 271.63 333.681 272.374ZM350.353 273.582C349.882 272.896 349.58 273.189 349.625 273.798C349.676 274.49 349.729 275.172 349.476 276.111C350.429 275.345 350.834 274.694 350.353 273.582ZM344.683 279.164C345.132 279.009 345.57 278.838 345.878 278.299C344.917 278.134 344.367 278.487 343.837 279.362C344.204 279.278 344.366 279.24 344.683 279.164ZM262.665 342.211C262.339 342.726 262.014 343.241 261.688 343.756C261.753 343.794 261.818 343.833 261.882 343.871C262.53 342.879 263.178 341.887 264.025 340.59C263.228 341.1 263.077 341.641 262.665 342.211Z" fill="#122315"/>
<path d="M371.843 300.772C372.335 301.282 372.817 301.685 372.867 302.449C370.94 300.889 369.013 299.33 367.086 297.77C368.895 298.374 370.412 299.42 371.843 300.772Z" fill="#122315"/>
<path d="M337.208 349.642C338.203 354.212 337.902 358.559 336.083 362.765C335.518 364.071 334.731 365.234 333.435 365.934C332.681 366.341 331.888 366.599 331.091 366.198C330.997 365.615 331.313 365.481 331.63 365.457C333.41 365.327 334.385 364.169 335.018 362.699C337.736 356.388 337.415 350.209 334.083 344.196C333.633 343.384 333.614 343.394 333.552 342.621C334.757 342.814 336.142 345.439 337.208 349.642Z" fill="#122315"/>
<path d="M312.045 329.302C311.206 329.438 310.392 330.111 309.48 329.458C311.551 327.09 313.587 324.761 315.645 322.407C316.551 323.864 315.589 326.322 313.25 328.618C312.773 328.927 312.409 329.115 312.045 329.302Z" fill="#122315"/>
<path d="M284.187 324.608C284.807 324.92 285.354 325.098 285.957 325.129C287.964 325.23 288.02 324.866 287.959 322.9C287.878 320.294 286.814 318.877 284.29 318.428C283.904 318.36 283.385 318.197 283.407 317.28C285.309 317.89 287.118 318.471 289.064 319.095C288.106 320.86 288.66 322.468 289.157 324.048C289.419 324.881 289.195 325.336 288.436 325.642C286.782 326.311 285.177 326.246 283.624 325.345C283.343 325.181 283.037 324.967 283.252 324.603C283.47 324.234 283.805 324.459 284.187 324.608Z" fill="#122315"/>
<path d="M305.172 347.519C304.45 350.589 303.014 352.896 299.835 353.658C299.032 353.851 299.029 353.837 298.016 353.12C304.381 352.325 304.417 347.482 304.881 342.815C305.558 344.38 305.433 345.888 305.172 347.519Z" fill="#122315"/>
<path d="M277.18 345.993C278.02 343.819 278.437 341.626 278.949 339.316C279.772 339.864 279.577 340.451 279.505 340.923C278.943 344.634 277.602 348.053 275.539 351.187C275.323 351.515 275.094 352.041 274.635 351.769C274.025 351.407 274.557 350.988 274.78 350.648C275.722 349.209 276.516 347.694 277.18 345.993Z" fill="#122315"/>
<path d="M311.998 329.369C312.416 329.115 312.78 328.927 313.2 328.679C315.847 327.552 316.093 324.994 316.936 322.772C317.598 324.568 316.943 326.111 316.028 327.502C314.711 329.507 312.551 330.227 310.203 331.263C310.439 329.838 311.447 329.931 311.998 329.369Z" fill="#122315"/>
<path d="M288.427 340.368C288.156 339.521 287.636 338.817 288.077 337.672C289.199 339.101 289.406 340.745 290.214 342.074C291.014 343.389 292.03 344.564 292.669 345.998C290.477 344.75 289.43 342.639 288.427 340.368Z" fill="#122315"/>
<path d="M315.377 335.826C315.212 337.341 315.8 338.64 316.058 340.082C314.297 339.368 313.831 334.875 315.23 333.338C316.023 334.094 315.207 334.943 315.377 335.826Z" fill="#122315"/>
<path d="M313.04 340.797C313.202 341.375 313.707 341.825 313.212 342.365C311.823 341.688 310.951 337.548 312.008 335.601C312.633 337.41 312.239 339.196 313.04 340.797Z" fill="#122315"/>
<path d="M292.636 335.726C294.132 336.317 295.652 336.142 297.32 336.29C295.851 337.558 292.681 337.184 291.598 335.841C291.844 335.365 292.211 335.659 292.636 335.726Z" fill="#122315"/>
<path d="M317.381 341.013C317.54 339.871 317.344 338.753 318.345 337.908C318.529 339.509 318.431 341.089 318.106 342.763C317.13 342.389 317.345 341.717 317.381 341.013Z" fill="#122315"/>
<path d="M286.043 339.107C286.871 339.689 286.92 340.453 286.673 341.526C285.779 340.777 285.596 340.042 286.043 339.107Z" fill="#122315"/>
<path d="M287.271 307.307C288.197 309.383 289.566 310.961 291.223 312.356C292.811 313.693 294.839 314.335 296.45 315.617C292.741 315.908 285.305 309.152 286.157 305.513C287.097 305.728 286.839 306.684 287.271 307.307Z" fill="#122315"/>
<path d="M314.447 305.609C309.43 306.58 304.649 306.108 303.465 304.571C303.598 304.247 303.866 304.214 304.136 304.322C307.243 305.554 310.442 305.24 313.643 304.908C314.603 304.808 314.603 304.813 314.447 305.609Z" fill="#122315"/>
<path d="M304.207 316.59C303.719 316.334 303.667 315.951 304.12 315.938C306.316 315.874 308.457 315.378 310.735 314.999C310.092 316.234 307.156 316.896 304.207 316.59Z" fill="#122315"/>
<path d="M329.907 296.83C329.854 296.303 329.957 295.95 330.457 296.265C331.095 296.668 331.781 300.31 331.327 301.372C330.405 299.922 330.625 298.263 329.907 296.83Z" fill="#122315"/>
<path d="M327.045 295.892C326.749 296.172 326.417 296.218 326.397 295.856C326.366 295.264 326.302 294.624 326.752 293.971C327.455 294.555 327.272 295.184 327.045 295.892Z" fill="#122315"/>
<path d="M298.478 300.781C297.483 300.866 297.183 300.215 296.863 299.375C297.919 299.357 298.431 299.78 298.478 300.781Z" fill="#122315"/>
<path d="M368.563 227.367C368.343 226.898 367.883 226.576 368.262 226.079C370.222 226.786 371.717 232.257 370.391 234.401C369.667 233.215 370.172 231.964 369.894 230.853C369.599 229.671 369.255 228.507 368.563 227.367Z" fill="#122315"/>
<path d="M316.116 268.052C315.715 268.182 315.407 268.261 315.12 268.389C314.731 268.564 314.33 268.756 314.054 268.278C313.779 267.802 314.008 267.41 314.407 267.107C314.856 266.765 315.368 266.622 315.93 266.63C316.368 266.636 316.769 266.741 316.9 267.203C317.057 267.76 316.593 267.87 316.116 268.052Z" fill="#122315"/>
<path d="M315.966 272.78C316.209 272.466 316.454 272.34 316.734 272.363C317.302 272.41 318.093 271.904 318.34 272.822C318.511 273.454 317.93 273.701 317.446 273.78C316.734 273.898 315.927 274.017 315.966 272.78Z" fill="#122315"/>
<path d="M317.099 268.374C317.576 268.946 317.459 269.36 316.855 269.56C316.458 269.691 316.115 269.47 316.074 269.052C316.006 268.371 316.422 268.208 317.099 268.374Z" fill="#122315"/>
<path d="M101.204 26.168C106.357 23.2773 112.643 23.2773 117.797 26.168L130.421 33.2498C132.893 34.6365 135.673 35.3814 138.507 35.4165L152.981 35.5958C158.89 35.6689 164.334 38.8121 167.351 43.8922L174.743 56.3374C176.191 58.7742 178.226 60.8095 180.663 62.2569L193.108 69.6492C198.188 72.6666 201.331 78.1107 201.405 84.0189L201.583 98.4931C201.619 101.327 202.364 104.107 203.751 106.579L210.832 119.203C213.723 124.357 213.723 130.643 210.832 135.797L203.751 148.421C202.364 150.893 201.619 153.673 201.583 156.507L201.405 170.981C201.331 176.89 198.188 182.334 193.108 185.351L180.663 192.743C178.226 194.191 176.191 196.226 174.743 198.663L167.351 211.108C164.334 216.188 158.89 219.332 152.981 219.405L138.507 219.583C135.673 219.619 132.893 220.364 130.421 221.751L117.797 228.832C112.643 231.723 106.357 231.723 101.204 228.832L88.5793 221.751C86.107 220.364 83.327 219.619 80.4931 219.583L66.0189 219.405C60.1107 219.332 54.6666 216.188 51.6492 211.108L44.2569 198.663C42.8095 196.226 40.7742 194.191 38.3374 192.743L25.8921 185.351C20.8121 182.334 17.6689 176.89 17.5958 170.981L17.4165 156.507C17.3814 153.673 16.6364 150.893 15.2498 148.421L8.16802 135.797C5.27733 130.643 5.27732 124.357 8.16802 119.203L15.2498 106.579C16.6364 104.107 17.3814 101.327 17.4165 98.4931L17.5958 84.0189C17.6689 78.1108 20.8121 72.6667 25.8921 69.6493L38.3374 62.2569C40.7742 60.8095 42.8095 58.7742 44.2569 56.3374L51.6492 43.8922C54.6666 38.8121 60.1107 35.6689 66.0189 35.5958L80.4931 35.4165C83.327 35.3814 86.107 34.6365 88.5793 33.2498L101.204 26.168Z" fill="#73D3EB"/>
<path d="M78.0867 108.858C70.6661 102.433 66.6062 94.2533 64.8549 84.8066C64.7076 84.0119 64.6367 83.2379 63.8337 82.6986C63.1187 82.2184 63.1369 81.4148 63.5392 80.7009C63.8966 80.0669 64.3465 79.4851 64.8219 78.782C63.5496 78.3555 62.766 77.4879 62.3325 76.2956C62.2638 76.1067 62.1669 75.9668 61.9674 75.8776C59.4141 74.7352 58.718 72.6487 60.0466 70.1586C60.4187 69.4613 60.9058 68.8524 61.506 68.3486C62.1019 67.8483 62.7242 67.3758 63.362 66.9298C64.9991 65.7851 65.0049 65.7937 63.9914 64.1447C63.9302 64.0451 63.8712 63.9439 63.8177 63.8401C63.4038 63.0367 63.1549 62.2027 63.8706 61.4616C64.6304 60.6748 65.5152 60.8768 66.3316 61.3804C69.2784 63.1981 71.2122 65.8083 72.242 69.0956C72.803 70.8864 73.1584 72.7189 73.186 74.6025C73.1938 75.1321 73.182 75.6408 73.8784 75.7439C75.1693 75.9351 76.0125 76.8105 76.8278 77.7101C78.7664 79.8491 80.1161 82.327 81.0997 85.0333C82.1507 87.9252 83.3204 90.7743 84.3514 93.673C84.8621 95.1089 85.7013 96.1785 87.0014 96.9502C89.573 98.4767 92.1237 100.038 94.7437 101.622C95.3081 100.663 96.0762 100.113 97.0465 99.8905C96.9069 99.1798 96.3842 98.9963 95.9715 98.7569C93.766 97.4771 92.326 95.591 91.6575 93.1651C91.377 92.1473 90.8929 91.8746 89.8692 91.8352C86.9773 91.7237 84.5043 89.4185 84.2741 86.796C83.9758 83.3971 85.757 80.4045 88.5808 79.7625C90.9919 79.2144 92.9109 80.2056 94.5615 82.0813C95.9457 81.1421 97.4229 80.3869 99.0282 79.9005C101.24 79.2302 103.4 79.235 105.507 80.2909C108.014 81.5475 109.158 84.2813 108.139 86.8874C107.877 87.5581 107.994 87.9727 108.368 88.4651C108.746 88.9614 109.072 89.4961 109.455 89.9876C109.904 90.5638 110.107 91.1377 109.629 91.7939C109.324 92.2126 109.424 92.6947 109.451 93.1546C109.589 95.5082 108.953 97.4725 106.741 98.6707C106.469 98.8179 106.166 98.9823 106.246 99.3747C106.318 99.7229 106.629 99.7085 106.894 99.7549C107.848 99.9223 108.696 100.263 109.206 101.162C109.352 101.419 109.588 101.521 109.878 101.563C112.761 101.98 114.627 103.737 115.908 106.218C116.515 107.394 117.049 108.609 117.606 109.811C118.161 111.011 118.704 112.218 119.32 113.571C119.921 112.504 120.154 111.467 120.289 110.43C120.444 109.241 120.859 108.418 122.202 108.383C122.978 108.362 122.97 107.873 122.773 107.324C122.407 106.3 121.911 105.329 121.669 104.25C121.382 102.973 121.574 101.812 122.44 100.865C123.161 100.076 122.66 99.3684 122.576 98.5832C122.466 97.5711 121.995 97.3189 121.039 97.1615C117.987 96.6588 115.832 94.0396 115.89 91.1166C115.949 88.0884 118.067 85.6757 121.167 85.1993C123.435 84.8509 125.713 84.5511 127.995 84.3108C128.803 84.2256 129.491 83.9623 130.174 83.5665C136.375 79.9725 141.844 75.3799 147.427 70.9428C148.403 70.1669 149.372 69.3773 150.478 68.785C153 67.4341 155.089 68.01 156.532 70.4764C158.647 74.0942 159.751 78.0575 160.443 82.1519C160.559 82.8404 160.731 83.3972 161.395 83.7734C161.954 84.0907 162.26 84.669 162.389 85.3015C162.598 86.3293 162.831 87.3568 162.951 88.3964C163.043 89.1996 162.818 90.004 162.087 90.4435C161.48 90.8086 161.367 91.2695 161.385 91.8975C161.449 94.16 161.344 96.4144 160.926 98.6445C160.825 99.1788 160.711 99.7151 160.545 100.232C159.42 103.739 157.552 104.749 154.044 103.729C146.821 101.629 139.699 99.2312 132.695 96.4855C132.369 96.3579 132.043 96.2064 131.704 96.1461C131.195 96.0557 130.735 96.1352 130.762 96.8195C130.784 97.3591 130.587 97.8063 130.124 98.1942C131.15 99.3315 131.7 100.665 132.403 101.912C133.43 103.735 133.282 105.392 131.944 106.989C131.398 107.641 130.871 108.329 130.81 109.222C130.871 109.305 130.903 109.403 130.963 109.423C132.975 110.121 132.878 110.12 132.893 112.358C132.925 117.262 132.303 122.075 130.906 126.761C129.717 130.749 127.266 133.531 122.91 134.141C122.152 134.246 121.367 134.156 120.454 134.156C121.014 135.477 120.375 136.171 119.225 136.714C120.277 137.702 121.254 138.57 122.176 139.494C131.812 149.144 138.271 160.631 141.934 173.73C143.297 178.604 144.268 183.572 145.465 188.485C145.617 189.106 145.506 189.751 145.869 190.37C146.276 191.066 146.375 191.851 145.1 192.01C145.606 192.044 146.111 191.783 146.461 192.211C146.788 192.611 147.112 193.028 146.402 193.83C147.19 193.372 147.604 193.549 147.958 193.946C148.317 194.348 147.831 194.562 147.682 195.092C148.328 194.488 148.91 194.391 149.593 194.573C150.341 194.773 151.13 194.816 151.891 194.976C153.012 195.211 154.027 195.676 154.277 196.918C154.529 198.166 153.63 198.858 152.731 199.429C151.209 200.396 149.487 200.782 147.711 200.751C144.975 200.702 142.293 201.224 139.581 201.375C138.006 201.462 137.308 200.84 137.196 199.289C136.923 195.518 135.326 192.248 133.468 189.069C132.131 186.78 130.42 184.728 129.171 182.383C128.664 181.431 128.214 180.448 127.695 179.391C125.332 180.694 122.947 181.719 120.394 182.321C114.618 183.682 108.948 183.396 103.429 181.163C102.669 180.856 102.237 180.97 101.715 181.529C99.3475 184.064 96.6133 186.233 94.3508 188.876C94.0761 189.197 93.793 189.642 93.2101 189.009C93.3296 189.752 93.6408 190.491 92.5299 190.354C92.8028 191.163 92.8611 191.815 91.5614 191.614C92.5777 192.627 91.4559 193.475 91.5562 194.434C91.6373 195.209 91.7505 195.619 92.4417 195.928C93.0472 196.199 93.5696 196.612 93.9437 197.191C95.0896 198.964 94.1827 200.906 92.0915 201.146C90.515 201.327 89.1571 200.793 88.0012 199.781C87.3021 199.168 86.6175 198.495 86.0961 197.733C84.5794 195.515 83.0285 193.342 81.2783 191.288C79.5776 189.293 79.9791 187.607 82.291 186.315C83.8339 185.453 84.8908 184.216 85.6644 182.702C87.0647 179.961 88.4012 177.188 89.7992 174.446C90.0649 173.925 89.9221 173.618 89.5934 173.211C86.7386 169.671 86.9394 165.735 90.146 162.503C91.2987 161.341 92.49 160.215 93.7037 159.118C94.268 158.607 94.2426 158.23 93.7653 157.667C92.4057 156.061 91.0328 154.458 89.7924 152.762C87.7529 149.972 86.146 146.965 85.5854 143.485C85.2785 141.58 85.4781 139.747 86.2748 138.008C86.6159 137.264 86.4924 136.901 85.7572 136.578C84.1068 135.853 82.603 134.876 81.2218 133.717C80.0574 132.74 80.0353 132.496 81.0527 131.402C84.469 127.728 86.9459 123.465 88.8309 118.851C89.5625 117.06 89.478 117.033 87.8084 116.075C84.3083 114.066 81.1898 111.541 78.0867 108.858ZM127.55 130.466C128.894 128.931 129.616 127.095 130.116 125.152C131.237 120.79 131.556 116.33 131.746 111.853C131.772 111.254 131.596 110.924 130.973 110.773C128.241 110.108 125.499 109.561 122.664 109.661C122.028 109.683 121.659 109.856 121.553 110.554C121.359 111.828 120.866 113.026 120.495 114.255C119.901 116.22 119.141 118.183 119.867 120.296C120.001 120.684 119.856 121.015 119.444 121.112C119.003 121.216 118.828 120.879 118.701 120.534C118.284 119.405 118.243 118.232 118.431 116.818C117.386 118.592 117.451 120.359 117.396 122.097C116.756 121.965 116.791 121.6 116.755 121.311C116.511 119.342 116.934 117.503 118.03 115.867C118.435 115.264 118.504 114.75 118.218 114.136C116.968 111.453 115.788 108.733 114.438 106.101C113.591 104.449 112.146 103.271 110.313 102.904C109.243 102.69 108.18 102.767 107.784 101.329C107.588 102.041 107.156 102.274 106.658 102.413C103.641 103.254 100.604 103.414 97.5304 102.714C96.9144 102.573 96.4668 102.349 96.4608 101.583C95.7767 102.151 96.4929 103.368 95.4866 103.483C94.7333 103.569 94.2988 102.677 93.6255 102.378C93.5195 102.331 93.4236 102.26 93.3256 102.196C90.8413 100.583 88.1797 99.2637 85.7345 97.5818C84.663 96.8447 83.907 95.9222 83.4498 94.7117C82.4173 91.9784 81.3132 89.2714 80.3197 86.5243C79.1421 83.2679 77.7309 80.1731 75.1168 77.776C74.5135 77.2228 73.9025 76.8371 73.0278 77.0147C70.6395 77.4995 68.3727 78.3146 66.2727 79.5433C65.4757 80.0095 64.7687 80.637 64.6043 81.727C65.6181 82.0392 65.7789 82.881 65.9197 83.7431C66.4483 86.9785 67.1903 90.1539 68.5032 93.1773C70.6618 98.148 73.2783 102.804 77.3404 106.52C81.4968 110.322 85.8709 113.813 90.9214 116.379C91.0254 116.432 91.1312 116.487 91.2222 116.559C91.775 116.995 91.7966 117.482 91.0932 117.65C90.4468 117.805 90.3565 118.232 90.1839 118.707C89.9181 119.437 89.6443 120.168 89.3212 120.875C87.5631 124.719 85.4805 128.363 82.5868 131.484C81.9047 132.22 81.9272 132.724 82.7623 133.351C84.8466 134.915 87.1656 135.994 89.5943 136.869C93.447 138.258 97.4676 138.759 101.52 138.941C107.175 139.194 112.743 138.83 117.866 136.012C119.436 135.148 119.479 135.172 118.724 133.582C116.334 128.55 113.943 123.518 111.509 118.507C110.883 117.216 110.593 115.968 111.145 114.585C111.534 113.612 111.481 112.607 111.217 111.6C110.896 110.381 110.296 109.289 109.734 108.178C109.565 107.845 109.474 107.478 109.855 107.245C110.227 107.016 110.542 107.213 110.736 107.549C112.041 109.806 113.25 112.117 112.344 114.826C111.948 116.012 112.142 116.994 112.665 118.062C114.875 122.576 117.062 127.101 119.191 131.653C119.604 132.535 120.185 132.863 121.069 132.929C123.551 133.115 125.669 132.33 127.55 130.466ZM88.8108 137.883C88.0961 137.488 87.6884 137.718 87.3881 138.463C86.6957 140.181 86.5615 141.947 86.8936 143.739C87.4747 146.874 88.9974 149.597 90.8625 152.116C93.0654 155.092 95.4683 157.909 98.0704 160.55C98.3827 160.867 98.9353 161.211 98.4869 161.703C97.9969 162.239 97.5801 161.714 97.2081 161.39C96.8349 161.065 96.4802 160.719 96.0256 160.297C96.2475 161.807 97.5444 162.571 97.9518 163.835C96.2342 163.116 95.6832 161.428 94.6195 159.907C92.8931 161.803 90.743 163.169 89.5302 165.404C88.2382 167.784 88.8534 170.952 90.8866 172.582C91.8286 171.213 92.9387 169.986 94.2587 168.706C93.3223 168.583 92.6594 168.835 92.0148 169.19C91.6587 169.387 91.2447 169.563 90.974 169.144C90.6501 168.642 91.0779 168.339 91.4392 168.12C92.4714 167.493 93.5965 167.23 94.7987 167.444C97.5429 167.931 100.152 168.837 102.602 170.153C104.867 171.368 107.083 172.673 109.323 173.935C114.836 177.04 120.471 177.656 126.301 174.817C127.666 174.153 129.066 173.555 130.476 172.992C133.49 171.79 136.545 170.786 139.976 171.667C139.837 171.152 139.759 170.817 139.655 170.489C137.396 163.338 134.036 156.728 129.804 150.551C126.664 145.967 123.126 141.733 118.863 138.136C118.365 137.716 117.923 137.367 117.206 137.728C113.795 139.446 110.125 140 106.353 140.144C100.433 140.371 94.6076 139.913 88.8108 137.883ZM138.557 97.3698C143.946 99.3029 149.383 101.088 154.882 102.679C156.959 103.28 158.238 102.662 159.054 100.659C159.738 98.9812 159.987 97.2031 160.064 95.412C160.121 94.0719 160.238 92.7169 160.004 91.2562C158.483 91.6521 157.015 91.937 155.915 92.855C155.165 93.4811 155.499 94.679 155.297 95.6109C154.959 97.1766 154.255 98.7494 155.452 100.287C155.667 100.563 155.575 100.999 155.161 101.161C154.744 101.323 154.492 101.042 154.329 100.713C153.915 99.8756 153.435 99.0567 153.136 98.178C150.671 90.9428 149.605 83.5187 150.306 75.8835C150.43 74.5349 150.624 73.1763 151.118 71.8921C151.254 71.5394 151.463 71.2539 151.902 71.3966C152.281 71.52 152.298 71.8592 152.246 72.1718C152.163 72.6696 152.063 73.1689 151.916 73.6509C151.743 74.2167 151.816 74.7249 152.128 75.2129C153.066 76.6822 153.526 78.3218 153.893 80.0064C154.613 83.3205 154.828 83.4704 158.263 83.3793C158.38 83.3762 158.496 83.3709 158.613 83.371C159.17 83.3716 159.381 83.1285 159.259 82.5598C159.047 81.5715 158.899 80.5692 158.677 79.5833C158.041 76.7582 157.083 74.048 155.69 71.5023C154.366 69.085 152.847 68.6874 150.528 70.184C149.777 70.6687 149.07 71.2262 148.369 71.7821C142.538 76.4 136.852 81.2161 130.346 84.9062C129.916 85.1496 129.66 85.5018 129.561 86.0031C128.994 88.8697 129.408 91.5772 130.84 94.1245C131.011 94.4283 131.219 94.679 131.59 94.8124C133.861 95.6283 136.122 96.4732 138.557 97.3698ZM132.703 185.61C133.267 186.451 133.847 187.281 134.392 188.134C135.749 190.261 135.745 190.276 138.181 189.699C139.298 189.434 140.591 189.456 140.642 187.71C140.661 187.046 141.386 186.561 142.088 186.314C142.519 186.163 143.02 186.276 143.488 185.942C143.435 185.619 143.399 185.276 143.322 184.942C142.589 181.761 141.82 178.589 141.123 175.4C140.666 173.31 139.806 172.69 137.484 172.588C135.208 172.487 133.127 173.305 131.048 174.079C128.309 175.101 128.038 175.653 128.878 178.505C129.096 179.248 129.396 179.972 129.72 180.677C130.502 182.381 131.502 183.959 132.703 185.61ZM87.8736 181.281C87.7049 181.695 87.292 182.116 87.7311 182.558C88.4146 183.246 89.0559 184.056 89.8842 184.496C90.5658 184.859 91.1884 184.01 91.8408 183.718C93.2681 183.079 94.3448 183.354 95.2526 184.673C95.4205 184.917 95.4704 185.269 95.927 185.39C99.0366 182.417 102.289 179.518 104.9 176.001C105.271 175.501 105.489 174.913 105.683 174.315C105.904 173.639 105.698 173.231 105.092 172.879C102.527 171.388 99.8882 170.078 97.041 169.201C96.3609 168.992 95.8566 169.093 95.3286 169.526C93.8066 170.771 92.5442 172.228 91.5302 173.917C90.1434 176.227 89.1614 178.734 87.8736 181.281ZM106.126 180.825C113.074 182.691 119.776 182.159 126.174 178.746C127.512 178.032 127.682 177.401 126.896 175.845C120.012 179.472 113.452 177.979 107.048 174.061C106.465 176.499 104.784 177.977 103.561 179.755C104.376 180.322 105.185 180.489 106.126 180.825ZM106.055 87.5763C105.716 87.3352 105.473 86.9348 104.978 86.923C104.676 87.1783 104.439 87.4633 104.466 87.9232C104.899 88.0979 105.338 88.2502 105.754 88.4502C106.146 88.6387 106.527 88.8878 106.502 89.3958C106.487 89.693 106.27 89.9029 105.971 89.9362C105.523 89.9862 105.049 90.1604 104.677 89.6968C104.378 89.3238 104.04 88.9822 103.714 88.622C103.342 88.9605 103.069 89.3323 102.703 89.5215C100.695 90.5568 101.254 91.2214 101.636 92.6646C101.747 93.084 102.103 93.6258 101.501 93.9009C100.929 94.1622 100.695 93.5857 100.433 93.2271C99.7087 92.2377 98.8767 91.3819 97.7299 90.8857C97.2625 90.6834 96.805 90.6813 96.4392 91.0749C96.0864 91.4545 96.0577 91.9051 96.2616 92.3791C96.5696 93.0948 97.0831 93.6131 97.7975 93.9024C98.6435 94.2451 98.9251 94.8897 98.9395 95.7475C98.9534 96.5711 98.9212 97.3759 98.6327 98.1624C98.2725 99.1444 98.5222 100.169 98.4772 101.174C98.4635 101.478 98.6546 101.732 98.9522 101.753C101.069 101.896 103.191 102.072 105.24 101.45C105.352 100.489 104.79 100.27 104.158 100.081C103.666 99.9342 103.173 99.742 103.177 99.093C103.181 98.3853 103.737 98.358 104.232 98.2481C104.574 98.1724 104.914 98.0844 105.246 97.974C106.709 97.487 107.902 96.5963 108.088 95.0234C108.401 92.3696 108.709 89.6326 106.055 87.5763ZM125.875 85.8095C124.372 85.9875 122.86 86.106 121.369 86.3567C118.658 86.8127 116.942 89.0363 117.19 91.6616C117.432 94.2371 119.619 96.0886 122.347 95.9848C123.198 95.9525 124.047 95.8348 124.892 95.7212C126.492 95.5064 128.088 95.2664 129.796 95.0209C129.562 94.4701 129.399 94.0845 129.233 93.6999C128.313 91.5581 127.839 89.3331 128.095 86.9993C128.257 85.5252 128.212 85.4462 126.774 85.6849C126.544 85.723 126.314 85.7597 125.875 85.8095ZM71.8863 75.0149C72.1557 68.7816 68.2925 63.0898 64.9794 62.3422C64.5844 62.7675 64.8871 63.141 65.0904 63.5004C66.5869 66.1462 66.59 66.1448 64.1371 67.8945C63.7883 68.1433 63.4201 68.368 63.0903 68.6396C62.2137 69.3612 61.3856 70.1295 60.9548 71.222C60.4605 72.4754 60.7098 73.6546 61.7433 74.4117C61.8346 73.2169 62.5999 73.4089 63.3263 73.6516C63.8535 72.4145 63.9687 72.3115 64.6669 72.7293C65.1239 73.0027 65.5483 73.2203 65.863 72.686C66.2784 71.9808 65.5158 71.9736 65.1816 71.763C63.9904 71.0121 63.8446 69.8374 64.8459 68.8362C65.5497 68.1326 67.189 67.8551 68.14 68.2765C68.4349 68.4072 68.7262 68.5548 68.6818 68.9402C68.6268 69.417 68.2532 69.4135 67.8916 69.4219C67.3098 69.4353 66.7242 69.4251 66.1482 69.4929C65.8279 69.5305 65.5972 69.7858 65.5374 70.1249C65.4893 70.3974 65.6648 70.6345 65.8878 70.6575C67.6819 70.8422 67.8341 71.9187 67.4174 73.3524C67.3692 73.5185 67.4903 73.7296 67.5154 73.9221C67.565 74.3022 67.6988 74.7302 67.2436 74.9544C66.8416 75.1525 66.6216 74.8601 66.377 74.5803C65.9009 74.0357 65.1902 74.2418 64.7683 74.4602C64.2889 74.7083 63.5952 74.9998 63.5789 75.7611C63.556 76.8366 65.6933 78.3651 66.663 77.9078C68.1125 77.2242 69.5972 76.6496 71.1307 76.1982C71.6412 76.0479 71.9731 75.8066 71.8863 75.0149ZM158.712 84.6884C156.638 84.6808 154.599 84.3915 152.604 83.8455C151.809 83.6282 151.485 83.8269 151.563 84.6458C151.643 85.4969 151.682 86.3548 151.815 87.1976C152.122 89.1346 152.297 91.1045 153.077 93.1402C155.237 91.3243 157.796 90.629 160.304 89.732C159.97 88.9623 159.651 88.3386 159.427 87.6827C159.188 86.9806 159.119 86.2393 159.156 85.4922C159.17 85.2181 159.155 84.942 158.712 84.6884ZM131.608 105.208C131.983 103.723 130.423 99.9012 129.128 99.1324C128.278 98.6284 127.17 98.9557 126.422 99.9584C126.56 99.9584 126.672 99.968 126.783 99.9567C127.208 99.9133 127.722 99.5084 127.985 100.176C128.2 100.723 127.69 100.898 127.378 101.165C127.013 101.479 126.504 101.709 126.629 102.352C127.102 102.585 127.795 101.966 128.086 102.701C128.385 103.455 127.316 103.476 127.264 104.078C127.676 104.29 128.384 103.968 128.436 104.761C128.479 105.416 127.506 105.352 127.559 106.102C128.441 106.803 129.816 105.373 130.517 106.908C130.934 106.271 131.23 105.819 131.608 105.208ZM124.61 100.009C125.514 97.9686 127.773 97.8826 129.4 96.8521C128.131 96.2827 126.972 96.7662 125.807 96.8225C123.101 96.9532 123.398 97.89 124.348 99.6215C124.404 99.7231 124.474 99.8169 124.61 100.009ZM126.352 108.617C126.967 108.711 127.583 108.795 128.197 108.9C129.59 109.137 129.784 108.968 129.847 107.313C127.945 107.763 126.05 108.005 124.184 107.093C124.126 108.801 125.323 108.425 126.352 108.617ZM124.146 101.859C123.677 100.941 123.331 101.631 123.128 102.002C122.412 103.308 122.893 104.515 123.647 106.001C123.839 104.471 124.236 103.279 124.146 101.859ZM125.691 104.564C125.597 104.259 125.879 103.878 125.442 103.55C125.331 104.012 125.175 104.411 125.154 104.818C125.13 105.268 124.668 105.819 125.349 106.164C125.56 106.271 125.841 106.333 125.998 106.125C126.407 105.583 125.833 105.202 125.691 104.564Z" fill="#122315"/>
<path d="M111.089 89.0622C111.544 88.8104 111.892 88.4228 112.463 88.7216C112.391 89.5345 111.712 89.6211 111.169 89.6958C110.827 89.743 110.809 89.3839 111.089 89.0622Z" fill="#122315"/>
<path d="M92.3301 133.456C94.6797 134.436 97.1302 134.354 99.7667 134.543C97.7241 136.214 89.5333 134.068 88.1016 131.603C89.7527 131.884 90.8323 133.071 92.3301 133.456Z" fill="#122315"/>
<path d="M105.469 137.159C105.343 136.597 105.75 136.552 106.066 136.441C109.333 135.291 112.416 133.84 114.778 131.187C114.912 131.036 115.096 130.967 115.304 131.07C115.501 131.228 115.462 131.436 115.337 131.584C112.752 134.652 109.398 136.387 105.469 137.159Z" fill="#122315"/>
<path d="M84.4151 105.295C84.8344 105.214 85.2021 105.021 85.3679 105.525C83.9196 106.884 78.5843 106.521 77.1875 104.641C79.7305 105.301 81.9971 105.96 84.4151 105.295Z" fill="#122315"/>
<path d="M72.5727 91.8134C69.7908 91.0499 68.0223 89.702 68.0156 88.0664C69.1257 89.0422 70.0047 90.0071 71.1887 90.5781C72.3852 91.155 73.7482 90.904 75.1601 91.4022C74.2523 92.1562 73.4352 91.8248 72.5727 91.8134Z" fill="#122315"/>
<path d="M103.585 105.373C101.515 105.57 99.5278 105.835 97.6323 104.977C97.1413 104.755 96.51 104.619 96.4141 103.496C98.9583 105.241 101.634 104.766 104.222 104.615C104.347 105.272 103.928 105.224 103.585 105.373Z" fill="#122315"/>
<path d="M130.599 112.647C130.51 113.089 130.225 113.056 129.957 112.99C127.996 112.507 126.037 112.016 124.078 111.524C123.881 111.474 123.732 111.353 123.68 111.142C124.371 110.733 129.024 111.693 130.599 112.647Z" fill="#122315"/>
<path d="M71.0059 80.133C70.0642 80.5302 69.219 80.9247 68.3499 81.2568C67.5356 81.568 66.9704 82.4565 65.8828 82.4423C66.5796 80.912 70.669 79.0032 72.3769 79.3249C72.2077 80.0385 71.5164 79.8625 71.0059 80.133Z" fill="#122315"/>
<path d="M85.1226 99.0964C85.2278 100.52 85.7003 101.87 84.7981 103.147C84.5103 101.28 84.5264 99.3993 84.0391 97.3467C85.1043 97.7503 84.9008 98.4841 85.1226 99.0964Z" fill="#122315"/>
<path d="M93.8068 117.299C94.719 117.336 95.5294 117.363 96.3382 117.414C96.4164 117.419 96.4852 117.572 96.5583 117.656C95.7861 118.337 93.7452 118.302 92.9297 117.603C93.0623 117.185 93.4186 117.327 93.8068 117.299Z" fill="#122315"/>
<path d="M91.1562 119.162C91.1583 118.922 91.2618 118.681 91.3848 118.782C92.2889 119.518 93.2415 120.185 94.4529 120.732C93.2713 121.245 92.2628 120.713 91.1562 119.162Z" fill="#122315"/>
<path d="M120.835 122.739C121.068 123.031 121.411 123.175 121.3 123.562C120.215 123.664 119.492 122.7 119.79 121.487C120.42 121.646 120.406 122.333 120.835 122.739Z" fill="#122315"/>
<path d="M121.719 119.533C122.136 120.054 121.883 120.304 121.453 120.139C120.768 119.877 120.224 119.4 120.425 118.459C121.099 118.558 121.201 119.234 121.719 119.533Z" fill="#122315"/>
<path d="M87.3843 101.391C86.7479 101.099 86.5149 100.648 86.6577 99.8984C87.3974 100.216 87.7326 100.623 87.3843 101.391Z" fill="#122315"/>
<path d="M97.2344 157.303C97.6986 156.455 98.1027 157.169 98.4238 157.361C100.743 158.747 103.179 159.833 105.811 160.466C109.148 161.268 112.507 161.258 115.883 160.768C116.264 160.713 116.715 160.406 117.053 160.928C116.973 161.509 116.467 161.497 116.087 161.553C109.584 162.509 103.471 161.477 97.8705 157.909C97.646 157.766 97.4608 157.562 97.2344 157.303Z" fill="#122315"/>
<path d="M105.029 166.596C108.713 169.157 112.526 171.05 117.126 170.623C117.73 170.567 118.376 170.122 119.008 170.598C118.955 171.273 118.424 171.201 118.05 171.269C115.078 171.809 112.249 171.253 109.518 170.074C107.036 169.002 104.814 167.5 102.699 165.833C102.461 165.646 102.202 165.461 102.156 164.826C103.396 165.066 104.055 166.043 105.029 166.596Z" fill="#122315"/>
<path d="M104.175 145.781C100.958 145.806 97.8631 145.671 94.9453 144.383C99.069 144.641 103.193 144.898 107.379 145.16C106.427 145.901 105.303 145.612 104.175 145.781Z" fill="#122315"/>
<path d="M129.873 165.875C128.126 167.382 126.813 167.987 125.699 167.634C127.283 166.795 128.83 165.898 130.178 164.656C130.61 165.353 130.172 165.548 129.873 165.875Z" fill="#122315"/>
<path d="M94.6665 162.721C94.5883 163.461 94.8821 164.116 94.6162 164.771C93.7045 164.194 93.5533 162.338 94.3017 161.377C94.8537 161.665 94.6094 162.187 94.6665 162.721Z" fill="#122315"/>
<path d="M120.574 159.44C120.868 158.793 121.32 158.563 122.067 158.762C121.743 159.474 121.381 159.893 120.574 159.44Z" fill="#122315"/>
<path d="M134.602 83.2608C135 82.7693 135.385 82.7471 135.311 83.3711C135.235 84.0177 135.093 84.7143 134.583 85.3609C133.852 84.6096 134.462 83.9703 134.602 83.2608Z" fill="#122315"/>
<path d="M136.351 83.7657C136.512 83.3461 136.477 82.8862 137.099 82.8223C137.388 83.6442 137.155 84.2956 136.6 84.9177C136.055 84.6015 136.275 84.2083 136.351 83.7657Z" fill="#122315"/>
<path d="M146.301 96.1185C146.33 95.4303 146.312 94.8107 146.926 94.3066C147.37 95.0703 147.194 95.7555 146.859 96.3751C146.676 96.7124 146.41 96.5525 146.301 96.1185Z" fill="#122315"/>
<path d="M148.809 74.6174C148.729 75.2846 148.866 75.9476 148.246 76.4701C147.696 75.6906 147.943 75.0294 148.328 74.408C148.451 74.2095 148.67 74.3449 148.809 74.6174Z" fill="#122315"/>
<path d="M147.915 96.3675C147.97 95.9793 147.949 95.6293 148.479 95.6172C148.886 96.1919 148.728 96.6996 148.344 97.2023C147.79 97.1057 147.923 96.7453 147.915 96.3675Z" fill="#122315"/>
<path d="M105.437 94.3358C105.245 94.1336 105.086 94.0015 105.013 93.8322C104.761 93.2502 104.808 92.6881 105.299 92.2494C105.756 91.841 106.301 91.8225 106.787 92.1683C107.27 92.5124 107.412 93.0408 107.248 93.6099C107.065 94.2457 106.623 94.5624 105.951 94.5071C105.802 94.4948 105.656 94.4297 105.437 94.3358Z" fill="#122315"/>
<path d="M122.061 88.8964C121.312 88.9738 120.662 89.0471 120.01 89.0896C119.684 89.1108 119.377 89.023 119.333 88.626C119.29 88.2456 119.544 88.0491 119.867 87.9883C120.546 87.8605 121.231 87.7681 121.915 87.668C122.353 87.604 122.826 87.5771 122.94 88.1255C123.062 88.7064 122.606 88.8179 122.061 88.8964Z" fill="#122315"/>
<path d="M120.224 91.4758C119.69 91.4398 119.223 91.3768 119.287 90.7856C119.346 90.2473 119.823 90.3199 120.198 90.3308C120.778 90.3476 121.708 89.7997 121.768 90.8162C121.82 91.7026 120.862 91.3609 120.224 91.4758Z" fill="#122315"/>
<path d="M119.656 93.4105C119.808 92.4108 120.52 92.6845 121.08 92.6943C121.319 92.6985 121.459 92.9452 121.469 93.1911C121.48 93.4387 121.356 93.6541 121.119 93.7256C120.611 93.8793 120.078 94.0822 119.656 93.4105Z" fill="#122315"/>
<path d="M1038.2 188.168C1043.36 185.277 1049.64 185.277 1054.8 188.168L1067.42 195.25C1069.89 196.636 1072.67 197.381 1075.51 197.417L1089.98 197.596C1095.89 197.669 1101.33 200.812 1104.35 205.892L1111.74 218.337C1113.19 220.774 1115.23 222.809 1117.66 224.257L1130.11 231.649C1135.19 234.667 1138.33 240.111 1138.4 246.019L1138.58 260.493C1138.62 263.327 1139.36 266.107 1140.75 268.579L1147.83 281.203C1150.72 286.357 1150.72 292.643 1147.83 297.797L1140.75 310.421C1139.36 312.893 1138.62 315.673 1138.58 318.507L1138.4 332.981C1138.33 338.89 1135.19 344.334 1130.11 347.351L1117.66 354.743C1115.23 356.191 1113.19 358.226 1111.74 360.663L1104.35 373.108C1101.33 378.188 1095.89 381.332 1089.98 381.405L1075.51 381.583C1072.67 381.619 1069.89 382.364 1067.42 383.751L1054.8 390.832C1049.64 393.723 1043.36 393.723 1038.2 390.832L1025.58 383.751C1023.11 382.364 1020.33 381.619 1017.49 381.583L1003.02 381.405C997.111 381.332 991.667 378.188 988.649 373.108L981.257 360.663C979.809 358.226 977.774 356.191 975.337 354.743L962.892 347.351C957.812 344.334 954.669 338.89 954.596 332.981L954.416 318.507C954.381 315.673 953.636 312.893 952.25 310.421L945.168 297.797C942.277 292.643 942.277 286.357 945.168 281.203L952.25 268.579C953.636 266.107 954.381 263.327 954.416 260.493L954.596 246.019C954.669 240.111 957.812 234.667 962.892 231.649L975.337 224.257C977.774 222.809 979.809 220.774 981.257 218.337L988.649 205.892C991.667 200.812 997.111 197.669 1003.02 197.596L1017.49 197.417C1020.33 197.381 1023.11 196.636 1025.58 195.25L1038.2 188.168Z" fill="#AEFFE4"/>
<g clip-path="url(#clip1_811_11602)">
<path d="M1012.79 218.67C1006.7 217.787 1000.71 216.928 994.722 216.065C992.608 215.76 990.497 215.428 988.379 215.147C987.897 215.083 987.282 214.8 986.952 215.412C986.638 215.994 987.1 216.394 987.447 216.784C992.117 222.041 996.79 227.294 1001.46 232.551C1001.76 232.883 1002.03 233.236 1002.31 233.575C1002.59 233.9 1002.81 234.227 1002.49 234.652C1002.16 235.089 1001.79 235.238 1001.23 235.021C999.122 234.2 997.119 234.488 995.219 235.687C993.744 236.617 992.696 237.926 992.403 239.613C992.202 240.766 991.635 241.05 990.639 241.295C985.617 242.529 983.546 248.106 986.506 252.309C986.987 252.993 987.561 253.582 988.461 253.85C988.484 253.208 988.011 253.012 987.742 252.699C984.503 248.923 985.839 243.387 990.493 242.165C992.208 241.716 992.836 241.065 993.263 239.418C994.011 236.53 997.131 234.875 1000.16 235.411C1001.93 235.725 1001.93 235.725 1003.27 234.644C1008.64 240.7 1014.01 246.761 1019.32 252.76C1019.1 253.601 1018.14 253.539 1017.98 254.244C1018.07 254.292 1018.15 254.375 1018.19 254.358C1020.04 253.661 1020.05 253.649 1021.44 255.177C1022.85 256.732 1024.27 258.284 1025.62 259.894C1026.25 260.646 1026.81 260.775 1027.7 260.332C1031.93 258.224 1036.21 256.203 1040.43 254.075C1041.4 253.585 1042.13 253.617 1042.95 254.28C1043.64 254.836 1044.4 255.31 1045.15 255.788C1046.81 256.846 1048.5 257.814 1048.92 260.039C1049.08 260.929 1049.85 261.63 1050.44 262.35C1050.74 262.724 1051.08 263.082 1051.07 263.603C1051.02 263.68 1050.98 263.793 1050.93 263.803C1048.7 264.211 1048.53 265.81 1048.41 267.691C1047.87 276.136 1048.6 284.393 1051.67 292.346C1052.93 295.621 1054.67 298.619 1057.24 301.052C1057.9 301.67 1057.61 302.067 1057.2 302.574C1055.24 305.012 1053.03 307.187 1050.56 309.103C1049.11 310.225 1049.07 310.755 1050.44 311.957C1047.78 312.908 1045.12 313.702 1042.54 314.726C1034.32 317.98 1028.19 323.617 1023.61 331.064C1022.25 333.267 1020.94 335.493 1019.57 337.69C1019.11 338.437 1018.73 339.226 1018.93 340.083C1019.15 340.972 1018.03 341.73 1018.94 342.676C1018.43 342.579 1018.19 342.029 1017.75 342.454C1017.32 342.869 1017.7 343.279 1017.76 343.707C1017.36 343.64 1017.34 342.989 1016.84 343.23C1016.43 343.431 1016.49 343.82 1016.49 344.36C1016.14 343.962 1015.92 343.587 1015.41 343.692C1014.9 343.797 1014.81 344.155 1014.7 344.62C1014.34 344.323 1014.47 343.778 1013.93 343.599C1012.79 343.217 1011.69 342.68 1010.56 342.238C1009.72 341.909 1008.87 341.889 1008.17 342.529C1007.47 343.165 1007.45 343.999 1007.65 344.886C1008.3 347.789 1010.21 349.794 1012.45 351.517C1013.65 352.442 1015.04 353.138 1016.32 353.931C1017.28 354.533 1018.27 355.215 1019.28 355.811C1020.15 356.321 1020.69 356.157 1021.24 355.26C1022.55 353.126 1024 351.073 1025.35 348.96C1025.8 348.242 1026.26 348.091 1027.03 348.505C1027.81 348.92 1028.66 349.23 1029.51 349.479C1031.41 350.038 1032.5 349.534 1033.39 347.776C1033.51 347.523 1033.66 347.273 1033.74 347.006C1034.23 345.468 1035.19 344.598 1036.88 344.44C1038.54 344.284 1039.44 343.193 1039.66 341.555C1039.76 340.786 1039.98 340.059 1040.87 339.972C1041.74 339.886 1042.66 339.827 1043.2 340.811C1043.79 341.882 1044.84 342.316 1045.91 342.714C1047.58 343.329 1047.85 343.773 1047.76 345.509C1047.62 348.173 1048.51 349.562 1051 350.515C1051.64 350.76 1052.31 350.934 1052.96 351.13C1054.41 351.561 1055.59 352.279 1056.29 353.717C1057.27 355.722 1059.16 355.553 1060.95 355.419C1061.67 355.364 1062.37 355.311 1063.12 355.42C1062.82 355.666 1062.49 355.862 1062.74 356.309C1063.21 357.138 1063.82 356.278 1064.36 356.424C1062.87 357.48 1062.68 358.753 1063.96 359.679C1063.16 359.633 1062.6 359.817 1062.59 360.715C1063.19 361.131 1063.91 361.347 1064.59 361.433C1065.67 361.568 1065.91 360.63 1066.06 359.85C1066.44 357.854 1066.09 355.914 1065.39 354.029C1065.27 353.701 1065.13 353.38 1065.11 353.031C1066.26 355.41 1066.92 357.882 1066.14 360.53C1065.8 361.682 1065.17 361.936 1064 361.577C1062.14 361.01 1060.42 362.41 1060.55 364.372C1060.61 365.406 1061.33 366.033 1062.5 366.132C1064.63 366.311 1066.48 365.493 1068.18 364.369C1070.22 363.027 1071.83 361.243 1073.4 359.368C1074.17 358.452 1075.05 357.596 1075.79 356.624C1076.44 355.778 1076.41 355.175 1075.53 354.5C1073.56 352.999 1071.91 351.16 1070.18 349.394C1069.69 348.885 1069.47 348.428 1069.73 347.681C1070.17 346.379 1069.72 345.201 1068.86 344.203C1068.36 343.625 1067.79 343.094 1067.19 342.627C1065.79 341.544 1064.64 340.34 1064.11 338.551C1063.7 337.131 1062.59 336.118 1061.27 335.118C1063.22 334.114 1065.04 333.246 1066.75 332.187C1070.28 329.999 1073.06 327.162 1074.55 323.208C1074.97 322.112 1075.33 320.985 1075.33 319.801C1075.33 319.079 1075.65 318.817 1076.31 318.711C1077.79 318.475 1079.25 318.159 1080.72 317.915C1081.69 317.752 1081.81 317.233 1081.42 316.449C1079.59 312.783 1079.15 308.815 1078.99 304.808C1078.93 303.33 1078.58 301.851 1078.81 300.375C1079.35 300.141 1079.74 300.442 1080.13 300.592C1084.04 302.087 1089.64 300.308 1091.17 295.602C1091.38 294.962 1091.7 294.282 1092.17 293.821C1093.24 292.771 1093.59 291.791 1092.15 290.673C1094.78 290.493 1094.77 290.492 1094.99 287.967C1095.08 287.005 1095.2 286.041 1095.39 285.095C1095.58 284.181 1095.25 283.635 1094.43 283.26C1092.95 282.577 1091.5 282.84 1090.09 283.429C1089.08 283.848 1088.14 284.409 1087.15 284.863C1084.33 286.151 1082.86 285.554 1081.79 282.658C1081.24 281.179 1080.78 279.667 1079.88 278.351C1077.61 275.031 1073.62 273.936 1069.92 275.604C1069.78 275.668 1069.63 275.715 1069.52 275.759C1069.18 275.591 1069.25 275.315 1069.27 275.094C1069.46 272.242 1069.09 269.376 1069.5 266.53C1069.53 266.333 1069.57 266.066 1069.47 265.935C1068.52 264.709 1069.31 263.643 1069.78 262.574C1070.51 260.904 1070.49 259.357 1069.19 257.964C1068.53 257.251 1068.51 256.528 1068.88 255.637C1071.42 249.65 1073.93 243.647 1076.43 237.644C1076.67 237.072 1077.07 236.762 1077.63 236.537C1081.82 234.844 1086.01 233.131 1090.19 231.424C1090.38 231.348 1090.57 231.272 1090.75 231.178C1091.09 230.999 1091.35 230.748 1091.3 230.325C1091.24 229.926 1090.89 229.83 1090.58 229.779C1089.26 229.56 1087.95 229.362 1086.63 229.176C1082.48 228.591 1078.32 228.016 1074.17 227.431C1074.06 227.416 1073.96 227.33 1073.7 227.198C1074.66 225.892 1075.85 225.088 1077.41 224.947C1078.28 224.867 1078.61 224.546 1078.8 223.66C1079.49 220.328 1082.43 218.619 1085.68 219.611C1086.4 219.832 1086.83 219.741 1087.35 219.157C1089.3 216.97 1092.25 216.301 1094.86 217.355C1097.61 218.464 1099.27 221.009 1099.14 224.026C1099.12 224.698 1099.29 225.013 1099.94 225.284C1102.15 226.215 1103.4 227.851 1103.39 230.335C1103.37 232.865 1102.02 234.462 1099.81 235.469C1099.47 235.626 1099.01 235.628 1098.84 236.153C1099.42 236.481 1099.96 236.225 1100.44 236.004C1102.53 235.044 1103.89 233.458 1104.17 231.142C1104.49 228.541 1103.56 226.391 1101.26 225.082C1100.2 224.474 1099.88 223.82 1099.8 222.639C1099.6 219.816 1098 217.798 1095.45 216.697C1092.5 215.425 1089.72 215.961 1087.34 218.095C1086.66 218.708 1086.14 218.88 1085.23 218.653C1082.06 217.864 1078.91 219.898 1078.18 223.17C1078.03 223.831 1077.79 224.171 1077.14 224.276C1075.59 224.531 1074.35 225.314 1073.41 226.557C1073.02 227.07 1072.62 227.187 1071.96 227.093C1061.34 225.568 1050.71 224.091 1040.08 222.584C1031.02 221.299 1021.96 219.99 1012.79 218.67ZM1067.5 284.307C1067.5 284.307 1067.5 284.316 1067.53 284.146C1067.89 283.637 1067.3 282.844 1068.07 282.37C1068.32 282.893 1068.68 283.564 1069.19 283.082C1069.73 282.576 1070.48 282.729 1070.91 282.076C1071.57 283.048 1072.56 283.756 1071.89 285.047C1071.73 285.356 1071.82 285.686 1072.15 285.884C1072.5 286.092 1072.76 285.912 1073 285.665C1073.31 285.346 1073.59 285.001 1073.93 284.712C1074.46 284.252 1075.09 283.751 1075.69 284.515C1076.27 285.258 1076.02 285.999 1075.23 286.452C1073.99 287.16 1073.66 288.319 1073.5 289.596C1073.45 290.016 1073.63 290.486 1073.22 290.899C1072.62 290.757 1071.99 290.642 1071.39 290.455C1070.74 290.256 1070.11 290.493 1069.23 290.618C1069.61 290.228 1069.78 290.064 1069.94 289.881C1070.61 289.074 1070.49 288.661 1069.49 288.338C1067.52 287.702 1066.89 286.406 1067.5 284.307ZM1065.03 342.631C1065.96 343.338 1066.91 344.026 1067.71 344.901C1068.57 345.85 1068.78 346.941 1068.11 348.021C1066.48 350.618 1064.23 352.58 1061.47 353.871C1059.75 354.678 1058.05 354.193 1057.32 352.824C1056.47 351.229 1055.12 350.406 1053.47 349.919C1052.47 349.622 1051.44 349.366 1050.54 348.799C1049.51 348.152 1048.87 347.272 1049.02 345.996C1049.32 343.331 1048.71 342.347 1046.19 341.402C1045.53 341.153 1044.78 340.99 1044.48 340.095C1046.21 339.355 1046.81 337.87 1047.06 336.159C1047.17 335.401 1047.28 334.64 1047.45 333.893C1047.91 331.841 1049.9 329.882 1051.8 329.635C1051.95 330.909 1053.02 332.094 1052.19 333.459C1050.99 335.463 1051.29 337.374 1052.39 339.298C1053.04 340.434 1053.4 341.635 1053.3 343C1053.21 344.286 1053.93 345.238 1055.1 345.768C1055.72 346.05 1056.38 346.282 1057.05 346.421C1058.73 346.77 1059.99 347.506 1060.24 349.394C1060.31 349.865 1060.6 350.302 1061.02 350.588C1061.43 350.868 1061.86 351.081 1062.33 350.459C1061.54 349.966 1060.95 349.362 1060.82 348.419C1060.63 347.159 1059.79 346.44 1058.65 346.044C1057.77 345.739 1056.87 345.509 1055.98 345.229C1054.83 344.863 1054.13 344.158 1054.17 342.847C1054.21 341.269 1053.75 339.816 1052.94 338.471C1052.1 337.08 1051.97 335.673 1052.8 334.223C1053.42 333.133 1053.41 331.998 1053.03 330.827C1052.64 329.649 1052.95 329.098 1054.12 328.759C1054.51 328.649 1054.91 328.573 1055.31 328.519C1059.41 327.965 1063.29 326.814 1066.69 324.361C1068.14 323.309 1069.47 322.141 1070.07 320.357C1070.24 319.872 1070.38 319.344 1069.75 319.136C1069.18 318.948 1068.99 319.435 1068.83 319.868C1068.36 321.223 1067.41 322.205 1066.28 323.02C1064.29 324.449 1062.12 325.497 1059.79 326.234C1057.5 326.956 1055.1 327.061 1052.79 327.648C1048.78 328.669 1046.35 331.185 1045.89 334.848C1045.77 335.734 1045.68 336.613 1045.35 337.446C1044.98 338.37 1044.29 338.98 1043.29 338.79C1041.21 338.392 1038.97 339.059 1037.01 337.843C1036.8 337.712 1036.55 337.7 1036.31 338.039C1036.7 339.237 1038.15 338.878 1038.86 339.617C1038.71 340.071 1038.48 340.481 1038.44 340.909C1038.3 342.471 1037.46 343.153 1035.93 343.276C1034.42 343.397 1033.45 344.357 1032.82 345.688C1032.58 346.199 1032.37 346.726 1032.13 347.238C1031.69 348.194 1030.94 348.506 1029.94 348.207C1026.06 347.046 1023.09 344.636 1020.76 341.412C1020.02 340.405 1020.08 339.355 1020.8 338.258C1022 336.436 1023.1 334.547 1024.21 332.669C1027.34 327.377 1031.27 322.82 1036.42 319.402C1040.4 316.76 1044.9 315.292 1049.35 313.688C1051.79 312.809 1053.9 312.876 1056.29 313.937C1060.76 315.926 1065.42 317.411 1070.32 317.976C1071 318.055 1071.7 318.09 1072.38 318.064C1073.39 318.024 1073.02 316.896 1073.64 316.358C1074.32 317.942 1074.16 319.508 1073.82 321.011C1072.84 325.267 1070.21 328.361 1066.62 330.667C1063.38 332.748 1059.87 334.319 1056.36 335.876C1055.89 336.085 1055.22 336.256 1055.53 336.949C1055.83 337.6 1056.42 337.276 1056.91 337.098C1057.53 336.875 1058.1 336.473 1058.92 336.404C1058.16 338.023 1056.77 338.863 1055.71 340.021C1057.98 339.637 1059.08 337.895 1060.18 336.154C1061.62 336.815 1062.52 337.884 1062.97 339.272C1063.32 340.372 1063.85 341.347 1064.66 342.351C1064.74 342.42 1064.82 342.489 1065.03 342.631ZM1036.92 254.313C1033.91 255.779 1030.88 257.229 1027.88 258.723C1027.14 259.091 1026.65 259.005 1026.1 258.37C1023.68 255.601 1021.21 252.882 1018.78 250.128C1009.7 239.865 1000.64 229.596 991.567 219.327C991.085 218.781 990.621 218.22 990.149 217.666C990.203 217.612 990.257 217.558 990.312 217.505C1013.35 226.044 1036.4 234.584 1059.7 243.222C1051.96 246.987 1044.52 250.607 1036.92 254.313ZM1047.86 229.085C1033.79 225.804 1019.73 222.523 1005.67 219.242C1005.68 219.165 1005.69 219.088 1005.71 219.011C1032.98 222.902 1060.26 226.793 1087.54 230.685C1087.53 230.806 1087.53 230.928 1087.53 231.05C1083.57 232.592 1079.7 234.358 1075.64 235.783C1075.69 235.998 1075.49 236.437 1075.3 236.882C1072.72 243.025 1070.29 249.239 1067.46 255.266C1066.72 256.843 1065.84 258.096 1065.73 260.009C1065.64 261.803 1064.45 263.54 1063.73 265.297C1063.58 265.674 1063.38 266.054 1062.88 266.025C1062.4 265.999 1061.94 265.83 1061.8 265.375C1061.46 264.32 1060.75 263.7 1059.64 263.394C1059.83 262.784 1060.01 262.255 1060.16 261.717C1060.81 259.303 1061.31 256.915 1059.64 254.646C1059.29 254.168 1059.04 253.693 1058.38 253.672C1057.74 253.652 1057.32 253.995 1057.04 254.533C1056.91 254.774 1056.81 255.03 1056.68 255.313C1056.05 254.812 1055.84 254.089 1055.47 253.477C1055.01 252.714 1054.62 251.906 1053.91 251.338C1053.43 250.957 1052.76 250.691 1052.39 251.202C1051.93 251.848 1051.21 252.153 1050.77 252.709C1050.35 253.237 1049.48 253.338 1049.38 253.969C1049.22 254.925 1048.49 255.318 1047.94 256.042C1046.38 254.963 1044.89 253.927 1043.23 252.772C1049.06 249.923 1054.61 247.202 1060.17 244.504C1062.11 243.564 1063.15 244.221 1063.06 246.365C1062.83 251.689 1062.55 257.011 1062.3 262.335C1062.28 262.786 1062.1 263.428 1062.81 263.498C1063.54 263.571 1063.6 262.936 1063.62 262.405C1063.89 256.96 1064.18 251.516 1064.41 246.069C1064.49 244.127 1063.95 243.393 1062.1 242.707C1044.72 236.243 1027.34 229.794 1009.96 223.334C1006.39 222.01 1002.84 220.659 999.28 219.32C1005.69 220.661 1012.05 222.102 1018.41 223.581C1035.79 227.621 1053.16 231.678 1070.53 235.726C1070.84 235.799 1071.16 235.863 1071.48 235.892C1071.83 235.925 1072.13 235.837 1072.2 235.422C1072.27 235.043 1072.08 234.796 1071.74 234.67C1071.48 234.573 1071.21 234.496 1070.93 234.432C1063.31 232.664 1055.68 230.9 1047.86 229.085ZM1060.62 303.532C1061.05 303.741 1061.5 303.905 1061.78 303.37C1062.06 302.825 1061.61 302.573 1061.22 302.336C1059.25 301.111 1057.49 299.644 1056.14 297.732C1055.93 297.444 1055.54 297.075 1055.82 296.772C1056.4 296.119 1056.1 295.486 1055.94 294.841C1055.56 293.337 1055.77 291.883 1056.24 290.441C1056.37 290.052 1056.71 289.637 1056.08 289.155C1054.69 291.013 1054.97 293.161 1054.89 295.251C1054.35 295.137 1054.3 294.682 1054.11 294.356C1052.61 291.733 1051.78 288.862 1051.09 285.951C1049.58 279.565 1049.34 273.093 1049.86 266.572C1049.93 265.63 1050.51 265.36 1051.28 265.217C1054 264.714 1056.76 265.032 1059.5 264.981C1060.41 264.964 1060.56 265.699 1060.34 266.361C1059.85 267.825 1060.01 269.311 1059.97 270.802C1059.9 273.729 1060.17 276.689 1059.24 279.548C1059.11 279.952 1059.31 280.265 1059.64 280.474C1060.72 281.155 1061.3 282.229 1061.82 283.321C1063.27 286.347 1064.67 289.393 1066.08 292.433C1066.25 292.801 1066.4 293.346 1066.84 293.256C1067.7 293.08 1068.63 293.313 1069.38 292.454C1070.57 291.085 1073.46 291.803 1074.04 293.511C1074.62 295.249 1075.41 296.889 1076.67 298.24C1077.21 298.825 1077.37 299.423 1077.41 300.19C1077.66 305.467 1077.64 310.789 1079.63 315.816C1079.91 316.511 1079.6 316.76 1079 316.936C1076.39 317.698 1076.15 317.621 1074.55 315.402C1074.5 315.336 1074.46 315.267 1074.41 315.204C1074.09 314.813 1073.92 314.178 1073.26 314.289C1072.65 314.391 1072.43 314.984 1072.35 315.465C1072.11 316.808 1071.28 316.78 1070.21 316.642C1066.09 316.113 1062.18 314.83 1058.33 313.359C1055.98 312.46 1053.65 311.474 1051.15 310.459C1053.45 308.597 1055.34 306.629 1057.29 304.676C1057.93 305.778 1057.39 307.206 1058.61 308.271C1058.97 306.689 1057.91 305.391 1058.66 304.098C1059.41 304.74 1059.34 306.132 1060.69 306.45C1060.69 305.129 1059.47 304.422 1059.66 303.27C1060.01 303.119 1060.23 303.333 1060.62 303.532ZM1061.3 269.114C1061.33 268.489 1061.14 267.813 1061.7 267.29C1062.42 267.332 1063.15 267.565 1063.85 267.221C1064.62 266.841 1065.43 266.653 1066.3 266.675C1067.06 266.694 1067.58 266.49 1067.02 265.505C1068.19 265.972 1068.19 265.971 1067.95 266.893C1067.89 267.125 1067.79 267.374 1067.82 267.598C1068.39 271.377 1067.6 275.175 1067.98 278.943C1068.12 280.349 1067.58 281.13 1066.53 281.804C1066.16 282.038 1065.62 282.401 1065.82 282.823C1066.34 283.895 1065.85 284.952 1065.95 286.007C1066.06 287.106 1066.49 288.029 1067.25 288.801C1068.24 289.808 1068.28 290.438 1067.28 291.723C1066.61 290.278 1066 288.887 1065.33 287.526C1064.19 285.213 1063.29 282.767 1061.74 280.681C1061.2 279.945 1060.96 279.273 1060.99 278.374C1061.11 275.358 1061.7 272.358 1061.3 269.114ZM1051.77 261.863C1050.68 260.431 1049.47 259.051 1049.61 256.899C1050.82 257.207 1051.3 256.766 1050.79 255.4C1051.92 256.569 1052.85 255.599 1053.43 255.294C1054.39 254.785 1053.19 253.744 1053.4 252.712C1054.21 254.06 1054.94 255.284 1055.69 256.493C1056.11 257.167 1056.72 257.636 1057.48 257.861C1057.83 257.964 1058.21 257.998 1058.49 257.668C1058.73 257.382 1058.67 257.077 1058.52 256.763C1058.33 256.367 1058.18 255.957 1058.27 255.405C1059.09 256.375 1059.65 257.345 1059.41 258.604C1059.25 259.475 1059.13 260.359 1058.9 261.211C1058.25 263.612 1058.23 263.607 1055.7 263.606C1055.38 263.606 1055.05 263.564 1054.73 263.613C1053.35 263.828 1052.3 263.492 1051.77 261.863ZM1066.76 262.065C1067.68 261.513 1068.04 260.501 1067.63 259.536C1067.41 259.007 1067.09 258.507 1067.2 257.806C1069.28 259.754 1069.43 261.249 1067.83 263.622C1067.29 264.412 1066.62 264.132 1065.93 263.882C1066 263.189 1066.21 262.636 1066.76 262.065ZM1012.7 346.265C1011.43 345.439 1011.35 345.24 1011.85 343.812C1011.29 346.128 1013.3 346.126 1014.46 346.863C1015.94 347.804 1017.26 346.877 1018.83 346.203C1016.68 348.105 1014.77 347.519 1012.7 346.265Z" fill="black"/>
<path d="M1064.61 342.294C1064.47 342.322 1064.33 342.392 1064.3 342.492C1063.86 344.234 1064.36 346.021 1063.7 347.756C1063.93 347.78 1064.16 347.804 1064.39 347.829C1065.1 346.227 1065.2 344.521 1064.9 342.654C1064.82 342.489 1064.74 342.42 1064.61 342.294Z" fill="black"/>
<path d="M1039.73 329.307C1039.04 330.762 1037.94 331.566 1036.51 331.996C1035.66 332.252 1034.81 332.52 1034 332.868C1032.4 333.552 1031.32 334.673 1031.3 336.531C1031.29 337.599 1030.54 338.086 1029.75 338.517C1028.19 339.365 1026.86 340.459 1026.01 342.042C1025.8 342.433 1025.41 342.849 1025.83 343.349C1026.35 343.426 1026.44 342.985 1026.59 342.699C1027.44 341.16 1028.67 340.023 1030.24 339.259C1031.48 338.656 1032.18 337.715 1032.16 336.301C1032.15 335.555 1032.5 334.987 1033.02 334.502C1033.44 334.114 1033.89 333.707 1034.44 333.601C1038.05 332.913 1040.19 330.633 1041.85 327.465C1043.46 324.407 1046.36 322.574 1049.43 321.079C1051.6 320.017 1053.84 319.057 1055.86 317.702C1056.35 317.371 1057.05 317.155 1057.08 316.39C1056.69 316.102 1056.42 316.307 1056.16 316.494C1053.77 318.199 1051.06 319.287 1048.47 320.602C1044.64 322.545 1041.63 325.311 1039.73 329.307Z" fill="black"/>
<path d="M1029.25 328.351C1028.63 330.656 1028.29 332.873 1028.87 335.1C1029.07 335.123 1029.28 335.147 1029.49 335.171C1029.19 331.808 1029.75 328.614 1031.07 325.519C1029.94 326.137 1029.7 327.254 1029.25 328.351Z" fill="black"/>
<path d="M1027.54 333.141C1027.43 332.476 1027.96 331.88 1027.49 331.316C1026.46 332.037 1026.31 335.062 1027.34 336.335C1027.84 335.256 1027.35 334.216 1027.54 333.141Z" fill="black"/>
<path d="M1057.81 332.365C1057.15 332.115 1056.82 331.401 1056.08 331.479C1056 332.765 1058.36 333.946 1059.75 333.289C1059.33 332.539 1058.43 332.829 1057.81 332.365Z" fill="black"/>
<path d="M1046.5 329.398C1047.09 329.449 1047.64 329.652 1048.03 328.84C1046.94 328.545 1045.84 328.459 1044.66 327.809C1044.88 329.205 1045.77 329.115 1046.5 329.398Z" fill="black"/>
<path d="M1052.32 346.634C1051.27 346.749 1050.39 346.216 1049.39 346.223C1049.83 347.347 1051.81 347.868 1052.52 347.158C1052.69 346.988 1052.61 346.794 1052.32 346.634Z" fill="black"/>
<path d="M1061.04 337.605C1060.6 337.344 1060.42 337.55 1060.41 337.879C1060.4 338.598 1059.79 339.269 1060.24 340.16C1061.18 339.474 1061.16 338.587 1061.04 337.605Z" fill="black"/>
<path d="M1040.93 317.962C1040.67 318.67 1040.29 319.323 1041 319.92C1041.21 319.245 1042.12 318.583 1040.93 317.962Z" fill="black"/>
<path d="M1066.1 319.215C1065.51 319.433 1065.47 319.768 1065.94 319.967C1066.34 320.137 1066.92 320.481 1067.25 319.949C1067.53 319.483 1066.98 319.392 1066.66 319.278C1066.51 319.226 1066.35 319.229 1066.1 319.215Z" fill="black"/>
<path d="M1039.68 319.914C1039.64 319.488 1039.79 319.072 1039.25 318.902C1038.7 319.359 1038.67 319.967 1039.11 320.427C1039.45 320.782 1039.62 320.348 1039.68 319.914Z" fill="black"/>
<path d="M1017.22 239.093C1016.45 234.479 1011.88 230.894 1008.33 232.228C1009.73 232.545 1011.03 232.677 1012.2 233.334C1014.96 234.891 1016.51 237.18 1016.49 240.382C1016.49 241.398 1016.74 241.943 1017.74 242.377C1020.82 243.71 1022.15 246.559 1021.39 249.817C1021.29 250.275 1021.18 250.734 1021 251.514C1022.41 250.063 1022.34 248.558 1022.11 247.118C1021.72 244.724 1020.52 242.812 1018.21 241.785C1017.58 241.503 1017.26 241.117 1017.33 240.397C1017.37 240.003 1017.28 239.596 1017.22 239.093Z" fill="black"/>
<path d="M1073.53 301.038C1073.4 303.209 1073.29 305.262 1073.12 307.31C1073.01 308.65 1073.15 309.971 1073.28 311.297C1073.31 311.621 1073.38 311.936 1073.76 312.033C1074.71 310.394 1074.49 296.239 1073.38 294.842C1072.88 295.966 1073.58 296.926 1073.52 297.891C1073.45 298.895 1073.53 299.908 1073.53 301.038Z" fill="black"/>
<path d="M1051.06 267.997C1053.75 266.778 1056.5 267.789 1059.5 267.728C1059.1 267.312 1059.01 267.138 1058.89 267.102C1056.49 266.41 1054.06 266.248 1051.64 266.963C1051.23 267.083 1050.43 267.141 1051.06 267.997Z" fill="black"/>
<path d="M1058.64 281.999C1059.16 282.11 1059.58 282.346 1059.98 281.976C1060.1 281.455 1059.73 281.334 1059.38 281.243C1057.93 280.867 1056.46 280.74 1054.98 281.097C1054.66 281.175 1054.28 281.27 1054.35 281.674C1054.44 282.195 1054.88 282.07 1055.22 281.97C1056.33 281.642 1057.44 281.708 1058.64 281.999Z" fill="black"/>
<path d="M1069.41 314.701C1070.09 314.651 1070.72 314.83 1071.34 313.909C1069.31 313.844 1067.55 313.903 1065.77 313.852C1066.81 314.82 1068.07 314.683 1069.41 314.701Z" fill="black"/>
<path d="M1057.45 279.502C1057.93 279.642 1058.32 279.993 1058.73 279.575C1058.17 278.6 1057.11 278.282 1056.12 278.799C1056.29 279.49 1056.98 279.203 1057.45 279.502Z" fill="black"/>
<path d="M1062.49 278.825C1063.25 276.908 1064.73 275.788 1066.36 274.887C1066.07 274.247 1065.7 274.396 1065.38 274.55C1063.84 275.288 1062.69 276.428 1062.03 278.012C1061.87 278.38 1061.62 278.899 1062.49 278.825Z" fill="black"/>
<path d="M1067.51 284.302C1067.45 284.783 1067.39 285.283 1067.96 285.517C1068.28 285.647 1068.6 285.576 1068.82 285.289C1069.07 284.975 1069.11 284.607 1068.87 284.295C1068.51 283.83 1068.07 283.859 1067.57 284.27C1067.5 284.316 1067.51 284.306 1067.51 284.302Z" fill="black"/>
</g>
</g>
<defs>
<clipPath id="clip0_811_11602">
<rect width="1300" height="350" fill="white"/>
</clipPath>
<clipPath id="clip1_811_11602">
<rect width="155.25" height="155.25" fill="white" transform="matrix(-1 0 0 1 1123.78 211.53)"/>
</clipPath>
</defs>
</svg>
