<svg xmlns="http://www.w3.org/2000/svg" width="168" height="168" viewBox="0 0 168 168" fill="none">
<g clip-path="url(#clip0_800_7726)">
<mask id="mask0_800_7726" style="mask-type:luminance" maskUnits="userSpaceOnUse" x="0" y="0" width="168" height="168">
<path d="M168 0H0V168H168V0Z" fill="white"/>
</mask>
<g mask="url(#mask0_800_7726)">
<mask id="mask1_800_7726" style="mask-type:luminance" maskUnits="userSpaceOnUse" x="-20" y="-23" width="208" height="214">
<path d="M138.195 -22.0912L-20 31.4199L29.7545 190.836L187.949 137.325L138.195 -22.0912Z" fill="white"/>
</mask>
<g mask="url(#mask1_800_7726)">
<path d="M108.701 163.599C152.121 148.912 176.25 101.535 162.593 57.7794C148.937 14.0242 102.668 -9.54009 59.2481 5.1472C15.8281 19.8345 -8.30026 67.2115 5.35596 110.967C19.0122 154.722 65.2816 178.286 108.701 163.599Z" fill="#55DD4A"/>
<path d="M108.852 164.081C65.2357 178.835 18.5947 155.081 4.87691 111.129C-8.84089 67.1761 15.4813 19.4186 59.097 4.665C102.713 -10.0885 149.354 13.665 163.072 57.6176C176.79 101.57 152.468 149.328 108.852 164.081ZM59.3967 5.62524C16.3084 20.2003 -7.72208 67.3854 5.82979 110.806C19.3816 154.227 65.4636 177.696 108.552 163.121C151.64 148.546 175.671 101.361 162.119 57.9399C148.567 14.519 102.485 -8.94982 59.3967 5.62524Z" fill="#122315"/>
<path d="M119.485 153.124C157.295 132.453 172.005 84.9302 152.339 46.9786C132.673 9.02705 86.0802 -4.98171 48.2698 15.6892C10.4593 36.36 -4.24996 83.8829 15.4156 121.835C35.0812 159.786 81.6747 173.795 119.485 153.124Z" fill="#122315"/>
<path d="M20.8521 71.7618C18.5516 71.1941 17.2853 69.0267 17.891 66.6671C18.0513 66.0356 18.3249 65.5283 18.771 65.0244L20.6845 65.4953C20.1209 65.848 19.7422 66.3786 19.5798 66.9966C19.2354 68.3362 19.9766 69.5763 21.3261 69.9103C22.664 70.2407 23.9269 69.4954 24.2712 68.1558C24.4317 67.534 24.3484 66.8938 24.0265 66.3205L25.9284 66.788C26.0761 67.4958 26.07 68.0576 25.9133 68.6773C25.3129 71.0095 23.1506 72.3256 20.8501 71.758L20.8521 71.7618Z" fill="#EFE9E0"/>
<path d="M20.859 58.3954L21.5251 56.6787L28.9704 59.5241L28.3044 61.2407L25.2425 60.071L24.2252 62.7001L27.2871 63.8698L26.6211 65.5865L19.1777 62.7449L19.8437 61.0283L22.7049 62.1217L23.7222 59.4926L20.861 58.3992L20.859 58.3954Z" fill="#EFE9E0"/>
<path d="M31.8787 53.9583L30.3682 53.6243L29.0325 56.1192L30.1467 57.1943L29.1941 58.97L23.4883 52.7521L24.5079 50.8516L32.8351 52.1806L31.8825 53.9562L31.8787 53.9583ZM27.8462 54.9807L28.7672 53.2664L25.2534 52.4764L27.8462 54.9807Z" fill="#EFE9E0"/>
<path d="M29.5477 43.0234L30.6141 41.5234L37.0825 46.1823L36.0311 47.6642L30.3615 47.4128L34.2339 50.2011L33.1675 51.701L26.6992 47.0421L27.803 45.4825L33.5346 45.891L29.5515 43.0213L29.5477 43.0234Z" fill="#EFE9E0"/>
<path d="M36.8897 39.4532L39.224 36.9357L41.9271 39.502C41.8749 40.5299 41.5016 41.5034 40.7198 42.3479C39.0053 44.1977 36.5469 44.2848 34.8078 42.6358C33.055 40.9697 33.0256 38.4679 34.7194 36.6441C35.1641 36.1655 35.617 35.844 36.13 35.6758L37.5362 37.0124C36.8996 37.1306 36.4089 37.3699 36.0057 37.8062C35.0336 38.8577 35.0796 40.2629 36.1118 41.2458C37.1518 42.2341 38.5701 42.2022 39.5328 41.1608C39.8022 40.8712 39.979 40.5442 40.0958 40.1863L39.1533 39.2915L38.0153 40.522L36.8897 39.4532Z" fill="#EFE9E0"/>
<path d="M43.2124 31.1801L40.8909 33.1666L41.859 34.3365L43.7382 32.7294L44.7494 33.9542L42.8703 35.5613L43.9186 36.8294L46.2402 34.8429L47.2748 36.094L43.5619 39.2735L38.4707 33.1102L42.1836 29.9307L43.2182 31.1818L43.2124 31.1801Z" fill="#EFE9E0"/>
<path d="M51.311 25.6059L49.6948 26.6476L53.0393 32.0967L51.4914 33.0913L48.1468 27.6422L46.5306 28.684L45.6797 27.2979L50.462 24.2236L51.313 25.6097L51.311 25.6059Z" fill="#EFE9E0"/>
<path d="M56.0169 21.3336L57.6505 20.5225L61.0691 27.7972L59.4356 28.6083L58.0292 25.6159L55.5286 26.8626L56.9349 29.855L55.3014 30.6662L51.8828 23.3915L53.5163 22.5804L54.8293 25.374L57.33 24.1273L56.0169 21.3336Z" fill="#EFE9E0"/>
<path d="M64.9221 19.5398L62.0692 20.5679L62.5551 22.0215L64.8648 21.1879L65.3709 22.7089L63.0612 23.5425L63.5855 25.1171L66.4384 24.089L66.9546 25.6387L62.3922 27.2844L59.8398 19.6378L64.4021 17.9922L64.9183 19.5419L64.9221 19.5398Z" fill="#EFE9E0"/>
<path d="M76.6 15.264L78.4525 14.9404L77.6781 23.2853L75.7682 23.6207L73.8765 18.499L73.5849 24.0029L71.6654 24.3387L68.4746 16.6854L70.3042 16.3646L72.2992 21.7041L72.5908 15.965L74.3306 15.6591L76.3121 21.001L76.6037 15.262L76.6 15.264Z" fill="#EFE9E0"/>
<path d="M79.7598 18.941C79.7677 16.4923 81.5561 14.7 84.0058 14.6618C86.4651 14.6233 88.2324 16.3548 88.2244 18.8035C88.2165 21.2522 86.4377 23.0441 83.9784 23.0826C81.5287 23.1208 79.7519 21.3897 79.7598 18.941ZM86.3613 18.834C86.3667 17.4056 85.3723 16.3923 84.0018 16.4128C82.6408 16.4329 81.6437 17.4834 81.6383 18.9118C81.6329 20.3403 82.6273 21.3536 83.9882 21.3334C85.3626 21.3108 86.3597 20.2604 86.3633 18.8378L86.3613 18.834Z" fill="#EFE9E0"/>
<path d="M94.9699 23.7052L93.1335 23.4859C93.3798 21.9009 92.6628 20.7356 91.3724 20.4869L91.0051 23.2306L89.2148 23.0155L90.3001 14.9502L92.8607 15.258C94.5511 15.4592 95.5263 16.5957 95.3178 18.1405C95.181 19.1559 94.5807 19.8423 93.6758 20.0732C94.7227 20.7835 95.2154 22.0716 94.9737 23.7031L94.9699 23.7052ZM91.8781 16.7218L91.5756 18.9696L92.0751 19.0292C92.8338 19.1184 93.3798 18.7411 93.4702 18.0596C93.5643 17.3663 93.1229 16.8731 92.3526 16.7805L91.8743 16.7239L91.8781 16.7218Z" fill="#EFE9E0"/>
<path d="M98.1563 22.7233L100.968 23.3641L100.582 24.9717L96.0156 23.9298L97.9158 16.0059L99.6707 16.4069L98.1563 22.7233Z" fill="#EFE9E0"/>
<path d="M109.011 23.4971C108.201 25.7922 106.093 26.7993 103.768 25.9955L101.346 25.1563L104.062 17.4678L106.484 18.307C108.809 19.1108 109.821 21.202 109.011 23.4971ZM104.244 24.412C105.559 24.8677 106.778 24.2542 107.257 22.8902C107.737 21.5301 107.17 20.2972 105.859 19.8395L105.215 19.6141L103.598 24.1828L104.246 24.4061L104.244 24.412Z" fill="#EFE9E0"/>
<mask id="mask2_800_7726" style="mask-type:luminance" maskUnits="userSpaceOnUse" x="-9" y="-11" width="187" height="191">
<path d="M133.312 -10.3148L-8.72656 37.7314L35.6291 179.849L177.668 131.803L133.312 -10.3148Z" fill="white"/>
</mask>
<g mask="url(#mask2_800_7726)">
<path d="M64.7077 130.801C64.904 130.476 65.2103 130.558 65.4622 130.658C67.2587 131.362 69.2087 131.656 70.8987 132.657C71.4244 132.968 71.9806 133.232 72.4677 133.605C72.9488 133.974 73.5056 134.044 74.0829 134.018C74.9208 133.979 75.4083 133.241 75.0221 132.501C74.3668 131.249 73.4701 130.243 71.988 129.955C70.685 129.7 69.4183 129.324 68.172 128.874C67.8153 128.746 67.4251 128.66 67.1787 128.359C66.5445 127.584 65.617 127.504 64.7397 127.393C63.9032 127.288 63.0406 127.345 62.1895 127.346C62.0559 127.347 61.9224 127.431 61.8277 127.463C61.6293 127.693 61.5458 127.919 61.5804 128.165C61.6886 128.921 61.8339 129.671 61.795 130.445C61.7716 130.924 62.1074 131.222 62.3473 131.567C62.55 131.858 62.6369 132.165 62.4647 132.507C62.2598 132.916 61.8855 133.026 61.4953 132.967C58.9327 132.583 56.2806 132.559 53.9933 131.096C52.7625 130.31 51.4527 129.656 50.0013 129.326C49.5852 129.231 49.2099 129.021 48.8746 128.752C48.5314 128.476 48.305 128.132 48.2175 127.689C48.0384 126.79 48.5286 126.256 49.4079 126.447C49.7725 126.526 50.1239 126.688 50.4594 126.855C51.344 127.301 52.2369 127.736 53.0873 128.24C54.2644 128.939 55.5692 129.12 56.8987 129.213C57.6461 129.266 58.296 128.825 58.4857 128.227C58.6764 127.623 58.3942 126.956 57.7133 126.562C57.2662 126.303 56.776 126.12 56.3074 125.898C55.241 125.396 54.1734 124.895 53.1098 124.387C52.6313 124.158 52.2238 123.858 52.0552 123.308C51.8661 122.688 52.1655 122.228 52.8021 122.242C53.5719 122.26 54.2892 122.5 54.9898 122.794C55.8593 123.159 56.7177 123.558 57.6106 123.863C58.4121 124.136 59.2432 124.345 60.0769 124.507C62.4127 124.961 64.6292 125.763 66.8067 126.673C67.4118 126.927 67.9651 127.303 68.5388 127.628C68.8688 127.815 69.2002 127.997 69.595 128C69.9023 128.002 70.1651 127.89 70.2909 127.59C70.3971 127.339 70.2813 127.126 70.1035 126.952C69.5255 126.385 68.8698 125.923 68.1342 125.592C66.7593 124.971 65.3854 124.345 63.9881 123.779C62.7986 123.297 61.741 122.585 60.6271 121.973C59.5887 121.402 58.5135 120.932 57.3579 120.642C57.0377 120.561 56.7069 120.488 56.4117 120.348C54.7966 119.582 53.0584 119.39 51.2958 119.385C50.3055 119.383 49.3104 119.519 48.3193 119.602C48.0206 119.628 47.7887 119.806 47.5955 120.035C47.4089 120.256 47.2538 120.518 47.0307 120.693C45.4667 121.916 44.9948 123.686 44.579 125.478C44.4043 126.231 44.2266 126.975 43.8684 127.671C43.5549 128.277 43.0679 128.621 42.4111 128.728C41.8871 128.814 41.4614 128.558 41.3263 128.05C41.2136 127.629 41.2144 127.193 41.3351 126.77C41.5209 126.122 41.7275 125.481 41.9423 124.842C42.111 124.34 42.2876 123.839 42.4892 123.349C42.8777 122.406 42.5751 121.553 42.2062 120.724C41.9638 120.181 41.4355 120.266 40.9604 120.318C40.3838 120.379 40.1724 120.554 40.0504 121.071C39.9951 121.304 39.9645 121.545 39.9605 121.784C39.9222 124.268 39.1722 126.614 38.4153 128.952C38.0286 130.148 37.4567 131.277 36.6642 132.266C35.7972 133.348 35.3378 134.609 34.9388 135.901C34.537 137.202 34.2953 138.509 34.5798 139.867C34.6617 140.26 34.7296 140.729 34.3221 141.076C33.8462 141.079 33.5504 140.745 33.2602 140.453C31.4274 138.618 29.6225 136.759 28.0878 134.65C27.6906 134.103 27.5624 133.557 27.7304 132.908C28.0822 131.554 28.6223 130.263 29.1299 128.961C29.7083 127.48 30.3948 126.039 30.7582 124.485C30.8349 124.158 30.9883 123.802 30.9273 123.499C30.7071 122.403 30.9071 121.302 30.8788 120.206C30.875 120.063 30.869 119.918 30.8481 119.777C30.7899 119.376 30.4046 119.213 30.1257 119.488C29.8879 119.722 29.6597 119.983 29.492 120.269C29.2018 120.769 28.9616 121.298 28.7003 121.816C28.3978 122.416 28.1847 123.055 27.7075 123.57C27.4912 123.803 27.3983 124.162 27.2827 124.476C27.0826 125.023 26.8507 125.551 26.5273 126.037C25.7081 127.267 24.5019 127.583 23.1532 127.54C22.7424 127.528 22.4482 127.27 22.2264 126.955C21.4121 125.803 20.7115 124.582 20.0878 123.408C20.2583 123.023 20.506 122.979 20.7348 122.939C21.6984 122.767 22.2227 122.106 22.5482 121.254C22.9111 120.307 23.2811 119.36 23.5578 118.389C23.8905 117.221 24.3673 116.122 24.9242 115.048C25.1681 114.577 25.4048 114.097 25.5822 113.599C25.9231 112.643 25.3671 111.644 24.4012 111.407C23.4669 111.179 22.4661 111.548 21.9005 112.39C21.579 112.868 21.2964 113.383 21.0641 113.91C20.4006 115.42 19.5331 116.812 18.6431 118.193C18.1243 118.998 17.6581 118.971 17.1742 118.147C16.7115 117.358 16.6108 116.597 17.1183 115.719C17.9381 114.295 18.5716 112.777 19.107 111.224C19.1544 111.087 19.2014 110.949 19.2674 110.821C20.2173 108.98 21.1462 107.129 22.1362 105.31C22.4063 104.811 22.8536 104.405 23.2276 103.964C23.4742 103.674 23.8097 103.683 24.1501 103.684C24.9876 103.686 25.826 103.667 26.7944 103.655C26.4735 102.846 25.899 102.509 25.3386 102.217C24.2138 101.63 22.9764 101.288 21.8761 100.626C21.2876 100.272 20.576 100.497 19.9165 100.586C19.3784 100.659 19.1582 101.118 18.8445 101.481C17.4423 103.111 16.4995 105.007 15.5916 106.926C15.2208 107.712 14.8349 108.491 14.452 109.271C14.3669 109.445 14.2589 109.607 14.0512 109.658C13.3437 109.011 13.1341 108.182 13.567 107.269C14.2899 105.744 14.9042 104.16 15.8418 102.746C16.1984 102.207 16.2914 101.728 16.0932 101.13C15.9449 100.683 15.9464 100.185 15.82 99.7282C15.5065 98.5889 14.7209 98.2553 13.6365 98.7894C13.2938 98.9577 12.9799 99.1904 12.6484 99.3855C12.4459 99.5049 12.2355 99.6081 12.0921 99.6842C11.7288 99.5816 11.67 99.3513 11.6348 99.1129C11.4601 97.934 11.2522 96.7648 11.3053 95.5524C11.3357 94.8351 11.5369 94.2273 12.0545 93.7394C12.9617 92.8841 13.5166 91.8453 13.8367 90.6502C14.0941 89.6917 14.6185 88.9091 15.5154 88.3934C16.9082 87.5949 18.5111 87.8281 19.4967 89.0398C19.8532 89.4793 20.2004 89.935 20.4825 90.4245C21.4198 92.0496 22.7151 93.3645 24.1183 94.5455C25.2292 95.479 26.4553 96.3067 27.7286 97.0064C29.8409 98.1687 31.7565 99.6229 33.7959 100.887C35.5311 101.963 37.0428 103.301 38.5903 104.609C39.2713 105.185 40.0076 105.709 40.7757 106.164C44.1376 108.155 47.3815 110.35 50.9528 111.987C51.9754 112.456 52.8901 113.148 53.8663 113.719C55.4114 114.624 56.9766 115.495 58.5145 116.414C60.9835 117.891 63.4458 119.378 65.561 121.36C65.9426 121.717 66.4017 121.959 66.8905 122.151C68.0823 122.622 69.1319 123.294 70.1295 124.121C71.5411 125.292 72.8382 126.607 74.3981 127.602C74.9535 127.956 75.4905 128.336 76.084 128.632C77.8892 129.527 79.4043 130.773 80.5899 132.416C80.8385 132.761 81.0982 133.1 81.3765 133.419C81.5601 133.63 81.754 133.902 81.9985 133.978C83.5337 134.459 84.7764 135.536 86.3796 135.919C89.0319 136.554 91.0974 138.213 92.9938 140.095C93.6294 140.725 94.2808 141.341 94.9208 141.967C95.0884 142.131 95.2607 142.297 95.396 142.489C95.7285 142.958 95.6898 143.421 95.3152 143.784C94.9325 144.155 94.5082 144.193 94.0225 143.861C93.7917 143.703 93.5843 143.504 93.3865 143.304C92.9901 142.899 92.5791 142.504 92.2265 142.064C90.9136 140.427 89.1972 139.397 87.2489 138.709C85.8693 138.223 84.5003 137.706 83.1008 137.281C81.8376 136.898 80.5437 136.603 79.1878 136.733C78.4765 136.8 77.7677 136.782 77.059 136.686C76.2092 136.57 75.3529 136.616 74.5041 136.778C73.4616 136.976 72.5181 136.774 71.6832 136.143C70.8564 135.519 69.9751 134.949 69.2341 134.232C68.4062 133.433 67.498 132.79 66.4859 132.271C65.9409 131.991 65.3928 131.711 64.9393 131.287C64.802 131.159 64.6646 131.031 64.7095 130.797L64.7077 130.801ZM37.0044 108.537C36.7556 107.991 36.3488 107.837 35.9338 107.774C34.9831 107.629 34.1428 107.218 33.2823 106.835C32.3308 106.412 31.3304 106.177 30.2503 106.343C29.3059 106.488 28.3541 106.474 27.4341 106.203C26.2248 105.849 26.0232 106.506 26.0069 107.329C25.9929 108.006 26.1933 108.299 26.8441 108.443C27.2091 108.523 27.5937 108.563 27.97 108.553C28.9169 108.528 29.8672 108.505 30.8098 108.406C32.3797 108.24 33.9326 108.262 35.4845 108.495C35.9421 108.564 36.402 108.716 37.0044 108.537ZM37.5817 112.859C36.6403 113.171 35.9683 113.905 35.5719 114.874C35.191 115.804 34.8696 116.763 34.5769 117.724C34.3056 118.615 34.5124 119.054 35.29 119.492C36.077 119.938 36.4285 119.811 36.7882 118.897C37.28 117.647 37.7572 116.391 38.2118 115.129C38.3891 114.635 38.5306 114.12 38.6121 113.604C38.7188 112.931 38.3165 112.629 37.5834 112.859H37.5817Z" fill="#AEFFE4"/>
<path d="M107.665 82.6685C108.07 82.6422 108.447 82.628 108.824 82.5908C109.336 82.5413 109.753 82.732 110.11 83.0678C111.414 84.2926 112.807 85.4187 113.938 86.827C114.497 87.5239 115.16 88.1347 115.74 88.8158C116.075 89.2075 116.356 89.6521 116.626 90.0933C116.777 90.339 116.849 90.6449 116.547 90.8604C116.266 91.0618 115.992 90.9334 115.775 90.7406C115.458 90.4591 115.168 90.1471 114.865 89.851C114.259 89.2558 113.608 88.734 112.834 88.5014C112.482 88.722 112.477 88.9785 112.614 89.1764C113.503 90.4513 114.247 91.826 115.353 92.9519C117.015 94.6448 118.802 96.1628 120.852 97.3591C121.732 97.8733 122.361 98.5945 122.769 99.5578C123.138 100.428 123.651 101.232 124.074 102.08C124.412 102.758 124.38 103.242 124.019 103.348C123.472 103.51 123.251 103.06 123.029 102.726C122.415 101.802 121.518 101.174 120.751 100.414C120.717 100.381 120.681 100.348 120.642 100.324C120.469 100.224 120.287 100.185 120.122 100.337C119.967 100.481 119.936 100.676 119.998 100.866C120.057 101.045 120.139 101.219 120.231 101.382C120.786 102.374 121.33 103.373 121.91 104.348C122.451 105.256 123.195 105.988 124.073 106.557C124.885 107.082 125.494 107.77 126.004 108.586C127.021 110.209 128.337 111.55 129.897 112.646C131.836 114.008 133.438 115.754 135.172 117.349C135.443 117.598 135.729 117.881 135.555 118.335C135.106 118.66 134.745 118.333 134.358 118.212C133.768 118.029 133.497 118.112 133.261 118.534C133.022 118.961 133.049 119.278 133.454 119.691C134.528 120.782 135.815 121.592 137.214 122.161C138.486 122.678 139.68 123.346 140.947 123.86C141.12 123.929 141.305 124.015 141.429 124.145C142.354 125.118 143.505 125.755 144.687 126.345C144.763 126.382 144.803 126.488 144.91 126.626C144.891 127.402 144.222 127.768 143.682 128.354C142.869 127.904 141.98 127.875 141.078 127.886C140.351 127.895 139.68 127.662 139.056 127.306C138.236 126.84 137.412 126.38 136.606 125.893C136.245 125.675 135.886 125.434 135.585 125.143C133.476 123.115 131.505 120.955 129.594 118.737C128.359 117.303 127.324 115.734 126.29 114.153C125.517 112.971 124.545 111.927 123.716 110.781C122.722 109.406 121.772 107.997 120.83 106.584C119.574 104.701 118.343 102.796 117.096 100.905C116.922 100.642 116.805 100.286 116.373 100.345C116.091 100.532 116.186 100.789 116.303 100.974C116.818 101.786 117.109 102.689 117.339 103.616C117.482 104.19 117.787 104.642 118.196 105.058C119.506 106.389 120.04 108.113 120.382 109.906C120.568 110.885 120.58 111.896 121.079 112.801C121.229 113.073 121.215 113.447 121.242 113.779C121.324 114.82 121.389 115.862 121.466 116.981C121.938 116.815 121.897 116.441 121.955 116.158C122.074 115.581 122.239 115.046 122.702 114.631C123.362 114.04 124.118 114.209 124.358 115.058C124.619 115.981 124.671 116.941 124.57 117.905C124.484 118.72 124.455 119.532 124.556 120.342C124.58 120.532 124.567 120.731 124.62 120.911C125.185 122.838 125.352 124.826 125.455 126.896C125.675 126.502 125.885 126.1 126.119 125.714C126.435 125.191 126.842 124.787 127.505 124.872C128.167 124.954 128.653 125.272 128.838 125.961C129.364 127.937 129.929 129.894 130.237 131.936C130.459 133.4 130.676 134.857 130.76 136.339C130.764 136.407 130.859 136.468 130.912 136.533C131.117 136.426 131.137 136.219 131.139 136.039C131.146 134.65 131.437 133.27 131.339 131.877C131.323 131.64 131.333 131.395 131.371 131.159C131.575 129.893 132.421 129.328 133.636 129.621C134.253 129.77 134.633 130.119 134.697 130.781C134.888 132.779 135.079 134.776 135.283 136.773C135.33 137.241 135.188 137.612 134.848 137.937C132.3 140.37 129.7 142.737 126.77 144.702C126.49 144.89 126.172 145.034 125.931 145.264C124.63 146.507 123.045 147.344 121.622 148.412C120.036 149.603 118.237 150.422 116.565 151.462C116.262 151.651 115.912 151.899 115.515 151.672C115.319 151.365 115.517 151.11 115.631 150.857C116.696 148.524 117.512 146.102 118.29 143.667C118.629 142.603 119.041 141.583 119.655 140.645C120.359 139.572 120.746 138.402 120.842 137.123C120.928 135.974 121.12 134.835 121.412 133.712C121.582 133.058 121.713 132.395 121.569 131.72C121.519 131.491 121.491 131.247 121.238 131.139C120.939 131.108 120.81 131.335 120.696 131.538C120.007 132.759 119.371 133.969 119.381 135.45C119.392 137.017 118.811 138.474 117.958 139.792C116.807 141.574 115.722 143.391 114.329 145.022C113.332 146.187 112.591 147.574 111.743 148.867C111.181 149.727 110.513 150.481 109.646 151.034C109.491 151.133 109.307 151.187 109.173 151.245C108.599 151.055 108.639 150.579 108.559 150.174C108.462 149.682 108.564 149.217 108.83 148.792C109.445 147.81 110.067 146.833 110.694 145.859C111.216 145.046 111.753 144.243 112.272 143.428C112.426 143.185 112.641 142.916 112.648 142.658C112.675 141.713 113.294 141.196 113.937 140.672C114.161 140.49 114.384 140.303 114.572 140.086C114.86 139.756 114.818 139.577 114.35 138.964C113.764 139.087 113.394 139.565 113.039 139.988C112.127 141.073 110.981 141.877 109.913 142.774C109.025 143.518 108.118 143.566 107.162 142.951C106.402 142.461 106.174 141.904 106.488 141.004C106.762 140.217 107.257 139.567 107.814 138.949C109.398 137.194 110.916 135.387 112.195 133.362C111.93 133.138 111.776 133.384 111.638 133.515C110.799 134.309 109.897 135.038 109.205 135.985C108.831 136.495 108.303 136.856 107.782 137.203C107.589 137.33 107.348 137.425 107.122 137.449C106.377 137.529 105.858 136.921 106.012 136.185C106.105 135.742 106.36 135.404 106.665 135.081C107.69 133.994 108.743 132.927 109.708 131.788C110.601 130.733 111.331 129.561 111.778 127.944C111.017 128.536 110.703 129.119 110.386 129.699C109.559 131.208 108.358 132.39 107.074 133.491C106.535 133.952 106.128 133.963 105.64 133.661C105.272 133.434 105.116 133.088 105.284 132.686C105.43 132.336 105.618 131.983 105.858 131.689C107.147 130.109 107.857 128.269 108.234 126.314C108.587 124.488 109.271 122.913 110.872 121.843C110.949 121.792 111.007 121.703 111.056 121.621C111.104 121.542 111.127 121.45 111.167 121.352C110.976 121.054 110.751 121.254 110.575 121.362C109.829 121.816 109.134 122.331 108.748 123.161C108.728 123.204 108.706 123.248 108.68 123.289C108.471 123.623 108.262 123.96 107.786 123.85C107.365 123.753 107.191 123.43 107.257 122.838C107.303 122.406 107.387 121.986 107.642 121.61C107.827 121.337 107.978 121.04 108.121 120.794C107.949 120.405 107.701 120.543 107.49 120.601C107.099 120.709 106.736 120.663 106.387 120.484C105.965 120.268 105.811 119.863 105.97 119.4C106.1 119.024 106.33 118.708 106.629 118.461C107.111 118.064 107.588 117.642 108.12 117.327C109.158 116.713 109.818 115.794 110.438 114.743C110.016 114.453 109.668 114.706 109.342 114.807C108.645 115.023 107.954 115.147 107.233 115.007C106.42 114.849 106.119 114.325 106.443 113.556C106.536 113.337 106.663 113.118 106.824 112.944C107.509 112.203 108.122 111.392 108.991 110.829C109.5 110.5 110.057 110.151 110.175 109.474C109.996 108.95 109.56 108.895 109.137 108.846C108.123 108.728 107.228 108.324 106.396 107.766C106.24 107.661 106.078 107.556 106.06 107.277C106.47 106.568 107.378 106.424 107.914 105.81C108.42 105.233 108.882 104.636 109.206 103.939C108.765 103.62 108.414 103.762 108.084 103.969C107.76 104.175 107.47 104.439 107.139 104.63C106.827 104.809 106.499 104.817 106.232 104.494C106.081 103.954 106.356 103.476 106.535 102.983C107.177 101.217 107.844 99.4591 108.465 97.6866C108.718 96.9653 108.694 96.2025 108.735 95.2809C108.179 95.6886 108.038 96.1538 107.825 96.5618C107.579 97.0337 107.349 97.5186 106.942 97.876C106.589 98.1845 106.27 98.5806 105.764 98.5234C105.473 98.3656 105.471 98.1087 105.474 97.8781C105.486 96.8248 105.477 95.7647 105.717 94.7276C106.509 91.2938 106.868 87.806 107.267 84.322C107.326 83.8087 107.224 83.2584 107.665 82.6729V82.6685ZM114.145 106.02C113.731 106.82 113.147 107.569 113.198 108.421C113.253 109.354 112.986 110.095 112.46 110.815C112.293 111.043 112.178 111.318 112.081 111.585C112.04 111.696 112.112 111.847 112.127 111.942C112.51 112.244 113.037 111.906 113.418 112.41C113.595 113.075 113.353 113.807 113.113 114.53C112.856 115.303 112.557 116.063 112.293 116.835C112.132 117.304 112.114 117.773 112.369 118.216C112.519 118.478 112.882 118.542 113.089 118.32C113.22 118.181 113.347 118.031 113.438 117.866C114.07 116.733 114.677 115.588 115.408 114.511C115.647 114.16 115.839 113.75 115.606 113.32C115.515 113.257 115.446 113.185 115.363 113.156C114.01 112.697 113.637 112.179 113.718 110.774C113.743 110.349 113.856 109.925 113.94 109.504C114.062 108.894 114.214 108.29 114.313 107.676C114.402 107.122 114.474 106.556 114.145 106.018V106.02ZM118.876 122.682C117.853 123.43 117.276 124.339 117.121 125.576C116.971 126.756 116.714 127.933 116.159 129.022C116.055 129.226 116.011 129.475 116 129.705C115.989 129.898 116.108 130.067 116.294 130.151C116.479 130.234 116.662 130.211 116.822 130.075C116.931 129.983 117.036 129.884 117.133 129.778C118.777 128.01 119.109 125.787 119.363 123.543C119.4 123.218 119.365 122.865 118.877 122.684L118.876 122.682ZM110.874 107.182C111.171 107.119 111.385 106.922 111.578 106.707C112.537 105.643 113.134 104.391 113.477 103.018C113.544 102.751 113.525 102.443 113.468 102.173C113.356 101.643 112.729 101.499 112.357 101.91C112.199 102.084 112.061 102.298 111.98 102.518C111.545 103.695 111.049 104.842 110.42 105.932C110.273 106.187 110.191 106.457 110.244 106.758C110.294 107.038 110.608 107.257 110.873 107.181L110.874 107.182ZM111.818 97.2495C111.723 96.9455 111.586 96.8244 111.379 96.8116C111.105 96.7939 110.917 96.9506 110.85 97.2029C110.565 98.274 110.152 99.2999 109.75 100.332C109.669 100.541 109.68 100.801 109.7 101.031C109.716 101.218 109.81 101.4 110.009 101.474C110.208 101.549 110.39 101.474 110.519 101.323C111.554 100.109 111.725 98.6426 111.818 97.2495Z" fill="#006739"/>
<path d="M100.777 81.8635C102.476 81.5755 104.08 80.7827 105.759 80.5523C105.993 81.023 105.773 81.1821 105.584 81.2997C105.147 81.5742 104.686 81.8128 104.087 82.1508C104.616 82.3546 105.079 81.9856 105.47 82.3827C105.663 83.2252 105.386 84.1105 105.21 84.9935C105.138 85.3509 104.834 85.534 104.528 85.6955C103.805 86.0753 103.075 86.4415 102.371 86.8542C102.07 87.0302 101.647 87.1909 101.81 87.7832C102.802 87.935 103.669 87.0715 104.649 87.2551C105.04 87.6215 104.972 88.0447 104.844 88.4691C104.738 88.8253 104.443 88.9977 104.126 89.1295C103.727 89.2936 103.316 89.4297 102.926 89.614C102.465 89.8311 102.012 90.0732 101.542 90.6364C102.712 90.5798 103.575 89.8775 104.49 89.9537C104.851 90.1894 104.858 90.4779 104.843 90.7683C104.822 91.1504 104.76 91.5354 104.767 91.9171C104.785 92.813 104.376 93.3456 103.519 93.6091C102.191 94.0178 100.911 94.5496 99.7 95.4391C100.01 95.6619 100.252 95.4474 100.474 95.3811C101.298 95.13 102.111 94.842 102.935 94.591C103.341 94.4668 103.762 94.3258 104.177 94.5301C104.452 94.7543 104.387 95.0527 104.325 95.3284C104.155 96.0797 103.972 96.8284 103.78 97.574C103.458 98.8222 103.413 100.053 103.994 101.216C104.367 101.964 104.35 102.65 103.865 103.369C103.127 104.464 103.102 105.618 103.601 106.797C103.748 107.146 103.847 107.516 103.957 107.88C104.15 108.516 104.341 109.154 104.521 109.795C104.704 110.45 105.186 110.929 105.521 111.508C105.341 112.283 104.666 112.808 104.58 113.611C104.496 114.399 104.792 115.114 104.852 115.764C104.739 116.192 104.476 116.332 104.219 116.454C103.05 117.009 101.873 117.544 100.703 118.1C100.183 118.347 99.6765 118.624 99.1682 118.895C98.9078 119.034 98.6872 119.217 98.6171 119.541C98.7559 119.986 99.1143 119.891 99.4292 119.811C100.916 119.433 102.346 118.885 103.751 118.256C104.214 118.048 104.673 117.749 105.155 117.884C105.341 118.162 105.248 118.345 105.135 118.49C104.519 119.285 104.566 120.135 104.999 120.924C105.622 122.057 105.683 123.244 105.584 124.511C105.492 125.704 105.517 126.908 105.732 128.09C105.793 128.425 105.786 128.751 105.657 129.017C105.361 129.238 105.144 129.143 104.969 128.978C103.768 127.848 102.573 126.71 101.376 125.573C101.204 125.408 101.063 125.22 101.063 124.938C101.169 124.424 101.921 124.306 101.903 123.628C101.499 123.314 101.032 123.386 100.579 123.541C99.971 123.749 99.4748 123.63 99.0063 123.214C97.5269 121.896 96.0786 120.547 94.7271 119.094C94.6071 118.966 94.5559 118.774 94.4534 118.576C94.9472 117.848 95.7175 117.602 96.4205 117.466C98.349 117.095 99.9389 115.978 101.662 115.152C101.736 115.117 101.773 115.003 101.833 114.914C101.835 114.462 101.514 114.38 101.165 114.392C100.729 114.406 100.343 114.621 99.9487 114.804C98.6418 115.407 97.3408 116.025 96.0181 116.591C95.3159 116.893 94.5754 117.104 93.8486 117.346C93.464 117.473 93.1072 117.419 92.7671 117.191C92.117 116.756 89.8164 114.31 89.3145 113.494C89.3301 113.148 89.5805 113.001 89.8432 112.874C92.2229 111.727 94.6225 110.635 97.1265 109.798C98.3974 109.372 99.6606 108.917 100.926 108.473C101.51 108.269 102.061 108.014 102.421 107.499C102.265 107.171 102.022 107.179 101.789 107.176C100.814 107.165 99.9004 107.432 99.0428 107.897C98.1913 108.358 97.298 108.685 96.3744 108.952C95.6868 109.151 94.977 109.349 94.3567 109.694C92.6969 110.62 90.8514 110.973 89.1189 111.661C88.1505 112.045 87.3674 111.925 86.7028 111.127C86.4678 110.844 86.1003 110.659 86.0905 110.278C86.1128 109.995 86.2761 109.876 86.4464 109.802C88.6908 108.832 90.9386 107.873 93.1839 106.905C95.5174 105.899 97.8543 104.899 100.179 103.871C100.678 103.65 101.193 103.407 101.571 102.964C101.301 102.677 101.076 102.842 100.87 102.91C99.3659 103.406 97.8912 103.974 96.5051 104.762C95.9978 105.05 95.4798 105.28 94.9011 105.358C94.6667 105.39 94.4284 105.445 94.2074 105.533C92.0279 106.404 89.8388 107.25 87.6835 108.179C86.7561 108.579 85.815 108.925 84.8712 109.272C84.4018 109.444 83.9344 109.432 83.4684 109.303C82.6941 109.089 81.9064 108.912 81.1522 108.641C80.2164 108.306 79.2715 108.016 78.2976 107.81C78.0235 107.752 77.7502 107.658 77.5018 107.533C77.2348 107.399 77.0671 107.173 77.1637 106.757C77.9076 106.179 78.9036 106.158 79.7707 105.789C80.6532 105.413 81.5478 105.067 82.4085 104.645C83.2565 104.229 84.1824 103.955 85.1646 103.135C83.6833 103.617 82.4711 103.998 81.3249 104.558C80.1105 105.15 78.8434 105.583 77.5668 105.99C76.5731 106.307 76.3813 106.224 75.7714 105.387C75.5757 105.119 75.3827 104.849 75.3597 104.427C75.7351 103.814 76.5452 103.751 77.1897 103.18C76.3645 103.377 75.6919 103.563 75.01 103.688C74.5605 103.77 74.1551 103.663 74.0042 103.049C74.7355 102.422 75.6481 102.185 76.5389 101.901C77.2221 101.683 77.916 101.499 78.5934 101.262C79.2722 101.026 79.8573 100.633 80.3162 100.069C79.9978 99.6115 79.6676 99.8803 79.3885 99.9733C77.2086 100.704 75.0238 101.418 72.8645 102.21C71.734 102.624 70.6561 102.718 69.5242 102.346C68.9103 102.143 68.2567 102.056 67.6766 101.929C67.5401 101.408 67.8782 101.346 68.1194 101.229C69.8973 100.371 71.7637 99.7621 73.6247 99.1369C74.4268 98.8671 75.235 98.6024 75.976 98.2019C75.8562 97.8133 75.6331 97.9367 75.4785 97.9861C74.1563 98.4101 72.8394 98.8512 71.5218 99.2852C70.1582 99.7349 68.7957 100.193 67.426 100.623C67.066 100.736 66.6792 100.796 66.3051 100.803C65.9484 100.81 65.6656 100.64 65.6704 100.148C66.1576 99.6129 66.9168 99.5452 67.5357 99.205C68.122 98.8815 68.7546 98.6457 69.3666 98.3718C70.0054 98.0859 70.7495 98.0771 71.3239 97.6733C71.2768 97.3968 71.1341 97.3956 71.0032 97.4326C69.0284 97.9959 66.997 98.3266 65.0709 99.0829C64.4148 99.3412 63.7612 99.3513 63.199 98.849C63.0898 98.7506 63.0127 98.6385 63.0798 98.3321C63.8103 97.6791 64.884 97.5807 65.839 97.214C66.8221 96.8349 67.8429 96.558 68.7658 96.0232C69.6874 95.4889 70.7269 95.2624 71.9186 94.7647C71.2131 94.6367 70.7562 94.8116 70.292 94.9163C67.4454 95.5591 64.6642 96.4388 61.9056 97.4054C61.3504 97.6005 60.804 97.7635 60.2603 97.4367C60.1458 97.3678 60.0618 97.2522 59.9626 97.1577C60.0459 96.6378 60.4881 96.6163 60.8225 96.5003C63.9479 95.4241 67.0765 94.3629 70.206 93.3C71.2031 92.9612 72.2057 92.6352 73.2009 92.2899C73.4042 92.2196 73.6746 92.1922 73.7061 91.8789C73.4985 91.6465 73.2675 91.8003 73.0638 91.8692C68.437 93.4285 63.6856 94.5512 59.0881 96.2228C56.0264 97.3355 52.9329 98.3557 49.8622 99.4439C48.8257 99.8105 47.8758 100.394 46.8149 100.72C45.8245 101.024 44.8647 100.97 43.9322 100.851C43.7463 100.506 43.8798 100.306 44.1023 100.185C44.4379 100.003 44.7858 99.8328 45.1442 99.7101C49.5405 98.2085 53.9416 96.727 58.3363 95.2201C60.421 94.5062 62.5525 93.9656 64.6539 93.3144C66.9834 92.5934 69.2964 91.8197 71.5493 90.8438C73.0428 90.196 74.6159 89.7468 76.1485 89.1964C76.5903 89.0382 77.0704 88.9515 77.44 88.5995C77.2192 88.2319 76.9161 88.4479 76.687 88.5239C74.7316 89.1679 72.7844 89.8382 70.8349 90.4962C63.7104 92.8989 56.5839 95.2993 49.4599 97.7033C47.7355 98.2866 46.0161 98.8813 44.2921 99.4659C43.9832 99.5704 43.6811 99.7569 43.2738 99.6066C43.228 99.1479 43.5573 98.9506 43.9044 98.8056C44.9657 98.3651 46.0246 97.9124 47.1033 97.5228C49.1756 96.7738 51.2665 96.0752 53.3413 95.3341C55.2784 94.641 57.1873 93.8528 59.1437 93.2259C62.4223 92.1751 65.6436 90.9545 68.9057 89.8554C77.3474 87.013 85.778 84.1351 94.2095 81.2598C98.7429 79.7132 103.289 78.2048 107.789 76.5605C110.443 75.5913 113.095 74.6172 115.764 73.6954C117.031 73.258 118.299 72.8233 119.572 72.403C119.931 72.2843 120.298 72.137 120.687 72.225C120.88 72.269 121.03 72.3812 121.087 72.583C121.144 72.7879 121.075 72.9858 120.91 73.0866C120.626 73.2613 120.324 73.4215 120.011 73.526C115.97 74.8826 111.966 76.3839 107.871 77.5277C104.721 78.4085 101.768 79.7913 98.7004 80.8667C97.3262 81.3476 95.9808 81.9816 94.641 82.605C97.543 81.6234 100.442 80.6312 103.347 79.6632C107.164 78.391 110.97 77.0832 114.812 75.8957C116.912 75.2463 119.032 74.6557 121.132 73.9979C121.872 73.7665 122.335 73.8832 122.345 74.2569C122.359 74.8239 121.882 74.9576 121.487 75.0751C119.747 75.5983 118.014 76.183 116.245 76.5644C114.18 77.0099 112.205 77.7405 110.2 78.3737C108.922 78.7768 107.656 79.2212 106.399 79.6915C104.516 80.3967 102.649 81.1404 100.774 81.8675L100.777 81.8635ZM98.3414 82.8358C98.2016 82.6256 97.9709 82.58 97.7373 82.6415C97.1843 82.7878 96.6385 82.9666 96.0912 83.1314C94.9941 83.4618 93.9536 83.997 92.8134 84.166C91.6757 84.334 90.5759 84.6464 89.4873 85.0088C87.5366 85.6585 85.5985 86.3533 83.6412 86.9819C81.8556 87.5554 80.1691 88.3441 78.5304 89.2577C77.9031 89.6082 77.2705 89.956 76.6706 90.3524C76.1281 90.709 75.9398 91.1161 76.1113 91.3956C76.3551 91.7903 76.7762 91.7381 77.1361 91.6949C78.2688 91.5576 79.3973 91.3882 80.4906 91.0083C82.0273 90.4754 83.5714 89.9661 85.111 89.4424C86.6497 88.9205 88.204 88.4442 89.6422 87.642C90.3104 87.2691 91.0064 86.9289 91.7184 86.6589C93.8343 85.8588 95.7284 84.6086 97.7411 83.599C98.0289 83.455 98.3448 83.2798 98.3431 82.8367L98.3414 82.8358ZM77.7571 98.5451C78.027 98.8466 78.3127 98.8634 78.597 98.8618C79.2205 98.8575 79.8225 98.7237 80.4211 98.5372C82.8973 97.7651 85.188 96.5378 87.5112 95.4057C89.8429 94.2678 92.1949 93.1813 94.6202 92.2925C96.1641 91.7266 97.5864 90.9531 99.0105 90.1571C99.3088 89.9907 99.5843 89.8074 99.7894 89.5285C100.006 89.2355 99.8804 88.8285 99.5411 88.7192C99.0591 88.5622 98.6098 88.6589 98.1694 88.9053C96.6586 89.7495 95.0835 90.4525 93.4937 91.1227C92.2585 91.6438 91.0506 92.2852 89.7724 92.636C88.296 93.0409 86.9541 93.7974 85.4588 94.165C84.5102 94.3986 83.5753 94.8487 82.6453 95.2302C81.1844 95.8291 79.7186 96.4355 78.4705 97.46C78.1362 97.7345 77.7663 97.9833 77.7562 98.5468L77.7571 98.5451ZM82.1355 92.0885C79.7466 92.917 77.3028 93.5836 75.0426 94.7875C74.4569 95.0991 73.9921 95.4396 73.8276 96.1092C73.7028 96.617 73.9222 96.9428 74.4319 97.0163C74.9199 97.0854 75.3704 96.9272 75.8287 96.794C78.4935 96.0206 80.9705 94.7201 83.5961 93.8349C83.7748 93.7745 83.9464 93.6771 84.1073 93.5733C85.4843 92.687 86.9644 92.0147 88.445 91.3393C88.618 91.2604 88.8018 91.1837 88.9464 91.0649C89.0459 90.9833 89.1362 90.8305 89.1438 90.7057C89.155 90.5041 89.0197 90.336 88.8317 90.2832C88.6091 90.2217 88.3616 90.1643 88.1389 90.2004C87.6713 90.2756 87.2039 90.3843 86.7531 90.5324C85.2108 91.0381 83.6746 91.5679 82.1369 92.0881L82.1355 92.0885ZM98.2096 97.2657C97.6313 96.9071 97.1284 97.0233 96.6181 97.148C95.924 97.3173 95.2237 97.4523 94.5329 97.6322C94.0731 97.7513 93.5991 97.8666 93.1797 98.0826C91.7309 98.8273 90.2801 99.561 88.7603 100.144C88.2635 100.335 87.8235 100.629 87.542 101.11C87.4179 101.322 87.3295 101.556 87.4239 101.793C87.5461 102.101 87.8393 102.184 88.1221 102.168C88.8926 102.123 89.613 101.828 90.2958 101.492C91.3327 100.983 92.4023 100.588 93.4978 100.252C94.7391 99.8712 95.8786 99.2574 96.9822 98.58C97.4552 98.2891 97.9868 98.0089 98.21 97.267L98.2096 97.2657ZM91.801 89.596C92.1493 89.9204 92.482 89.9155 92.8089 89.8224C93.3603 89.6664 93.9156 89.5135 94.4477 89.3001C97.0844 88.2365 99.5554 86.8653 101.778 85.0502C102.038 84.837 102.413 84.6536 102.166 84.2598C101.957 83.926 101.582 84.0281 101.256 84.1384C101.075 84.1997 100.895 84.2694 100.725 84.3575C98.9252 85.2745 96.9788 85.8121 95.1616 86.6988C94.2007 87.1679 93.3276 87.7411 92.4596 88.3402C92.0521 88.6221 91.7564 89.0015 91.7984 89.5968L91.801 89.596ZM81.8991 100.489C82.3916 100.736 82.8582 100.694 83.3162 100.551C84.4994 100.184 85.6805 99.8104 86.8537 99.4121C87.3492 99.2445 87.8914 99.096 88.2913 98.7803C89.4295 97.8832 90.6705 97.171 91.9205 96.4645C92.1344 96.3442 92.3063 96.1827 92.2655 95.8983C92.0957 95.6662 91.8521 95.7006 91.6279 95.7691C91.1262 95.9214 90.6231 96.0741 90.138 96.2702C89.1606 96.6677 88.178 97.0205 87.1268 97.1302C86.8467 97.1595 86.5759 97.2787 86.2978 97.3422C84.8171 97.6773 83.6887 98.7224 82.3821 99.4058C82.0537 99.578 81.7919 99.9081 81.9004 100.489H81.8991ZM94.4961 95.0652C96.5597 95.2662 98.2075 94.2419 99.8939 93.3833C100.355 93.1491 100.348 92.5272 99.9638 92.1638C99.7101 91.9238 99.4068 91.8038 99.0624 91.8737C97.5526 92.1808 96.2329 92.9574 94.9266 93.7397C94.5176 93.9842 94.2328 94.4079 94.4943 95.0643L94.4961 95.0652ZM83.7158 106.273C83.7279 106.372 83.7404 106.473 83.7525 106.572C84.9497 106.055 86.2232 105.866 87.4559 105.499C87.73 105.418 88.0152 105.341 88.2638 105.201C89.6606 104.421 91.1932 104.014 92.6736 103.468C94.111 102.938 95.5677 102.466 96.9609 101.809C98.391 101.134 99.8436 100.513 101.283 99.8589C101.332 99.8367 101.331 99.7001 101.392 99.4772C100.405 99.6613 99.5048 99.9351 98.661 100.365C97.6333 100.89 96.5438 101.278 95.5245 101.801C92.8189 103.194 89.8347 103.796 87.0994 105.102C86.0258 105.615 84.8457 105.889 83.7141 106.272L83.7158 106.273ZM85.1306 101.043C83.5989 101.68 82.0686 102.317 80.3982 103.013C82.3075 102.948 83.7923 102.188 85.1306 101.043ZM88.6705 95.8704C90.1056 95.7429 92.0254 95.0033 92.6548 94.3336C90.8273 94.6797 89.5473 95.1738 88.6705 95.8704ZM95.5009 96.199C94.5518 96.2262 93.661 96.3937 92.9493 97.0883C93.0576 97.2306 93.1161 97.3665 93.164 97.362C94.0712 97.2748 94.8198 96.8149 95.5009 96.199ZM91.1557 88.2547C90.4017 88.3206 89.8963 88.5308 89.4121 88.8139C89.288 88.8864 89.235 89.0426 89.2985 89.1855C89.3637 89.3293 89.5017 89.3801 89.653 89.3434C90.2118 89.2112 90.7085 88.9821 91.1557 88.2547ZM98.7185 98.3607C99.3092 98.5959 99.664 98.3872 99.9991 98.1385C100.059 98.0952 100.096 97.9664 100.08 97.89C100.068 97.8172 99.9792 97.7117 99.9153 97.7071C99.4389 97.6704 99.0182 97.7705 98.7172 98.3612L98.7185 98.3607ZM73.9755 100.42C72.8278 100.565 71.7499 100.915 70.7567 101.508L73.9755 100.42ZM72.4211 95.8255C72.3915 95.7352 72.3605 95.6453 72.3296 95.5553C71.6372 95.6135 71.0269 95.865 70.2459 96.5613L72.4211 95.8255ZM91.4448 90.9269C90.9084 90.8377 90.4661 90.9757 89.9862 91.4959C90.6939 91.5751 91.1134 91.3736 91.4448 90.9269ZM76.6214 92.7972C75.9885 92.9065 75.6051 92.9489 75.2744 93.4725C75.8017 93.4905 76.155 93.4074 76.6214 92.7972ZM97.771 95.4413C97.6939 95.4223 97.6065 95.3704 97.5417 95.3909C97.4676 95.4145 97.3522 95.5146 97.3591 95.5603C97.391 95.7415 97.5419 95.7269 97.6612 95.6574C97.7188 95.6234 97.7348 95.5161 97.7706 95.44L97.771 95.4413ZM99.3746 83.7113C99.4063 83.734 99.4477 83.7826 99.467 83.7746C99.5494 83.7409 99.6545 83.7097 99.6962 83.6432C99.7564 83.5472 99.6822 83.4865 99.5619 83.5432C99.4894 83.5764 99.4366 83.6539 99.375 83.7126L99.3746 83.7113ZM103.642 91.8598L103.764 91.8184C103.752 91.7961 103.738 91.7531 103.729 91.7544C103.688 91.7612 103.649 91.7802 103.608 91.7953C103.62 91.8177 103.632 91.8396 103.643 91.8606L103.642 91.8598Z" fill="#4177ED"/>
<path d="M68.5976 84.6701C69.1666 84.2769 69.6652 84.6873 70.2024 84.3834C70.6932 83.7023 71.2403 82.9412 71.7655 82.2121C71.5374 81.8586 71.3001 81.9316 71.0727 82.0086C70.7428 82.1202 70.4377 82.3296 70.2988 82.6297C69.7557 83.8041 68.7518 83.5531 67.8307 83.5257C67.4069 83.5133 67.2083 83.147 67.0142 82.814C66.0542 81.1674 65.3034 79.4414 64.9809 77.5283C64.6369 75.4857 64.646 73.4662 64.9996 71.3913C65.8202 66.5805 68.2534 62.7838 72.1033 59.8899C76.1549 56.8463 80.6611 55.7993 85.6026 56.6359C88.8426 57.1839 91.5499 58.6744 94.004 60.7364C94.3314 61.0127 94.6306 61.3101 94.8209 61.7011C94.979 62.0259 94.9844 62.3412 94.7069 62.63C94.2463 62.8396 93.8905 62.5192 93.5002 62.3952C93.0739 62.2586 92.6641 62.2444 92.2627 62.4806C92.0883 62.5832 91.9725 62.7242 92.0309 62.9533C92.1938 63.2517 92.5156 63.2025 92.7821 63.2418C93.2645 63.3114 93.6984 63.4818 94.0769 63.7728C94.5992 64.1751 95.0925 64.2148 95.6046 63.7186C95.7341 63.5933 95.923 63.528 96.136 63.405C97.0612 64.093 97.4059 65.1228 97.891 66.044C97.5249 66.7658 96.7773 67.0521 96.4721 67.7504C96.1883 68.4007 96.053 69.1404 95.5438 69.6414C94.9721 69.8348 94.5833 69.4877 94.1511 69.3415C93.3404 69.0672 92.5633 69.138 91.813 69.5693C91.5111 69.7427 91.2679 69.969 91.3346 70.3829C91.6087 70.7397 92.028 70.6212 92.3814 70.6224C93.3909 70.6257 94.3514 70.7606 95.2803 71.181C96.0807 71.5431 96.3534 71.416 96.7714 70.6184C96.9936 70.1941 97.1212 69.7232 97.3002 69.2772C97.5797 68.5803 97.6389 68.537 98.5454 68.2944C98.9901 68.5644 99.0867 69.0511 99.2015 69.5026C99.7512 71.6502 99.8125 73.8393 99.5764 76.0534C99.49 76.8566 99.085 77.3049 98.3236 77.6309C96.2474 78.5208 94.1117 79.2156 91.984 79.9455C89.2223 80.8928 86.4815 81.8927 83.7638 82.9763C80.9624 84.0941 78.0719 84.973 75.2183 85.947C74.1308 86.3177 73.0236 86.6297 71.9473 87.0316C70.957 87.4015 70.1862 87.2272 69.5873 86.3605C69.2236 85.8332 68.6227 85.4487 68.5964 84.6662L68.5976 84.6701ZM89.6003 66.1483C89.3915 65.4886 89.0372 65.5502 88.7225 65.6407C88.101 65.8189 87.6431 66.2371 87.2938 66.7801C87.0579 67.1465 86.7413 67.2725 86.3159 67.1807C86.0432 67.1216 85.7565 67.111 85.4742 67.1003C84.8564 67.0764 84.3732 67.3577 84.0028 67.8424C83.8492 68.0442 83.8118 68.278 84.0552 68.5273C84.6077 68.6634 85.0759 68.1428 85.6477 68.1545C86.24 68.1666 86.6765 68.6154 87.2496 68.6499C87.3383 68.6548 87.4319 68.6101 87.6129 68.5663C88.239 67.7973 88.2499 66.445 89.6007 66.1496L89.6003 66.1483Z" fill="#FF6A00"/>
<path d="M93.8125 123.136C93.0994 123.109 92.8089 122.63 92.4347 122.292C90.2607 120.336 88.2393 118.227 86.2734 116.062C85.7351 115.469 85.1583 114.91 84.5863 114.349C84.2884 114.055 84.009 113.723 83.5157 113.61C82.8057 114.519 82.3431 115.556 81.983 116.651C81.8343 117.105 81.6531 117.554 81.4586 117.992C81.3781 118.172 81.1945 118.263 80.9853 118.249C80.7762 118.236 80.6305 118.109 80.5392 117.942C80.3468 117.591 80.4194 117.2 80.4323 116.817C80.4493 116.304 80.696 115.777 80.4035 115.282C79.0627 115.05 78.7597 115.211 78.3372 116.367C77.8334 117.742 77.7203 119.181 77.5738 120.611C77.4911 121.422 77.4671 122.239 77.4292 123.053C77.4059 123.556 77.2346 123.985 76.8722 124.346C76.4601 124.757 75.9899 124.918 75.4372 124.748C74.8779 124.577 74.5652 124.166 74.5394 123.594C74.483 122.301 74.5139 121.003 74.881 119.74C75.1769 118.723 75.4643 117.698 75.8601 116.717C76.4338 115.301 75.8394 114.519 74.3206 114.513C73.7996 114.51 73.2742 114.531 72.7559 114.588C72.0645 114.664 71.5979 115.031 71.5162 115.77C71.4023 116.783 70.9275 117.702 70.7344 118.694C70.6391 119.18 70.4084 119.596 70.0429 119.937C69.649 120.305 69.2084 120.378 68.7186 120.215C68.1951 120.042 67.9977 119.633 67.9808 119.118C67.957 118.436 68.1589 117.789 68.376 117.148C68.6722 116.277 68.8526 115.383 68.9189 114.469C68.9339 114.271 68.8953 114.077 68.71 113.977C68.4652 113.844 68.2428 113.96 68.0625 114.127C67.6199 114.539 67.4341 115.089 67.2812 115.652C67.1167 116.256 66.9691 116.863 66.8028 117.466C66.7131 117.793 66.5745 118.103 66.3343 118.353C66.0479 118.651 65.7147 118.826 65.3094 118.664C64.9425 118.517 64.6368 118.269 64.6177 117.844C64.6 117.466 64.6287 117.074 64.7135 116.704C65.0205 115.373 65.0329 114.039 64.9409 112.697C64.9149 112.316 64.858 111.915 64.9454 111.552C65.3251 109.966 64.5997 108.717 63.7288 107.612C62.5641 106.134 61.1805 104.834 60.1102 103.267C59.9259 102.998 59.6822 102.762 59.4359 102.545C58.91 102.08 58.4197 102.087 57.9456 102.622C57.2709 103.384 56.7204 104.236 56.2951 105.164C55.6924 106.478 54.8849 107.685 54.3515 109.04C54.0279 109.861 53.3726 110.471 52.544 110.828C52.2714 110.947 51.9799 110.962 51.76 110.709C51.5444 110.461 51.559 110.168 51.7422 109.917C52.6904 108.611 52.9555 106.984 53.8228 105.633C54.1505 105.123 54.2348 104.457 54.4335 103.865C54.784 102.818 55.3535 101.859 55.6057 100.762C55.7933 99.9484 56.5515 99.5144 57.2694 99.2818C58.3674 98.9264 59.4606 98.8534 60.5798 99.4131C62.1256 100.185 63.5337 101.06 64.4927 102.55C65.0058 103.347 65.8158 103.754 66.6982 103.983C67.6097 104.222 68.5251 104.464 69.4853 104.495C70.2458 104.52 70.994 104.641 71.7194 104.87C73.009 105.278 74.1396 105.906 74.9126 107.075C75.1984 107.506 75.5366 107.905 75.8802 108.294C76.4527 108.941 77.1358 109.426 77.9855 109.662C78.6681 109.852 79.3276 110.131 80.0189 110.274C81.9738 110.68 83.6237 111.656 85.1155 112.916C86.9172 114.438 88.6015 116.086 90.2579 117.767C91.117 118.638 92.0089 119.48 92.8681 120.352C93.2299 120.72 93.5562 121.127 93.8848 121.528C94.3061 122.045 94.2519 122.565 93.8107 123.139L93.8125 123.136Z" fill="#AEFFE4"/>
<path d="M124.62 79.4822C124.361 78.9646 124.378 78.4177 124.595 77.9368C125.157 76.692 125.336 75.3482 125.755 74.0675C126.234 72.6004 125.766 71.3651 124.465 70.5232C124.349 70.4477 124.244 70.3537 124.093 70.2362C123.943 69.6786 124.095 69.1268 124.33 68.5962C124.565 68.0673 124.833 67.5532 125.095 67.0356C125.335 66.5616 125.592 66.0964 125.831 65.6228C126.38 64.5335 126.551 63.4704 125.934 62.335C125.372 61.3056 125.52 60.2272 126.066 59.2104C127.047 58.8072 127.736 59.0354 128.375 59.7882C129.319 60.9016 130.31 61.9837 131.546 62.7977C132.076 63.1465 132.376 63.6894 132.626 64.2598C132.704 64.44 132.701 64.6284 132.496 64.8813C131.996 65.0081 131.58 64.6585 131.155 64.4081C130.407 63.9658 129.622 63.7205 128.839 63.7904C128.552 63.9502 128.456 64.1311 128.45 64.3208C128.394 65.9909 128.061 67.6792 128.424 69.3269C128.792 70.9961 128.425 72.5532 127.855 74.1108C127.673 74.6074 127.497 75.1092 127.366 75.6205C127.232 76.1371 127.218 76.6686 127.372 77.1823C127.429 77.3696 127.556 77.5258 127.771 77.5302C127.983 77.5342 128.137 77.3891 128.202 77.2057C128.379 76.7065 128.523 76.1964 128.692 75.6941C128.85 75.2231 129.095 74.8189 129.577 74.6092C130.266 74.3108 130.832 74.6067 130.923 75.3455C130.963 75.6738 130.95 76.0143 130.929 76.3473C130.878 77.1121 130.81 77.877 130.743 78.642C130.692 79.2193 130.558 79.7679 130.27 80.2931C129.778 81.1911 129.607 82.2006 129.328 83.1693C129.207 83.5883 129.2 84.0157 129.414 84.4101C129.748 84.4557 129.797 84.1758 129.906 83.9878C130.337 83.2337 130.746 82.4669 131.186 81.7171C131.393 81.3649 131.7 81.1274 132.138 81.2455C132.546 81.3563 132.764 81.6518 132.811 82.0667C132.877 82.6453 132.775 83.2035 132.613 83.7689C132.052 85.7116 131.522 87.6629 130.978 89.6104C130.809 90.2114 130.712 90.8087 130.845 91.3879C131.18 91.4651 131.279 91.282 131.342 91.1122C131.545 90.5721 131.73 90.0236 131.914 89.4783C132.007 89.2056 132.052 88.9138 132.173 88.6546C132.437 88.0896 132.97 87.7668 133.416 87.859C133.813 87.9412 134.057 88.3447 134.045 89.0049C134.031 89.8723 133.845 90.7207 133.613 91.5575C133.071 93.5084 132.637 95.4765 132.394 97.4851C132.238 98.7699 131.815 99.9983 131.36 101.223C131.65 101.546 131.869 101.297 132.048 101.089C132.409 100.672 132.505 100.143 132.618 99.6235C132.839 98.6089 133.325 97.736 134.048 96.9881C134.432 96.5891 134.89 96.3483 135.427 96.2758C135.902 96.2111 136.257 96.4301 136.419 96.8888C136.615 97.4423 136.647 98.0175 136.459 98.5818C135.646 101.007 134.737 103.392 133.452 105.622C132.923 106.541 132.34 107.44 131.897 108.399C131.35 109.58 130.482 110.187 129.235 110.304C129.14 110.313 129.047 110.339 128.953 110.351C127.846 110.508 127.461 110.058 127.769 108.974C127.921 108.441 128.284 108.054 128.651 107.668C129.604 106.663 130.192 105.475 130.504 104.152C130.109 103.638 129.645 103.684 129.225 103.995C128.685 104.394 128.2 104.87 127.69 105.312C127.3 105.65 126.968 106.088 126.457 106.111C126.071 105.913 126.06 105.617 126.078 105.33C126.159 104.076 126.386 102.85 126.93 101.698C127.61 100.257 128.326 98.8347 129.188 97.4885C129.421 97.1244 129.637 96.7414 129.806 96.3441C130.036 95.799 129.957 95.4286 129.628 95.1735C129.137 94.7925 128.528 94.7845 128.075 95.1996C127.685 95.557 127.345 95.9703 126.964 96.3378C126.697 96.594 126.46 96.9433 125.937 96.8308C125.575 96.3566 125.705 95.7759 125.804 95.2243C125.983 94.224 126.405 93.2973 126.807 92.3667C127.095 91.7037 127.363 91.0311 127.67 90.3758C128.045 89.571 128.174 88.7241 128.235 87.8582C128.306 86.8553 127.637 86.2625 126.651 86.4461C126.324 86.5072 126.101 86.8489 125.736 86.7977C125.463 86.6197 125.579 86.3737 125.661 86.1599C125.9 85.5291 126.173 84.9157 126.523 84.3306C126.868 83.7525 127.153 83.1369 127.437 82.5244C127.641 82.0844 127.741 81.614 127.765 81.1273C127.846 79.5432 126.897 78.8356 125.41 79.3867C125.19 79.4685 124.997 79.6414 124.623 79.4769L124.62 79.4822Z" fill="#006739"/>
<path d="M145.289 74.1755C144.987 73.9852 145.077 73.6713 145.086 73.3989C145.111 72.6223 145.377 71.8922 145.597 71.1543C146.121 69.4002 146.65 67.6469 147.16 65.889C147.279 65.4761 147.38 65.0448 147.398 64.6196C147.429 63.9123 146.917 63.4586 146.213 63.5484C145.48 63.6419 144.821 63.891 144.459 64.6347C143.846 65.8911 143.226 67.1454 142.6 68.3975C142.406 68.7843 142.196 69.1638 141.971 69.5323C141.904 69.6424 141.756 69.704 141.656 69.78C141.317 69.6505 141.412 69.3782 141.44 69.1651C141.706 67.156 142.136 65.1893 143.169 63.3979C144.285 61.464 145.002 59.359 145.833 57.3046C146.011 56.8647 146.106 56.3772 146.149 55.9044C146.204 55.2994 145.8 54.9036 145.218 54.8867C144.38 54.8633 143.651 55.3266 143.286 56.109C143.022 56.6771 142.762 57.2465 142.476 57.8045C142.371 58.0088 142.231 58.225 141.942 58.2191C141.683 58.0595 141.76 57.8022 141.799 57.5781C142.421 53.9781 142.649 50.3291 143.415 46.7474C143.728 45.2797 143.584 43.7835 143.693 42.3003C143.745 41.5961 143.382 41.2783 142.653 41.2452C142.328 41.2303 141.992 41.3687 141.674 41.2084C141.299 40.2472 141.369 39.3461 141.962 37.4986C142.232 37.3724 142.421 37.5108 142.561 37.7092C143 38.3245 143.422 38.9499 143.854 39.5705C144.583 40.6159 145.271 41.6939 146.054 42.696C147.413 44.4318 147.793 46.4651 147.741 48.6081C147.716 49.6364 148.028 50.4634 148.589 51.2587C148.904 51.7063 149.426 51.8587 149.782 52.1963C149.993 52.5253 149.912 52.8594 149.867 53.1921C149.668 54.6194 149.465 56.0454 149.112 57.4497C148.971 58.008 148.85 58.5799 148.804 59.1498C148.707 60.3536 149.275 61.2424 150.388 61.7025C150.962 61.264 150.967 60.5274 151.264 59.9412C151.538 59.3959 151.625 58.7513 152.032 58.3504C152.451 58.3148 152.577 58.5163 152.615 58.7613C152.701 59.3327 152.659 59.9056 152.532 60.4753C151.894 63.3433 151.001 66.1376 149.949 68.8864C149.755 69.3945 149.481 69.8129 149.014 70.131C147.886 70.9012 146.963 71.8576 146.356 73.1205C146.043 73.7736 145.98 73.744 145.289 74.1742V74.1755Z" fill="#006739"/>
<path d="M64.4944 44.5006C64.5257 44.5729 64.575 44.7076 64.6428 44.8316C64.9534 45.403 64.7012 45.8244 64.284 46.2288C63.6128 46.8763 62.8431 47.3898 61.9901 47.7016C59.5512 48.5935 57.3245 49.9374 54.994 51.0603C53.3972 51.8289 51.7525 52.5045 50.092 53.1157C49.1574 53.4594 48.1577 53.655 47.1742 53.8C45.593 54.0323 44.6654 53.3088 43.9226 51.8928C43.2585 50.6262 43.4756 49.7759 44.4615 48.7586C45.38 47.8093 46.3224 46.9507 47.4624 46.3106C47.6291 46.2163 47.7942 46.0979 47.974 46.0502C49.4934 45.6483 51.0122 45.2393 52.5412 44.8821C52.8976 44.7994 53.3016 44.8649 53.6673 44.9376C54.5338 45.1115 55.3558 44.9891 56.1829 44.6686C57.2533 44.2527 58.3731 43.9714 59.3947 43.4178C59.4792 43.3718 59.5703 43.3148 59.6588 43.3096C60.7894 43.2399 61.9008 43.0298 63.0191 42.8465C63.6025 42.751 64.1038 43.1372 64.3165 43.749C64.3946 43.9713 64.4272 44.2106 64.4939 44.5037L64.4944 44.5006Z" fill="#DD9198"/>
<path d="M94.9178 135.289C95.3974 134.973 95.3008 134.552 95.3497 134.192C95.4593 133.384 95.5325 132.57 95.6286 131.761C95.6522 131.567 95.7301 131.383 95.9339 131.31C96.2179 131.21 96.403 131.393 96.5075 131.598C97.007 132.565 97.4955 133.539 97.8457 134.577C97.9822 134.982 98.0933 135.398 98.2605 135.79C98.4603 136.257 98.6641 136.743 99.1509 136.943C99.7595 136.714 99.4094 135.997 99.8345 135.753C100.431 135.755 100.464 136.505 101.079 136.522C101.421 136.098 100.941 135.504 101.303 135.066C101.698 134.932 101.825 135.275 101.906 135.496C102.478 137.045 103.393 138.453 103.611 140.154C103.727 141.045 103.958 141.934 104.444 142.715C104.543 142.873 104.622 143.052 104.674 143.232C104.884 143.956 104.409 144.577 103.706 144.383C102.258 143.981 100.789 143.595 99.8044 142.291C98.8248 140.996 97.5685 140.081 96.0822 139.365C94.3978 138.554 92.7111 137.731 91.1305 136.68C89.4217 135.544 87.6107 134.472 85.5137 134.099C84.9059 133.99 84.523 133.676 84.2197 133.132C83.6654 132.139 83.1421 131.142 82.7654 130.056C82.2883 128.681 82.4948 127.326 82.8489 125.966C82.8785 125.851 83.0372 125.768 83.125 125.682C83.6586 125.692 83.8704 126.096 84.1141 126.429C84.6226 127.123 84.9285 127.922 85.1703 128.748C85.2767 129.112 85.3697 129.489 85.6467 129.766C85.8201 129.94 86.0415 130.021 86.294 129.955C86.549 129.887 86.7216 129.714 86.75 129.456C86.7858 129.123 86.7772 128.789 86.7878 128.455C86.7966 128.171 86.7691 127.874 87.0892 127.707C87.4828 127.749 87.6105 128.069 87.7586 128.362C88.0593 128.953 88.3472 129.55 88.6579 130.136C88.7723 130.353 88.9628 130.502 89.2361 130.438C89.4363 130.39 89.5475 130.244 89.6152 130.046C89.7215 129.739 89.6376 129.359 89.9591 129.137C90.3354 129.085 90.4477 129.361 90.5709 129.617C91.0419 130.599 91.4768 131.597 91.8024 132.645C91.9987 133.274 92.2016 133.924 92.8923 134.284C93.1812 134.223 93.4998 134.154 93.8036 134.089C94.3226 134.341 94.4227 134.946 94.9195 135.29L94.9178 135.289Z" fill="#006739"/>
<path d="M139.16 115.75C139.491 114.601 139.815 113.448 140.157 112.301C140.435 111.375 140.638 110.44 140.709 109.475C140.753 108.862 140.771 108.226 141.218 107.627C141.968 107.483 142.66 107.849 143.382 107.995C143.621 108.044 143.734 108.286 143.833 108.509C144.024 108.935 144.052 109.444 144.431 109.769C144.815 109.873 144.947 109.625 145.054 109.337C145.442 108.299 145.812 107.254 146.226 106.227C146.471 105.617 146.768 105.488 147.348 105.676C148.179 105.945 148.86 106.379 149.286 107.207C149.837 108.272 150.202 109.396 150.442 110.565C150.71 111.871 150.907 113.194 151.142 114.508C151.318 115.481 151.204 116.372 150.665 117.267C149.647 118.962 148.656 120.676 147.818 122.471C147.602 122.934 147.429 123.477 146.82 123.654C146.255 123.474 146.189 123.018 146.266 122.513C146.346 121.992 146.49 121.478 146.566 120.956C146.897 118.673 147.219 116.389 147.529 114.104C147.586 113.678 147.601 113.243 147.594 112.813C147.587 112.434 147.364 112.194 146.99 112.139C146.593 112.079 146.198 112.312 146.094 112.695C146.005 113.017 145.988 113.358 145.93 113.687C145.712 114.917 145.512 116.152 145.263 117.377C145.169 117.842 144.979 118.295 144.796 118.741C144.646 119.106 144.393 119.436 144.02 119.563C142.988 119.918 142.024 119.791 142.104 118.195C142.16 117.063 142.308 115.905 142.778 114.819C143.122 114.022 143.407 113.196 143.505 112.33C143.567 111.791 143.179 111.423 142.638 111.482C142.337 111.514 142.084 111.651 141.974 111.959C141.893 112.184 141.83 112.418 141.781 112.652C141.481 114.121 140.473 115.04 139.164 115.749L139.16 115.75Z" fill="#006739"/>
<path d="M146.356 98.3122C146.681 98.3724 147.012 98.4101 147.33 98.4962C148.105 98.7082 148.827 98.6271 149.498 98.1324C150.095 97.6917 150.754 97.7105 151.409 97.8949C151.981 98.0564 152.28 98.4803 152.209 99.0687C152.158 99.4918 152.048 99.9192 151.897 100.32C151.716 100.807 151.332 101.102 150.815 101.156C150.392 101.201 149.957 101.252 149.539 101.21C147.659 101.021 145.782 100.805 143.906 100.585C142.805 100.457 142.029 99.9897 141.552 98.8678C140.609 96.648 139.495 94.5066 138.472 92.3227C138.05 91.4237 137.675 90.5033 137.292 89.5852C137.166 89.2845 137.015 88.9763 137.119 88.6254C137.379 88.2449 137.743 88.3633 138.014 88.4957C138.968 88.9617 140 89.0708 141.032 89.1944C141.692 89.2725 142.326 89.4201 142.956 89.6437C143.753 89.9268 144.588 90.1056 145.397 90.357C145.986 90.5391 146.264 90.9846 146.273 91.6609C146.281 92.2433 146.039 92.5504 145.363 92.7864C145.093 92.8806 144.805 92.92 144.54 93.0269C144.123 93.1942 144.007 93.5144 144.141 93.9667C144.318 94.5685 144.714 94.9437 145.31 95.0783C145.954 95.2228 146.609 95.3242 147.259 95.4419C148.319 95.6361 148.808 96.5515 148.382 97.5612C148.24 97.8974 147.985 98.0899 147.619 98.138C147.195 98.1928 146.773 98.2657 146.351 98.3298C145.962 98.0948 145.627 98.035 145.346 98.1504C145.627 98.5471 146.009 98.3409 146.358 98.3144L146.356 98.3122Z" fill="#006739"/>
<path d="M91.718 153.564C91.4904 153.44 91.2806 153.392 91.1769 153.26C90.3921 152.253 89.6048 151.244 89.5776 149.858C89.5737 149.669 89.5552 149.474 89.5072 149.293C89.4284 148.993 89.2171 148.791 88.9157 148.752C88.5678 148.708 88.3673 148.959 88.3269 149.258C88.1216 150.737 87.2188 151.793 86.2094 152.787C85.6235 153.363 85.4418 154.047 85.806 154.753C86.1568 155.435 85.9126 155.942 85.508 156.466C85.2724 156.773 85.0402 157.081 84.8106 157.393C84.6052 157.671 84.4507 157.972 84.4828 158.326C84.5119 158.652 84.4569 159.034 84.8012 159.221C85.1701 159.42 85.415 159.129 85.6703 158.909C85.9119 158.701 86.0682 158.354 86.4566 158.346C86.5617 159.107 86.4073 159.496 85.8938 159.76C85.7673 159.825 85.6282 159.882 85.4889 159.902C83.8374 160.127 82.2026 159.973 80.5734 159.93C80.4223 159.33 80.7251 159.062 81.0099 158.824C81.6029 158.331 82.2249 157.875 82.8276 157.395C83.2373 157.068 83.6699 156.75 83.7561 156.123C82.6828 155.273 81.8151 156.394 80.8247 156.531C80.7074 155.867 81.0523 155.445 81.3694 155.041C82.2952 153.863 83.2368 152.7 84.1875 151.542C84.5573 151.092 84.9368 150.655 85.1297 150.095C85.2545 149.732 84.96 149.393 84.5904 149.508C84.2777 149.605 83.9861 149.774 83.702 149.902C83.3337 149.695 83.4414 149.398 83.5417 149.137C83.9241 148.146 84.3547 147.174 84.7112 146.175C85.1156 145.04 85.4645 143.886 85.8299 142.739C85.9169 142.463 85.9701 142.178 86.0536 141.901C86.2244 141.335 86.6168 141.004 87.181 140.908C87.8186 140.8 88.2976 141.073 88.5969 141.622C88.9134 142.203 89.2014 142.795 89.3242 143.468C89.7164 145.614 90.5902 147.534 91.9456 149.218C91.9745 149.255 92.0025 149.294 92.0319 149.332C93.0951 150.764 93.572 151.45 91.718 153.564Z" fill="#006739"/>
<path d="M33.2789 78.7634C32.7869 78.0715 32.0646 77.9783 31.38 77.9029C31.0202 77.8631 30.8758 77.4144 31.1452 77.1647C31.1478 77.1638 31.1487 77.162 31.1509 77.1598C32.5002 75.9193 33.9103 74.7804 35.5546 73.9405C36.5057 73.4543 37.5161 73.2042 38.5016 72.8563C39.4465 72.5221 40.4271 72.2981 41.3707 71.96C42.3297 71.6152 43.3053 71.454 44.3021 71.4121C45.5185 71.3615 46.734 71.2195 47.9354 70.9949C48.7082 70.8499 49.4816 70.9767 50.2554 70.9463C50.393 70.9405 50.5335 70.9948 50.6694 71.0347C51.6366 71.3214 51.8875 72.1764 51.1347 72.8791C50.2906 73.6666 49.3482 74.3578 48.2563 74.7606C46.2862 75.4881 44.3046 76.1831 42.3276 76.8882C42.0125 77.0006 41.6816 77.0718 41.3745 77.2005C39.7668 77.8738 38.0929 78.2276 36.3777 78.3422C35.5181 78.4002 34.6904 78.5929 33.7575 78.9143C33.5801 78.9743 33.3867 78.9131 33.2798 78.7616L33.2789 78.7634Z" fill="#DD9198"/>
<path d="M158.096 86.5588C156.549 87.7791 155.114 88.8698 154.022 90.2604C153.579 90.0654 153.627 89.8136 153.7 89.5867C154.031 88.5813 154.357 87.5733 154.721 86.5788C155.17 85.3534 155.527 84.1081 155.755 82.8278C155.805 82.546 155.838 82.2556 155.832 81.9723C155.826 81.621 155.362 81.4156 155.091 81.6513C154.879 81.8366 154.693 82.064 154.534 82.2996C153.936 83.1769 153.363 84.0691 152.761 84.9447C152.551 85.2499 152.379 85.6397 151.832 85.6196C151.308 84.8878 151.072 84.064 151.362 83.1207C151.799 81.6942 152.216 80.2611 152.701 78.8502C154.071 74.8707 154.919 70.7867 155.503 66.6422C155.548 66.3245 155.472 65.9603 155.809 65.7226C156.127 65.6892 156.194 65.956 156.259 66.1639C156.949 68.3891 157.452 70.663 157.733 72.986C157.852 73.9786 157.914 74.9806 158.019 75.9762C158.233 77.9742 158.118 79.9875 158.189 81.9912C158.228 83.0869 158.372 84.1772 158.247 85.2801C158.198 85.7055 158.147 86.1313 158.097 86.5601L158.096 86.5588ZM155.6 78.6846C155.678 78.6333 155.785 78.5999 155.832 78.5273C156.675 77.2326 156.932 75.7795 157.008 74.2873C157.021 74.0312 156.58 73.8604 156.328 73.9778C156.097 74.085 155.931 74.2574 155.857 74.4962C155.547 75.5077 155.237 76.5204 154.947 77.5379C154.851 77.8729 154.907 78.2074 155.11 78.4938C155.227 78.658 155.388 78.7417 155.599 78.6833L155.6 78.6846Z" fill="#006739"/>
<path d="M98.9497 149.014C98.7907 150.204 98.6171 151.385 98.0328 152.479C97.7017 153.098 97.7277 153.782 97.8915 154.447C98.0161 154.953 98.3745 155.156 98.8559 154.976C99.2097 154.843 99.5433 154.65 99.8653 154.495C100.177 154.598 100.191 154.826 100.179 155.074C100.15 155.648 100.125 156.221 100.101 156.795C100.084 157.209 99.9301 157.566 99.5459 157.741C98.6727 158.137 97.7701 158.374 96.7299 158.197C96.5302 157.055 97.3544 155.743 96.2262 154.782C95.5815 154.872 95.2311 155.313 94.9247 155.817C94.5223 156.478 94.0765 157.108 93.4909 157.624C93.3404 157.757 93.1616 157.841 92.9706 157.764C92.7101 157.66 92.6786 157.41 92.6797 157.167C92.6815 156.814 92.8982 156.54 93.0518 156.241C93.5362 155.297 94.0516 154.365 94.4721 153.394C95.1318 151.871 95.397 150.263 95.4518 148.618C95.5057 146.993 96.2634 145.561 96.8568 144.097C97.1598 143.35 97.782 143.183 98.5315 143.424C98.9967 143.573 99.3752 143.841 99.6542 144.241C100.371 145.269 101.381 145.834 102.591 146.038C103.894 146.258 104.908 147.063 106.033 147.638C106.318 147.783 106.547 148.051 106.774 148.288C107.221 148.758 107.273 149.157 107.001 149.716C106.703 150.329 106.275 150.578 105.609 150.476C105.335 150.434 105.046 150.355 104.814 150.213C103.357 149.317 101.728 148.817 100.151 148.197C99.3423 147.879 99.1708 148.014 98.9618 148.993L98.9479 149.018L98.9497 149.014Z" fill="#006739"/>
<path d="M96.3285 50.1585C96.4424 49.96 96.4824 49.7995 96.5835 49.7231C98.1909 48.5043 99.7381 47.1808 101.677 46.5132C104.029 45.7047 106.355 44.7855 108.749 44.1503C110.457 43.6975 112.165 43.2509 113.817 42.6266C115.784 41.8824 117.811 41.3264 119.765 40.5331C120.958 40.0495 122.273 40.002 123.552 39.9212C123.74 39.9099 123.926 39.975 124.015 40.178C124.103 40.3823 124.023 40.5679 123.885 40.7003C123.644 40.9318 123.381 41.1428 123.113 41.3411C121.627 42.4448 119.958 43.1579 118.228 43.7372C116.867 44.193 115.51 44.6593 114.15 45.1207C113.29 45.4119 112.458 45.7614 111.636 46.1662C110.476 46.7375 109.24 47.1397 107.969 47.3776C106.223 47.7032 104.558 48.2608 102.966 49.0772C102.156 49.4921 101.332 49.8828 100.499 50.242C99.6057 50.6255 98.6563 50.7357 97.7031 50.7032C97.2346 50.6871 96.7589 50.6109 96.3281 50.1572L96.3285 50.1585Z" fill="#DD9198"/>
<path d="M133.526 112.127C132.526 112.503 131.619 111.798 131.811 110.858C131.905 110.397 132.11 109.94 132.344 109.526C133.585 107.346 134.722 105.118 135.681 102.8C136.108 101.767 136.886 100.948 137.524 100.047C137.877 99.5513 138.376 99.4579 138.926 99.6168C139.152 99.6813 139.375 99.7603 139.593 99.8495C140.188 100.09 140.422 100.542 140.413 101.195C140.394 102.518 140.016 103.766 139.473 104.945C138.221 107.662 136.323 109.886 134.042 111.793C133.86 111.944 133.642 112.055 133.526 112.129V112.127Z" fill="#006739"/>
<path d="M43.3149 102.966C45.1139 102.487 45.1764 102.799 45.9111 104.134C46.2336 104.72 46.5269 105.283 47.2911 105.413C47.6791 105.478 47.9036 105.857 48.0174 106.222C48.2864 107.084 48.8365 107.673 49.591 108.135C50.092 108.441 50.1496 108.756 49.9708 109.217C49.7548 109.777 49.3765 109.985 48.846 109.724C48.0057 109.308 47.164 108.879 46.3871 108.359C45.4868 107.756 44.5605 107.213 43.6066 106.704C42.7381 106.24 41.8954 105.723 41.0696 105.186C40.7212 104.959 40.4282 104.64 40.1392 104.333C39.9394 104.121 39.8627 103.847 39.9599 103.54C40.2659 102.565 40.4053 101.582 40.2109 100.573C40.1628 100.326 40.2885 100.1 40.5245 99.9807C40.7553 99.8634 41.0141 99.8733 41.1849 100.053C41.4735 100.358 41.7248 100.698 41.9797 101.035C42.4322 101.633 42.7015 102.36 43.3162 102.966H43.3149Z" fill="#006739"/>
<path d="M138.737 87.0081C138.558 87.1195 138.328 87.1011 138.186 86.9515C137.031 85.7432 136.693 84.2487 136.545 82.6923C136.474 81.9482 136.858 81.4824 137.587 81.3727C138.9 81.1758 140.223 81.0496 141.551 81.0894C141.736 81.0952 141.926 81.1414 142.101 81.2031C142.48 81.3394 142.724 81.6077 142.793 82.0206C142.866 82.453 142.676 82.7673 142.322 82.9862C142.156 83.0888 141.987 83.1839 141.819 83.2755C141.467 83.4689 141.522 83.99 141.903 84.0925C141.906 84.0929 141.907 84.0938 141.91 84.0942C142.364 84.2158 142.832 84.2846 143.291 84.3881C143.796 84.5024 144.105 84.8257 144.242 85.3263C144.505 86.2861 144.1 86.9339 143.116 87.0776C142.84 87.1187 142.55 87.0944 142.27 87.0657C141.706 87.0091 141.143 86.9464 140.585 86.8543C139.944 86.748 139.312 86.6478 138.737 87.005V87.0081Z" fill="#006739"/>
<path d="M122.351 79.1718C122.569 79.427 122.618 79.671 122.589 79.9048C122.464 80.9145 123.07 81.8357 122.96 82.8155C122.302 83.2781 121.624 83.3533 120.974 83.3955C119.526 83.4911 118.158 83.8142 116.899 84.5937C116.655 84.7444 116.388 84.8597 116.124 84.9737C115.849 85.0912 115.546 85.1372 115.304 84.9555C114.336 84.2282 113.324 83.5363 112.836 82.3309C113.184 81.7897 113.701 81.6207 114.202 81.5198C116.601 81.04 118.86 80.0808 121.187 79.3505C121.545 79.2379 121.898 79.049 122.351 79.1718ZM114.965 83.1922C115.586 83.3311 116.17 83.1381 116.749 82.9508C117.293 82.7742 117.831 82.5792 118.368 82.3886C119.107 82.1282 119.618 81.8291 119.903 81.4912C118.13 81.8292 116.584 82.6036 114.963 83.1927L114.965 83.1922Z" fill="#4177ED"/>
<path d="M122.305 86.8521C122.858 87.0809 123.295 86.5696 123.757 86.7842C123.976 86.9981 123.903 87.2237 123.753 87.4229C123.609 87.6141 123.458 87.8281 123.261 87.9458C122.232 88.5556 121.203 89.1756 120.038 89.4883C119.802 89.552 119.568 89.5543 119.356 89.4164C119.059 89.2244 118.899 88.9527 118.896 88.5856C119.088 87.9809 119.789 88.112 120.136 87.7153C119.818 87.4649 119.488 87.6274 119.184 87.7099C118.393 87.9266 117.793 87.7047 117.336 87.0447C117.124 86.7381 116.825 86.4886 116.771 86.0966C116.798 85.7368 117.065 85.6043 117.329 85.4961C117.771 85.316 118.222 85.1534 118.672 84.9952C119.618 84.665 120.571 84.3716 121.448 83.841C121.973 83.5222 122.562 83.2808 123.214 83.3441C123.721 83.6305 124.066 84.0916 124.364 84.5638C124.788 85.2336 124.489 85.9024 123.721 86.0966C123.399 86.1779 123.062 86.1973 122.739 86.2803C122.505 86.3405 122.298 86.4718 122.303 86.8526L122.305 86.8521Z" fill="#4177ED"/>
<path d="M138.73 32.8682C139.723 33.4956 140.234 34.3992 140.758 35.2824C140.869 35.4678 140.895 35.7439 140.866 35.9676C140.723 37.1044 140.589 38.2451 140.369 39.3699C140.25 39.9716 140.001 40.5607 139.741 41.1244C139.5 41.648 138.916 41.751 138.582 41.3259C137.939 40.5103 137.352 39.6453 137.433 38.5123C137.529 37.1794 137.63 35.8473 137.758 34.5165C137.819 33.8834 138.059 33.3193 138.73 32.8682Z" fill="#006739"/>
<path d="M140.277 44.8217C141.282 44.482 141.993 44.8757 142.205 45.8806C142.334 46.4932 142.234 47.1133 142.157 47.7298C142.075 48.392 141.98 49.0538 141.91 49.7178C141.799 50.7824 141.411 51.7533 140.898 52.6847C140.722 53.003 140.475 53.2205 140.098 53.1707C139.743 53.1247 139.497 52.8951 139.368 52.5751C139.281 52.3615 139.235 52.1197 139.22 51.8874C139.134 50.4648 138.971 49.0447 139.054 47.6112C139.09 46.9909 139.146 46.3741 139.34 45.7747C139.499 45.283 139.798 44.9374 140.279 44.8213L140.277 44.8217Z" fill="#006739"/>
<path d="M131.545 72.3097C131.383 71.7258 131.251 71.3178 131.347 70.8739C131.45 70.3894 131.842 70.123 132.293 70.2454C132.338 70.2575 132.385 70.2679 132.426 70.2906C133.656 70.9742 134.926 71.601 136.098 72.374C136.549 72.6712 136.95 72.9138 137.484 72.9485C137.915 72.9757 138.328 73.0588 138.634 73.4062C139.03 73.857 138.871 74.5727 138.299 74.6558C136.606 74.9026 134.905 75.1274 133.336 74.19C132.509 73.6944 131.802 73.1027 131.546 72.3079L131.545 72.3097Z" fill="#006739"/>
<path d="M139.86 80.2832C138.062 80.3894 136.215 80.5516 134.591 79.4396C134.121 79.1183 133.769 77.9484 133.988 77.3884C134.066 77.1935 134.23 77.0607 134.413 77.0467C134.738 77.0212 135.071 77.0295 135.393 77.0704C136.045 77.1538 136.701 77.2012 137.351 77.2736C138.27 77.3761 139.165 77.6232 140.102 77.6831C140.705 77.7219 141.007 78.2688 140.985 78.9338C140.962 79.6208 140.572 80.102 139.859 80.2819L139.86 80.2832Z" fill="#006739"/>
<path d="M111.184 80.5763C112.782 79.4292 119.903 77.1846 122.385 77.0449C122.748 77.8823 122.665 78.2318 121.967 78.4797C121.475 78.6548 120.939 78.6965 120.447 78.8702C117.928 79.7629 115.31 80.3473 112.904 81.5873C111.912 82.0991 111.46 81.7979 111.185 80.5759L111.184 80.5763Z" fill="#4177ED"/>
<path d="M124.403 91.3482C122.916 91.8515 121.388 92.3725 119.856 92.8821C119.625 92.9603 119.38 92.931 119.199 92.7433C118.965 92.4997 119.049 92.2209 119.169 91.952C119.285 91.6902 119.527 91.4266 119.517 91.1767C119.479 90.2164 120.117 89.9423 120.841 89.7615C121.578 89.5775 122.324 89.4256 123.07 89.2969C123.68 89.1925 123.936 89.3298 124.204 89.8852C124.384 90.2577 124.626 90.6314 124.405 91.3477L124.403 91.3482Z" fill="#4177ED"/>
<path d="M62.6526 109.629C62.9408 110.487 62.7743 111.011 62.1859 111.397C61.5864 111.791 61.0661 111.753 60.5445 111.171C59.8183 110.362 59.2748 109.417 58.8539 108.413C58.5898 107.781 58.7418 107.337 59.2052 107.02C59.7909 106.62 60.4285 106.605 60.8903 107.097C61.6308 107.887 62.1902 108.818 62.6526 109.629Z" fill="#AEFFE4"/>
<path d="M109.293 79.4489C113.507 77.5229 117.926 76.549 122.289 75.4209C122.421 75.8213 122.362 76.0042 122.167 76.0876C121.73 76.2747 121.283 76.4391 120.837 76.603C117.656 77.7751 114.338 78.4523 111.14 79.5674C110.521 79.7842 109.893 79.9019 109.294 79.4484L109.293 79.4489Z" fill="#4177ED"/>
<path d="M55.0526 98.5775C55.043 99.4362 54.6349 99.8929 53.9199 100.135C52.7869 100.518 51.6563 100.913 50.5283 101.313C49.5366 101.664 48.5464 102.025 47.5596 102.392C47.1637 102.539 46.8232 102.566 46.5625 102.168C46.3513 101.845 46.4346 101.488 46.7775 101.33C46.8206 101.31 46.8645 101.288 46.9105 101.276C49.2258 100.659 51.3881 99.6163 53.5991 98.7113C54.0295 98.5352 54.4719 98.2953 55.0522 98.5762L55.0526 98.5775Z" fill="#4177ED"/>
<path d="M157.861 90.0508C157.914 90.4854 157.966 90.628 157.941 90.7572C157.718 91.8886 157.647 93.0229 157.723 94.1667C157.776 94.975 157.593 95.6583 156.796 96.0994C156.281 96.3844 156.019 96.9283 155.752 97.4419C155.628 97.6787 155.565 98.0071 155.183 97.9704C154.96 97.0451 154.968 96.4095 155.282 95.4987C155.687 94.323 156.106 93.1526 156.547 91.9896C156.798 91.324 157.169 90.723 157.863 90.0517L157.861 90.0508Z" fill="#006739"/>
<path d="M123.24 95.99C121.965 95.48 120.624 94.3581 120.082 93.4139C120.089 93.1991 120.217 93.051 120.39 92.9664C120.602 92.8641 120.83 92.7489 121.057 92.7335C122.043 92.6706 122.953 92.1561 123.982 92.1514C124.302 92.8809 123.809 93.4609 123.685 94.082C123.566 94.6838 123.407 95.2787 123.241 95.9882L123.24 95.99Z" fill="#4177ED"/>
<path d="M48.7715 103.175C48.9818 102.801 49.2506 102.675 49.5069 102.565C50.9499 101.946 52.3991 101.343 53.85 100.744C53.9193 100.715 54.0252 100.78 54.1868 100.818C54.3353 101.606 53.8876 102.243 53.5337 102.897C53.4768 103.003 53.3071 103.069 53.177 103.113C52.3218 103.404 51.466 103.698 50.603 103.964C49.6113 104.269 49.5022 104.212 48.7715 103.175Z" fill="#4177ED"/>
<path d="M50.1035 104.823C51.2054 104.141 51.6853 104.016 52.9017 104.105C52.9069 105.295 52.1749 106.19 51.8106 107.276C50.819 106.553 50.6157 106.25 50.1048 104.823H50.1035Z" fill="#4177ED"/>
<path d="M155.123 104.007C155.184 102.941 155.668 102.132 156.145 101.21C156.383 101.966 156.363 102.529 156.052 103.171C155.876 103.533 155.713 103.958 155.123 104.007Z" fill="#006739"/>
<path d="M141.266 131.347C141.212 131.254 141.236 131.172 141.342 131.123C141.377 131.107 141.45 131.115 141.47 131.14C141.533 131.224 141.504 131.31 141.397 131.363C141.363 131.379 141.31 131.354 141.266 131.347Z" fill="black"/>
<path d="M138.008 115.028C137.973 115.024 137.937 115.02 137.9 115.017C137.907 114.98 137.902 114.928 137.925 114.909C137.944 114.892 137.994 114.912 138.031 114.915C138.024 114.952 138.016 114.991 138.008 115.028Z" fill="black"/>
</g>
</g>
</g>
</g>
<defs>
<clipPath id="clip0_800_7726">
<rect width="168" height="168" fill="white"/>
</clipPath>
</defs>
</svg>