<?xml version="1.0" encoding="UTF-8"?>
<svg id="Layer_1" data-name="Layer 1" xmlns="http://www.w3.org/2000/svg" viewBox="0 0 147.6 148.3">
  <text transform="translate(139.3 84.5) rotate(100.5)" style="fill: #232a3d; font-family: K2D-SemiBold, K2D; font-size: 9px; font-weight: 600;"><tspan x="0" y="0">-</tspan></text>
  <text transform="translate(137.5 92.7) rotate(107)" style="fill: #232a3d; font-family: K2D-SemiBold, K2D; font-size: 9px; font-weight: 600;"><tspan x="0" y="0"> </tspan></text>
  <text transform="translate(135.5 98.8) rotate(114.2)" style="fill: #232a3d; font-family: K2D-SemiBold, K2D; font-size: 9px; font-weight: 600;"><tspan x="0" y="0">R</tspan></text>
  <text transform="translate(131.1 107.8) rotate(122.7)" style="fill: #232a3d; font-family: K2D-SemiBold, K2D; font-size: 9px; font-weight: 600;"><tspan x="0" y="0">E</tspan></text>
  <text transform="translate(125.9 115.5) rotate(131)" style="fill: #232a3d; font-family: K2D-SemiBold, K2D; font-size: 9px; font-weight: 600;"><tspan x="0" y="0">Q</tspan></text>
  <text transform="translate(119 123) rotate(139.8)" style="fill: #232a3d; font-family: K2D-SemiBold, K2D; font-size: 9px; font-weight: 600;"><tspan x="0" y="0">U</tspan></text>
  <text transform="translate(110.9 129.4) rotate(148.4)" style="fill: #232a3d; font-family: K2D-SemiBold, K2D; font-size: 9px; font-weight: 600;"><tspan x="0" y="0">E</tspan></text>
  <text transform="translate(102.7 134.2) rotate(156.7)" style="fill: #232a3d; font-family: K2D-SemiBold, K2D; font-size: 9px; font-weight: 600;"><tspan x="0" y="0">S</tspan></text>
  <text transform="translate(93.9 137.7) rotate(165)" style="fill: #232a3d; font-family: K2D-SemiBold, K2D; font-size: 9px; font-weight: 600;"><tspan x="0" y="0">T</tspan></text>
  <text transform="translate(84.1 139.9) rotate(172.2)" style="fill: #232a3d; font-family: K2D-SemiBold, K2D; font-size: 9px; font-weight: 600;"><tspan x="0" y="0"> </tspan></text>
  <text transform="translate(77.7 140.7) rotate(179.1)" style="fill: #232a3d; font-family: K2D-SemiBold, K2D; font-size: 9px; font-weight: 600;"><tspan x="0" y="0">A</tspan></text>
  <text transform="translate(67.4 140.4) rotate(-173.5)" style="fill: #232a3d; font-family: K2D-SemiBold, K2D; font-size: 9px; font-weight: 600;"><tspan x="0" y="0"> </tspan></text>
  <text transform="translate(61 139.6) rotate(-166.3)" style="fill: #232a3d; font-family: K2D-SemiBold, K2D; font-size: 9px; font-weight: 600;"><tspan x="0" y="0">C</tspan></text>
  <text transform="translate(51.2 136.9) rotate(-157.4)" style="fill: #232a3d; font-family: K2D-SemiBold, K2D; font-size: 9px; font-weight: 600;"><tspan x="0" y="0">A</tspan></text>
  <text transform="translate(41.9 132.6) rotate(-149)" style="fill: #232a3d; font-family: K2D-SemiBold, K2D; font-size: 9px; font-weight: 600;"><tspan x="0" y="0">L</tspan></text>
  <text transform="translate(34.1 127.6) rotate(-140.9)" style="fill: #232a3d; font-family: K2D-SemiBold, K2D; font-size: 9px; font-weight: 600;"><tspan x="0" y="0">L</tspan></text>
  <text transform="translate(27 121.4) rotate(-134.1)" style="fill: #232a3d; font-family: K2D-SemiBold, K2D; font-size: 9px; font-weight: 600;"><tspan x="0" y="0"> </tspan></text>
  <text transform="translate(22.7 116.7) rotate(-127)" style="fill: #232a3d; font-family: K2D-SemiBold, K2D; font-size: 9px; font-weight: 600;"><tspan x="0" y="0">B</tspan></text>
  <text transform="translate(17.1 108.8) rotate(-118.6)" style="fill: #232a3d; font-family: K2D-SemiBold, K2D; font-size: 9px; font-weight: 600;"><tspan x="0" y="0">A</tspan></text>
  <text transform="translate(12.5 99.9) rotate(-109.9)" style="fill: #232a3d; font-family: K2D-SemiBold, K2D; font-size: 9px; font-weight: 600;"><tspan x="0" y="0">C</tspan></text>
  <text transform="translate(9.4 90.3) rotate(-101.2)" style="fill: #232a3d; font-family: K2D-SemiBold, K2D; font-size: 9px; font-weight: 600;"><tspan x="0" y="0">K</tspan></text>
  <text transform="translate(7.8 80.4) rotate(-94.1)" style="fill: #232a3d; font-family: K2D-SemiBold, K2D; font-size: 9px; font-weight: 600;"><tspan x="0" y="0"> </tspan></text>
  <text transform="translate(8.3 63.9) rotate(-79.6)" style="fill: #232a3d; font-family: K2D-SemiBold, K2D; font-size: 9px; font-weight: 600;"><tspan x="0" y="0">-</tspan></text>
  <text transform="translate(10.1 55.7) rotate(-73.1)" style="fill: #232a3d; font-family: K2D-SemiBold, K2D; font-size: 9px; font-weight: 600;"><tspan x="0" y="0"> </tspan></text>
  <text transform="translate(12.1 49.6) rotate(-65.9)" style="fill: #232a3d; font-family: K2D-SemiBold, K2D; font-size: 9px; font-weight: 600;"><tspan x="0" y="0">R</tspan></text>
  <text transform="translate(16.4 40.6) rotate(-57.3)" style="fill: #232a3d; font-family: K2D-SemiBold, K2D; font-size: 9px; font-weight: 600;"><tspan x="0" y="0">E</tspan></text>
  <text transform="translate(21.7 32.9) rotate(-49.1)" style="fill: #232a3d; font-family: K2D-SemiBold, K2D; font-size: 9px; font-weight: 600;"><tspan x="0" y="0">Q</tspan></text>
  <text transform="translate(28.6 25.4) rotate(-40.3)" style="fill: #232a3d; font-family: K2D-SemiBold, K2D; font-size: 9px; font-weight: 600;"><tspan x="0" y="0">U</tspan></text>
  <text transform="translate(36.6 19) rotate(-31.7)" style="fill: #232a3d; font-family: K2D-SemiBold, K2D; font-size: 9px; font-weight: 600;"><tspan x="0" y="0">E</tspan></text>
  <text transform="translate(44.8 14.2) rotate(-23.4)" style="fill: #232a3d; font-family: K2D-SemiBold, K2D; font-size: 9px; font-weight: 600;"><tspan x="0" y="0">S</tspan></text>
  <text transform="translate(53.6 10.7) rotate(-15.1)" style="fill: #232a3d; font-family: K2D-SemiBold, K2D; font-size: 9px; font-weight: 600;"><tspan x="0" y="0">T</tspan></text>
  <text transform="translate(63.5 8.4) rotate(-7.9)" style="fill: #232a3d; font-family: K2D-SemiBold, K2D; font-size: 9px; font-weight: 600;"><tspan x="0" y="0"> </tspan></text>
  <text transform="translate(69.9 7.7) rotate(-.9)" style="fill: #232a3d; font-family: K2D-SemiBold, K2D; font-size: 9px; font-weight: 600;"><tspan x="0" y="0">A</tspan></text>
  <text transform="translate(80.1 7.9) rotate(6.4)" style="fill: #232a3d; font-family: K2D-SemiBold, K2D; font-size: 9px; font-weight: 600;"><tspan x="0" y="0"> </tspan></text>
  <text transform="translate(86.5 8.8) rotate(13.6)" style="fill: #232a3d; font-family: K2D-SemiBold, K2D; font-size: 9px; font-weight: 600;"><tspan x="0" y="0">C</tspan></text>
  <text transform="translate(96.3 11.5) rotate(22.5)" style="fill: #232a3d; font-family: K2D-SemiBold, K2D; font-size: 9px; font-weight: 600;"><tspan x="0" y="0">A</tspan></text>
  <text transform="translate(105.6 15.7) rotate(31)" style="fill: #232a3d; font-family: K2D-SemiBold, K2D; font-size: 9px; font-weight: 600;"><tspan x="0" y="0">L</tspan></text>
  <text transform="translate(113.4 20.7) rotate(39)" style="fill: #232a3d; font-family: K2D-SemiBold, K2D; font-size: 9px; font-weight: 600;"><tspan x="0" y="0">L</tspan></text>
  <text transform="translate(120.5 26.9) rotate(45.8)" style="fill: #232a3d; font-family: K2D-SemiBold, K2D; font-size: 9px; font-weight: 600;"><tspan x="0" y="0"> </tspan></text>
  <text transform="translate(124.9 31.6) rotate(52.9)" style="fill: #232a3d; font-family: K2D-SemiBold, K2D; font-size: 9px; font-weight: 600;"><tspan x="0" y="0">B</tspan></text>
  <text transform="translate(130.5 39.4) rotate(61.3)" style="fill: #232a3d; font-family: K2D-SemiBold, K2D; font-size: 9px; font-weight: 600;"><tspan x="0" y="0">A</tspan></text>
  <text transform="translate(135 48.3) rotate(70)" style="fill: #232a3d; font-family: K2D-SemiBold, K2D; font-size: 9px; font-weight: 600;"><tspan x="0" y="0">C</tspan></text>
  <text transform="translate(138.2 58) rotate(78.7)" style="fill: #232a3d; font-family: K2D-SemiBold, K2D; font-size: 9px; font-weight: 600;"><tspan x="0" y="0">K</tspan></text>
  <text transform="translate(139.8 67.8) rotate(85.8)" style="fill: #232a3d; font-family: K2D-SemiBold, K2D; font-size: 9px; font-weight: 600;"><tspan x="0" y="0"> </tspan></text>
</svg>