<svg width="51" height="53" viewBox="0 0 51 53" fill="none" xmlns="http://www.w3.org/2000/svg">
<path d="M25.5 1.99219C19.5878 7.60669 11.714 10.6861 3.56145 10.5723C2.52441 13.7317 1.99733 17.0361 2.00001 20.3613C2.00001 34.9627 11.9849 47.2297 25.5 50.7103C39.0151 47.2323 49 34.9653 49 20.364C49 16.9434 48.4517 13.6508 47.4386 10.5697H47.0417C38.6966 10.5697 31.1139 7.31102 25.5 1.99219Z" stroke="white" stroke-width="3.91667" stroke-linecap="round" stroke-linejoin="round"/>
<path d="M12.1579 19.9091V16.2346H19.0227V37H14.9209V19.9091H12.1579ZM22.9623 26.3467C22.9623 23.0614 23.551 20.4883 24.7284 18.6273C25.9247 16.7663 27.8997 15.8358 30.6532 15.8358C33.4067 15.8358 35.3722 16.7663 36.5496 18.6273C37.7459 20.4883 38.3441 23.0614 38.3441 26.3467C38.3441 29.6509 37.7459 32.243 36.5496 34.123C35.3722 36.003 33.4067 36.943 30.6532 36.943C27.8997 36.943 25.9247 36.003 24.7284 34.123C23.551 32.243 22.9623 29.6509 22.9623 26.3467ZM34.4132 26.3467C34.4132 24.9414 34.3182 23.764 34.1283 22.8145C33.9574 21.8461 33.5966 21.058 33.0459 20.4503C32.5142 19.8426 31.7166 19.5388 30.6532 19.5388C29.5898 19.5388 28.7827 19.8426 28.232 20.4503C27.7003 21.058 27.3395 21.8461 27.1496 22.8145C26.9787 23.764 26.8932 24.9414 26.8932 26.3467C26.8932 27.7899 26.9787 29.0053 27.1496 29.9927C27.3205 30.9612 27.6813 31.7493 28.232 32.357C28.7827 32.9457 29.5898 33.24 30.6532 33.24C31.7166 33.24 32.5237 32.9457 33.0744 32.357C33.6251 31.7493 33.9859 30.9612 34.1568 29.9927C34.3277 29.0053 34.4132 27.7899 34.4132 26.3467Z" fill="white"/>
</svg>
