<svg width="926" height="432" viewBox="0 0 926 432" fill="none" xmlns="http://www.w3.org/2000/svg">
<path d="M138.808 432C95.4077 432 76.6077 393.1 60.0077 358.8C58.0077 354.6 56.0077 350.6 54.1077 346.7C51.2077 341 48.2077 335.1 45.3077 329.4C23.3077 286.5 0.507743 242.1 0.00774322 193.7C-0.392257 152.1 14.7077 115.6 44.7077 85.2C72.1077 57.5 112.608 34.8 161.708 19.8C203.108 7.1 249.508 0.1 292.308 0C310.008 0 330.008 1.9 343.508 16.1C355.408 28.6 363.108 46 370.608 62.7C372.908 67.8 375.008 72.6 377.308 77.2C397.508 118.9 414.208 153.6 429.808 190.4L431.808 195.1C447.608 232.3 465.608 274.5 466.008 315.8C466.308 338.5 455.208 350.6 430.108 355C420.408 356.7 410.508 358 400.908 359.2C384.308 361.4 367.208 363.6 350.508 368C324.908 374.8 298.808 385.4 273.708 395.6C230.308 413.2 185.508 431.4 139.608 432C139.408 432 139.108 432 138.808 432ZM292.608 1C292.508 1 292.408 1 292.308 1C249.608 1.1 203.308 8.1 162.008 20.7C113.108 35.7 72.8077 58.3 45.4077 85.9C15.6077 116.1 0.607743 152.4 1.00774 193.7C1.40774 241.9 24.2077 286.2 46.2077 329C49.1077 334.7 52.1077 340.5 55.0077 346.3C57.0077 350.2 58.9077 354.2 61.0077 358.4C77.5077 392.5 96.2077 431 138.908 431.1C139.208 431.1 139.508 431.1 139.708 431.1C185.408 430.6 230.208 412.4 273.408 394.8C298.608 384.6 324.608 374 350.308 367.2C367.108 362.8 384.208 360.5 400.808 358.3C410.308 357.1 420.208 355.8 429.908 354.1C454.408 349.8 465.208 338 465.008 315.9C464.508 274.8 446.608 232.7 430.808 195.6L428.808 190.9C413.208 154.2 396.508 119.4 376.308 77.7C374.108 73.1 371.908 68.2 369.608 63.1C362.108 46.4 354.408 29.2 342.708 16.8C329.608 2.9 310.008 1 292.608 1Z" fill="url(#paint0_linear_1330_3913)"/>
<path d="M136.208 413.202C93.9078 413.202 73.0078 368.202 56.1078 332.002L55.0078 329.702C35.2078 287.102 14.0078 237.802 12.7078 191.002C11.7078 155.902 24.1078 124.602 49.6078 97.9018C75.3078 70.9018 114.808 48.6018 164.008 33.3018C203.408 21.0018 248.608 13.5018 288.008 12.7018C330.308 11.8018 345.108 44.4018 360.808 78.9018C361.808 81.1018 362.808 83.3018 363.808 85.5018C370.408 100.002 377.808 114.802 385.508 130.502C413.808 187.902 445.808 253.002 446.808 310.902C447.108 329.802 434.408 340.902 407.808 344.602C399.308 345.802 390.708 346.702 382.308 347.702C365.708 349.502 348.608 351.402 331.908 355.202C305.308 361.302 278.308 371.802 252.308 382.002C214.608 396.802 175.608 412.002 138.208 413.202C137.408 413.202 136.808 413.202 136.208 413.202ZM137.908 412.202C175.108 411.102 214.008 395.802 251.708 381.102C277.808 370.902 304.808 360.302 331.508 354.202C348.308 350.402 365.508 348.502 382.108 346.602C390.408 345.702 399.008 344.702 407.508 343.502C433.408 339.902 445.908 329.202 445.608 310.802C444.608 253.102 412.608 188.102 384.408 130.802C376.708 115.102 369.408 100.302 362.708 85.7018C361.708 83.5018 360.708 81.3018 359.708 79.1018C344.208 44.9018 329.508 12.6018 287.908 13.4018C248.608 14.2018 203.508 21.7018 164.208 34.0018C115.208 49.3018 75.8078 71.5018 50.3078 98.4018C25.0078 125.102 12.7078 156.202 13.7078 191.002C15.0078 237.602 36.2078 286.802 56.0078 329.302L57.1078 331.602C74.0078 368.002 95.2078 413.402 137.908 412.202Z" fill="url(#paint1_linear_1330_3913)"/>
<path d="M131.308 388.8C94.2076 388.8 71.6076 349.3 54.4076 310.4C33.3076 262.6 21.6076 218.8 20.6076 183.9C19.8076 155.9 28.6076 130.5 46.7076 108.3C62.4076 89.0997 85.0076 72.3997 113.908 58.4997C167.608 32.7997 232.808 22.0997 275.908 20.6997C315.108 19.3997 330.208 53.8997 344.808 87.1997L346.308 90.4997C352.308 104.1 358.808 118 365.808 132.6C392.208 188.4 419.508 246.2 420.508 298C420.908 319.4 397.908 326.5 384.108 328.8C373.308 330.6 362.308 331.9 351.708 333.1C338.208 334.6 324.208 336.2 310.508 339C285.208 344.2 259.208 353.5 234.208 362.6C198.708 375.4 165.208 387.5 133.308 388.8C132.708 388.8 132.008 388.8 131.308 388.8ZM278.108 21.5997C277.408 21.5997 276.708 21.5997 276.008 21.5997C233.008 22.9997 168.008 33.6997 114.408 59.2997C85.6076 73.0997 63.1076 89.7997 47.5076 108.8C29.5076 130.8 20.8076 156 21.6076 183.7C22.6076 218.5 34.2076 262.2 55.3076 309.9C72.4076 348.5 94.7076 387.7 131.308 387.7C132.008 387.7 132.708 387.7 133.408 387.7C165.208 386.4 198.608 374.4 234.008 361.6C259.108 352.5 285.108 343.2 310.508 338C324.208 335.2 338.208 333.6 351.808 332.1C362.408 330.9 373.408 329.6 384.108 327.8C397.608 325.5 420.108 318.6 419.608 298C418.508 246.4 391.308 188.8 365.008 133.1C358.108 118.4 351.508 104.6 345.508 90.8997L344.008 87.5997C329.808 55.0997 315.008 21.5997 278.108 21.5997Z" fill="url(#paint2_linear_1330_3913)"/>
<path d="M124.408 359.902C96.5078 359.902 72.9078 336.602 52.4078 288.802C35.8078 250.202 25.7078 208.102 24.7078 173.102C24.0078 147.902 32.1078 125.002 48.8078 104.902C63.2078 87.5018 84.1078 72.3018 110.708 59.6018C160.308 36.0018 219.408 26.1018 258.108 24.8018C295.908 23.5018 312.408 61.7018 325.608 92.3018C330.208 102.902 335.108 113.702 340.208 125.102C362.508 174.402 387.808 230.302 389.208 278.402C390.108 307.802 341.008 313.002 308.608 316.502C300.208 317.402 293.008 318.202 287.608 319.202C265.008 323.502 241.608 331.002 219.008 338.302C186.308 348.802 155.308 358.702 126.408 359.902C125.808 359.902 125.108 359.902 124.408 359.902ZM260.008 25.7018C259.408 25.7018 258.808 25.7018 258.208 25.7018C219.508 27.0018 160.608 36.9018 111.208 60.4018C84.7078 73.0018 64.0078 88.2018 49.7078 105.402C33.1078 125.302 25.1078 148.002 25.8078 173.002C26.8078 207.802 36.9078 249.902 53.4078 288.402C73.8078 335.802 97.1078 358.902 124.508 358.902C125.208 358.902 125.808 358.902 126.508 358.902C155.308 357.702 186.108 347.802 218.808 337.302C241.408 330.002 264.808 322.502 287.508 318.202C292.908 317.202 300.208 316.402 308.608 315.502C340.708 312.102 389.208 306.902 388.308 278.402C386.908 230.502 361.608 174.702 339.408 125.502C334.208 114.102 329.408 103.302 324.808 92.7018C311.808 62.8018 295.808 25.7018 260.008 25.7018Z" fill="url(#paint3_linear_1330_3913)"/>
<path d="M116.108 327.501C103.208 327.501 91.0078 322.201 79.8078 311.601C59.7078 292.601 46.9078 260.801 39.7078 237.401C30.1078 206.201 26.3078 176.601 25.8078 159.401C24.6078 107.001 67.5078 75.3013 103.708 57.9013C148.608 36.3013 201.208 27.2013 235.508 25.8013C272.608 24.3013 290.508 65.8013 301.108 90.6013C303.508 96.2013 306.008 102.001 308.608 107.801C329.008 154.501 352.208 207.501 353.708 253.701C354.608 283.001 308.608 289.301 278.108 293.501C272.108 294.301 266.808 295.001 262.608 295.801C244.008 299.301 224.708 304.601 206.108 309.801C176.308 318.001 145.408 326.501 117.708 327.501C117.208 327.501 116.708 327.501 116.108 327.501ZM237.508 26.8013C236.908 26.8013 236.208 26.8013 235.608 26.8013C203.008 28.1013 149.108 37.2013 104.208 58.8013C68.2078 76.1013 25.6078 107.601 26.9078 159.401C27.3078 176.501 31.1078 205.901 40.7078 237.101C47.8078 260.301 60.5078 292.001 80.5078 310.801C92.0078 321.601 104.508 326.901 117.708 326.401C145.308 325.401 176.108 317.001 205.908 308.701C224.608 303.501 243.908 298.201 262.508 294.701C266.708 293.901 272.008 293.201 278.008 292.401C308.108 288.301 353.608 282.101 352.708 253.701C351.208 207.701 328.108 154.901 307.708 108.201C305.208 102.401 302.708 96.7013 300.208 91.0013C286.808 59.9013 269.808 26.8013 237.508 26.8013Z" fill="url(#paint4_linear_1330_3913)"/>
<path d="M106.508 292.499C93.1075 292.499 80.7075 287.199 69.8075 276.699C38.1075 246.199 25.4075 178.999 24.8075 143.799C24.1075 97.7986 61.6075 69.3986 93.1075 53.6986C133.608 33.5986 181.108 25.5986 209.608 24.7986C224.908 24.3986 238.108 30.8986 249.908 44.7986C260.008 56.6986 267.508 72.2986 273.508 85.9986C290.608 125.299 314.107 178.999 315.307 225.299C316.107 255.299 274.407 262.399 246.807 267.099C243.007 267.799 239.408 268.399 236.308 268.999C223.608 271.499 210.508 274.599 197.808 277.499C167.708 284.499 136.608 291.799 107.808 292.499C107.308 292.499 106.908 292.499 106.508 292.499ZM210.908 25.7986C210.508 25.7986 210.008 25.7986 209.608 25.7986C181.308 26.4986 133.908 34.4986 93.6075 54.5986C62.3075 70.1986 25.1075 98.2986 25.8075 143.699C26.3075 178.699 38.9075 245.599 70.5075 275.899C81.6075 286.499 94.1075 291.799 107.708 291.399C136.308 290.699 167.408 283.399 197.508 276.399C210.208 273.399 223.308 270.399 236.008 267.899C239.108 267.299 242.708 266.699 246.608 265.999C273.908 261.399 315.107 254.299 314.307 225.199C313.007 179.099 289.708 125.499 272.608 86.2986C258.808 54.8986 241.808 25.7986 210.908 25.7986Z" fill="url(#paint5_linear_1330_3913)"/>
<path d="M95.6077 256.1C82.0077 256.1 69.9077 251.1 59.6077 241.2C47.2077 229.3 37.5077 210.6 30.8077 185.7C23.8077 159.7 22.7077 135.9 22.5077 126.8C22.1077 107.3 29.7077 89.4 45.1077 73.7C77.4077 40.6 139.608 22.6 181.608 22.5C181.708 22.5 181.708 22.5 181.808 22.5C213.108 22.5 229.608 49.6 242.808 78.9C270.908 141.4 274.608 174.9 274.908 194.7C275.408 225.2 238.108 233 213.508 238.2C211.808 238.6 210.208 238.9 208.608 239.2C174.208 246.6 135.208 255.1 96.9077 256C96.5077 256.1 96.1077 256.1 95.6077 256.1ZM181.908 23.5C181.808 23.5 181.808 23.5 181.708 23.5C139.808 23.6 78.0077 41.5 45.9077 74.4C30.7077 90 23.2077 107.6 23.6077 126.8C23.8077 135.8 25.0077 159.5 31.9077 185.4C38.5077 210.1 48.1077 228.6 60.4077 240.4C70.8077 250.4 83.1077 255.3 97.0077 255C135.208 254.1 174.208 245.7 208.508 238.3C210.108 238 211.708 237.6 213.408 237.3C237.808 232.2 274.608 224.4 274.008 194.8C273.308 153.7 255.408 109.2 241.908 79.4C228.908 50.4 212.608 23.5 181.908 23.5Z" fill="url(#paint6_linear_1330_3913)"/>
<path d="M85.6079 219.202C72.2079 219.202 60.4079 214.102 50.4079 203.902C40.1079 193.502 31.8079 177.702 26.4079 158.202C22.0079 142.402 19.6079 124.802 19.9079 109.702C20.3079 84.5016 37.8079 60.9016 69.1079 43.1016C94.8079 28.6016 127.808 19.4016 153.208 19.8016C183.608 20.3016 203.108 50.6016 214.208 76.0016C227.608 106.802 233.908 142.102 234.208 163.502C234.308 172.302 231.008 180.202 224.308 187.002C195.408 216.502 111.108 219.102 85.9079 219.202C85.8079 219.202 85.7079 219.202 85.6079 219.202ZM151.408 20.8016C126.408 20.8016 94.4079 29.8016 69.4079 44.0016C38.4079 61.5016 21.1079 84.9016 20.7079 109.702C20.0079 152.202 35.9079 188.002 51.0079 203.202C60.8079 213.102 72.4079 218.202 85.5079 218.202C85.6079 218.202 85.7079 218.202 85.7079 218.202C110.808 218.102 194.808 215.502 223.408 186.302C229.908 179.702 233.108 172.002 233.008 163.502C232.708 142.202 226.408 107.102 213.008 76.4016C202.108 51.3016 182.808 21.3016 152.908 20.8016C152.508 20.8016 152.008 20.8016 151.408 20.8016Z" fill="url(#paint7_linear_1330_3913)"/>
<path d="M76.8078 182.801C76.2078 182.801 75.6078 182.801 75.1078 182.801C63.3078 182.701 52.8078 178.001 43.7078 168.701C25.8078 150.201 17.0078 116.601 17.6078 92.9012C18.1078 73.2012 32.5078 53.9012 58.0078 38.5012C79.4078 25.7012 105.708 17.4012 125.208 17.6012C136.908 17.7012 147.808 22.9012 157.708 33.0012C182.908 58.7012 194.208 107.901 193.908 133.001C193.708 153.001 177.308 167.301 145.408 175.501C120.808 181.701 92.5078 182.801 76.8078 182.801ZM124.708 18.5012C105.508 18.5012 79.5078 26.6012 58.5078 39.3012C43.9078 48.1012 19.2078 66.7012 18.5078 92.8012C17.9078 116.301 26.6078 149.601 44.4078 167.901C53.3078 177.001 63.6078 181.701 75.1078 181.701C90.4078 181.801 119.808 180.901 145.308 174.401C176.708 166.401 192.808 152.401 193.008 132.901C193.308 107.901 182.108 59.1012 157.108 33.6012C147.408 23.7012 136.708 18.6012 125.308 18.5012C125.008 18.5012 124.908 18.5012 124.708 18.5012Z" fill="url(#paint8_linear_1330_3913)"/>
<path d="M67.4076 147.9C66.5076 147.9 65.7076 147.9 65.0076 147.9C55.0076 147.7 45.8076 143.4 37.8076 135C23.1076 119.6 16.0076 94.3001 16.5076 77.2001C17.5076 43.6001 71.9076 16.3001 99.3076 16.6001C109.208 16.7001 118.608 21.3001 127.308 30.3001C145.608 49.3001 156.008 83.1001 155.408 104.7C155.008 121.2 142.808 133.4 119.208 140.8C98.9076 147.2 76.6076 147.9 67.4076 147.9ZM98.9076 17.6001C71.7076 17.6001 18.5076 44.3001 17.5076 77.3001C17.0076 94.2001 24.0076 119.2 38.5076 134.4C46.3076 142.6 55.2076 146.8 65.0076 147C97.8076 147.5 153.608 139.2 154.508 104.8C155.108 83.9001 144.608 49.7001 126.608 31.1001C118.108 22.3001 108.908 17.8001 99.3076 17.7001C99.2076 17.6001 99.1076 17.6001 98.9076 17.6001Z" fill="url(#paint9_linear_1330_3913)"/>
<path d="M56.9079 115.6C56.7079 115.6 56.5079 115.6 56.3079 115.6C47.9079 115.5 39.9079 111.7 33.1079 104.4C22.1079 92.5997 17.0079 74.9997 17.7079 63.6997C18.3079 53.1997 26.4079 41.5997 39.8079 31.8997C52.2079 22.8997 66.4079 17.4997 76.9079 17.8997C101.108 18.6997 120.708 56.7997 120.108 80.1997C119.808 92.2997 111.208 102 95.3079 108.5C82.1079 113.7 66.5079 115.6 56.9079 115.6ZM75.9079 18.6997C54.0079 18.6997 20.0079 42.2997 18.7079 63.6997C18.0079 74.7997 23.0079 92.0997 33.9079 103.7C40.5079 110.8 48.3079 114.5 56.4079 114.6C76.6079 114.8 118.508 106.5 119.208 80.0997C119.508 68.6997 114.808 53.4997 107.208 41.1997C102.208 32.9997 91.5079 19.2997 77.0079 18.7997C76.6079 18.6997 76.3079 18.6997 75.9079 18.6997Z" fill="url(#paint10_linear_1330_3913)"/>
<path d="M50.7076 86.7984C50.3076 86.7984 49.9077 86.7984 49.5077 86.7984C43.2077 86.5984 36.9077 83.3984 31.7077 77.7984C25.3077 70.8984 21.5077 61.0984 21.9077 52.8984C22.7077 36.6984 45.7077 22.0984 59.1077 21.8984C64.9077 21.8984 70.7077 24.5984 75.9077 29.8984C83.8077 37.8984 89.1077 50.5984 88.9077 60.6984C88.7077 66.3984 86.3077 71.4984 81.8077 75.7984C73.7077 83.3984 60.3076 86.7984 50.7076 86.7984ZM59.4077 22.9984C59.3077 22.9984 59.3076 22.9984 59.2076 22.9984C46.1076 23.0984 23.8077 37.2984 23.0077 52.9984C22.6077 60.8984 26.3077 70.3984 32.5077 77.0984C37.5077 82.4984 43.5076 85.5984 49.6076 85.7984C59.0076 86.0984 73.0076 82.8984 81.2076 75.0984C85.5076 70.9984 87.8077 66.1984 88.0077 60.6984C88.3077 50.9984 83.0077 38.3984 75.3077 30.6984C70.3077 25.5984 64.8077 22.9984 59.4077 22.9984Z" fill="url(#paint11_linear_1330_3913)"/>
<path d="M44.4077 62.6011C41.0077 62.6011 37.7077 61.2011 35.1077 58.7011C31.8077 55.5011 29.9077 50.7011 30.0077 45.9011C30.2077 38.9011 37.9077 30.5011 47.5077 30.0011C50.7077 29.9011 54.0077 31.3011 56.9077 34.2011C60.7077 38.0011 63.2077 43.5011 63.1077 48.0011C62.9077 57.0011 53.8077 62.1011 45.0077 62.6011C44.8077 62.6011 44.6077 62.6011 44.4077 62.6011ZM48.0077 31.1011C47.9077 31.1011 47.7077 31.1011 47.6077 31.1011C40.3077 31.4011 31.2077 38.2011 31.1077 46.0011C31.0077 50.5011 32.8077 55.0011 35.9077 58.0011C38.5077 60.5011 41.7077 61.8011 45.1077 61.6011C53.4077 61.2011 62.0077 56.4011 62.2077 48.0011C62.3077 43.8011 60.0077 38.6011 56.3077 35.0011C53.7077 32.4011 50.8077 31.1011 48.0077 31.1011Z" fill="url(#paint12_linear_1330_3913)"/>
<path d="M528 370.854L877.611 271" stroke="url(#paint13_linear_1330_3913)" stroke-width="0.483557" stroke-linecap="round" stroke-linejoin="round"/>
<path d="M541.54 385.362L891.151 285.508" stroke="url(#paint14_linear_1330_3913)" stroke-width="0.483557" stroke-linecap="round" stroke-linejoin="round"/>
<path d="M555.079 403.737L904.691 303.883" stroke="url(#paint15_linear_1330_3913)" stroke-width="0.483557" stroke-linecap="round" stroke-linejoin="round"/>
<path d="M568.619 416.792L918.23 316.938" stroke="url(#paint16_linear_1330_3913)" stroke-width="0.483557" stroke-linecap="round" stroke-linejoin="round"/>
<path d="M925 327.095L575.389 426.949" stroke="url(#paint17_linear_1330_3913)" stroke-width="0.483557" stroke-linecap="round" stroke-linejoin="round"/>
<path d="M911.46 312.587L561.849 412.441" stroke="url(#paint18_linear_1330_3913)" stroke-width="0.483557" stroke-linecap="round" stroke-linejoin="round"/>
<path d="M897.921 294.212L548.309 394.066" stroke="url(#paint19_linear_1330_3913)" stroke-width="0.483557" stroke-linecap="round" stroke-linejoin="round"/>
<path d="M884.381 281.157L534.77 381.012" stroke="url(#paint20_linear_1330_3913)" stroke-width="0.483557" stroke-linecap="round" stroke-linejoin="round"/>
<defs>
<linearGradient id="paint0_linear_1330_3913" x1="233.007" y1="0" x2="233.007" y2="432" gradientUnits="userSpaceOnUse">
<stop stop-color="#FF9494"/>
<stop offset="1" stop-color="#828282"/>
</linearGradient>
<linearGradient id="paint1_linear_1330_3913" x1="229.732" y1="12.6836" x2="229.732" y2="413.202" gradientUnits="userSpaceOnUse">
<stop stop-color="#FF9494"/>
<stop offset="1" stop-color="#828282"/>
</linearGradient>
<linearGradient id="paint2_linear_1330_3913" x1="220.535" y1="20.6641" x2="220.535" y2="388.8" gradientUnits="userSpaceOnUse">
<stop stop-color="#FF9494"/>
<stop offset="1" stop-color="#828282"/>
</linearGradient>
<linearGradient id="paint3_linear_1330_3913" x1="206.943" y1="24.7695" x2="206.943" y2="359.902" gradientUnits="userSpaceOnUse">
<stop stop-color="#FF9494"/>
<stop offset="1" stop-color="#828282"/>
</linearGradient>
<linearGradient id="paint4_linear_1330_3913" x1="189.752" y1="25.7617" x2="189.752" y2="327.501" gradientUnits="userSpaceOnUse">
<stop stop-color="#FF9494"/>
<stop offset="1" stop-color="#828282"/>
</linearGradient>
<linearGradient id="paint5_linear_1330_3913" x1="170.058" y1="24.7812" x2="170.058" y2="292.499" gradientUnits="userSpaceOnUse">
<stop stop-color="#FF9494"/>
<stop offset="1" stop-color="#828282"/>
</linearGradient>
<linearGradient id="paint6_linear_1330_3913" x1="148.703" y1="22.5" x2="148.703" y2="256.1" gradientUnits="userSpaceOnUse">
<stop stop-color="#FF9494"/>
<stop offset="1" stop-color="#828282"/>
</linearGradient>
<linearGradient id="paint7_linear_1330_3913" x1="127.046" y1="19.7891" x2="127.046" y2="219.202" gradientUnits="userSpaceOnUse">
<stop stop-color="#FF9494"/>
<stop offset="1" stop-color="#828282"/>
</linearGradient>
<linearGradient id="paint8_linear_1330_3913" x1="105.746" y1="17.5977" x2="105.746" y2="182.801" gradientUnits="userSpaceOnUse">
<stop stop-color="#FF9494"/>
<stop offset="1" stop-color="#828282"/>
</linearGradient>
<linearGradient id="paint9_linear_1330_3913" x1="85.9576" y1="16.5977" x2="85.9576" y2="147.9" gradientUnits="userSpaceOnUse">
<stop stop-color="#FF9494"/>
<stop offset="1" stop-color="#828282"/>
</linearGradient>
<linearGradient id="paint10_linear_1330_3913" x1="68.8829" y1="17.8789" x2="68.8829" y2="115.6" gradientUnits="userSpaceOnUse">
<stop stop-color="#FF9494"/>
<stop offset="1" stop-color="#828282"/>
</linearGradient>
<linearGradient id="paint11_linear_1330_3913" x1="55.396" y1="21.8984" x2="55.396" y2="86.7984" gradientUnits="userSpaceOnUse">
<stop stop-color="#FF9494"/>
<stop offset="1" stop-color="#828282"/>
</linearGradient>
<linearGradient id="paint12_linear_1330_3913" x1="46.5572" y1="29.9961" x2="46.5572" y2="62.6011" gradientUnits="userSpaceOnUse">
<stop stop-color="#FF9494"/>
<stop offset="1" stop-color="#828282"/>
</linearGradient>
<linearGradient id="paint13_linear_1330_3913" x1="528" y1="320.927" x2="877.611" y2="320.927" gradientUnits="userSpaceOnUse">
<stop stop-color="white"/>
<stop offset="0.514163" stop-color="#FF0000"/>
<stop offset="1" stop-color="#FF9A9A"/>
</linearGradient>
<linearGradient id="paint14_linear_1330_3913" x1="541.54" y1="335.435" x2="891.151" y2="335.435" gradientUnits="userSpaceOnUse">
<stop stop-color="white"/>
<stop offset="0.514163" stop-color="#FF0000"/>
<stop offset="1" stop-color="#FF9A9A"/>
</linearGradient>
<linearGradient id="paint15_linear_1330_3913" x1="555.079" y1="353.81" x2="904.691" y2="353.81" gradientUnits="userSpaceOnUse">
<stop stop-color="white"/>
<stop offset="0.514163" stop-color="#FF0000"/>
<stop offset="1" stop-color="#FF9A9A"/>
</linearGradient>
<linearGradient id="paint16_linear_1330_3913" x1="568.619" y1="366.865" x2="918.23" y2="366.865" gradientUnits="userSpaceOnUse">
<stop stop-color="white"/>
<stop offset="0.514163" stop-color="#FF0000"/>
<stop offset="1" stop-color="#FF9A9A"/>
</linearGradient>
<linearGradient id="paint17_linear_1330_3913" x1="925" y1="377.022" x2="575.389" y2="377.022" gradientUnits="userSpaceOnUse">
<stop stop-color="white"/>
<stop offset="0.514163" stop-color="#FF0000"/>
<stop offset="1" stop-color="#FF9A9A"/>
</linearGradient>
<linearGradient id="paint18_linear_1330_3913" x1="911.46" y1="362.514" x2="561.849" y2="362.514" gradientUnits="userSpaceOnUse">
<stop stop-color="white"/>
<stop offset="0.514163" stop-color="#FF0000"/>
<stop offset="1" stop-color="#FF9A9A"/>
</linearGradient>
<linearGradient id="paint19_linear_1330_3913" x1="897.921" y1="344.139" x2="548.309" y2="344.139" gradientUnits="userSpaceOnUse">
<stop stop-color="white"/>
<stop offset="0.514163" stop-color="#FF0000"/>
<stop offset="1" stop-color="#FF9A9A"/>
</linearGradient>
<linearGradient id="paint20_linear_1330_3913" x1="884.381" y1="331.084" x2="534.77" y2="331.084" gradientUnits="userSpaceOnUse">
<stop stop-color="white"/>
<stop offset="0.514163" stop-color="#FF0000"/>
<stop offset="1" stop-color="#FF9A9A"/>
</linearGradient>
</defs>
</svg>
